<?xml version="1.0" encoding="UTF-8"?>
<svg id="_レイヤー_2" data-name="レイヤー 2" xmlns="http://www.w3.org/2000/svg" viewBox="0 0 36.36 28.28">
  <defs>
    <style>
      .cls-1 {
        fill: none;
        stroke: #fff;
        stroke-miterlimit: 10;
        stroke-width: 3.28px;
      }

      .cls-2 {
        opacity: .8;
      }
    </style>
  </defs>
  <g id="_デザイン" data-name="デザイン">
    <g class="cls-2">
      <path class="cls-1" d="m5.17,26.64c-.82,0-1.62-.28-2.25-.8-.08-.07-.16-.14-.24-.22-.32-.31-.57-.68-.74-1.07-.2-.45-.3-.92-.3-1.39V5.13c0-.23.02-.45.07-.67.11-.57.36-1.09.73-1.53.09-.11.16-.19.24-.27.67-.66,1.55-1.02,2.5-1.02h26.01c.93,0,1.84.37,2.49,1.02.08.08.16.16.23.25.38.46.63.98.74,1.54.04.22.06.45.06.68v18.03c0,.48-.1.94-.29,1.38-.2.44-.44.78-.75,1.08-.08.08-.15.15-.24.21-.64.53-1.44.81-2.26.81H5.17Z"/>
      <path class="cls-1" d="m34.16,3.25l-.56.48-13.87,11.94c-.43.37-.98.57-1.55.57-.57,0-1.12-.2-1.55-.57L2.76,3.73l-.56-.48"/>
      <line class="cls-1" x1="34.34" y1="24.72" x2="21.78" y2="13.91"/>
      <line class="cls-1" x1="2.02" y1="24.72" x2="14.59" y2="13.91"/>
    </g>
  </g>
</svg>