<?xml version="1.0" encoding="UTF-8"?>
<svg id="_レイヤー_2" data-name="レイヤー 2" xmlns="http://www.w3.org/2000/svg" viewBox="0 0 78 76.05">
  <defs>
    <style>
      .cls-1 {
        opacity: .45;
      }

      .cls-1, .cls-2 {
        fill: #2b2b2b;
      }
    </style>
  </defs>
  <g id="_デザイン" data-name="デザイン">
    <g>
      <rect class="cls-1" width="78" height="76.05" rx="12.95" ry="12.95"/>
      <path class="cls-2" d="m37.8,45.64h-12.09l-2.46,7.64c-.07.29-.33.49-.63.47h-6.12c-.35,0-.47-.19-.37-.58l10.46-30.14c.1-.31.21-.67.31-1.07.14-.7.21-1.41.21-2.12-.01-.1.02-.2.09-.27.07-.07.17-.11.27-.09h8.32c.24,0,.38.09.42.26l11.88,33.49c.1.35,0,.52-.31.52h-6.8c-.24.03-.47-.13-.52-.37l-2.67-7.74Zm-10.2-6.59h8.27l-.12-.39h0l-.19-.62h0l-.13-.43h0l-.22-.68h0l-.46-1.43h0l-.4-1.27h0l-1.05-3.31h0c-.27-.85-.52-1.68-.75-2.48l-.19-.67h0l-.22-.8h0l-.34-1.23c-.02-.08-.04-.16-.06-.23h-.05c-.26,1.26-.58,2.5-.96,3.73l-.78,2.5h0l-.43,1.38h0l-.43,1.4c-.08.25-.16.5-.23.75l-.23.73h0l-.23.71h0l-.23.7h0l-.23.68c-.08.22-.15.44-.23.66l-.11.32Zm27.57-14.02c-1.08.04-2.13-.38-2.88-1.15-.75-.81-1.14-1.88-1.1-2.98-.04-1.09.39-2.15,1.18-2.9.75-.72,1.75-1.12,2.79-1.13h.11c1.26,0,2.24.38,2.96,1.13.73.79,1.11,1.83,1.07,2.9.04,1.11-.36,2.18-1.12,2.98-.77.76-1.82,1.18-2.9,1.15h-.11Zm-3.61,28.2v-25.01c0-.31.14-.47.42-.47h6.44c.28,0,.42.16.42.47v25.01c0,.35-.14.52-.42.52h-6.38c-.3,0-.45-.16-.47-.47v-.05Z"/>
    </g>
  </g>
</svg>