<?xml version="1.0" encoding="UTF-8"?>
<svg id="_レイヤー_2" data-name="レイヤー 2" xmlns="http://www.w3.org/2000/svg" viewBox="0 0 33 25.98">
  <defs>
    <style>
      .cls-1 {
        opacity: .7;
      }

      .cls-2 {
        fill: none;
        stroke: #2b2b2b;
        stroke-miterlimit: 10;
        stroke-width: 3px;
      }
    </style>
  </defs>
  <g id="_デザイン" data-name="デザイン">
    <g class="cls-1">
      <path class="cls-2" d="m4.7,24.48c-.75,0-1.47-.26-2.04-.74-.07-.06-.15-.13-.22-.2-.29-.29-.52-.63-.67-.98-.18-.42-.27-.84-.27-1.28V4.7c0-.21.02-.42.06-.61.1-.52.33-1,.66-1.41.08-.1.15-.17.22-.24.6-.61,1.41-.94,2.26-.94h23.59c.85,0,1.67.34,2.26.94.08.08.14.15.21.23.34.42.57.9.67,1.42.04.2.06.41.06.62v16.57c0,.44-.09.87-.26,1.27-.18.4-.4.72-.68,1-.07.07-.14.13-.21.19-.58.48-1.3.75-2.05.75H4.7Z"/>
      <path class="cls-2" d="m31,2.98l-.51.44-12.58,10.97c-.39.34-.89.53-1.41.53-.51,0-1.01-.19-1.41-.53L2.51,3.42l-.51-.44"/>
      <line class="cls-2" x1="31.16" y1="22.71" x2="19.76" y2="12.78"/>
      <line class="cls-2" x1="1.84" y1="22.71" x2="13.24" y2="12.78"/>
    </g>
  </g>
</svg>