<?xml version="1.0" encoding="UTF-8"?>
<svg id="_レイヤー_2" data-name="レイヤー 2" xmlns="http://www.w3.org/2000/svg" viewBox="0 0 78 110.1">
  <defs>
    <style>
      .cls-1 {
        fill: #fff;
      }

      .cls-2 {
        opacity: .45;
      }

      .cls-2, .cls-3 {
        fill: #2b2b2b;
      }

      .cls-4 {
        fill: #ebebeb;
      }
    </style>
  </defs>
  <g id="_デザイン" data-name="デザイン">
    <g>
      <path class="cls-2" d="m78,21.64l-7.11,79.61-31.94,8.86-31.85-8.84L0,21.64h78Z"/>
      <path class="cls-2" d="m39,103.33l25.81-7.16,6.07-68.03h-31.88v75.18h0Z"/>
      <path class="cls-4" d="m25.19,47.68h13.81v-9.76H14.51l.23,2.62,2.4,26.91h21.85v-9.76h-12.92l-.89-10h0Z"/>
      <path class="cls-4" d="m27.39,72.32h-9.8l1.37,15.33,20,5.55h.04v-10.17h-.04s-10.88-2.93-10.88-2.93l-.7-7.79h0Z"/>
      <path class="cls-3" d="m7.26,0h4.96v4.9h4.54V0h4.96v14.85h-4.96v-4.97h-4.54v4.97h-4.96V0h0Z"/>
      <path class="cls-3" d="m28.25,4.92h-4.37V0h13.7v4.92h-4.37v9.92h-4.96V4.92h0Z"/>
      <path class="cls-3" d="m39.75,0h5.17l3.18,5.22,3.18-5.22h5.18v14.85h-4.94v-7.36l-3.41,5.28h-.09l-3.42-5.28v7.36h-4.86V0h0Z"/>
      <path class="cls-3" d="m58.94,0h4.96v9.94h6.98v4.91h-11.94V0h0Z"/>
      <path class="cls-1" d="m38.97,67.44h12.02l-1.13,12.66-10.89,2.94v10.16l20.02-5.55.15-1.65,2.29-25.71.24-2.62h-22.7v9.76h0Z"/>
      <path class="cls-1" d="m38.97,47.65v.02h23.59l.2-2.19.44-4.95.23-2.62h-24.46v9.74h0Z"/>
    </g>
  </g>
</svg>