<?xml version="1.0" encoding="UTF-8"?>
<svg id="_レイヤー_2" data-name="レイヤー 2" xmlns="http://www.w3.org/2000/svg" viewBox="0 0 78 78">
  <defs>
    <style>
      .cls-1 {
        opacity: .45;
      }

      .cls-1, .cls-2 {
        fill: #2b2b2b;
      }
    </style>
  </defs>
  <g id="_デザイン" data-name="デザイン">
    <g>
      <rect id="background" class="cls-1" width="78" height="78"/>
      <path id="j" class="cls-2" d="m20.51,65.18l5.97-3.61c1.15,2.04,2.2,3.77,4.71,3.77s3.93-.94,3.93-4.61v-24.92h7.33v25.03c0,7.59-4.45,11.05-10.94,11.05-5.86,0-9.27-3.04-11-6.7"/>
      <path id="s" class="cls-2" d="m46.43,64.4l5.97-3.46c1.57,2.57,3.61,4.45,7.23,4.45,3.04,0,4.97-1.52,4.97-3.61,0-2.51-1.99-3.4-5.34-4.87l-1.83-.79c-5.29-2.25-8.8-5.08-8.8-11.05,0-5.5,4.19-9.69,10.73-9.69,4.66,0,8.01,1.62,10.42,5.86l-5.71,3.66c-1.26-2.25-2.62-3.14-4.71-3.14s-3.51,1.36-3.51,3.14c0,2.2,1.36,3.09,4.5,4.45l1.83.79c6.23,2.67,9.74,5.39,9.74,11.52,0,6.6-5.18,10.21-12.15,10.21s-11.2-3.25-13.35-7.49"/>
    </g>
  </g>
</svg>