<?xml version="1.0" encoding="UTF-8"?>
<svg id="_レイヤー_2" data-name="レイヤー 2" xmlns="http://www.w3.org/2000/svg" viewBox="0 0 103.6 127.28">
  <defs>
    <style>
      .cls-1 {
        fill: #930c0c;
      }
    </style>
  </defs>
  <g id="_デザイン" data-name="デザイン">
    <g>
      <rect class="cls-1" x="37.32" y="108.9" width="28.96" height="18.38"/>
      <path class="cls-1" d="m36.47,83.29h-1.96c-.06,0-.09.03-.09.09v2.9c0,.06.03.09.09.09h1.96c1.03,0,1.65-.62,1.65-1.54s-.63-1.54-1.65-1.54Z"/>
      <path class="cls-1" d="m94.13,0H9.47C4.24,0,0,4.24,0,9.47v85.22c0,5.23,4.24,9.47,9.47,9.47h84.65c5.23,0,9.47-4.24,9.47-9.47V9.47c0-5.23-4.24-9.47-9.47-9.47ZM14.48,22.1h31.19v10.4H14.48v-10.4Zm23.71,42.89v-5.84h27.22v5.84h-10.69v10.2h-5.83v-10.2h-10.69Zm0-10.69v-5.83h27.22v5.83h-27.22Zm-1.62,33.63h-2.06c-.06,0-.09.03-.09.09v3.53c0,.09-.06.15-.15.15h-1.43c-.09,0-.15-.06-.15-.15v-9.66c0-.09.06-.15.15-.15h3.73c1.93,0,3.28,1.24,3.28,3.09,0,1.86-1.35,3.1-3.28,3.1Zm13.34,1.52c-.51,1.58-1.8,2.4-3.53,2.4s-3-.82-3.51-2.4c-.21-.62-.26-1.17-.26-2.74s.06-2.12.26-2.74c.51-1.58,1.8-2.4,3.51-2.4s3.01.82,3.53,2.4c.2.61.26,1.17.26,2.74s-.06,2.12-.26,2.74Zm6.74,2.4c-1.46,0-2.88-.59-3.66-1.32-.06-.06-.09-.15-.03-.22l.91-1.05c.06-.07.15-.07.2-.02.64.52,1.6,1.06,2.71,1.06,1.19,0,1.87-.6,1.87-1.43,0-.72-.44-1.18-1.81-1.37l-.53-.07c-1.92-.26-3-1.19-3-2.84,0-1.8,1.32-3,3.37-3,1.24,0,2.43.4,3.22.99.07.06.09.12.03.21l-.7,1.08c-.06.07-.13.09-.2.04-.81-.53-1.55-.78-2.39-.78-1.01,0-1.57.56-1.57,1.33,0,.69.48,1.16,1.83,1.35l.53.07c1.92.26,2.97,1.17,2.97,2.88,0,1.77-1.27,3.09-3.75,3.09Zm13.53-8.71c0,.09-.06.15-.15.15h-2.6c-.06,0-.09.03-.09.09v8.17c0,.09-.06.15-.15.15h-1.44c-.09,0-.15-.06-.15-.15v-8.17c0-.06-.03-.09-.09-.09h-2.6c-.09,0-.15-.06-.15-.15v-1.26c0-.09.06-.15.15-.15h7.11c.09,0,.15.06.15.15v1.26Zm18.93-50.64h-31.19v-10.4h31.19v10.4Z"/>
      <path class="cls-1" d="m46.39,83.13c-.98,0-1.57.5-1.84,1.3-.12.37-.18.86-.18,2.28s.06,1.92.18,2.28c.28.81.86,1.3,1.84,1.3s1.58-.5,1.86-1.3c.12-.36.18-.88.18-2.28s-.06-1.92-.18-2.28c-.28-.8-.86-1.3-1.86-1.3Z"/>
    </g>
  </g>
</svg>