<?xml version="1.0" encoding="UTF-8"?>
<svg id="_レイヤー_2" data-name="レイヤー 2" xmlns="http://www.w3.org/2000/svg" viewBox="0 0 78 76.05">
  <defs>
    <style>
      .cls-1 {
        opacity: .45;
      }

      .cls-1, .cls-2 {
        fill: #2b2b2b;
      }
    </style>
  </defs>
  <g id="_デザイン" data-name="デザイン">
    <g>
      <rect class="cls-1" width="78" height="76.05" rx="12.95" ry="12.95"/>
      <path class="cls-2" d="m17.56,53.33V19.9c0-.24.1-.37.31-.37h.33s.57,0,.57,0h0l.79-.02h0l2.64-.06h0l2.83-.05h0c.99-.02,1.98-.03,2.96-.03,2.65,0,4.88.33,6.7.99,1.64.55,3.13,1.47,4.37,2.67,1.05,1.04,1.86,2.3,2.38,3.69.49,1.35.74,2.78.73,4.21,0,2.79-.65,5.09-1.94,6.91-1.26,1.77-3.02,3.12-5.06,3.89l-.17.06c-2.12.79-4.48,1.08-7.06,1.1h-.4s-.59,0-.59,0h-.3s-.33-.01-.33-.01h-.2s-.12-.01-.12-.01h-.3s-.37-.02-.37-.02h-.55s-.08,0-.12,0v10.44c.02.13-.03.26-.12.35-.09.09-.22.14-.35.12h-6.23c-.24,0-.37-.14-.37-.42Zm7.07-27.52v10.91c.45.04.87.05,1.26.05h1.73c1.19,0,2.37-.18,3.51-.53l.23-.07c1.04-.31,1.96-.91,2.67-1.73.66-.77,1-1.84,1.02-3.2v-.15c.03-1.01-.23-2.01-.76-2.88-.55-.84-1.34-1.49-2.28-1.86-1.22-.47-2.52-.7-3.82-.65h-.66s-.42,0-.42,0h-.4s-.56.02-.56.02h-.41s-.21.02-.21.02h-.29s-.24.03-.24.03h-.14s-.12.02-.12.02c-.02,0-.04,0-.05,0h-.05Zm37.76,8.93c-.91-.47-1.88-.82-2.88-1.05l-.23-.05c-1.1-.25-2.23-.39-3.35-.42h-.28c-.66-.02-1.32.06-1.96.23-.41.09-.77.32-1.02.65-.17.27-.26.57-.26.89,0,.31.12.6.31.84.28.33.61.6.99.8l.11.06c.75.4,1.51.76,2.3,1.07,1.76.59,3.43,1.39,5,2.38,1.06.67,1.95,1.6,2.56,2.69.52,1.04.78,2.19.76,3.35.03,1.53-.41,3.04-1.26,4.32-.91,1.3-2.17,2.3-3.64,2.9-1.53.67-3.42,1.02-5.65,1.05h-.23c-1.39.02-2.77-.11-4.13-.36l-.29-.06c-1.15-.21-2.26-.56-3.32-1.05-.22-.11-.36-.33-.37-.58v-5.7c-.01-.11.04-.22.13-.29.09-.05.21-.04.29.03,1.25.74,2.61,1.28,4.03,1.6,1.25.31,2.53.48,3.82.5,1.22,0,2.12-.16,2.69-.47.53-.24.87-.78.86-1.36,0-.45-.26-.89-.78-1.31-.22-.18-.53-.37-.94-.57l-.2-.1h0l-.21-.1s-.07-.03-.11-.05l-.23-.1s-.08-.03-.12-.05l-.25-.1s-.09-.04-.13-.05l-.27-.11s-.09-.04-.14-.05l-.29-.11h0l-.3-.11h0c-1.64-.57-3.2-1.36-4.63-2.35-1.02-.71-1.87-1.65-2.46-2.75-.51-1.03-.77-2.17-.76-3.32,0-1.38.38-2.74,1.1-3.92.82-1.3,2-2.34,3.4-2.98,1.53-.77,3.45-1.15,5.76-1.15,1.35-.01,2.7.09,4.03.29.97.12,1.91.38,2.8.76.14.04.26.15.31.29.04.13.05.26.05.39v5.28c0,.13-.05.24-.16.31-.14.07-.31.07-.45,0Z"/>
    </g>
  </g>
</svg>