<?xml version="1.0" encoding="UTF-8"?>
<svg id="_レイヤー_2" data-name="レイヤー 2" xmlns="http://www.w3.org/2000/svg" viewBox="0 0 596 30">
  <defs>
    <style>
      .cls-1 {
        fill: none;
      }
    </style>
  </defs>
  <g id="_デザイン" data-name="デザイン">
    <g>
      <path d="m4.41,6.37c-.49.36-.89.69-1.33.96-.57.36-.97.37-.88-.5.05-.47-.16-1.15.08-1.38.72-.67,1.51-1.23,2.67-1.18,1.3.06,2.62-.2,3.93-.31.94-.08,1.89-.22,2.83-.19,1.1.04,1.81.76,1.54,1.82-.31,1.26-.83,2.53-1.55,3.6-.97,1.43-2.22,2.66-3.35,3.99-.21.25-.39.53-.75,1.03.96,0,1.67.07,2.36-.02,1.07-.13,1.72.6,2.43,1.12,1.85,1.33,2.2,3.2,1.45,5.32-1.63,4.6-5.15,7.21-9.33,9.18-.43.2-.91.41-1.18-.26-.3-.76-.07-1.25.71-1.55,2.43-.91,4.71-2.09,6.25-4.26.85-1.2,1.48-2.56,2.13-3.89.19-.39.14-.93.07-1.39-.03-.2-.37-.35-.57-.52-.22-.19-.44-.38-.65-.57-.3-.26-.56-.68-.9-.75-1.81-.39-3.47.08-4.87,1.25-.38.32-.67.93-.7,1.43-.09,1.8-.08,3.6-.06,5.4,0,.91-.45,1.51-1.21,1.87-.49.23-.8.12-.77-.59.09-2.05.08-4.09.1-6.14,0-.49-.23-.69-.73-.53-.33.1-.71.26-1,.18-.28-.08-.65-.42-.68-.69-.04-.31.15-.85.4-.97,2.04-1.01,2.35-2.86,2.52-4.84.07-.81.31-1.61.47-2.41.04-.22.17-.48.09-.65-.52-1.16-.07-2.14.51-3.11.05-.08-.01-.23-.03-.45Zm.75,7.74c.14.08.28.17.41.25.27-.38.51-.79.8-1.15,1.18-1.44,2.4-2.85,3.55-4.32.54-.69.99-1.47,1.41-2.24.41-.74.24-1.03-.59-1.14-1.26-.17-2.31.31-3.4.9-1.05.57-1.47,1.32-1.55,2.47-.1,1.28-.43,2.55-.62,3.82-.07.46-.01.93-.01,1.4Z"/>
      <path d="m38.92,27.11c1.32-.18,2.4-.38,3.49-.45,1.48-.11,2.96-.18,4.44-.15.52,0,1.03.35,1.49.52-.6.49-1.09.93-1.63,1.3-.26.18-.64.37-.92.32-1.18-.21-2.28.03-3.45.18-2.37.3-4.79.26-7.19.34-.91.03-1.82.03-2.74,0-.29,0-.58-.17-.86-.26.11-.31.16-.68.36-.92.83-.99,1.83-1.43,3.11-.87.17.07.37.09.55.12,1.67.25,1.75.12,1.87-1.53.11-1.54.39-3.07.57-4.61.16-1.33.01-1.38-1.28-1.19-1.55.23-2.87.94-4.17,1.72-.26.16-.55.28-.82.42-.71-1.35-.41-2.13.91-2.52,1.36-.41,2.72-.81,4.08-1.22.49-.15.88-.34.62-1.01-.32-.84.16-1.4.83-1.78.79-.44,1.23-.16,1.26.74.06,1.79.09,1.83,1.86,1.56,1.03-.16,2.08-.3,3.07-.6.38-.12.85-.61.92-1,.66-3.37,1.34-6.75,1.38-10.21.01-1.23-.03-2.46.04-3.69.08-1.63.73-2.12,2.44-1.94-.72,3.37-.63,6.8-.8,10.21-.02.34-.11.69-.23,1.01-.69,1.85-.94,3.83-1.81,5.66-.44.93-.63,1.69-1.72,1.82-.97.11-1.95.19-2.92.27-1.37.11-1.83.52-2.01,1.9-.24,1.84-.47,3.69-.74,5.83Z"/>
      <path d="m28.71,18.39c-.07-1.19-.13-2.22-.2-3.36-.91-.05-1.84-.02-2.71.57-.54.36-1.29.95-1.76.32-.51-.68.2-1.31.82-1.64.74-.4,1.55-.67,2.34-.96.41-.16.88-.19,1.27-.39.58-.31,1.05-.68,1.05-1.52,0-.7.3-1.4.47-2.1.09-.4.17-.8.26-1.21-.09-.07-.17-.14-.26-.2-1.34.64-2.68,1.28-4.12,1.97-.24-1.08.46-1.6.93-2.15.82-.95,1.92-1.28,3.17-1.48,2.17-.34,4.29-.95,6.44-1.41.58-.13,1.18-.14,1.77-.21.06.13.11.26.17.38-.38.38-.7.93-1.16,1.09-1.4.49-1.75,1.63-1.98,2.87-.09.49-.11.99-.2,1.82,1.09-.45,1.95-.85,2.84-1.18.67-.25,1.36-.51,2.06-.6.61-.08.81-.26.8-.88-.03-1.17-.1-2.36.11-3.5.13-.71.73-1.35,1.17-1.98.06-.09.51-.08.58.02.16.24.29.56.27.84-.08,1.16-.31,2.32-.32,3.49,0,1.54.11,3.09.25,4.63.06.66.05,1.16-.75,1.22-.76.05-1.17-.42-1.19-1.2-.02-.59-.12-1.17-.19-1.75-1.06.59-2,1.14-2.96,1.64-.33.17-.71.3-1.08.35-.99.12-1.32.76-1.4,1.63-.06.66-.06,1.33-.13,1.99-.08.76-.46,1.27-1.46,1.47-.16-1.36-.31-2.63-.45-3.89-2.41.59-2.94,1.28-3.17,3.59-.07.7-.24,1.3-1.29,1.72Zm4.82-10.99c-1.44.29-1.97.78-1.98,1.64,0,.59-.07,1.19-.05,1.78.01.34.14.68.21,1.02.34-.23.9-.4.99-.71.34-1.18.54-2.4.81-3.74Z"/>
    </g>
    <rect class="cls-1" width="596" height="30"/>
  </g>
</svg>