<?xml version="1.0" encoding="UTF-8"?>
<svg id="_レイヤー_2" data-name="レイヤー 2" xmlns="http://www.w3.org/2000/svg" viewBox="0 0 601 30.76">
  <defs>
    <style>
      .cls-1 {
        fill: none;
      }
    </style>
  </defs>
  <g id="_デザイン" data-name="デザイン">
    <g>
      <path d="m19.45,10.22c-2.17,4.16-4.3,8.35-6.53,12.48-.97,1.79-2.14,3.46-3.23,5.18-.43.68-.83,1.39-1.39,1.95-.26.27-.85.22-1.29.31-.08-.43-.38-1-.21-1.27.78-1.26,1.62-2.48,2.56-3.63,2.87-3.5,4.84-7.47,6.29-11.73.22-.66.54-1.28.8-1.93.05-.14.03-.31.07-.9-2.6.15-5.15.12-7.64.49-1.66.25-3.25,1.01-4.83,1.65-1.04.42-1.4,1.16-.84,2.32.5,1.03.75,2.18,1.12,3.28-.13.14-.26.28-.38.42-.48-.31-1.13-.52-1.41-.96-.8-1.24-1.5-2.56-2.13-3.9-.12-.26.11-.94.37-1.07,1.88-.98,3.78-1.94,5.74-2.74.83-.34,1.09-.75.96-1.53-.16-1-.43-2-.48-3.01-.02-.38.43-.79.67-1.18.37.32.74.65,1.1.98.03.03.01.1.02.16.65,3.62.65,3.59,4.24,3.65,2.1.04,4.19.18,6.29.28.04.23.08.46.11.69Z"/>
      <path d="m81.06,15.5c-.92.3-1.69.62-2.5.78-.53.1-1.1-.05-1.65-.09.29-.43.49-.98.89-1.24.61-.4,1.33-.68,2.04-.85,1.21-.29,1.83-.98,1.95-2.21.07-.71.08-1.75,1.18-1.4.32.1.36,1.18.46,1.83.05.3-.05.62-.1,1.15,1.21-.22,2.34-.27,3.34-.66,1.51-.59.95-1.92.8-3.06-.06-.44-.25-.96-.08-1.3.11-.21.89-.34,1.14-.17.31.21.44.75.53,1.18.21.93.36,1.87.54,2.82,1.3-.14,2.43-.26,3.57-.38.1.18.21.37.31.55-.48.36-.91.91-1.44,1.04-2.14.52-2.54,1-3,3.17-.53,2.46-1.2,4.89-1.92,7.29-.22.74-.74,1.44-1.26,2.03-.27.31-.84.35-1.28.51-.04-.55-.33-1.27-.08-1.62,1.81-2.56,2.29-5.56,2.97-8.5.12-.54.02-1.14.02-1.92-1.36.18-2.56.18-3.64.55-.47.16-.87,1.06-.97,1.67-.12.8.09,1.66.16,2.56q-1.49-.4-1.97-3.74Z"/>
      <path d="m299.74,16.86c-.72.1-1.48.2-2.24.3-.11-.17-.22-.34-.33-.52.59-.45,1.12-1.08,1.78-1.29.83-.26,1.33-.48,1.33-1.46,0-.38.48-.77.74-1.15.23.37.52.71.66,1.1.12.34.08.74.13,1.45,1.32-.24,2.62-.37,3.84-.78.32-.11.3-1.1.5-1.67.2-.56.48-1.08.72-1.62.31.58.68,1.14.91,1.75.12.32.02.72.02,1.31,1.97-.2,3.84-.39,5.71-.59.09.2.17.39.26.59-.5.3-.96.72-1.51.88-1.4.4-3.32.25-4.11,1.13-.77.86-.31,2.76-.52,4.18-.47,3.21-1.43,6.27-3.21,9.03-.51.78-1.09,1.32-1.85.79,1.04-2.51,2.22-4.84,2.97-7.3.56-1.86.62-3.89.79-5.85.03-.4-.35-1.12-.7-1.24-2.35-.79-5.01,1.63-4.54,4.05.04.21.26.42.22.59-.11.45-.32.87-.49,1.3-.36-.32-1-.62-1.04-.98-.13-1.26-.05-2.54-.05-4.01Z"/>
      <path d="m114.73,28.22c.26-.95.38-1.97.81-2.84.72-1.45,1.81-2.73,2.42-4.21.79-1.9,1.27-3.94,1.87-5.92.27-.91-.06-1.37-1.03-1.21-1.63.27-3.25.6-4.88.85-.46.07-.94-.02-1.41-.04.24-.43.39-1.15.73-1.25,1.73-.51,3.5-1.07,5.28-1.19,1.58-.1,1.69-.81,1.42-1.96-.27-1.13-.65-2.22-.99-3.34q1.4-.32,2.95,4.48c.91-.29,1.83-.56,2.74-.88.59-.2,1.15-.58,1.76-.66.31-.04.84.31.97.62.09.2-.26.81-.54.94-.91.4-1.87.88-2.83.94-1.67.1-2.38.87-2.8,2.45-.95,3.59-1.99,7.17-3.25,10.66-.41,1.13-1.6,1.99-2.43,2.97-.26-.14-.53-.27-.79-.41Z"/>
      <path d="m188.58,12.09c-.52-.1-1.07-.3-1.63-.29-1.49.03-3.01.02-4.46.31-.66.13-1.39.83-1.73,1.46-.71,1.3-1.18,2.74-1.83,4.32-.2.01-.65.04-1.2.07-.02-.36-.13-.65-.04-.86.97-2.21,1.91-4.43,2.99-6.58.38-.74,1.01-1.34,2.06-.44.51.44,1.49.4,2.26.44,1.44.08,2.91-.08,4.33.13,1.67.25,1.82,1,1.04,2.48-.84,1.6-1.49,3.3-2.18,4.98-1.53,3.71-3.02,7.43-4.55,11.14-.16.39-.38.81-.69,1.08-.27.23-.71.24-1.08.35-.07-.38-.3-.83-.17-1.13.59-1.32,1.38-2.56,1.92-3.9,1.17-2.93,2.24-5.9,3.33-8.86.55-1.5,1.04-3.02,1.61-4.69Z"/>
      <path d="m257.37,16.02c.14-.69.14-1.45.45-2.04.47-.89,1.13-1.69,1.76-2.48.17-.22.53-.4.8-.41,3.1-.06,6.2-.11,9.31-.09.51,0,1.15.29,1.47.67.15.18-.27.9-.49,1.34-1.47,2.98-2.93,5.97-4.43,8.93-1.11,2.2-2.27,4.37-3.41,6.55-.07.14-.11.35-.23.42-.51.31-1.04.57-1.56.85.04-.57-.09-1.23.15-1.71,1.73-3.39,3.62-6.69,5.28-10.11.81-1.67,1.21-3.53,1.89-5.58-4.1-.04-8.18-.82-10.26,4.21-.24-.18-.49-.37-.73-.55Z"/>
      <path d="m72.86,15.71c-.26,1.46-1.63,2.31-3.35,2.2q-2.58-.17-2.77,2.31c-.21,2.73-1.78,4.78-3.46,6.74-.75.87-1.47.71-1.95-.44,2.46-1.99,3.62-4.63,3.9-8.09-1.56.3-2.95.53-4.33.84-1.31.29-2.58.74-3.9.97-.45.08-.97-.32-1.47-.5.3-.36.54-.97.9-1.05,5.07-1.09,10.15-2.12,15.23-3.13.37-.07.8.1,1.2.15Z"/>
      <path d="m208.13,17.84c-4.11.53-7.83,1.63-11.52,2.89-.46.16-1.05-.08-1.58-.13.32-.47.55-1.24.98-1.37,3.47-1.06,6.96-2.07,10.48-2.93.88-.22,1.91.06,2.85.26,1.03.22,1.47.92.87,1.92-2.07,3.47-4.14,6.94-6.29,10.36-.24.38-.99.44-1.5.65.13-.58.12-1.24.42-1.72,1.51-2.44,3.15-4.81,4.64-7.27.4-.66.4-1.56.66-2.65Z"/>
      <path d="m103.29,15.24c-2.3,1.35-3.07,4.15-5.35,5.3-.18-.12-.36-.24-.54-.36.31-.72.46-1.59.96-2.15,2.64-2.96,5.35-5.85,8.09-8.72.37-.38,1.04-.47,1.57-.69.14.2.28.4.42.61-.93.98-1.93,1.91-2.76,2.98-.4.51-.78,1.39-.61,1.92.89,2.8.2,5.52-.13,8.26-.11.89-.08,1.83-.36,2.66-.18.53-.81.92-1.24,1.37-.27-.42-.81-.87-.76-1.24.28-1.99.77-3.94,1.06-5.93.19-1.3.65-2.7-.35-4.01Z"/>
      <path d="m333.63,17.85c1.16-1.48,2.35-2.26,3.99-2.2.16,0,.32,0,.48-.02,2.89-.24,2.91-.29,2.79-3.12-.03-.68.05-1.39.22-2.04.06-.24.56-.36.86-.54.14.29.4.58.41.88.05,1.26.02,2.53.02,4.01,1.74-.14,3.15-.25,4.61-.37.15,1.09-.17,1.68-1.22,1.69-.64,0-1.32-.15-1.92,0-.45.11-1.15.6-1.15.9.07,3.43-1.9,6.22-2.87,9.31-.11.36-.98.49-1.5.72-.04-.47-.24-1-.1-1.4.87-2.34,1.96-4.61,2.71-6.98.6-1.91.16-2.21-1.71-1.72-1.54.4-3.09.76-4.65,1.1-.22.05-.48-.1-.97-.22Z"/>
      <path d="m275.04,19.34c1.09-.36,2.15-.82,3.27-1.05,3.85-.8,7.71-1.52,11.57-2.25.46-.09.98-.12,1.43,0,.52.13.98.45,1.47.69-.49.3-.95.77-1.48.87-1.52.28-3.09.32-4.6.64-.41.09-.98.82-.98,1.26-.02,3.58-1.91,6.39-3.68,9.24-.34.55-1.14.81-1.72,1.2l-.49-.38c.27-.61.4-1.36.84-1.8,2.13-2.1,2.79-4.85,3.49-7.58.27-1.05-.13-1.57-1.26-1.29-2.07.51-4.13,1.07-6.22,1.51-.5.11-1.08-.15-1.62-.24,0-.26-.01-.53-.02-.79Z"/>
      <path d="m46.34,14.24c-3.42.77-6.5,1.45-9.58,2.14-.1-.08-.2-.16-.3-.24.55-.49,1.04-1.26,1.68-1.42,2.87-.71,5.78-1.3,8.69-1.83,1.25-.23,1.81.3,1.31,1.68-1.22,3.36-2.17,6.83-3.62,10.09-.62,1.39-2.15,2.41-3.38,3.47-.26.22-1-.11-1.52-.19.27-.43.43-1.08.81-1.25,2.54-1.14,3.26-3.63,4.21-5.82.82-1.9,1.07-4.05,1.71-6.63Z"/>
      <path d="m226.42,13.31c-3.35-.09-5.95,1.04-8.77,1.79.03-1.35.86-1.85,1.95-2.06,2.21-.43,4.42-.89,6.64-1.17.71-.09,1.48.34,2.22.54-.27.65-.45,1.35-.82,1.93-1.16,1.87-2.28,3.78-3.61,5.52-2.08,2.71-4.3,5.32-6.52,7.92-.25.29-.9.23-1.37.33.09-.47.03-1.07.31-1.39,1.63-1.92,3.47-3.66,4.97-5.67,1.72-2.31,3.14-4.83,5-7.73Z"/>
      <path d="m24.48,24.55c1.61-.27,3.22-.55,4.84-.82.04.15.08.3.11.46-1.71,1.46-3.87,2.01-5.89,2.89-1.95.85-2.82-.58-4.29-1.43,2.83-.3,4.26-1.44,3.04-4.47-.55.09-1.25.28-1.96.29-.36,0-.72-.29-1.08-.46.24-.37.42-.98.74-1.06,2.17-.55,4.37-1.05,6.58-1.43.49-.08,1.07.4,1.61.61-.44.32-.85.8-1.34.93-2.49.69-3.02,1.58-2.35,4.48Z"/>
      <path d="m375.02,19.32c-1.1,1.21-1.97,1.63-3.43,1.52-2.26-.18-4.57.07-6.84.32-2.55.28-5.06.79-7.6,1.13-.34.05-.75-.32-1.12-.5.32-.28.59-.72.96-.82,4.97-1.36,10-2.25,15.2-1.69.41.04.84-.16,1.27-.16.41,0,.82.1,1.57.21Z"/>
      <path d="m227.89,24.17c.14-.61.08-1.42.46-1.78,2.05-1.94,4.19-3.8,6.35-5.62.3-.25.87-.19,1.32-.28.07.15.14.3.21.45-.86.75-1.71,1.5-2.37,2.08.08,2.8.18,5.43.19,8.06,0,.24-.5.48-.92.85-1.5-2.38-.05-4.95-1.03-7.67-1.34,1.38-2.56,2.63-3.78,3.88-.14.01-.29.02-.43.04Z"/>
      <path d="m317.18,22.66c.26-.56.4-1.22.78-1.67,2.15-2.47,4.39-4.85,6.53-7.32.83-.95,1.4-2.12,2.22-3.08.37-.44,1.05-.63,1.59-.93-.02.55.14,1.2-.1,1.63-.55.97-1.25,1.88-1.97,2.74-2.43,2.9-4.89,5.79-7.38,8.63-.27.3-.88.3-1.33.44-.11-.14-.23-.29-.34-.43Z"/>
      <path d="m147.53,19.78c-.43.23-.83.59-1.29.66-3.94.63-7.89,1.24-11.85,1.77-.36.05-.79-.46-1.19-.7.29-.35.53-.95.87-1.01,3.26-.59,6.53-1.08,9.8-1.61.74-.12,1.48-.36,2.21-.32.51.03,1,.45,1.5.7-.02.17-.04.34-.06.51Z"/>
      <path d="m324.48,25.85c.14-1.85.32-3.71.4-5.57.05-1-.13-2.01-.1-3.01.01-.44.29-.87.44-1.31.39.33,1.1.64,1.11.98.1,2.06.04,4.12.02,6.19-.01,1.23.03,2.47-.14,3.67-.08.54-.62,1-.95,1.5-.2-.49-.43-.98-.57-1.49-.08-.3-.02-.64-.02-.96-.07,0-.13,0-.2-.01Z"/>
      <path d="m60.31,13.22c-.26-.91.01-1.7,1.15-1.87,2.16-.32,4.32-.58,6.5-.73.44-.03.92.59,1.37.91-.42.21-.83.54-1.28.61-2.5.38-5.01.71-7.75,1.08Z"/>
      <path d="m246.35,26.07c.07-.64-.04-1.38.25-1.91,1.34-2.47,2.78-4.88,4.23-7.29.17-.29.61-.41.93-.61.17.38.55.82.46,1.12-.3,1.02-.63,2.08-1.21,2.95-1.31,1.97-2.78,3.85-4.18,5.76-.16,0-.32-.02-.48-.02Z"/>
      <path d="m288.13,11.88c-2.84.39-5.63.78-8.42,1.17-.09-.12-.18-.24-.26-.36.74-.53,1.42-1.36,2.24-1.53,4.66-.99,5.24-.87,6.44.72Z"/>
      <path d="m206.61,12.54c-2.08.11-3.78.25-5.48.26-.52,0-1.04-.37-1.57-.57.48-.35.92-.91,1.45-1,1.3-.22,2.64-.31,3.97-.29,1.19.02,1.81.66,1.63,1.6Z"/>
      <path d="m93.35,3.23c0,1.28.04,2.56-.03,3.83-.02.33-.4.64-.62.96-.28-.28-.75-.53-.79-.85-.23-1.51-.41-3.04-.45-4.57,0-.27.85-.86,1.12-.76.45.16.76.75,1.12,1.16-.12.08-.24.15-.36.23Z"/>
      <path d="m194.05,8.13c-.5-2.19-.26-4.39.16-6.57.05-.24.55-.55.81-.53.27.03.74.46.71.66-.3,2.17-.68,4.32-1.03,6.48-.22-.01-.43-.03-.65-.04Z"/>
      <path d="m96.18,6.96c-.15-.37-.45-.74-.44-1.11.04-1.65.12-3.3.3-4.94.04-.33.54-.61.82-.91.26.29.76.6.73.86-.22,2.03-.54,4.04-.83,6.06-.2.02-.39.03-.59.05Z"/>
      <path d="m55.09,2.88c-.65,1.76-.06,3.79-1.06,5.47-.22-.01-.44-.03-.67-.04-.11-1.66-.3-3.33-.25-4.99,0-.31.99-.59,1.52-.89.15.15.3.3.45.45Z"/>
      <path d="m75.7,7.4c-.34-1.76-.68-3.35-.94-4.95-.04-.24.17-.7.37-.77.3-.11.77-.07,1.03.1,1.04.68.8,4.78-.46,5.62Z"/>
      <path d="m71.95,7.76c-.88-.77-1.5-3.22-1-4.19.12-.23.48-.48.71-.47.32.02.89.27.9.43.06,1.4.01,2.81,0,4.22-.2,0-.41,0-.61,0Z"/>
      <path d="m240.87,20.45c0-.88-.07-1.33.02-1.73.06-.25.34-.61.56-.63.25-.03.76.23.78.41.13,1.33.16,2.66.22,3.99-.41-.04-1.12.02-1.18-.14-.26-.74-.33-1.54-.4-1.89Z"/>
      <path d="m290.13,5.84c.06-.33.1-1.09.38-1.77.13-.31.72-.42,1.1-.62.09.36.28.72.25,1.07-.05.79-.14,1.59-.33,2.35-.13.5-.46.94-.71,1.4-.23-.46-.49-.91-.68-1.38-.08-.18-.01-.42-.01-1.06Z"/>
      <path d="m294.68,8.13c-1.29-2.18-.15-5.49,1.63-5.41-.55,1.84-1.09,3.62-1.63,5.41Z"/>
      <path d="m246.77,21.55c-1.08.03-1.76-.2-1.69-1.4.04-.75-.08-1.5,0-2.24.03-.26.44-.62.72-.67.2-.03.66.36.69.6.15,1.2.2,2.42.29,3.71Z"/>
      <path d="m190.09,9.25c-.79-1.51-.35-3.06.09-4.57.07-.23.58-.39.91-.45.12-.02.48.38.45.53-.29,1.52-.63,3.03-.96,4.54-.16-.02-.33-.04-.49-.05Z"/>
      <path d="m49.76,8.95c-.76-.73-1.22-3.45-.72-3.77.32-.21.91-.19,1.31-.06.24.08.53.59.48.85-.1.5-.45.95-.64,1.44-.17.43-.25.89-.43,1.54Z"/>
      <path d="m314.76,9.57c-.67-1.07-.68-2.28-.46-3.51.04-.2.47-.47.71-.47.25,0,.7.32.7.48-.03,1.16-.16,2.32-.25,3.48-.23,0-.46,0-.69,0Z"/>
      <path d="m311.41,9.92c-.23-.68-.51-1.34-.64-2.04-.03-.2.39-.64.65-.69.24-.04.77.31.77.49,0,.74-.16,1.48-.26,2.21-.17,0-.35.01-.52.02Z"/>
      <path d="m162.61,21.4c-.81.44-1.23.84-1.66.85-.28,0-.58-.54-.87-.84.4-.24.77-.6,1.2-.68.28-.05.63.3,1.33.67Z"/>
    </g>
    <rect class="cls-1" y=".76" width="601" height="30"/>
  </g>
</svg>