<?xml version="1.0" encoding="UTF-8"?>
<svg id="_レイヤー_2" data-name="レイヤー 2" xmlns="http://www.w3.org/2000/svg" viewBox="0 0 250 20">
  <defs>
    <style>
      .cls-1 {
        fill: none;
      }
    </style>
  </defs>
  <g id="_デザイン" data-name="デザイン">
    <g>
      <path d="m33.61,6.34c-1.19,2.28-2.35,4.56-3.57,6.82-.53.98-1.17,1.89-1.77,2.83-.24.37-.46.76-.76,1.07-.14.15-.46.12-.7.17-.04-.24-.21-.54-.11-.69.42-.69.89-1.36,1.4-1.98,1.57-1.91,2.65-4.08,3.44-6.41.12-.36.3-.7.44-1.05.03-.08.02-.17.04-.49-1.42.08-2.81.07-4.18.27-.91.14-1.78.55-2.64.9-.57.23-.76.63-.46,1.27.27.56.41,1.19.61,1.79-.07.08-.14.15-.21.23-.26-.17-.62-.29-.77-.53-.44-.68-.82-1.4-1.16-2.13-.07-.14.06-.51.2-.59,1.03-.53,2.06-1.06,3.14-1.5.45-.18.59-.41.53-.83-.09-.55-.23-1.09-.26-1.64-.01-.21.24-.43.37-.65.2.18.4.35.6.53.02.01,0,.06.01.09.35,1.98.35,1.96,2.32,2,1.15.02,2.29.1,3.44.15.02.13.04.25.06.38Z"/>
      <path d="m67.28,9.23c-.5.16-.92.34-1.37.43-.29.06-.6-.03-.9-.05.16-.23.27-.54.48-.68.33-.22.73-.37,1.12-.47.66-.16,1-.53,1.07-1.21.04-.39.05-.96.65-.77.17.05.19.65.25,1,.03.16-.03.34-.06.63.66-.12,1.28-.15,1.83-.36.83-.32.52-1.05.44-1.67-.03-.24-.14-.53-.05-.71.06-.12.49-.19.62-.09.17.11.24.41.29.64.12.51.2,1.02.29,1.54.71-.07,1.33-.14,1.95-.21.06.1.11.2.17.3-.26.2-.5.5-.79.57-1.17.28-1.39.55-1.64,1.73-.29,1.34-.65,2.67-1.05,3.99-.12.41-.4.79-.69,1.11-.15.17-.46.19-.7.28-.02-.3-.18-.7-.04-.89.99-1.4,1.25-3.04,1.62-4.65.07-.3,0-.62,0-1.05-.74.1-1.4.1-1.99.3-.26.09-.48.58-.53.91-.07.44.05.91.09,1.4q-.82-.22-1.08-2.05Z"/>
      <path d="m186.81,9.97c-.39.05-.81.11-1.22.16-.06-.09-.12-.19-.18-.28.32-.24.61-.59.97-.7.45-.14.72-.26.73-.8,0-.21.26-.42.4-.63.12.2.28.39.36.6.07.19.04.4.07.79.72-.13,1.43-.2,2.1-.43.17-.06.16-.6.27-.91.11-.3.26-.59.39-.89.17.32.37.62.5.96.07.17.01.4.01.71,1.07-.11,2.1-.22,3.12-.32.05.11.09.22.14.32-.27.16-.53.4-.82.48-.77.22-1.82.13-2.25.62-.42.47-.17,1.51-.28,2.28-.26,1.76-.78,3.43-1.76,4.93-.28.43-.59.72-1.01.43.57-1.37,1.22-2.64,1.62-3.99.31-1.02.34-2.13.43-3.2.02-.22-.19-.61-.38-.68-1.28-.43-2.74.89-2.48,2.21.02.11.14.23.12.32-.06.24-.17.48-.27.71-.2-.18-.55-.34-.57-.53-.07-.69-.03-1.39-.03-2.19Z"/>
      <path d="m85.68,16.18c.14-.52.21-1.08.44-1.55.39-.79.99-1.49,1.32-2.3.43-1.04.7-2.15,1.02-3.23.15-.49-.03-.75-.56-.66-.89.15-1.78.33-2.67.47-.25.04-.51-.01-.77-.02.13-.24.21-.63.4-.68.95-.28,1.91-.59,2.88-.65.86-.05.93-.45.77-1.07-.15-.62-.36-1.22-.54-1.82q.77-.17,1.62,2.45c.5-.16,1-.31,1.5-.48.32-.11.63-.31.96-.36.17-.02.46.17.53.34.05.11-.14.44-.3.51-.5.22-1.02.48-1.55.51-.91.06-1.3.47-1.53,1.34-.52,1.96-1.09,3.92-1.78,5.83-.22.62-.88,1.09-1.33,1.62-.14-.07-.29-.15-.43-.22Z"/>
      <path d="m126.05,7.37c-.28-.05-.59-.16-.89-.16-.81.02-1.64,0-2.44.17-.36.07-.76.45-.94.8-.39.71-.64,1.49-1,2.36-.11,0-.36.02-.66.04-.01-.2-.07-.36-.02-.47.53-1.21,1.04-2.42,1.64-3.6.21-.41.55-.73,1.13-.24.28.24.81.22,1.24.24.79.04,1.59-.04,2.37.07.91.13,1,.55.57,1.35-.46.87-.82,1.8-1.19,2.72-.83,2.03-1.65,4.06-2.48,6.09-.09.21-.21.44-.38.59-.15.12-.39.13-.59.19-.04-.21-.16-.46-.09-.62.32-.72.76-1.4,1.05-2.13.64-1.6,1.23-3.22,1.82-4.84.3-.82.57-1.65.88-2.56Z"/>
      <path d="m163.65,9.52c.08-.38.08-.79.25-1.12.25-.49.62-.92.96-1.36.09-.12.29-.22.44-.22,1.7-.03,3.39-.06,5.09-.05.28,0,.63.16.8.37.08.1-.15.49-.27.73-.8,1.63-1.6,3.26-2.42,4.88-.61,1.2-1.24,2.39-1.86,3.58-.04.08-.06.19-.13.23-.28.17-.57.31-.85.47.02-.31-.05-.67.08-.93.94-1.85,1.98-3.66,2.88-5.53.44-.91.66-1.93,1.04-3.05-2.24-.02-4.47-.45-5.61,2.3-.13-.1-.27-.2-.4-.3Z"/>
      <path d="m62.8,9.35c-.14.8-.89,1.26-1.83,1.2q-1.41-.09-1.52,1.26c-.11,1.49-.97,2.61-1.89,3.68-.41.48-.8.39-1.07-.24,1.35-1.09,1.98-2.53,2.13-4.42-.85.16-1.61.29-2.37.46-.71.16-1.41.41-2.13.53-.24.04-.53-.18-.8-.27.16-.2.3-.53.49-.57,2.77-.6,5.55-1.16,8.32-1.71.2-.04.44.05.66.08Z"/>
      <path d="m136.74,10.51c-2.24.29-4.28.89-6.3,1.58-.25.09-.57-.04-.86-.07.18-.26.3-.68.53-.75,1.9-.58,3.8-1.13,5.73-1.6.48-.12,1.05.03,1.56.14.56.12.8.5.48,1.05-1.13,1.9-2.26,3.79-3.44,5.66-.13.21-.54.24-.82.35.07-.32.07-.68.23-.94.83-1.33,1.72-2.63,2.53-3.97.22-.36.22-.85.36-1.45Z"/>
      <path d="m79.44,9.08c-1.26.74-1.68,2.27-2.92,2.9-.1-.07-.2-.13-.29-.2.17-.4.25-.87.52-1.17,1.44-1.62,2.93-3.2,4.42-4.76.2-.21.57-.26.86-.38.08.11.15.22.23.33-.51.54-1.06,1.05-1.51,1.63-.22.28-.43.76-.34,1.05.49,1.53.11,3.02-.07,4.52-.06.49-.04,1-.2,1.45-.1.29-.44.5-.68.75-.15-.23-.44-.48-.41-.68.15-1.09.42-2.15.58-3.24.1-.71.36-1.47-.19-2.19Z"/>
      <path d="m205.33,10.51c.63-.81,1.28-1.24,2.18-1.2.09,0,.18,0,.26-.01,1.58-.13,1.59-.16,1.52-1.7-.02-.37.03-.76.12-1.12.04-.13.31-.2.47-.29.08.16.22.32.22.48.03.69.01,1.38.01,2.19.95-.08,1.72-.14,2.52-.2.08.6-.09.92-.67.93-.35,0-.72-.08-1.05,0-.24.06-.63.33-.63.49.04,1.87-1.04,3.4-1.57,5.09-.06.2-.54.27-.82.39-.02-.26-.13-.55-.05-.77.48-1.28,1.07-2.52,1.48-3.82.33-1.04.09-1.21-.94-.94-.84.22-1.69.41-2.54.6-.12.03-.26-.06-.53-.12Z"/>
      <path d="m173.31,11.33c.59-.2,1.18-.45,1.78-.58,2.1-.44,4.21-.83,6.32-1.23.25-.05.54-.06.78,0,.28.07.54.25.8.37-.27.16-.52.42-.81.47-.83.15-1.69.17-2.52.35-.23.05-.54.45-.54.69-.01,1.95-1.04,3.49-2.01,5.05-.19.3-.62.44-.94.66l-.27-.21c.15-.33.22-.75.46-.98,1.16-1.15,1.52-2.65,1.91-4.15.15-.58-.07-.86-.69-.7-1.13.28-2.26.58-3.4.83-.27.06-.59-.08-.88-.13,0-.14,0-.29,0-.43Z"/>
      <path d="m48.31,8.54c-1.87.42-3.55.79-5.23,1.17-.06-.04-.11-.09-.17-.13.3-.27.57-.69.92-.77,1.57-.39,3.16-.71,4.75-1,.68-.12.99.16.72.92-.67,1.84-1.19,3.74-1.98,5.52-.34.76-1.18,1.32-1.85,1.89-.14.12-.55-.06-.83-.1.15-.23.24-.59.44-.68,1.39-.62,1.78-1.99,2.3-3.18.45-1.04.59-2.21.93-3.63Z"/>
      <path d="m146.73,8.03c-1.83-.05-3.25.57-4.79.98.02-.74.47-1.01,1.07-1.13,1.21-.23,2.41-.49,3.63-.64.39-.05.81.19,1.21.29-.15.35-.25.74-.45,1.06-.63,1.02-1.25,2.06-1.97,3.01-1.14,1.48-2.35,2.91-3.56,4.33-.13.16-.49.12-.75.18.05-.26.02-.59.17-.76.89-1.05,1.9-2,2.71-3.1.94-1.26,1.72-2.64,2.73-4.22Z"/>
      <path d="m36.36,14.17c.88-.15,1.76-.3,2.65-.45.02.08.04.17.06.25-.93.8-2.12,1.1-3.22,1.58-1.06.47-1.54-.31-2.35-.78,1.55-.16,2.33-.79,1.66-2.44-.3.05-.68.15-1.07.16-.19,0-.39-.16-.59-.25.13-.2.23-.53.4-.58,1.19-.3,2.39-.58,3.59-.78.27-.05.58.22.88.34-.24.17-.46.43-.73.51-1.36.37-1.65.87-1.28,2.45Z"/>
      <path d="m227.95,11.31c-.6.66-1.08.89-1.87.83-1.23-.1-2.5.04-3.74.17-1.39.15-2.77.43-4.16.62-.19.03-.41-.18-.61-.27.17-.15.32-.39.53-.45,2.72-.75,5.47-1.23,8.31-.92.22.02.46-.09.69-.09.22,0,.45.06.86.11Z"/>
      <path d="m147.53,13.97c.08-.33.05-.78.25-.97,1.12-1.06,2.29-2.07,3.47-3.07.16-.14.48-.1.72-.15.04.08.08.16.12.25-.47.41-.94.82-1.29,1.14.04,1.53.1,2.97.11,4.4,0,.13-.27.26-.5.46-.82-1.3-.03-2.7-.56-4.19-.73.75-1.4,1.44-2.07,2.12-.08,0-.16.01-.24.02Z"/>
      <path d="m196.34,13.14c.14-.31.22-.67.43-.91,1.17-1.35,2.4-2.65,3.57-4,.45-.52.77-1.16,1.21-1.68.2-.24.57-.34.87-.51-.01.3.08.66-.06.89-.3.53-.68,1.02-1.08,1.5-1.33,1.59-2.67,3.16-4.04,4.72-.14.17-.48.16-.73.24-.06-.08-.12-.16-.19-.24Z"/>
      <path d="m103.61,11.57c-.23.12-.46.32-.7.36-2.16.35-4.31.68-6.48.97-.2.03-.43-.25-.65-.38.16-.19.29-.52.48-.55,1.78-.32,3.57-.59,5.36-.88.4-.06.81-.2,1.21-.17.28.02.55.25.82.38-.01.09-.02.19-.03.28Z"/>
      <path d="m200.33,14.89c.08-1.01.17-2.03.22-3.04.02-.55-.07-1.1-.05-1.65,0-.24.16-.48.24-.71.21.18.6.35.61.53.05,1.12.02,2.25.01,3.38,0,.67.01,1.35-.08,2.01-.04.29-.34.55-.52.82-.11-.27-.24-.53-.31-.81-.05-.16,0-.35,0-.52-.04,0-.07,0-.11,0Z"/>
      <path d="m55.94,7.98c-.14-.5,0-.93.63-1.02,1.18-.18,2.36-.32,3.55-.4.24-.02.5.32.75.49-.23.12-.45.3-.7.33-1.37.21-2.74.39-4.23.59Z"/>
      <path d="m157.62,15.01c.04-.35-.02-.76.14-1.04.73-1.35,1.52-2.67,2.31-3.98.09-.16.34-.22.51-.33.09.21.3.45.25.61-.17.56-.34,1.13-.66,1.61-.72,1.08-1.52,2.1-2.28,3.15-.09,0-.18,0-.26-.01Z"/>
      <path d="m180.46,7.25c-1.55.21-3.08.43-4.6.64-.05-.07-.1-.13-.14-.2.41-.29.78-.74,1.23-.84,2.55-.54,2.86-.48,3.52.4Z"/>
      <path d="m135.91,7.61c-1.14.06-2.06.14-2.99.14-.28,0-.57-.2-.86-.31.26-.19.5-.5.79-.55.71-.12,1.44-.17,2.17-.16.65,0,.99.36.89.87Z"/>
      <path d="m74,2.52c0,.7.02,1.4-.02,2.09-.01.18-.22.35-.34.53-.15-.15-.41-.29-.43-.46-.13-.83-.22-1.66-.24-2.5,0-.15.47-.47.61-.42.25.09.41.41.61.64-.07.04-.13.08-.2.12Z"/>
      <path d="m129.04,5.2c-.27-1.2-.14-2.4.09-3.59.02-.13.3-.3.44-.29.15.01.4.25.39.36-.16,1.18-.37,2.36-.56,3.54-.12,0-.24-.02-.35-.02Z"/>
      <path d="m75.55,4.56c-.08-.2-.24-.41-.24-.61.02-.9.07-1.8.16-2.7.02-.18.29-.33.45-.5.14.16.42.33.4.47-.12,1.11-.29,2.21-.45,3.31-.11,0-.21.02-.32.03Z"/>
      <path d="m53.09,2.33c-.36.96-.03,2.07-.58,2.99-.12,0-.24-.01-.36-.02-.06-.91-.16-1.82-.14-2.73,0-.17.54-.32.83-.48.08.08.16.16.25.24Z"/>
      <path d="m64.36,4.8c-.19-.96-.37-1.83-.51-2.71-.02-.13.09-.38.2-.42.17-.06.42-.04.56.05.57.37.44,2.61-.25,3.07Z"/>
      <path d="m62.31,5c-.48-.42-.82-1.76-.55-2.29.07-.13.26-.26.39-.25.17,0,.49.14.49.24.03.77,0,1.54,0,2.31-.11,0-.22,0-.33,0Z"/>
      <path d="m154.63,11.93c0-.48-.04-.73.01-.95.03-.14.19-.33.3-.35.14-.01.42.13.42.22.07.72.09,1.45.12,2.18-.22-.02-.61.01-.65-.08-.14-.4-.18-.84-.22-1.03Z"/>
      <path d="m181.55,3.95c.03-.18.06-.6.21-.97.07-.17.39-.23.6-.34.05.2.15.4.14.59-.03.43-.07.87-.18,1.29-.07.27-.25.51-.39.77-.13-.25-.27-.5-.37-.75-.04-.1,0-.23,0-.58Z"/>
      <path d="m184.04,5.2c-.7-1.19-.08-3,.89-2.96-.3,1.01-.6,1.98-.89,2.96Z"/>
      <path d="m157.85,12.54c-.59.01-.96-.11-.92-.76.02-.41-.05-.82,0-1.23.02-.14.24-.34.39-.36.11-.02.36.19.38.33.08.66.11,1.32.16,2.03Z"/>
      <path d="m126.87,5.81c-.43-.83-.19-1.67.05-2.5.04-.13.32-.22.5-.25.07-.01.26.21.25.29-.16.83-.35,1.66-.53,2.48-.09,0-.18-.02-.27-.03Z"/>
      <path d="m50.18,5.65c-.42-.4-.67-1.88-.4-2.06.18-.12.5-.1.72-.03.13.04.29.32.26.46-.05.27-.24.52-.35.79-.09.23-.14.49-.23.84Z"/>
      <path d="m195.01,5.99c-.37-.58-.37-1.25-.25-1.92.02-.11.25-.26.39-.25.14,0,.38.17.38.26-.02.63-.09,1.27-.14,1.9-.13,0-.25,0-.38,0Z"/>
      <path d="m193.18,6.18c-.12-.37-.28-.73-.35-1.11-.02-.11.21-.35.35-.38.13-.02.42.17.42.27,0,.4-.09.81-.14,1.21-.1,0-.19,0-.29.01Z"/>
      <path d="m111.86,12.46c-.44.24-.67.46-.91.47-.16,0-.32-.3-.48-.46.22-.13.42-.33.65-.37.15-.03.35.16.73.37Z"/>
    </g>
    <rect class="cls-1" width="250" height="20"/>
  </g>
</svg>