<?xml version="1.0" encoding="UTF-8"?>
<svg id="_レイヤー_2" data-name="レイヤー 2" xmlns="http://www.w3.org/2000/svg" viewBox="0 0 600 34.11">
  <defs>
    <style>
      .cls-1 {
        fill: none;
      }
    </style>
  </defs>
  <g id="_デザイン" data-name="デザイン">
    <g>
      <path d="m49.71,27.96c.04-.45.06-.91.14-1.35.28-1.52.3-3.04.16-4.58-.12-1.24,0-2.51.03-3.77,0-.12.09-.24.12-.36.1-.41.24-.82.29-1.23.13-1.02.23-2.04.32-3.06.04-.46.05-.92.02-1.38-.07-1.21-.14-2.42-.25-3.63-.03-.37-.19-.73-.25-1.1-.05-.31.1-.41.42-.41.33,0,.66-.1.98-.17,1.43-.3,2.86-.62,4.3-.9.34-.07.71-.04,1.05.03.6.12,1.2.31,1.79.48.8.22,1.59.47,2.4.67,1.02.25,1.68.97,2.29,1.72.42.51.69,1.15,1,1.75.08.15.08.35.08.53.01.35.03.7-.01,1.04-.03.23-.16.44-.24.67-.37,1.13-1.1,2.02-2.03,2.7-1.26.93-2.56,1.81-3.92,2.59-1.21.69-2.52,1.2-3.76,1.83-.98.5-1.96,1.01-2.88,1.61-.28.18-.44.68-.49,1.06-.1.73-.07,1.48-.11,2.22,0,.15-.08.3-.09.45-.05.48-.15.97-.12,1.45.02.36-.02.6-.35.76-.26.13-.51.29-.76.43-.05-.02-.09-.03-.14-.05Zm1.31-7.17c.14,0,.2,0,.24-.02.97-.5,1.93-1,2.89-1.5.17-.09.34-.2.52-.28,1.12-.52,2.25-1.03,3.37-1.57.44-.21.84-.53,1.28-.75,1.43-.71,2.65-1.65,3.55-2.99.48-.72.59-1.56.61-2.37.02-.96-.63-1.65-1.3-2.27-.72-.66-1.63-.98-2.53-1.3-.56-.2-1.14-.39-1.72-.52-.8-.18-1.59-.52-2.45-.3-.99.25-2.02.29-2.99.7-.69.29-.97.69-.78,1.43.1.39.12.8.14,1.2.02.46-.07.94,0,1.39.22,1.47-.2,2.89-.22,4.34,0,.53-.14,1.05-.27,1.58-.25,1.02-.23,2.11-.32,3.23Z"/>
      <path d="m123.77,26.5c.14-.07.28-.17.43-.21.4-.1.48-.36.39-.71-.22-.84-.45-1.68-.67-2.52-.16-.6-.32-1.2-.5-1.79-.03-.11-.09-.28-.18-.31-.4-.12-.8-.27-1.21-.29-.52-.02-1.04.06-1.56.15-.43.07-.84.28-1.26.3-1.08.07-2.17.07-3.25.11-.49.02-.99.08-1.48.07-.18,0-.36-.13-.55-.2.08-.18.12-.4.25-.52.56-.49,1.25-.43,1.89-.29,1.23.27,2.45.17,3.66-.07.88-.18,1.75-.42,2.62-.65.09-.02.22-.21.2-.27-.29-.86-.59-1.73-.92-2.57-.31-.77-.7-1.51-.99-2.28-.41-1.07-.78-2.17-1.15-3.26-.06-.16-.04-.35-.12-.49-.08-.15-.22-.32-.37-.36-.1-.03-.3.13-.37.26-.33.56-.63,1.12-.93,1.7-.78,1.5-1.56,3-2.33,4.51-.17.33-.27.7-.44,1.04-.66,1.39-1.34,2.77-2.01,4.15-.13.27-.29.52-.42.78-.47.92-.93,1.84-1.4,2.76-.06.12-.12.26-.21.36-.15.19-.21.35-.02.56.06.07.08.26.03.34-.27.48-.53.97-.86,1.41-.1.13-.45.2-.62.13-.26-.09-.19-.35-.08-.58.12-.25.24-.51.3-.78.33-1.28.99-2.42,1.58-3.59.43-.85.84-1.71,1.25-2.58.33-.7.57-1.43,1.03-2.07.39-.54.59-1.22.91-1.81.77-1.46,1.56-2.91,2.35-4.36.07-.13.19-.3.16-.42-.1-.45.18-.75.37-1.09.33-.57.68-1.13,1.03-1.69.16-.25.31-.51.51-.72.21-.23.52-.26.69.02.28.46.48.98.73,1.46.69,1.35,1.11,2.8,1.58,4.23.22.68.56,1.32.83,1.99.25.62.48,1.26.72,1.88.17.45.33.9.51,1.34.39.95.82,1.89,1.16,2.85.2.57.27,1.18.39,1.78.13.62.25,1.25.37,1.87.02.12.02.26-.03.36-.16.29-1.01.58-1.32.46-.24-.09-.47-.19-.71-.29v-.12Z"/>
      <path d="m103.35,27.65c-.06-.19-.13-.39-.18-.59-.17-.58-.31-1.16-.5-1.73-.13-.4-.38-.76-.49-1.16-.22-.79-.86-1.27-1.27-1.93-.07-.12-.14-.24-.2-.36-.29-.58-.51-1.21-.89-1.72-.54-.72-1.19-1.35-1.81-2.01-.18-.19-.36-.33-.04-.62-.06-.02-.11-.04-.17-.06-.76.68-1.53,1.35-2.27,2.04-.32.3-.59.67-.91.98-.35.34-.65.7-.76,1.19-.03.13-.11.31-.21.35-.52.21-.7.68-.82,1.12-.18.66-.27,1.35-.31,2.03-.03.41.15.84.12,1.25-.02.23-.22.51-.42.66-.18.13-.47.12-.71.14-.03,0-.12-.18-.12-.28.02-.73.03-1.46.09-2.19.06-.71.18-1.41.27-2.11.14-.99.3-1.98.42-2.98.09-.69.11-1.38.2-2.06.1-.72.26-1.44.37-2.16.18-1.2.36-2.4.52-3.6.12-.88.2-1.76.29-2.64.03-.34.25-.43.53-.41.33.03.35.28.33.54-.13,1.53-.23,3.06-.4,4.58-.13,1.11-.37,2.22-.53,3.33-.15,1.02-.25,2.04-.36,3.06-.01.1.03.21.06.39.31-.28.57-.51.82-.74.74-.69,1.47-1.4,2.23-2.07,1.02-.89,2.05-1.77,3.1-2.62.75-.62,1.55-1.18,2.31-1.78.59-.48,1.15-1.01,1.74-1.48.81-.65,1.63-1.3,2.5-1.88.29-.19.63-.54,1.07-.29.18.11.32.28.48.43-.17.16-.31.44-.5.47-1.57.24-2.46,1.5-3.62,2.35-1.06.78-2.08,1.62-3.12,2.45-.62.5-1.23,1.02-1.84,1.53.49.51.9,1,1.38,1.41.8.69,1.17,1.65,1.72,2.5.36.55.77,1.07,1.12,1.63.24.38.43.79.63,1.19.36.75.69,1.51,1.08,2.25.31.6.16,1.17-.45,1.47-.11.06-.23.11-.34.17-.01,0-.03,0-.13,0Z"/>
      <path d="m4.39,7.76c.38-.22.75-.21,1.09.02.97.68,1.97,1.33,2.87,2.09,1.11.94,2.13,1.98,3.18,2.98,1.24,1.18,2.46,2.36,3.7,3.54.41.39.84.76,1.28,1.11.1.07.37.06.46-.02.7-.6,1.37-1.22,2.05-1.85,1.04-.96,2.09-1.9,3.1-2.89.64-.63,1.32-1.28,1.78-2.04.93-1.55,2.31-2.69,3.45-4.04.27-.31.89-.2,1.02.19.04.12-.03.39-.13.43-.81.35-1.25,1.1-1.82,1.69-.71.74-1.35,1.55-1.96,2.38-1.14,1.53-2.54,2.79-3.97,4.04-.72.63-1.34,1.38-2.01,2.07-.13.13-.25.3-.41.36-.48.2-.58.58-.6,1.03-.02.52-.03,1.04-.06,1.57-.05.88-.14,1.77-.17,2.65-.01.5.08,1,.11,1.51,0,.12-.04.25-.05.37-.03.53-.03,1.06-.09,1.59-.05.45-.19.9-.27,1.35-.07.38-.11.77-.2,1.14-.04.16-.15.34-.28.43-.18.12-.41.19-.63.25-.27.07-.48-.03-.44-.33.04-.33.15-.65.23-.97.11-.42.29-.83.31-1.25.06-1.31.04-2.62.1-3.93.05-1.11.14-2.23.24-3.34.07-.77-.26-1.35-.78-1.86-.4-.39-.79-.8-1.19-1.18-.66-.63-1.34-1.24-2.01-1.87-.85-.8-1.69-1.61-2.53-2.42-.66-.64-1.26-1.35-1.97-1.91-.93-.73-1.92-1.39-2.94-2-.38-.23-.44-.49-.49-.85Z"/>
      <path d="m35.5,28.2c-.36-.1-.78-.12-1.07-.33-.32-.24-.52-.64-.78-.97-.18-.23-.35-.48-.57-.66-.46-.37-.75-.78-.81-1.41-.06-.62-.32-1.23-.42-1.85-.19-1.11-.32-2.23-.48-3.34-.23-1.6.3-3.13.43-4.7.03-.39.02-.8.11-1.18.09-.38.24-.76.45-1.09.07-.11.47-.13.6-.03.16.13.3.43.28.63-.09.78-.34,1.53-.52,2.29-.24,1.06-.2,2.18-.27,3.27-.02.35.02.7.01,1.05-.02,1.35.25,2.64.71,3.89.08.21.06.45.13.66.33,1.02,1,1.81,1.73,2.56.22.22.46.27.77.2.83-.18,1.58-.51,2.19-1.12.16-.16.31-.34.49-.46.74-.47.89-1.26,1.12-2.01.05-.16.09-.33.17-.47.59-1.01,1.09-2.09,1.15-3.24.08-1.51.83-2.76,1.3-4.12.08-.24.3-.51.24-.7-.09-.31-.29-.67-.56-.83-.32-.19-.33-.32-.15-.58.38-.54.74-.68,1.34-.54.37.09.53.28.49.69-.11,1.34-.49,2.61-1.09,3.8-.38.75-.31,1.57-.47,2.35-.13.61-.27,1.24-.53,1.81-.42.96-.87,1.89-1.1,2.93-.09.41-.38.8-.65,1.14-.26.33-.61.58-.92.88-.71.67-2.43,1.41-3.36,1.48Z"/>
      <path d="m80.83,9.72c-.32.32-.62.69-.99.95-.33.23-.74.34-1.12.48-.22.08-.47.2-.58-.17-.01-.05-.17-.09-.25-.08-.53.05-1.05.15-1.58-.07-.11-.05-.37.11-.47.24-.11.14-.17.37-.17.56.02.82.09,1.63.12,2.45.02.47.07.95,0,1.41-.18,1.18-.33,2.38-.65,3.53-.22.77-.18,1.53-.26,2.3-.15,1.46-.21,2.93-.59,4.35-.01.04-.03.08-.03.12-.18.84.03,1.18.88,1.16.61-.01,1.22-.16,1.82-.27.38-.08.75-.26,1.13-.31.21-.03.46.1.65.22.18.11.12.24-.07.34-.18.09-.34.23-.51.35-.07.05-.13.11-.21.13-.6.12-1.2.27-1.81.32-.76.06-1.52.04-2.28.05-.96.01-1.92.01-2.87.05-.23,0-.45.16-.68.22-.14.04-.34.1-.43.04-.09-.07-.1-.28-.08-.42.06-.56.31-.81.85-.84.51-.03,1.02-.05,1.52-.02.44.03.72-.17.85-.55.17-.5.31-1.02.41-1.54.11-.62.19-1.25.25-1.88.07-.7.08-1.41.15-2.1.06-.54.18-1.08.28-1.62.04-.22.09-.43.12-.65.07-.41.08-.85.22-1.24.35-1,.32-2.03.31-3.05-.01-1.06-.1-2.11-.15-3.21-.25.05-.51.12-.78.15-.56.06-1.13.06-1.69.16-.49.09-.98.26-1.44.45-.4.16-.61.05-.78-.3-.34-.69-.27-.83.51-.93.48-.06.96-.08,1.44-.12,1.18-.11,2.36-.22,3.54-.33.22-.02.46-.04.68,0,1.39.24,2.68-.12,3.98-.53.2-.06.45.01.68.02.03.06.05.12.08.17Z"/>
      <path d="m61.16,26.72s-.07.11-.14.16c-.07.05-.16.05-.24.08-.77.28-.77.28-.92-.53-.08-.44-.13-.89-.21-1.34-.2-1-.75-1.84-1.29-2.68-.06-.09-.14-.19-.17-.29-.18-.85-.73-1.48-1.21-2.15-.13-.18-.24-.6-.17-.65.23-.18.55-.25.84-.32.04,0,.15.2.19.33.03.08-.02.23.03.27.69.62,1.07,1.44,1.45,2.26.53,1.14,1.04,2.28,1.51,3.45.17.42.21.9.32,1.42Z"/>
    </g>
    <text/>
    <rect class="cls-1" x="0" y=".11" width="600" height="34"/>
  </g>
</svg>