<?xml version="1.0" encoding="UTF-8"?>
<svg id="_レイヤー_2" data-name="レイヤー 2" xmlns="http://www.w3.org/2000/svg" viewBox="0 0 250 20">
  <defs>
    <style>
      .cls-1 {
        fill: none;
      }
    </style>
  </defs>
  <g id="_デザイン" data-name="デザイン">
    <g>
      <path d="m103.64,6.83c.19.37.43.62.42.87-.05,1.28-.13,2.56-.27,3.83-.07.56-.34,1.1-.48,1.66-.17.69.01.84.7.86,1.35.02,2.51-.6,3.72-1.05.1-.04.19-.31.17-.44-.14-.74-.09-1.45.08-2.2.18-.79.15-1.64.11-2.47-.07-1.42-.21-2.84-.32-4.25-.01-.14.03-.27.04-.42.84.31,1.1.7,1.12,1.51.02.92.12,1.85.11,2.77-.01,1.45-.07,2.89-.15,4.33-.05.89.01.91.86.72.82-.19,1.67-.22,2.5-.34.53-.08,1.06-.19,1.58-.3.7-.15.8-.36.72-1.07-.15-1.26-.43-2.54.05-3.79.63.03.89.31.86.86-.09,1.87.16,3.67.83,5.44.27.73.32,1.58.29,2.36,0,.25-.58.51-.94.67-.08.04-.41-.32-.51-.55-.09-.21.02-.49-.03-.73-.11-.61-.22-1.23-.41-1.83-.04-.12-.43-.19-.66-.18-2.41.05-4.75.45-7.02,1.27-1.01.36-2.08.54-3.11.85-.38.11-.74.33-1.06.58-.33.26-.67.37-.92.06-.23-.28-.73-.64-.15-1.08.08-.06.17-.15.19-.24.4-1.64.98-3.24.93-4.98-.02-.87.04-1.78.75-2.73Z"/>
      <path d="m142.38,3.43c-.19,1.74-.39,3.47-.55,5.21-.03.33.11.69.24,1,.13.3.08.48-.2.59-.38.14-.77.32-1.17.38-1.51.24-3.02.43-4.53.65-.45.06-.64-.12-.64-.58,0-1.9-.04-3.79-.04-5.69,0-.77.53-1.27,1.02-1.76.04-.04.11-.06.17-.07,1.73-.15,3.46-.32,5.2-.44.6-.04.79.22.67.73-.05,0-.11-.01-.16-.02Zm-5.76,3.45c-.01.31-.03.46-.02.6.01,1.04.22,1.19,1.23.88.28-.09.55-.16.83-.23.62-.15,1.24-.28,1.86-.45.55-.15.53-.58.41-1-.11-.38-.41-.64-.8-.44-.97.49-2,.4-3.02.43-.19,0-.37.16-.49.22Zm4.15-3.24c-1.09.2-2.16.4-3.23.59-.55.1-.79.47-.93.96-.11.39-.03.61.44.53,1.09-.19,2.18-.37,3.27-.57.22-.04.49-.11.61-.26.16-.2.24-.5.26-.77,0-.13-.23-.27-.42-.48Zm-3.92,6.09c.09.08.13.15.17.15,1.13,0,2.27,0,3.4-.06.15,0,.29-.32.44-.48-.18-.16-.36-.44-.55-.45-1.22-.07-2.32.36-3.45.85Z"/>
      <path d="m128.64,11.62c-.07.72-.17,1.44-.21,2.16-.02.4-.17.52-.56.56-.99.1-1.97.27-2.96.39-.65.08-1.34.01-1.96.19-.77.21-1.59.12-2.32.55-.35.2-.76.13-.79-.42-.08-1.39-.17-2.79-.21-4.18-.03-.93.01-1.85,0-2.78,0-.5.19-.71.72-.64,1.12.15,2.23.06,3.27-.45.11-.05.23-.11.35-.11,1.24.02,2.48,0,3.71.09,1.01.08,1.43.69,1.35,1.7-.08.99-.19,1.97-.29,2.96-.03,0-.07,0-.1-.01Zm-6.97,2.07c.44.05.79.14,1.12.11,1.14-.1,2.28-.28,3.43-.36.88-.07,1.04-.1,1.2-.96.22-1.18.37-2.37.48-3.56.08-.79-.16-.98-.94-1.01-.62-.02-1.24-.08-1.85-.1-.25-.01-.5-.03-.74.02-1.11.23-2.22.48-3.32.75-.16.04-.4.22-.42.35-.05.57-.06,1.14-.04,1.71.05,1.11.14,2.21.23,3.32.02.19.15.38.28.7.26-.46.44-.77.55-.95Z"/>
      <path d="m132.13,8.15c.12.16.29.31.36.49.43,1.02.72,2.06.58,3.19-.07.58.2.81.81.82,1.52.03,2.97-.29,4.44-.66,1.02-.25,2.1-.24,3.16-.35.35-.04.69-.07,1.04-.11.56-.06,1.12-.15,1.68-.18.17,0,.48.13.49.22.01.2-.08.45-.21.59-.12.13-.36.19-.55.21-1.25.11-2.5.2-3.75.3-.49.04-.81.29-.92.78-.26,1.2-.39,2.4-.19,3.63.04.23-.19.67-.4.75-.32.12-.56-.13-.56-.53,0-1-.03-2.01,0-3.01,0-.25.18-.5.25-.75.05-.18.06-.38.09-.57-.2,0-.4-.03-.59.01-.82.18-1.63.41-2.46.58-.82.17-1.65.3-2.48.42-.22.03-.46.01-.68-.02-.55-.08-.72-.35-.33-.72.69-.66.38-1.39.22-2.06-.23-.98-.32-1.94,0-3.02Z"/>
      <path d="m134.94,15.25c-.52,1.12-.83,2.32-1.82,3.14-.31.26-.6.57-.89.85-.25.25-.57.41-.77.05-.12-.22-.11-.7.05-.85.89-.87,1.61-1.85,2.24-2.91.15-.25.38-.47.62-.65.1-.08.33-.07.45,0,.08.04.08.25.11.38Z"/>
      <path d="m143.11,15.08c.43.31.81.58,1.18.86.81.59,1.63,1.18,2.43,1.8.13.1.24.45.18.52-.21.21-.43.6-.81.29-1.11-.87-2.21-1.76-3.3-2.66-.15-.12-.19-.37-.28-.56.19-.08.38-.15.61-.24Z"/>
    </g>
    <rect class="cls-1" width="250" height="20"/>
  </g>
</svg>