<?xml version="1.0" encoding="UTF-8"?>
<svg id="_レイヤー_2" data-name="レイヤー 2" xmlns="http://www.w3.org/2000/svg" viewBox="0 0 597 33">
  <defs>
    <style>
      .cls-1 {
        fill: none;
      }
    </style>
  </defs>
  <g id="_デザイン" data-name="デザイン">
    <g>
      <path d="m6.6,12.05c.29.6.67,1.01.65,1.39-.1,2.04-.25,4.08-.51,6.11-.11.9-.57,1.75-.8,2.64-.28,1.09,0,1.35,1.1,1.38,2.15.06,4.02-.9,5.96-1.6.16-.06.31-.48.27-.7-.2-1.19-.11-2.31.18-3.5.3-1.26.27-2.62.22-3.93-.08-2.27-.28-4.53-.42-6.8-.01-.22.05-.44.07-.67,1.33.52,1.74,1.15,1.75,2.43.01,1.48.16,2.95.13,4.43-.05,2.31-.17,4.61-.32,6.91-.09,1.42,0,1.45,1.36,1.16,1.31-.28,2.67-.31,4-.49.85-.11,1.69-.27,2.53-.44,1.13-.22,1.29-.56,1.17-1.69-.21-2.02-.63-4.06.15-6.05,1.01.06,1.41.52,1.36,1.39-.18,2.98.19,5.87,1.22,8.7.42,1.17.47,2.52.41,3.78-.02.39-.94.81-1.52,1.05-.13.06-.65-.53-.81-.89-.14-.33.04-.78-.03-1.16-.16-.98-.33-1.97-.62-2.92-.06-.2-.69-.31-1.05-.31-3.84.04-7.59.62-11.23,1.89-1.61.56-3.33.82-4.98,1.29-.6.17-1.19.52-1.7.91-.53.4-1.07.58-1.48.07-.36-.45-1.16-1.03-.22-1.73.13-.09.27-.23.31-.37.66-2.61,1.62-5.16,1.58-7.93-.02-1.39.1-2.84,1.25-4.35Z"/>
      <path d="m68.48,7.37c-.33,2.77-.7,5.53-.98,8.31-.05.52.16,1.1.37,1.6.2.48.12.77-.33.93-.62.22-1.24.49-1.88.59-2.41.35-4.83.63-7.24.94-.71.09-1.02-.2-1.01-.94.03-3.03,0-6.06.04-9.09.01-1.23.87-2.01,1.66-2.8.06-.06.18-.1.27-.1,2.77-.21,5.53-.44,8.3-.6.96-.05,1.25.36,1.05,1.18-.09-.01-.17-.02-.26-.03Zm-9.25,5.39c-.03.5-.05.73-.05.96,0,1.66.34,1.91,1.94,1.43.44-.13.89-.25,1.34-.35.99-.23,1.99-.43,2.98-.68.87-.23.86-.92.68-1.59-.17-.61-.64-1.03-1.27-.72-1.56.77-3.2.6-4.83.62-.3,0-.59.25-.78.34Zm6.69-5.09c-1.74.3-3.45.59-5.16.88-.87.14-1.27.73-1.5,1.51-.18.62-.06.98.69.86,1.74-.28,3.49-.54,5.23-.85.35-.06.79-.17.98-.41.26-.32.4-.8.42-1.22.01-.21-.36-.43-.67-.77Zm-6.38,9.65c.13.13.2.25.27.25,1.81,0,3.62.03,5.43-.04.24,0,.47-.5.71-.77-.29-.26-.57-.71-.87-.73-1.94-.14-3.71.52-5.52,1.29Z"/>
      <path d="m46.4,20.18c-.13,1.15-.3,2.29-.38,3.44-.04.64-.28.83-.9.88-1.58.14-3.15.4-4.73.57-1.04.11-2.14,0-3.13.26-1.23.32-2.54.16-3.71.83-.56.32-1.22.2-1.26-.68-.1-2.23-.21-4.45-.26-6.68-.03-1.48.05-2.96.06-4.44,0-.8.31-1.14,1.16-1.01,1.79.26,3.55.14,5.22-.65.18-.08.37-.18.56-.17,1.98.05,3.96.04,5.93.22,1.61.15,2.28,1.12,2.12,2.74-.15,1.57-.35,3.14-.52,4.72-.05,0-.11-.01-.16-.02Zm-11.16,3.17c.7.08,1.25.23,1.79.19,1.83-.14,3.65-.4,5.48-.51,1.41-.09,1.67-.13,1.94-1.51.37-1.87.63-3.77.84-5.67.14-1.26-.23-1.57-1.48-1.64-.99-.05-1.97-.14-2.96-.2-.39-.02-.8-.06-1.18.01-1.78.35-3.55.73-5.31,1.14-.26.06-.65.34-.67.55-.1.9-.13,1.82-.09,2.72.07,1.77.17,3.53.3,5.3.02.31.23.61.44,1.13.43-.72.72-1.22.9-1.51Z"/>
      <path d="m52.03,14.71c.19.26.45.49.57.78.66,1.63,1.1,3.3.87,5.1-.12.92.31,1.3,1.27,1.33,2.42.08,4.75-.4,7.09-.96,1.63-.39,3.36-.35,5.05-.5.55-.05,1.11-.1,1.66-.15.9-.09,1.79-.22,2.69-.25.27-.01.76.22.77.36.02.31-.13.71-.35.94-.2.2-.58.3-.89.32-1.99.15-3.99.27-5.99.4-.78.05-1.31.45-1.48,1.22-.43,1.91-.67,3.82-.37,5.78.06.37-.32,1.07-.65,1.19-.51.19-.89-.22-.88-.86.02-1.6-.01-3.21.04-4.81.01-.4.29-.79.41-1.19.09-.29.11-.61.16-.91-.32,0-.64-.06-.94,0-1.31.28-2.61.63-3.93.88-1.31.25-2.64.44-3.97.62-.35.05-.73.01-1.08-.04-.88-.14-1.14-.58-.52-1.16,1.11-1.05.63-2.2.39-3.29-.35-1.57-.47-3.1.07-4.82Z"/>
      <path d="m56.38,26.09c-.85,1.78-1.37,3.69-2.97,4.98-.51.41-.96.89-1.43,1.35-.4.39-.92.64-1.22.06-.19-.36-.16-1.12.1-1.36,1.44-1.37,2.61-2.92,3.64-4.6.24-.4.62-.74,1-1.02.16-.12.52-.11.72,0,.13.06.12.39.17.6Z"/>
      <path d="m69.43,25.99c.68.5,1.27.94,1.87,1.39,1.28.96,2.58,1.91,3.84,2.91.2.16.37.73.28.83-.34.33-.7.95-1.31.45-1.75-1.42-3.5-2.85-5.22-4.31-.23-.2-.29-.59-.43-.9.31-.12.61-.24.97-.38Z"/>
    </g>
    <rect class="cls-1" width="597" height="33"/>
  </g>
</svg>