<?xml version="1.0" encoding="UTF-8"?>
<svg id="_レイヤー_2" data-name="レイヤー 2" xmlns="http://www.w3.org/2000/svg" viewBox="0 0 250 140">
  <defs>
    <style>
      .cls-1 {
        fill: none;
      }
    </style>
  </defs>
  <g id="_デザイン" data-name="デザイン">
    <rect class="cls-1" width="250" height="140"/>
    <g>
      <path d="m143.43,80.6c-.51.15-.91.26-1.3.39-.45.16-.85.23-1.22-.21-.19-.22-.52-.32-.86-.51-.46,1.53-.15,3.12-1.06,4.41-.03.05-.17.02-.4.04.31-1.28.6-2.5.94-3.93-1.16.61-1.56,1.66-2.44,2.31-.47-1.61-1.93-1.25-3.01-1.61-.14-.05-.41.14-.55.29-.28.3-.51.65-.77.99.32.45.61.86.94,1.32.57-.27.81-.78,1.03-1.48-.56.07-1.01.14-1.6.21.13-.24.17-.44.27-.47.65-.21,1.31-.26,2.01-.07,0,.6-.29,1.05-.6,1.49-.14.21-.3.41-.44.63-.32.54-.5.61-1.09.45-.38-.1-.55-.3-.48-.69.06-.32.11-.66-.29-.82-.41-.16-.54.23-.79.4-.32.23-.5.67-.99.66-.23-.4.09-.54.28-.73.72-.72,1.45-1.44,2.21-2.19-.2-.27-.36-.49-.59-.8l.99.03c.18-.41.36-.82.57-1.32-.75-.07-1.1.31-1.44.68-.28.3-.51.66-.8.96-.13.13-.35.16-.59.15.49-.95,1.05-1.81,1.9-2.52.31.03.66.04,1,.09.55.09.7.37.47.89-.17.4-.39.79-.62,1.24,1.15.35,2.21.67,3.41,1.04.64-.71,1.47-1.44,1.93-2.56-.57-.15-.72.39-1.13.44-.25-.23-.21-.52.07-.68.63-.36,1.09-.83,1.29-1.54,0-.03.11-.04.2-.07.22.38.45.77.74,1.25-.04.05-.21.18-.25.34-.06.22-.13.58-.02.69.46.44.98.9,1.69.71.48-.13,1.07-.11,1.35-.62-.03-.08-.06-.16-.09-.24-.46.14-.92.29-1.39.43-.22-.19-.24-.39.04-.51.35-.15.73-.24,1.09-.37.13-.05.25-.14.32-.38-.41.07-.83.13-1.3.21.02-.15.01-.28.05-.3.48-.26.48-.62.26-1.05-.17-.34-.26-.66.31-.84.14.48.27.92.41,1.39.48-.11.57-.49.75-.77.19-.3.35-.61.56-.9.17-.23.38-.35.69.01-.26.35-.53.72-.87,1.17.28.1.5.17.7.24.05.67-.73.32-.84.73.38.37.75.73,1.21,1.18-.82.29-1.65.48-1.35,1.67.45-.31.87-.59,1.28-.87.06.04.11.08.17.11-.06.18-.06.4-.18.52-.26.28-.59.5-.86.77-.44.45-.46.62-.03,1.04.29.28.67.47,1.02.69.15.09.33.14.53.23-.16.45-.41.54-.76.34-.44-.26-.86-.55-1.29-.82-.64.41.21,1.51-.97,1.85.18-1.66.53-3.19.55-4.83Z"/>
      <path d="m163.46,32.76c-.38.23-.74.48-1.13.67-.72.36-1.45.68-2.18,1.01-.05.02-.12,0-.19.01-.25-.22-.14-.39.09-.52.22-.12.51-.17.68-.34.23-.22.38-.52.57-.79-.04-.06-.09-.11-.13-.17-.5.14-1.01.28-1.62.44-.14-.98.97-1.25,1.09-2.08-.22,0-.42,0-.64.01-.14-.36.16-.45.37-.55.28-.14.6-.23.9-.33.28-.1.55-.2.47-.66-.48.06-.95.13-1.47.2-.02-.55.35-.65.63-.67.73-.04,1.09-.42,1.26-1.08.03-.11.14-.2.21-.29.56.18.12.65.34.93.5.18.93-.59,1.51-.16-.31.86-1.56.27-1.83,1.33.78-.22,1.47-.41,2.3-.64-.07.23-.07.43-.16.51-.21.18-.55.23-.48.62.99.05,1.66-.46,1.77-1.34.04-.33.07-.65.56-.68.01.34.02.68.04,1.1.33-.07.62-.12,1.01-.2.03.21.13.43.08.6-.13.46-.35.9-.49,1.36-.12.38-.17.79-.27,1.3l2.03.06c-.31.62-.38.62-1.65.44-.66-.09-1.18-.37-1.59-1.13-.41.78-.74,1.41-1.16,2.19.44-.06.69-.09.93-.13.38-.07.76-.2,1.14-.2.36,0,.83.01,1.05.23.29.29.06.72-.17,1.05-.41.61-.81,1.23-1.21,1.85-.05.08-.09.18-.17.23-.2.14-.44.38-.65.08-.07-.1.03-.41.14-.54.6-.64,1.07-1.34,1.35-2.34-.92.07-1.74.07-2.52.39-.19.08-.36.26-.48.43-.55.75-1.07,1.51-1.62,2.26-.19.25-.43.37-.85.11.66-.8,1.31-1.58,1.96-2.36-.05-.07-.09-.14-.14-.21-1.19.08-2.28.52-3.37,1.14-.14-.5,0-.74.35-.87.79-.27,1.57-.58,2.37-.77.97-.23,1.01-.22,1.01-1.23,0-.1-.03-.19-.04-.28.2.15.39.29.65.48.27-.74,1.11-1.23.62-2.18-.83.36-1.58.68-2.33,1.02-.36.16-.65.4-.47.97.43-.2.81-.4,1.21-.56.2-.08.48-.1.34.29Zm-1.31-2c.13.24.24.45.37.69.38-.21.73-.4,1.07-.58-.37-.82-.44-.87-1.08-.66-.95.31-1.38,1.12-1.92,1.96,1.03.02,1.02-.95,1.56-1.41Zm3.79.86c.52-.61.69-1.03.7-1.72-.79.42-.97.8-.7,1.72Z"/>
      <path d="m25.45,129.63c-.86.27-1.52.47-1.86,1.12.52-.1,1.05-.2,1.55-.29.43,1.02.24,4.26-.22,4.99l-2.41-.07c.15-1.17.3-2.36.47-3.7-.25.17-.41.24-.51.36-.22.28-.44.56-.6.87-.54,1.1-1.21.66-1.8.06-.09-.1-.04-.34-.05-.52.17,0,.36-.07.5,0,.16.07.28.25.49.46.75-.68,1.2-1.55,1.86-2.24-.04-.07-.07-.15-.11-.22-.29.04-.61.02-.87.13-.72.3-1.44.52-2.24.21-.47,1.33.04,2.83-.67,4.03-.13-.02-.26-.05-.39-.07.12-1.2.24-2.41.38-3.77-1,.26-1.84.48-2.8.73.28-1.05,1.19-1.4,1.66-2.18-.32-.3-.64-.59-1.02-.93.34-.36.62-.71.95-.98.28-.24.33-.81,1.07-.66-.36.56-.67,1.06-.98,1.54.48.66.59.68,1.08.2.23-.23.43-.48.69-.67.14-.11.36-.11.55-.17.04.06.07.12.11.18-.73.78-1.46,1.56-2.22,2.38.86.25,1.21-.31,1.56-.79.11,0,.2-.02.24.01.85.64,1.63.7,2.53.16.47-.28.36-.69.28-1.16-.38.01-.74.02-1.32.04.31-.25.45-.41.63-.5.36-.18.81-.22.78-.8,0-.07.33-.25.37-.21.17.15.29.35.47.61.26-.03.61-.11.95-.08.51.03.85-.11,1.05-.62.13-.33.34-.63.88-.28-.38.5-.74.98-1.11,1.44-.34.42-.63.84.06,1.4Zm-.81,1.6c-1.02.04-1.24.45-.93,1.62,1.08-.02,1.19-.2.93-1.62Zm0,2.16c-.37.07-.67.08-.92.19-.18.07-.42.29-.41.43,0,.21.16.48.34.59.54.34.96.08,1-.58.01-.15,0-.31-.02-.63Zm.09-5.01c-1.33-.05-1.53.14-1.24,1.1.6-.1.88-.55,1.24-1.1Z"/>
      <path d="m151.88,58.72c.5.16,1.02-.47,1.59.1-.36.16-.68.29-1.07.46.58.68,1.14,1.26,1.97,1.5-.39.6-.42.63-.83.34-.36-.26-.69-.58-1-.9-.26-.27-.49-.58-.74-.87-.64.38-.59.93-.66,1.41-.07.48.12,1.05-.51,1.42-.53-.75.23-1.47.03-2.24-.93.42-1.46,1.6-2.87,1.42.67-.47,1.21-.85,1.76-1.23-.03-.07-.06-.13-.09-.2-.4.14-.81.29-1.21.43.47-1.31,1.96-.82,2.81-1.65-.88-.32-1.41.48-2.16.48-.49-.9.26-1.81.01-2.73-.73.09-1.44.19-2.18.28-.04-.62.38-.64.69-.71.31-.07.65,0,.95-.08.22-.06.48-.22.57-.41.13-.26.27-.67.15-.88-.1-.18-.56-.25-.84-.21-.46.07-.91.26-1.39.4-.27-.21-.2-.47.05-.59.37-.18.78-.34,1.18-.35.6-.01,1.05-.14,1.29-.74.01-.03.12-.03.26-.07.11.22.22.46.34.69.8.11.79.11,1.07-.51.13-.3.19-.69.75-.71-.09.41-.16.76-.27,1.25.93.02,1.79-.08,2.69-.13.23.44-.03.63-.41.71-.4.08-.82.11-1.26.16-.09.31-.16.58-.27.96.92-.06,1.76-.11,2.58-.17.1.45-.14.57-.4.61-.44.07-.89.11-1.33.13-.85.04-1.03.19-1.16,1.07-.02.12-.03.25-.05.4-.21.08-.4.15-.6.22,0,.04.01.07.02.11.61-.06,1.21-.12,1.88-.18-.11.97-1.25.15-1.35.99Zm-2.7-.33c.93-.26,1.13-.57,1.05-1.35-.04-.4-.16-.68-.72-.51-.1.57-.21,1.15-.34,1.86Zm1.62-2.58c.98-.01,1.04-.11,1-1.33-.91-.07-1.08.14-1,1.33Zm-.33-1.4c-.37-.08-.58,0-.65.31-.08.36-.15.72-.21,1.08,0,.04.16.15.22.13.11-.03.26-.11.29-.2.13-.41.23-.84.35-1.32Zm1.09,2.16q-.77-.11-.67.73c.27-.3.47-.52.67-.73Z"/>
      <path d="m35.32,2.7c-.1.29-.18.55-.28.81-.11.27-.27.53-.34.81-.27,1.05-.21,1.12.91,1.28,2.1.31,3.19,2.13,2.32,4.03-.36.79-.94,1.5-1.45,2.23-.06.09-.26.11-.53.22.1-.3.12-.49.21-.65.24-.44.52-.87.76-1.3.16-.28.34-.56.44-.87.54-1.57.02-2.49-1.7-3.01-.44-.13-.92-.11-1.38-.16-.37.72-.73,1.39-1.06,2.06-.15.32-.04.61.21.88.26.27.56.57.23,1.07-.3-.29-.56-.54-.87-.83-.36.46-.65.9-1.01,1.27-.68.69-1.14.71-1.95.15-.25-.17-.49-.37-.68-.6-.68-.78-.67-1.82.05-2.55.31-.32.7-.58,1.07-.85.34-.25.7-.47,1.07-.71,0-.71-.73-1.26-.55-1.99.3-.2.5-.1.63.14.08.15.09.34.15.5.14.34.31.67.46,1,.57-.09,1.15-.17,1.72-.29.1-.02.2-.22.23-.35.16-.62.31-1.23.44-1.86.09-.41.27-.64.88-.43Zm-3.71,4.11c-.78.08-1.23.58-1.76.97-.33.24-.45.54-.47.9-.07.87.4,1.4,1.57,1.7.38-.39.75-.81,1.17-1.2.35-.32.34-.69.19-1.05-.19-.45-.46-.88-.7-1.33Zm1.92-.59c-.53.02-.85.02-1.16.03-.21.66.06,1.04.6,1.4.19-.47.34-.86.56-1.43Z"/>
      <path d="m21.52,86.15c-.11-.8-.57-.81-.99-.86-.39-.49.19-1.22-.49-1.63-.79.03-1.08,1.36-2.21.9,1.18-.89,2.4-1.66,3.05-3.13-.35-.19-.67-.36-1.03-.54-.38.44-.72.83-1.15,1.33.19-2.13,2.07-4.02,4.61-2.8.23-.37.47-.76.82-1.33-.75.04-1.29.05-1.82.11-.92.11-1.85.23-2.76.39-.71.13-1.37.35-1.54,1.22-.06.32-.13.31-.72.33.17-.53.27-1.06.5-1.53.1-.21.45-.33.71-.41.49-.14,1-.2,1.54-.31-.11-.3-.2-.54-.31-.83.16-.02.29-.08.33-.04.92.83,2.01.68,3.11.58.56-.05,1.12-.04,1.73-.06-.02.93-.44,1.53-.91,2.1-.06.07-.17.15-.24.14-1.05-.2-1.27.8-1.95,1.27.5.5,1.12.65,1.68.91.5.23,1.2.15,1.39.99-.38-.07-.77-.14-1.21-.22-.63,1.07-1.05,2.29-2.15,3.42Zm1.16-3.01c-.68-.16-1.15.09-1.64.34-.02.13-.06.26-.06.38-.02.36,0,.71.47.78.43.06.75-.05.89-.49.1-.32.21-.63.33-1.01Zm-.61-3.51c-1.27-.04-1.54.11-1.74.94.33.09.65.17,1.01.27.25-.41.45-.75.73-1.21Zm-1.54,3.44c.81-.25,1.45-.45,2.11-.66-.78-.91-1.43-.62-2.11.66Z"/>
      <path d="m67.06,61.2c-.27-1.29.74-2.36.33-3.65-.5.18-.96.35-1.59.59.08-.3.07-.54.18-.62.23-.17.51-.26.78-.35.54-.18.88-.49.83-1.12-.02-.19.01-.39.04-.58.1-.68.1-1.3-.94-1.61,1.2-.6,1.77-1.86,3.25-1.71-.24.77-1.12.66-1.53,1.3.65-.07,1.17-.13,1.8-.2,0,1.02-.68,1.86-.3,2.78,1.04-.02,1.14-.13,1.34-1.07.14-.65.35-1.29.51-1.89.51-.1.95-.18,1.37-.28.74-.18,1,.01,1,.78,0,.41,0,.41.35.79.41.09.53-.91,1.14-.22-.17.2-.31.45-.52.62-.7.58-1.35.38-1.57-.49-.06-.24-.11-.49-.17-.78-.73.03-1.14.42-1.38,1.01-.12.29-.2.61-.33.9-.34.79-.98,1.24-1.9,1.4.06.98.13,1.9.17,2.81.01.32.19.84-.31.85-.55,0-.3-.5-.29-.82,0-.8,0-1.59,0-2.37-1.13-.23-1.36.04-1.15,1.3.39-.26.02-1,.67-1.02.17.57-.08,1.58-.57,1.83-.43.21-.52.5-.59.89-.05.34-.1.7-.63.91Zm1.14-4.6c.79-.08,1-.24.99-.69,0-.41-.18-.5-.95-.49l-.03,1.18Zm.13-1.84c.24,0,.49.08.65,0,.14-.07.19-.33.28-.51-.17-.08-.36-.25-.52-.23-.28.05-.54.21-.42.73Z"/>
      <path d="m52.72,82.67c.26.12.5.24.8.39-.43.52-1.22.08-1.52.75-.22.49-.56.93-.87,1.44.13.23.28.48.44.78-.67.06-1.28.11-1.98.17.08-.2.16-.37.22-.51-.35-.53-.7-1.05-1.11-1.68-.24-.05-.65-.14-1.16-.26.33-.48.68-.3.96-.32.35-.02.64-.09.74-.47.12-.45.25-.91.4-1.48-.65.17-1.21.31-1.82.47-.04-.93-.08-1.75-.13-2.66.31-.04.64-.1.98-.12.63-.03,1.14-.17,1.09-1.11.4.32.67.53,1.01.8.15-.39.27-.7.44-1.16.18.36.29.59.43.87.92-.04,1.86-.09,2.97-.14-.38,1.2-1.32,1.66-2.04,2.4.7.55-.05,1.17.14,1.85Zm-2.94.54c.66.26,1.23.01,1.81-.11.11-.02.25-.14.28-.24.15-.55.27-1.11.43-1.74-.45.22-.79.38-1.11.54q-.53-.41-1.11-.31c-.1.61-.19,1.23-.29,1.86Zm3.55-4.02c-.02-.07-.05-.13-.07-.2-.55.07-1.11.14-1.76.22.02.5.04.94.06,1.5.92-.31,1.25-1.02,1.78-1.53Zm-3.67,4.82c.07.77.27,1.01.78,1,.39,0,.75-.5.86-1.23-.54.07-1.06.15-1.64.23Zm-.02-4.42c-.39.1-.66.14-.92.23-.37.13-.35.45-.25.72.06.18.24.39.41.43.31.08.57-.08.63-.43.05-.25.07-.5.13-.96Zm.5.97c.45.15.73.11.75-.28.02-.29-.07-.59-.11-.89-.18.06-.49.09-.53.2-.1.28-.08.61-.12.97Z"/>
      <path d="m79.46,29.27c.74.04,1.43-.3,2.17.15-.51.45-1.04.28-1.53.32-.82.06-1.11.3-1.22,1.07-.04.25-.05.51-.05.77,0,.19.02.38.03.61.56.12,1.08-.02,1.47-.3.36-.26.59-.71.87-1.07.54.32.06.68.18,1.03.04.03.11.12.19.14,1.76.44,1.67,1.5,1.3,2.63-.24.71-.76,1.33-1.19,1.97-.07.11-.32.09-.49.13-.03-.17-.12-.37-.07-.51.08-.2.26-.36.41-.52.48-.54.82-1.15.91-1.88.08-.62-.13-.9-.71-1.07-.73-.21-.93-.12-1.27.43-.6.99-1.23,1.96-1.85,2.93-.1.16-.24.3-.38.43-.52.49-.98.57-1.48.28-.63-.36-.91-1.04-.77-1.68.17-.82.67-1.42,1.33-1.82,1.21-.74,1.01-1.85,1.02-3.01-.67.08-1.23.14-1.88.21.12-.54.48-.61.8-.64.86-.07,1.49-.39,1.59-1.33.63-.09.38.5.62.72Zm-1.46,4.31c-.81.55-1.44.95-1.41,1.86.01.46.22.76.64.83.45.07.65-.31.69-.65.08-.62.05-1.24.08-2.04Zm1.84-.61c-.74-.15-.92-.15-1.06.16-.22.49-.33,1,.07,1.63.36-.65.67-1.21.99-1.79Z"/>
      <path d="m26.97,54.64c-.17,1.79-.31,3.39-.47,5.09-.1,0-.3.02-.6.03.05-.63.09-1.19.13-1.74-.76-.26-.92-.18-.93.48,0,.29.02.58.02.87,0,.41-.23.48-.66.34-.03-.44-.07-.9-.1-1.35q-.76-.11-1.1,1.04c-.17-.2-.38-.34-.4-.5-.07-.5-.09-1.01-.09-1.52,0-.7.04-1.4.06-2.16l1,.03c-.44-.47-.82-.87-.74-1.55.68.12,1.29.06,1.52-.78-.94-.47-1.95.46-3-.09.18-.14.26-.26.36-.28,1.04-.19,2.08-.38,3.13-.54.19-.03.49.04.59.17.08.11,0,.42-.11.58-.28.43-.62.81-.9,1.23-.11.16-.23.44-.17.56.08.14.36.23.56.23.57,0,1.14-.07,1.92-.13Zm-2.37,1.38c-.39-.41-.7-.39-1.12-.17.03.25.06.53.11.97.4-.32.66-.52,1.01-.8Zm.49.52c.13.34.21.55.31.81.37-.2.8-.2.72-.78l-1.03-.03Zm.02-.72c.34.23.67.31.98.03.05-.04.02-.28-.04-.33-.33-.23-.65-.21-.91.13-.02.02-.01.06-.03.17Zm-.69,1.36c-.67-.18-.82-.17-.91.08-.03.09,0,.29.07.32.36.16.65.07.84-.4Z"/>
      <path d="m59.76,80.47c.21-1.31,1.39-2.19,1.34-3.62,1.04-.09,2.06-.22,3.26-.11-.23.45-.4.74-.54,1.06-.32.73-.64,1.47-.92,2.22-.27.72-.47,1.46-.72,2.18-.15.43-.45.52-.91.43-.38-.08-.79,0-1.17.02q-.07.99.69,1.28c.12.04.23.11.33.19.04.03.04.11.08.26-.18.02-.34.07-.51.07-.37-.02-.76-.06-.72.49.04.55.46.39.8.39.58-.01,1.15,0,1.73,0,.16,0,.35-.01.47.07.13.09.2.28.29.42-.13.07-.25.2-.38.2-.19,0-.37-.09-.56-.11-.9-.12-1.76-.02-2.64.24-.55.16-1.2,0-1.94-.02.28-.52.64-.56.96-.63.45-.09.68-.32.64-.93-.64.08-1.28.16-2.07.26.52-.98,1.44-.58,2.16-.93-.01-.32-.03-.65-.05-1-1.09-.31-2.01.27-3.09.47.24-.78.74-.87,1.24-.93,1.11-.15,2.23-.32,3.35-.4.69-.05,1.04-.4,1.22-1.01.2-.73.41-1.47.62-2.21-1.37-.28-1.41-.27-1.76.57.14.1.28.21.43.31.13.09.25.18.51.36-.28.07-.46.17-.58.13-.57-.2-1.06-.12-1.55.3Zm3.43-3.02c-1.09-.3-1.32-.23-1.62.52.43.09.85.18,1.29.27.08-.14.16-.24.2-.35.06-.14.09-.29.13-.44Z"/>
      <path d="m130.75,106.49c-.21-.1-.38-.19-.56-.25-1.17-.41-1.51-.26-2.02.85-.38.81-.71,1.66-1.17,2.42-.39.66-1.08,1-1.83,1.11-.49.07-1.35-.87-1.43-1.49-.08-.67.08-1.3.56-1.78.4-.4.85-.78,1.33-1.1.86-.58.9-.63.51-1.83-.56.14-1.12.29-1.68.43l-.09-.13c.12-.15.23-.32.38-.43.15-.1.36-.15.54-.19.58-.14.97-.39.98-1.09,0-.37.16-.8.77-.53-.11.34-.22.66-.34,1.03.6.3,1.17.09,1.73.11.57.02,1.14.03,1.73.05,0,.53-.32.54-.65.53-.54-.02-1.09-.08-1.63-.09-.32,0-.63.04-.98.07l-.04,1.28c.86.15,1.55-.1,2.28-.52.33.48.84.64,1.4.79.77.2.92.47.84,1.27-.03.34-.11.7-.26,1.01-.35.72-.75,1.42-1.16,2.11-.1.17-.29.28-.49.46-.26-.61.09-.93.34-1.28.53-.74,1.01-1.49,1-2.45,0-.09-.02-.19-.05-.37Zm-4.43.16c-1.16.37-1.84,1.04-1.97,1.87-.1.6.3,1.28.79,1.34.54.07,1.32-.59,1.31-1.14-.01-.67-.08-1.33-.14-2.06Zm1.74-.54c-.64,0-1.08,0-1.15.55-.05.42,0,.86.02,1.29.06.02.13.03.19.05.28-.57.57-1.14.94-1.89Z"/>
      <path d="m194.65,106.21c.96.07,1.19-.1,1.29-.95.08-.7.14-1.4.26-2.09.04-.23.18-.54.35-.62.79-.32,1.61-.57,2.43-.85.17.98-.39,7.8-.68,8.62-.06.15-.2.27-.36.47-.27-.41-.2-.71-.09-1.06.47-1.52.45-3.09.56-4.64-1.13-.16-1.49-.06-1.94.53.44-.03.82-.05,1.2-.08-.83.74-.73,1.68-.78,2.59-.04.73-.21,1.46-.34,2.18-.02.11-.14.2-.24.34-.74-.6.13-1.29-.24-1.96-.69.25-1.41.51-2.32.84.79-1.04.82-1.14.84-2.37-.24.24-.42.42-.63.63-.07-.24-.13-.44-.2-.69.31-.31.62-.62.93-.93l-.03.02Zm2.02-1.55c.48-.06.93-.09,1.36-.18.13-.03.23-.24.34-.37-.13-.11-.26-.32-.4-.33-.34-.01-.7.02-1.03.12-.29.08-.5.3-.27.76Zm1.68-2.18c-.49.14-1.02.16-1.28.76,1.25.08,1.34.02,1.28-.76Zm-3.17,4.29c.03.06.07.12.1.18,1.07-.08,1.13-.11,1.17-.71-.45.19-.86.36-1.27.53Z"/>
      <path d="m177.82,2.46c-.06.43-.11.81-.17,1.2.35.29.67.06.99.02.33-.03.66-.05,1.16-.09-.54,1.02-1.57.36-2.2.9.06.95.17,1.96.16,2.97,0,1.1-.08,2.21-.19,3.31-.04.41-.26.84-.85.99-.35-.74.47-1.32.23-2-.06,0-.13-.04-.17-.01-1.06.68-1.47.6-2.26-.32-1.03-1.19-.58-2.54.27-3.31.18-.16.38-.3.56-.47.43-.39.89-.61,1.61-.05-.01-.52-.02-.83-.03-1.22-1.23-.11-2.37-.02-3.54.08-.09-.36.15-.5.43-.54.52-.07,1.06-.09,1.59-.12.25-.01.5,0,.75,0,.73-.02.73-.02.95-.68.1-.31.19-.62.72-.66Zm-1.67,3.33c-.46.41-.96.76-1.33,1.2-.63.75-.36,1.93.49,2.46.34.21.68.17.9-.14.42-.58.76-1.18.82-1.91.05-.64-.12-1.14-.88-1.61Z"/>
      <path d="m14.29,52c-.45.63-1.24.26-1.92.6.07.9-.37,1.84-.04,2.84,1.53.09,2.92-.46,4.37-.49.09.53-.18.64-.48.68-.44.07-.89.08-1.34.15-1.8.28-3.6.55-5.4.86-.4.07-.79.26-1.18.41-.36.14-.72.24-1.13-.03.27-.74.97-.68,1.5-.84.54-.16,1.12-.22,1.7-.47-.67-.24-1.34-.47-2.04-.72.12-.56.45-.44.75-.36.48.12.96.24,1.48.37l.05-1.77c-.54-.39-1.17.42-1.71-.35.62-.2,1.18-.38,1.72-.56-.12-.57-.22-1.11-.33-1.64.07-.03.14-.06.22-.09.25.39.5.79.87,1.35.2-.77.35-1.34.53-2.05.2.15.47.25.47.37.01.3-.07.62-.14.92-.06.23-.15.45-.28.82.87-.11,1.56-.2,2.26-.29.02.1.04.19.06.29Zm-2.83.99c-.4.9-.36,1.59.12,2.1.21-.72.27-1.38-.12-2.1Z"/>
      <path d="m175.4,55.5c-.03-.35-.05-.66-.08-1.06-.6.05-1.13.1-1.71.16.22-.92.99-.6,1.53-.83.08-.23.18-.49.32-.88.22.31.36.53.53.76.38-.03.78-.07,1.39-.12-.26.3-.35.47-.49.54-.22.13-.54.13-.7.3-.17.18-.29.49-.28.74,0,.11.38.31.58.3.64-.04,1.27-.18,1.91-.22.22-.01.57.09.63.24.08.18,0,.56-.16.69-.61.55-1.27,1.07-1.94,1.55-.31.22-.72.29-1.03.51-.63.42-.65.99-.11,1.48.45.41.91.81,1.36,1.22.11.1.2.22.31.35-.28.42-.51.24-.73.03-.23-.22-.45-.46-.69-.67-.21-.19-.45-.35-.79-.61-.16.28-.3.54-.45.8-.13.22-.22.48-.41.63-.13.1-.48.11-.57.01-.19-.21-.3-.6.09-.7.62-.16.57-.7.87-1.16-.43-.33-.82-.63-1.07-.83-.31-.72-.56-1.28-.8-1.86-.28-.68-.23-.87.46-1.07.61-.17,1.25-.21,2.03-.34Zm3.07.19c-.71.09-1.2.15-1.69.21-.89.11-.98.23-.92,1.32.97-.21,1.87-.49,2.61-1.53Zm-4.57,1.81c1.46-.18,1.54-.28,1.18-1.33-.36.02-.74,0-1.11.06-.46.09-.58.34-.41.76.07.17.21.31.34.5Zm.04.61c.29.34.48.55.73.85.18-.38.3-.63.49-1.05-.48.08-.77.13-1.22.2Z"/>
      <path d="m11.27,108.62c1.36-.38,2.58-.95,3.97-.68.11.84-.47,1.26-1.02,1.66-.25.18-.58.26-.89.35-.4.11-.85.34-1.2.24-.33-.1-.55-.56-.82-.85-.06-.07-.15-.12-.31-.25-.25.19-.54.37-.79.59-.29.25-.55.54-.86.78-.23.18-.48.18-.6-.08.66-.77,1.29-1.51,1.93-2.25-.18-.9.29-1.85-.27-2.79,1.1-.79,2.4-.92,3.61-1.26.2-.06.45.03.71.06-.32.87-.6,1.61-.85,2.36-.1.3-.1.63-.18.94-.08.31-.44.43-.56.18-.2-.41-.47-.47-.84-.39-.44.1-.77.33-.9.78-.04.14-.06.29-.13.62Zm.74.61c.69.51,1.76.17,2.37-.75-.87.05-1.73.02-2.37.75Zm-.44-3.73c.03.1.06.19.08.29.63-.18,1.26-.34,1.89-.54.07-.02.09-.21.16-.41-.87-.05-1.51.27-2.14.66Zm.13,1.08c.75.19,1.03.09,1.64-.52-.62-.12-1.13-.01-1.64.52Z"/>
      <path d="m36.23,81.68c-.3.23-.6.45-.93.7.58.95,1.13,1.83,1.72,2.8-.22.14-.44.29-.67.44-.1-.15-.17-.22-.2-.3-.2-.44-.37-.89-.59-1.31-.42-.79-.44-.78-1.47-.81-.25.37-.17.77-.11,1.18.02.13-.16.29-.25.43-.14-.11-.35-.2-.39-.34-.06-.2-.01-.44,0-.66.02-.73.04-1.47.07-2.22-.7-.27-1.36.44-2.08.06.19-.63.78-.38,1.12-.59.35-.22.92.05,1.19-.52-.4-.33-.79-.26-1.16-.05-.4.23-.57.04-.81-.39.63-.19,1.19-.36,1.77-.54-.07-.55-.4-.51-.77-.45-.34.06-.69.4-1.1-.03.29-.53.92-.39,1.37-.71-.24-.44-1.08-.71-.56-1.44.61-.07.48.62.97.86.36-.53.74-1.09,1.14-1.66.43.17.61.37.27.78-.24.29-.43.62-.67.97.29.17.51.3.79.47-.32.25-.61.47-.98.75.2.23.37.44.58.68-.11.15-.25.33-.38.51.45.62,1.01-.11,1.45.2.04.45-.28.52-.59.63-.97.32-.97.32-.88,1.48.93.09,1.02-1.42,2.02-1.16.05.08.09.16.14.24Z"/>
      <path d="m10.07,79.54c-.72.06-1.31.1-1.98.16.22-.67.77-.59,1.19-.7.49-.12.99-.29,1.49-.3.42,0,.96-.2,1.35.46-.45.08-.81.15-1.16.21-.3.76-.3.85.03,1.93.41-.07.84-.18,1.27-.21.63-.04,1.29-.12,1.9,0,1.03.19,1.34,1.01.75,1.87-.47.68-1.01,1.32-1.54,1.96-.2.25-.44.48-.8.22.71-.95,1.42-1.89,2.11-2.81-.9-.91-2.82-.99-3.64-.18-.18.18-.28.5-.32.76-.09.63-.11,1.28-.17,1.92-.04.41-.17.76-.6.9-.42.14-.76-.04-1-.38-.24-.33-.52-.66-.68-1.03-.29-.66-.16-1.12.42-1.6.34-.28.76-.48,1.09-.77.19-.17.4-.44.41-.67.03-.53-.05-1.08-.1-1.76Zm.03,3.18c-.77-.08-1.08.41-1.16.87-.06.38.16.85.37,1.21.17.29.58.17.63-.17.09-.62.1-1.25.15-1.91Z"/>
      <path d="m41.72,9.16c1.07-.3,1.81.59,2.84.51-.12-.83-.22-1.68-.37-2.52-.08-.47-.51-.45-.89-.44-.35,0-.74.14-1.01-.23q.59-.45,1.65-.41c-.02-.51-.05-1.01-.07-1.54-.48-.09-.88-.16-1.3-.24.16-.59.73-.41,1.03-.69.05-.27.1-.58.17-.93.89.24.6,1.25,1.46,1.56-.32.15-.52.25-.79.38.09.45.18.93.25,1.32.44.22.86-.31,1.14.3-.35.14-.7.28-1.12.45.19,1.04.36,2.06.56,3.08.07.36.7.7,1.27.72.12,0,.24,0,.37-.01.04.1.1.18.1.26,0,.11-.03.22-.07.44-.36-.09-.69-.14-.99-.25-.55-.2-1.05-.41-1.67-.08-.38.2-.91.19-1.38.18-1.21-.02-1.69-.78-1.18-1.86Zm2.02,1.1c-.5-.21-.92-.71-1.59-.42.37.72.58.78,1.59.42Z"/>
      <path d="m168.31,84.68c-.22-.31-.44-.61-.69-.97-.28.26-.53.5-.79.73-.63.57-.66.58-1.42.21-.12-.06-.23-.11-.41-.2-.06-1.1.01-2.16,1.07-2.85.6-.39.91-.85.7-1.59-.03-.11.1-.26.35-.41.12.36.23.72.35,1.1.88-.15,1.7-.34,2.06-1.31.11-.29.34-.56.8-.32-.16.35-.31.68-.5,1.09.59.12,1.11.21,1.63.33.79.18.98.45,1.06,1.25.15,1.47-.78,2.37-1.71,3.27-.07.07-.27,0-.66-.01.37-.4.58-.66.81-.89.65-.64.96-1.42.95-2.33,0-.46-.21-.72-.66-.79-.16-.02-.32-.03-.48-.07-.81-.19-1.43-.04-1.75.84-.13.35-.4.65-.65.95-.34.41-.38.77-.03,1.19.17.21.5.49-.04.79Zm-2.49-.42c.8-.32.93-.43,1.58-1.29-.26-.36-.1-.96-.64-1.28-.71.72-1.36,1.4-.93,2.57Zm3.01-3.29c-.65.09-1.12.07-1.27.53-.1.31,0,.66.42.96.28-.48.52-.9.86-1.49Z"/>
      <path d="m95.88,106.2c.42-.73,1.14-.57,1.66-.83.04-.73-.03-.83-.65-.72-.46.09-.91.23-1.45.18.14-.14.25-.33.41-.4.36-.13.74-.23,1.11-.28.46-.06.69-.27.7-.74,0-.35.03-.71.62-.82.02.47.03.89.05,1.37.71-.07,1.37-.13,2.23-.21-.65,1.01-1.57.44-2.19.82-.03.73-.03.74.59.66.48-.06.96-.15,1.5-.24-.03.67-.44.59-.76.64-.35.05-.69.12-1.04.19-.34,1.25-.19,2.46.06,3.65.05.22.34.41.56.55.21.13.48.18.73.27-.01.09-.02.18-.03.27-.22.02-.47.13-.66.06-.57-.23-1.04-.08-1.56.17-.86.41-1.69.17-2.47-.29-.34-.2-.43-.53-.29-.92.33-.91,1.03-1.14,1.85-.62.29.18.62.29,1,.46l.1-3.25c-.76-.69-1.33.72-2.07.03Zm1.89,3.82c-.55-.24-.92-.42-1.31-.56-.53-.19-.57-.14-.8.58.63.41,1.27.45,2.11-.02Z"/>
      <path d="m141.09,6.01c-1.73.33-2.36,1.64-3.06,3-.61-.76-.35-1.46-.36-2.12,0-.64-.1-1.31.19-2.06.73.7.13,1.47.4,2.12.92-.56,1.81-1.11,2.83-1.73.26-.47-.6-1.14.06-1.8.48.53.27,1.21.69,1.83.35.01.79-.01,1.21.04,1.09.14,1.76.96,1.54,1.92-.17.75-.91.97-1.53,1.29-.08.04-.18.06-.27.06-1.13-.07-1.49.6-1.65,1.48-.08.43-.1.42-.66.62-.23-.36,0-.67.15-.97.51-1.03.5-2.15.58-3.25,0-.13-.07-.27-.11-.41Zm.59,2.21c.53-.11.97-.16,1.36-.3.7-.26,1.11-.85.99-1.32-.11-.41-.74-.78-1.43-.82-.59-.04-.81.11-.86.66-.05.55-.04,1.1-.06,1.79Z"/>
      <path d="m103.41,11.1c-.67-1.29-1.3-2.52-1.94-3.76-.7-.03-1.17.35-1.6.69-.19.15-.15.58-.17.89-.02.39.14.82-.39,1.17-.11-.18-.28-.34-.27-.49,0-.76.01-1.52.1-2.27.13-1.13.27-2.26.03-3.39-.03-.16,0-.34.01-.62,1.06.02,2.09-.14,3.09.08.7.15,1.17.69,1.47,1.28.22.43.11.87-.24,1.22-.28.27-.59.52-.91.75-.58.42-.6.43-.27,1.07.44.84.88,1.68,1.33,2.51.16.31.29.59-.24.88Zm-3.59-3.66c1.18-.58,2.27-.99,3.11-1.81.34-.34.36-.63.06-1-.57-.71-1.86-1.06-2.7-.68-.17.08-.36.28-.37.44-.06.95-.07,1.9-.11,3.04Z"/>
      <path d="m80.27,102.18c-.5-.48-1.04-.14-1.53-.11-.52.04-.98.49-1.6.24.28-.72.92-.65,1.44-.75.53-.11,1.08-.14,1.66-.22.11-.26.22-.51.33-.76.45.11.86.3,1.26.3.41,0,.82-.1,1.27.25-.22.15-.36.31-.54.38-.17.06-.38,0-.57.03-1.04.13-1.11.35-1,1.39.11,1.01,0,2.04.03,3.07.02,1.05-.2,2.04-.59,3-.12.3-.2.63-.78.55.17-.58.34-1.13.52-1.73-.55-.2-1.07-.35-1.55-.58-1.28-.63-1.55-1.46-.91-2.74.5-1,1.1-1.9,2.35-2.08.07,0,.12-.13.21-.24Zm-.09,4.79c.08-.33.18-.57.18-.81.02-.8.03-1.6,0-2.4-.03-.65-.41-.85-.96-.51-.74.44-1.08,1.19-1.27,1.97-.21.88.02,1.23.89,1.52.35.12.73.15,1.17.23Z"/>
      <path d="m113.98,7.94c.83-.96,1.46-1.81,2.22-2.54.74-.7,1.16-1.72,2.24-2.12-.71,1.38-1.97,2.36-2.87,3.69.51.53,1.03,1.02,1.49,1.56.42.49,1.17.83,1.03,1.61-.36.19-.49-.02-.64-.21-.71-.84-1.44-1.68-2.2-2.56-1.08.95-1.98,1.82-1.48,3.29.1.3-.04.69-.13,1.03-.05.2-.23.36-.44.51-.36-1.73.1-3.4.21-5.09.11-1.67.22-3.34.32-5.04.53.09.51.4.5.69-.06,1.05-.13,2.09-.19,3.14-.03.6-.04,1.19-.06,2.02Z"/>
      <path d="m8.02,32.88c.49-.52,1.19-.08,1.75-.43.23-.66.02-1.53.74-2.05.34.07.43.22.32.56-.15.44-.23.91-.34,1.37.72.35,1.34.26,2.1.12.01-.44.04-.87.03-1.31,0-.32-.1-.64-.08-.96.01-.32-.18-.85.28-.88.54-.03.29.53.32.83.05.51.04,1.03.07,1.54.01.18.08.36.14.65.84-.13,1.64-.25,2.52-.38-.06.7-.5.72-.89.79-.53.09-1.06.17-1.66.27.1,1.63-.4,3.05-.89,4.48-.15.43-.32.71-.85.36.51-1.48,1.36-2.9,1.02-4.6l-2.08-.06c-.31.85.05,1.53.24,2.21-.68.25-.83.21-.9-.33-.08-.57-.08-1.15-.13-1.84-.33,0-.64-.02-.94-.03-.28,0-.58.07-.76-.32Z"/>
      <path d="m73.05,103.93c-.57.43-.54.97-.37,1.61.15.57.11,1.21.06,1.81-.06.78-.1.77.64,1.13.25.12.49.27.73.41-.11.38-.32.46-.6.35-.18-.07-.36-.15-.51-.26-.44-.31-.83-.26-1.33-.04-1.03.45-1.84.3-2.43-.44-.49-.62-.44-1.08.23-1.51.5-.33,1-.37,1.52,0,.3.22.64.39.98.59.35-1.33.35-1.38-.26-3.15-.35.03-.72.07-1.1.08-.33,0-.66-.02-1-.13.54-.7,1.41-.18,2.1-.74.03-.31.06-.75.1-1.21-.62-.23-1.17.52-1.88-.02.29-.18.5-.39.73-.44.62-.13,1.11-.41,1.41-1.15.33.46.58.8.82,1.14q-.58,1.37.17,1.98Zm-1.51,4.22c-.27-.19-.52-.36-.77-.54-.05-.04-.08-.12-.13-.13-.18-.05-.38-.15-.54-.1-.19.05-.41.2-.49.36-.05.1.09.36.2.48.43.46.99.43,1.73-.07Z"/>
      <path d="m189.61,56.64c-.74.15-1.43.28-2.11.43-.29.06-.56.13-.69-.41.51-.11,1-.21,1.48-.31.19-.04.38-.06.57-.1.86-.16.92-.28.68-1.33-.74.12-1.48.24-2.3.37.48-1.11,1.5-.62,2.2-.89.3-.43,0-1.16.82-1.39l-.03,1.16c.26.09.52.18.79.27,0,.53-.52.31-.77.62-.02.21-.05.52-.08.84.32.09.58.16.97.26-.32.29-.54.49-.71.64l-.1,3.4q.61.45,1.72.49c.07.35.07.64-.42.6-.19-.01-.38-.05-.57-.11-.65-.2-1.26-.34-1.96-.04-.49.21-1.07.12-1.59-.15-.73-.38-.92-.79-.59-1.36.31-.53,1.03-.7,1.59-.35.31.2.6.45.9.67.44-.68.53-2.05.2-3.35Zm-.64,3.87c-.23-.53-.68-.66-1.16-.63-.15,0-.29.22-.47.37q.82.49,1.63.27Z"/>
      <path d="m181.89,35.15c-1.27.69-2.41,1.31-3.7,2.01.03-.3,0-.48.08-.6.07-.13.23-.27.37-.29,1.09-.21,1.12-1.07,1.22-1.91.1-.88.25-1.76.37-2.65.02-.18,0-.38-.01-.63-.4.08-.75.15-1.1.22,1.09-1.21,2.56-1.16,4.08-1.38-.34,2.62-.66,5.12-1,7.61,0,.07-.19.12-.33.22-.45-.87.18-1.66.03-2.59Zm-.05-3.8c.31.52-.03.65-.38.79-.33.13-.73.23-.67.75.36-.07.66-.14.98-.21q-.09.59-.53.79c-.89.43-.98.62-.76,1.72,1.27-.39,1.6-.76,1.78-1.95.04-.25.1-.5.13-.76.07-.62.12-1.24.18-1.87-1.47,0-1.62.09-1.64.94.3-.07.6-.14.9-.21Z"/>
      <path d="m126.72,10.8c-.53,0-.53-.36-.61-.66-.17-.59-.29-1.19-.51-1.77-.25-.65-.29-.65-1.04-.57-.5.05-.99.15-1.49.19-.57.05-.89.34-1.1.81-.36.83-.75,1.66-1.13,2.48-.04.1-.14.17-.26.29-.32-.31-.24-.6-.11-.9.94-2.09,1.88-4.18,2.83-6.27.19-.41.46-.79.75-1.28.72.55.56,1.31.89,1.87.36.61.55,1.3.81,1.96.25.63.52,1.25.71,1.9.18.62.52,1.25.24,1.93Zm-1.51-3.7c-.41-.97-.77-1.8-1.12-2.63-.65.93-1.11,1.82-1.34,2.9.85-.09,1.55-.17,2.46-.27Z"/>
      <path d="m84.51,35.14c-.32-.4-.14-.67.07-.92.21-.24.42-.49.69-.67,1.01-.69,1.47-1.75,1.96-2.8.06-.13.03-.3.04-.45q-.72.03-1.04-.43c.22-.11.44-.24.66-.33.7-.28,1.16.05,1.04.8-.09.55-.33,1.08-.5,1.61.09.04.17.11.2.09,1.01-.56,1.67,0,2.34.69.68.7.56,1.48.27,2.24-.26.7-.76,1.26-1.39,1.69-.7.48-2-.04-2.17-.88-.07-.33-.05-.67.32-.81.37-.14.77-.18,1.07.14.21.23.37.51.55.77.82-.46,1.34-1.59,1.13-2.35-.2-.73-.99-1.19-1.75-.92-.56.2-1.11.51-1.58.87-.51.38-.92.89-1.39,1.33-.15.14-.34.24-.5.35Zm3.28,1.08c.05-.06.1-.13.16-.19-.15-.1-.29-.2-.44-.3-.04.05-.07.1-.11.15.13.11.26.23.39.34Z"/>
      <path d="m72.79,129.66c-.29.96-.51,1.78-.81,2.58-.08.21-.4.39-.64.47-.36.12-.76.12-1.13.19-.38.08-.45.31-.24.68.94-.22,1.88-.58,2.98-.19-.53,1.34-1.68,1.8-2.83,2.33-.14-.46-.27-.88-.39-1.29-.91.16-.92,1.46-1.99,1.28.03-.13.02-.25.07-.29,1.27-.93,1.57-2.26,1.6-3.72,0-.5-.08-1.16.19-1.46.27-.29.94-.22,1.43-.3.55-.09,1.11-.18,1.77-.28Zm-2.96,1.37c1.33.13,1.52.06,1.92-.62-.57.23-1.32-.16-1.92.62Zm2.18,2.64c-.67.09-1.31.04-1.73.66.68.46,1.1.3,1.73-.66Zm-2.16-1.48c.8.24,1.37.13,1.84-.58-.73-.06-1.34-.07-1.84.58Z"/>
      <path d="m187.44,110.63c.12-.15.23-.28.34-.41.61-.7,1.24-1.38,1.82-2.1.17-.21.27-.52.33-.79.1-.51-.14-.8-.66-.82-.1,0-.2-.01-.29.02-1.08.3-2.16.61-3.23.92-.35.1-.38.39-.41.69-.06.57-.15,1.15-.16,1.72-.01.51-.23.85-.71,1.08-.7-.31-.95-.98-1.16-1.64-.06-.18.05-.45.16-.63.22-.35.44-.76.77-.97.84-.56.8-1.3.61-2.2-.48.14-.92.27-1.47.43.23-.99,1.48-.52,1.56-1.29.8-.06,1.5-.12,2.2-.17.02.07.05.14.07.21-.2.11-.38.26-.59.32-1.18.38-1.26.5-1.07,1.92.84-.21,1.66-.42,2.49-.62.37-.09.74-.23,1.11-.26,1.09-.09,1.59.57,1.24,1.62-.12.36-.31.72-.54,1.01-.5.62-1.05,1.21-1.6,1.79-.19.2-.4.44-.8.18Zm-2.93-.56c.36-.65.34-1.3.25-2.04-.97.85-1.01,1.22-.25,2.04Z"/>
      <path d="m219.11,30.45c.15-.61.55-.67.96-.77.81-.19,1.59-.49,2.41-.6.66-.09,1.35.02,1.94.36,0,.08,0,.15,0,.23-.41.05-.82.1-1.34.17-.04.31-.12.64-.14.98-.09,1.38-.15,2.76-.27,4.13-.06.7-.24,1.38-.38,2.07-.06.28-.23.51-.53.36-.1-.05-.13-.39-.08-.56.08-.3.25-.57.37-.83-.47-.13-.96-.15-1.32-.38-1.53-.98-1-2.95-.16-3.89.36-.4.83-.7,1.28-.99.22-.14.52-.18.43-.52-.1-.4-.44-.32-.71-.27-.6.11-1.19.25-1.78.38-.2.04-.4.07-.69.12Zm2.82.97c-.72.24-1.1.77-1.4,1.39-.3.62-.34,1.25.03,1.83.16.25.46.51.73.55.39.06.46-.35.56-.66.07-.21.17-.42.21-.64.13-.81.35-1.62-.13-2.47Z"/>
      <path d="m197.37,36.91c1.13-1.45,1.05-2.99.99-4.53,0-.19-.04-.38-.04-.57,0-.4.21-.65.58-.79.71-.26,1.65-.28,2.62-.02-.15.85-.32,1.71-.44,2.58-.11.85-.17,1.71-.25,2.62l.93.03c.18.36.04.54-.31.63-.45.11-.89.24-1.43.39-.18-.45-.62-.51-1.16-.41-.49.08-1,.06-1.5.08Zm2.99-4.15c-.39.13-.72.2-1,.36-.16.09-.29.3-.35.49-.03.1.09.31.2.38.33.2,1.14-.07,1.22-.43.15-.67.23-1.36.34-2.03-1.38-.28-1.86-.02-1.65.82.36.14.84-.11,1.24.41Zm.08,1.77q-1.45,0-1.95,1.66c1.72.03,1.81-.04,1.95-1.66Z"/>
      <path d="m15.6,3.76c-.74-.02-1.32-.03-1.9-.07-.06,0-.1-.18-.18-.32.69-.3,1.62.06,1.98-.84.42.17.78.32,1.25.51-.45.48-.35.97-.25,1.48.16.77.25,1.55.37,2.33.2,1.26.11,1.56-.82,2.67.29.26.59.53.94.85-.39.27-.7.14-.91-.05-.57-.51-1.2-.54-1.91-.34-.44.13-.87.04-1.25-.21-.4-.27-.58-.65-.4-.97.21-.38.62-.37.98-.31.24.03.46.18.68.27,1.34.59,2.08.18,2.02-1.2-.05-1.27-.23-2.53-.62-3.79Zm-2.18,5.31q.19.39.67.24c-.29-.11-.48-.17-.67-.24Z"/>
      <path d="m215.03,30.52c-.46.15-.79.25-1.11.35-.26-.37-.09-.61.21-.72.56-.21,1.07-.43,1.11-1.14,0-.06.2-.11.29-.16.19.54.36,1.02.57,1.62-.2.34-.68.72-.45,1.35.28.11.56.21.84.32.01.07.02.13.03.2-.29.13-.58.26-.9.4-.44,1.15.33,2.24.15,3.43.27.09.52.15.73.27.1.06.19.28.15.38-.04.11-.31.25-.35.22-.78-.66-1.55-.14-2.34-.03-.41.05-.89-.09-1.28-.27-.54-.26-.74-.77-.6-1.18.16-.46.81-.8,1.36-.66.3.08.58.26.87.39.23.1.45.2.82.37-.06-1.05-.12-1.98-.18-3.03-.65.1-1.28.19-2,.3.35-1.1,1.37-.61,2.03-1.07l.04-1.34Zm-.51,5.69c-.79-.87-1.26-.93-1.85-.28.56.65.88.71,1.85.28Z"/>
      <path d="m105.64,103.1l-.04,1.49c.75-.11,1.43-.22,2.2-.33-.13.77-.62.59-.98.65-.37.06-.74.13-1.19.22.05.96.04,1.85.16,2.73.15,1.11-.2,2.09-.6,3.07-.04.11-.16.19-.26.26-.04.03-.12.01-.28.02.03-.28.06-.54.09-.84-.04-.03-.11-.11-.19-.13-.67-.14-1.11-.58-1.5-1.11-.4-.55-.42-1.1-.03-1.59.54-.67.84-1.63,1.9-1.73.03,0,.07-.11.07-.17,0-.09-.01-.18-.02-.33-.92-.18-1.89.39-2.98-.13,1-.66,1.98-.11,2.79-.44.42-.46-.09-1.3.86-1.65Zm-1.24,3.46c-.33.44-.66.79-.89,1.2-.36.63.02,1.5.69,1.73.36.12.7.05.76-.34.14-.87.38-1.79-.56-2.6Z"/>
      <path d="m208.17,33.29c-.92.19-1.72.37-2.53.53-.44.09-.61.42-.78.78-.23.49-.43,1.01-.74,1.45-.16.23-.53.45-.78.42-.4-.05-.45-.48-.48-.84-.06-.66.26-1.19.8-1.42,1.06-.46,1.03-1.27.88-2.16-.05-.28-.09-.55-.17-1.04.31.17.55.23.6.36.1.26.1.56.13.85.04.34.06.68.1,1.1,1-.18,1.91-.34,2.81-.5.35-.06.45-.31.48-.62.04-.38.05-.77.12-1.15.04-.21.2-.4.39-.77.38.89-.12,1.58.15,2.35.28-.03.58-.09.88-.08.29,0,.58.07.95.12-.29.56-.67.56-1.05.58-1.13.06-1.14.06-1.34,1.18-.12.69-.22,1.39-.33,2.09-.06.39-.07.38-.62.66-.1-1.29.56-2.45.52-3.86Zm-4.56,2.61c.32-.49.63-.8.61-1.38-.54.32-.86.61-.61,1.38Z"/>
      <path d="m85.86,11.22c-.52-.08-.55-.47-.59-.8-.07-.61-.17-1.23-.12-1.83.07-.8-.26-1.41-.78-1.98-.89-.98-1.78-1.96-2.67-2.94-.24-.26-.51-.52-.24-1,1.37,1.11,2.19,2.64,3.67,3.77.65-.9,1.23-1.78,1.9-2.6.66-.82,1.4-1.58,2.13-2.4.43.39.26.64.02.9-.65.67-1.34,1.31-1.91,2.03-.55.7-.97,1.48-1.43,2.23-.06.09-.05.22-.04.34.02.84.03,1.69.07,2.53.01.25.11.5.19.75.13.37.23.73-.17,1.01Z"/>
      <path d="m223.15,78.52c.33-.31-.04-.95.66-1.02.08.36.15.69.23,1.06.17.02.32.05.47.05.72-.03.76-.07.84-.75.04-.31.07-.62.1-.95q.5.17.36,1.71c.32-.06.65-.04.89-.18.5-.3.84-.18,1.18.36-.18.1-.34.24-.53.28-.21.04-.45,0-.67,0-1.18-.03-1.34.17-1.11,1.45.93-.08,1.86-.16,2.91-.25-.22.73-.63.76-1.1.71-.37-.04-.74-.06-1.12-.05-.53.02-.92.2-.98.82-.01.13-.28.24-.54.45l.03-.89c-1.41-.04-2.74.51-4.1.59-.02-.07-.04-.14-.06-.21.14-.09.26-.23.41-.27.37-.09.76-.14,1.14-.19.75-.1.78-.13.86-.88.04-.37.07-.75.12-1.26-.76.08-1.44.16-2.22.24.61-.92,1.59-.52,2.23-.82Zm.74,2.29c1.06-.07,1.19-.28,1.13-1.69-1.36-.17-1.69.29-1.13,1.69Z"/>
      <path d="m124.17,80.16c-.42.26-.64.44-.89.54-.14.05-.33-.03-.5-.05.05-.17.05-.39.16-.49.49-.47,1.64-.73,2.51-.58-.74.63-.72,1.45-.68,2.39,1.65-.46,3.29-.9,4.75.55-.46,1.31-1.54,2.12-2.56,2.96-.12.1-.35.06-.57,0,.88-.87,1.8-1.64,2.42-2.67-.77-.79-1.37-.94-2.26-.71-2.06.52-1.88.57-1.91,2.25,0,.27-.21.62-.43.77-.33.22-.58-.12-.8-.34-.16-.16-.31-.33-.42-.52-.34-.58-.3-.78.18-1.26.02-.02.05-.05.07-.07.3-.24.6-.47.88-.73.06-.05.07-.18.07-.27,0-.51-.01-1.02-.03-1.78Zm-.09,4.26l.04-1.34c-.76.66-.77.76-.04,1.34Z"/>
      <path d="m89.29,133.8c.5.12.89.22,1.29.31-.18.73-.23.74-1.66.07-.19.16-.39.36-.61.53-.37.3-.81.53-1.24.29-.45-.24-.83-.62-.82-1.21,0-.28.02-.57.02-.83.83-.45,1.48.17,2.26.2.19-.78.18-1.54.02-2.37l-2.21-.07c.08-.62.51-.42.82-.45.35-.03.7-.03,1.2-.06-.13-.47-.24-.84-.37-1.27-.48.04-.91.08-1.42.12.23-.62.79-.49,1.18-.76.02-.19.04-.43.07-.73.6.34,1.14.64,1.8,1.01-.39.15-.66.25-1,.38.12.33.23.62.35.96.45-.03.85-.05,1.34-.08-.06.68-.77.36-1.11.69.03,1.04.05,2.08.08,3.24Zm-1.05.01c-.34-.13-.64-.28-.96-.36-.12-.03-.36.06-.41.16-.07.15-.08.38,0,.53.3.55.8.46,1.36-.32Z"/>
      <path d="m152.17,35.36c.21-.54.36-.95.58-1.52-.77.13-1.43.23-2.25.36.16-.27.2-.49.32-.54.26-.11.55-.15.83-.2,1.07-.17,1.11-.19,1.73-1.14.17.24.31.45.5.72.66-.02,1.36-.05,2.08-.07.16-.37.3-.71.45-1.07.63.21.21.78.54,1.14.37.01.81.02,1.25.04.22.01.52.01.45.33-.03.14-.32.3-.49.3-.54-.01-1.07-.1-1.58-.15-.42.99-.81,1.89-1.17,2.81-.04.11.09.29.14.44-.62.42-1.22.84-1.83,1.26-.05-.04-.1-.08-.15-.12.03-.16,0-.37.1-.47.3-.3.91-.49.62-1.03-.29-.56-.74-1.06-1.46-1.12-.16-.01-.32.01-.66.03Zm3.73-1.82c-.82.04-1.48.02-2.13.11-.49.06-.75.78-.42,1.11.44.43.95.79,1.47,1.23.6-.72.75-1.52,1.07-2.44Z"/>
      <path d="m112.61,80.8c-1.32.01-2.01.99-3.07,1.53,0-.31-.06-.57.03-.68.41-.45.24-.86.02-1.32-.39-.8-.74-1.62-1.12-2.47.5-.23.63.12.76.38.22.43.38.88.59,1.31.16.31.36.6.58.95.9-.52,1.41-1.35,2.09-2.01.63-.62.94-1.59,1.99-1.88.13.49-.15.67-.36.9-.74.8-1.47,1.6-2.2,2.41-.06.07-.09.16-.18.32.72.07,1.34-.56,2.12-.1-.16.26-.35.51-.48.78-.27.57-.53,1.15-.75,1.75-.27.76-.12,1.46.41,2.06.17.19.3.41.04.55-.11.06-.41-.09-.52-.22-.7-.8-.75-1.74-.49-2.71.13-.49.32-.96.53-1.55Z"/>
      <path d="m105.83,34.42c-.08-1.25.44-2.38,1.2-3.4.27-.37.69-.68,1.11-.88.55-.26,1.11-.14,1.6.29,1.25,1.09,2,3.77.42,5.26-.63.59-1.25,1.2-1.94,1.71-.62.45-1.18.3-1.69-.29-.66-.76-.8-1.66-.7-2.69Zm4.66-1.12c-.03-.86-.38-1.64-1.05-2.31-.39-.38-.77-.4-1.21-.15-.81.47-1.41,1.12-1.61,2.05-.14.65-.24,1.33-.23,1.99,0,.49.15,1.02.35,1.47.3.7.85.85,1.47.4.54-.4,1.06-.84,1.48-1.35.46-.57.8-1.24.81-2.09Z"/>
      <path d="m39.66,33.79c.06-.23.07-.48.18-.68.5-.89,1.03-1.77,1.56-2.65.24-.4.55-.56,1.05-.36.38.16.81.18,1.22.25.51.09,1,.18,1.47.67-.43.9-.79,1.87-1.33,2.71-.81,1.26-1.42,2.66-2.53,3.72-.26.25-.47.54-1,.19.68-.8,1.35-1.58,2-2.32-.24-.73-1.36-.78-1.13-1.9.53.41.95.73,1.44,1.1.19-.19.43-.33.52-.53.33-.76.63-1.54.9-2.33.16-.47.03-.66-.45-.75-.31-.06-.64-.06-.96-.09-.39-.04-.68.08-.89.43-.45.74-.91,1.47-1.38,2.2-.1.16-.24.31-.37.46-.09-.04-.18-.09-.28-.13Z"/>
      <path d="m176.98,107.6c-.26-.5-.7-.99-.73-1.5-.03-.48.36-.99.58-1.5-.63-.39-1.03.4-1.61.19.15-.48.51-.73.91-.76.68-.06.94-.44,1.06-1.02.02-.11.13-.2.31-.47.07.5.12.81.17,1.17l1.34.04c-.03.52-.39.52-.69.49-1.12-.1-1.12.85-1.44,1.5-.3.6.1.95.46,1.33.93-.23,1.38-1.37,2.52-1.07-.63.48-1.27.96-1.96,1.48.43.28.74.48,1.05.68q-.37.45-1.4-.19c-.47.32-.8.78-1.07,1.28-.25.46-.15.66.36.88.82.35,1.63.24,2.43-.06.32-.12.64-.28.99-.44.15.39.03.66-.26.76-1.13.39-2.27.75-3.45.19-.87-.42-.96-.63-.51-1.48.28-.53.64-1.02.94-1.49Z"/>
      <path d="m199.29,60.03c-.01.5-.26.62-.63.61-1.35-.04-2.18-.98-2.06-2.33.04-.47.15-.93.23-1.45-.88-.23-1.64.33-2.51.29.1-.59.55-.63.92-.72.4-.09.82-.12,1.24-.15.38-.03.56-.21.6-.6.04-.32.18-.62.29-.99.65.43.24.9.33,1.41.32-.02.66-.05,1-.04.51.01.82-.19,1.01-.69.16-.42.3-.92.91-1.02.28.6-.41.84-.42,1.39.73.29,1.45-.37,2.22-.1.1.36-.14.53-.42.59-.44.09-.89.15-1.34.14-.61,0-1.06.15-1.3.76-.09.23-.25.46-.44.62-.1.09-.31.07-.67.13.32-.46.53-.76.75-1.07-.87-.47-1.44-.26-1.68.59-.07.25-.1.5-.13.76-.19,1.28.22,1.78,1.5,1.86.18.01.36.01.58.02Z"/>
      <path d="m79.17,59.75c-.74.15-1.27.22-1.77.37-.58.17-.89,0-.83-.6.13-1.34.29-2.67.43-4,.08-.76.75-1.08,1.19-1.56.16-.18.54-.16,1-.28-.35.79-1.32.83-1.26,1.69.57-.04,1.12-.09,1.72-.13-.01.37-.01.62-.03.86-.05.76-.17,1.53-.14,2.29.03.58-.08,1.06-.31,1.37Zm-1.83-.42c1.19,0,1.92-.69,1.19-1.49q-1.24.14-1.19,1.49Zm1.48-3.32c-1.25-.05-1.42.14-1.1,1.17,1.13.19,1.28.04,1.1-1.17Z"/>
      <path d="m28.38,82.13c-1.19.71-1.84,1.91-3.02,2.52-.02.01-.09-.07-.24-.19.41-.43.83-.83,1.21-1.28.66-.78,1.3-1.59,1.94-2.39.21-.26.35-.55.04-.92-.41.1-.85.21-1.36.33.06-1.04.96-.67,1.39-1.06l.03-.85c.56-.08.54.44.85.66.32-.02.68-.05,1.09-.08-.03.54-.42.49-.67.63-.18.1-.48.27-.47.38.03.25.16.56.35.72.37.29.81.48,1.3.77-.68.63-1.27-.43-1.84.06-.09,1.34-.18,2.7-.28,4.06-.67.12-.67-.27-.64-.62.09-.91.22-1.82.34-2.73Z"/>
      <path d="m20.7,59.59c-.19-1.05-.36-1.98-.54-3l-1.39-.04c.16-.46.47-.52.78-.57,1.03-.17,1.63-.11,2.14.26-.76.55-.66,1.27-.45,2.05.11.42.07.89.1,1.41.99.4,1.99.96,3.06,1.2,1.03.23,2.13.14,3.2.19-.02.48-.3.48-.54.53-1.54.27-3.01-.01-4.4-.67-.81-.39-1.59-.61-2.5-.35-.39.11-.88.19-1.28-.37.61-.21,1.15-.41,1.82-.64Z"/>
      <path d="m214.09,78.86c-.53.07-1.07.15-1.6.22-.02-.07-.04-.13-.06-.2.2-.11.39-.28.61-.32.69-.11,1.3-.31,1.66-1.1.16.33.27.54.4.8.24-.04.48-.1.73-.11.2,0,.41.04.62.07.02.07.04.13.05.2-.2.1-.41.29-.59.27-.78-.1-1.19.26-1.41.96-.04.14-.17.27-.28.39-.38.43-.38.86.04,1.41.27-.19.55-.38.81-.58.33-.26.63-.55.96-.8.29-.21.59-.24.8.2-.76.51-1.51,1.01-2.2,1.48.05.53.33.6.62.66.26.06.44.2.3.47-.14.29-.41.29-.65.11-.23-.17-.43-.38-.7-.62-.14.16-.3.27-.38.42-.37.7-.07,1.26.7,1.23.6-.03,1.19-.19,1.79-.3.23-.04.46-.11.69-.17.17.42-.04.63-.28.66-.92.12-1.84.25-2.76.25-.64,0-1.02-.76-.78-1.47.13-.39.36-.75.48-1-.1-.62-.31-1.17-.22-1.65.09-.46.51-.85.78-1.27-.05-.07-.09-.15-.14-.22Z"/>
      <path d="m44.12,83.4c.09-.28.19-.55.27-.83.14-.52.35-1.04.37-1.57.03-.78-.31-1.08-1.27-1.21-.26.61-.57,1.24-.79,1.9-.7,2.08-1.27,1.56-2.63.72-.44-.27-.57-.79-.33-1.19.7-1.2,1.55-2.19,3.1-2.26,2.35-.1,2.83,1.5,2.42,3.31-.08.33-.27.66-.47.95-.1.15-.32.21-.49.32-.06-.04-.12-.09-.18-.13Zm-1.35-3.71c-1.09-.05-1.65.6-2.18,1.27-.12.16-.15.43-.15.64,0,.58.53.56.89.71.32.13.59.02.7-.3.26-.74.48-1.5.74-2.32Z"/>
      <path d="m155.78,27.85c-.78.54-1.56,1.08-2.34,1.63-.05-.06-.11-.11-.16-.17.52-.94.84-2.01,1.86-2.92l-.03,1.14c.56-.17,1.06-.35,1.58-.46.37-.08.77-.11,1.14-.07.32.03.56.29.37.62-.36.62-.78,1.2-1.56,1.5.2-.48.41-.97.62-1.48-.46-.12-.74-.02-.88.47-.38,1.32-.27,1.66.9,2.36.05.03.11.06.17.09.27.14.54.28.37.65-.14.3-.44.3-.79-.01-.48-.42-.94-.86-1.44-1.32-.79.26-1.06,1.35-2.02,1.39-.06,0-.12-.14-.22-.27,1.07-.82,2.12-1.65,2.42-3.15Z"/>
      <path d="m42.55,127.64c.04.58.07,1.16.11,1.77.85.31,1.66-.27,2.52-.06.03.12.1.25.07.36-.26,1.16-.52,2.31-1.2,3.32-.1.16-.24.29-.39.41-.05.04-.22.03-.26-.02-.07-.09-.14-.23-.11-.33.02-.11.15-.2.22-.3.6-.8.89-1.69.74-2.82-.34.03-.67.05-1.01.08-.44.04-.62.28-.79.7-.46,1.16-1,2.29-1.54,3.41-.18.38-.41.8-1.1.68.62-1.56,1.95-2.71,2.12-4.43-.76-.26-1.51.22-2.39-.04.68-.85,1.67-.29,2.32-.73.44-.61-.14-1.45.38-2.04.1,0,.2.02.3.03Z"/>
      <path d="m123.45,35.22c.35-1.09.65-2.2,1.05-3.27.28-.75.89-.95,1.64-.64.72.3,1.22.85,1.41,1.6.15.58.26,1.22.18,1.8-.18,1.25-.74,2.38-1.65,3.29-.6.59-.93.55-1.55-.03-.8-.74-1.02-1.67-1.08-2.75Zm.62.05c.03.74.11,1.42.61,2.01.51.59.82.62,1.29-.02.38-.51.68-1.09.96-1.66.43-.89.36-1.81-.04-2.7-.22-.48-.49-.97-1.08-.97-.58,0-.85.49-1.1.95-.05.08-.09.17-.11.27-.18.71-.36,1.42-.54,2.13Z"/>
      <path d="m63.07,131.8c-.26-.18-.49-.33-.8-.54.19-.55.38-1.1.6-1.72-.48-.04-.86-.06-1.45-.11.66-.64,1.72-.37,1.9-1.37.09.23.18.47.28.74l1.21.04c0,.52-.35.48-.67.53-.55.07-1.18,1-1.06,1.55.07.34.45.51.74.31.26-.18.47-.43.72-.64.28-.23.29-.23.89-.24-.16.81-1.07.97-1.45,1.68.3.09.56.16.91.27-.06.25-.13.5-.22.86-.38-.24-.66-.42-1.04-.66-.2.18-.53.35-.63.6-.14.36-.24.82-.15,1.18.12.49.63.32.99.31.32,0,.63-.09.95-.11.2-.02.4,0,.61.01-.02.17,0,.26-.04.29-.53.48-2.15.6-2.72.2-.47-.33-.64-.77-.41-1.45.19-.57.52-1.09.83-1.73Z"/>
      <path d="m146.42,36.55c.09-.33.11-.56.21-.75.19-.37.43-.72.64-1.08.39-.68.32-1.36-.02-2.03-.35-.69-.89-.72-1.3-.06-.27.44-.47.91-.74,1.35-.37.6-.74,1.2-1.17,1.77-.39.51-.82.44-1.11-.14-.29-.58-.4-1.22-.07-1.77.77-1.28,1.82-2.4,3.49-2.32.75.03,1.15.33,1.52.93.57.91.06,3.35-1.46,4.09Zm-1.13-4.02c-.55-.05-1.34.49-1.75,1.18-.32.53-.31,1.03.1,1.6.64-.89,1.35-1.7,1.65-2.78Z"/>
      <path d="m101.93,38.51c-.64-2.76-.11-5.34-.1-7.91-1.07-.49-2.11,0-3.19-.05.04-.63.48-.67.87-.7.57-.05,1.16,0,1.73-.05,1.05-.09,2.1-.22,3.15-.34.1-.01.2-.05.28-.02.13.05.25.15.37.23-.1.14-.18.37-.31.39-.44.1-.89.12-1.33.17-.81.09-.85.13-.95.91-.26,1.98-.3,3.97-.12,5.96q.07.76-.41,1.4Z"/>
      <path d="m193.12,85.73c.49-1.65,1.52-3.05,1.65-4.87-.45.02-.82.02-1.19.05-.29.02-.65.05-.66.41,0,.2.25.39.39.59-.66.44-.86.3-1.09-.86l-1.66-.05c.21-.49.56-.39.86-.42q.91-.09,1.16-.95c.08-.27.08-.59.54-.58.38.41-.23.83.04,1.36.43-.03.91-.06,1.3-.08.46-.69-.34-1.26.09-1.84.03-.03.12-.02.31-.04.13.55.26,1.12.42,1.8.78-.13,1.54-.26,2.41-.41-.23.69-.7.71-1.12.79-.25.05-.51.02-.77.06-.31.05-.46.24-.56.56-.43,1.41-.91,2.8-1.37,4.2-.1.31-.31.37-.77.26Z"/>
      <path d="m165.11,61.13c-.43-.11-.84-.13-1.25.15-.17.12-.53.09-.72,0-.39-.2-.77-.46-1.08-.77-.59-.6-.58-1.1-.05-1.55.62-.53,1.01-.48,1.6.18.04.04.1.06.23.13l.08-2.62c-.93.18-1.75.34-2.58.5-.02-.07-.05-.15-.07-.22.59-.81,1.69-.44,2.44-.91.12-.36.25-.73.37-1.09h.25c.08.3.15.58.23.89.2.07.42.15.67.24-.04.15-.05.29-.1.31-.62.25-.72.76-.7,1.33.03.67.02,1.35.1,2.02.03.25.22.5.41.69.18.19.44.29.17.73Zm-1.28-.51c.2-.61-.45-.69-.64-1.06-.14-.29-.43-.4-.7-.14-.25.24-.19.54.02.76.35.36.74.7,1.31.44Z"/>
      <path d="m37.27,59.47c-1.2.5-2.7.3-3.37-.41-.46-.48-.51-.89-.17-1.26.45-.49.77-.54,1.34-.17.26.17.52.34.93.62-.17-1.07-.31-1.97-.45-2.87-.56-.57-1.2.66-1.86-.13.26-.14.47-.25.68-.37.46-.26,1.02-.29,1.4-.77.28-.36.54-.22,1.16.5-.77.41-.72,1.1-.63,1.82.09.66.1,1.34.27,1.99.09.37.43.67.7,1.06Zm-1.52-.35c.03-.09.07-.18.1-.28-.31-.2-.61-.43-.94-.59-.13-.06-.34.05-.51.08.07.19.09.49.21.54.36.14.76.17,1.15.25Z"/>
      <path d="m96.08,3.39c.08.16.23.33.23.49-.06,1.72-.14,3.45-1.13,4.98-.25.39-.59.75-.97,1.04-.64.49-1.36.4-1.92-.17-.16-.17-.3-.38-.4-.59-.66-1.42-.51-2.91-.37-4.39,0-.05.05-.11.09-.15.04-.04.1-.06.2-.12.38.18.24.53.25.82.02.87.01,1.75.04,2.62.02.51.17.98.57,1.35.45.42.83.49,1.31.08.38-.33.72-.74.96-1.16.36-.64.61-1.32.63-2.08.02-.89.13-1.78.2-2.67.1-.01.19-.03.29-.04Z"/>
      <path d="m196.78,31.67c.49.4.76.86.92,1.39.03.11-.1.27-.16.42-.15-.06-.25-.08-.32-.14-.73-.67-1.43-.52-1.68.44-.16.64-.14,1.33-.19,2-.02.22.02.46-.04.67-.05.15-.22.26-.47.52-.22-1.21.16-2.24.03-3.34-.47.21-.89.4-1.42.63-.09-1.24,1.06-1.56,1.41-2.38-.01-.04-.01-.13-.05-.15-.89-.59-.91-.71-.2-1.52.19-.22.38-.45.61-.61.14-.09.36-.06.55-.09.04.07.07.14.11.21-.26.26-.55.5-.76.79-.11.15-.16.44-.09.58.14.27.42.25.66.06.33-.27.66-.54,1.12-.91.06.88-.55,1.07-.88,1.44-.36.4-.76.76-1.09,1.2.79-.16,1.49-.46,1.93-1.23Z"/>
      <path d="m119.16,84.91c-.43-.5-.21-.74.05-1.02.26-.27.53-.58.64-.93.35-1.06-.21-1.95-1.49-2.35-.14.29-.3.59-.44.89-.33.69-.61,1.42-1.01,2.07-.2.33-.38.88-1.01.68-.62-.2-1.1-.73-1.01-1.34.07-.45.27-.92.52-1.31.46-.72,1.15-1.2,1.97-1.45,1-.31,1.97,0,2.58.78.73.93.8,1.88.16,2.84-.26.39-.62.72-.98,1.13Zm-1.61-4.05c-.85.04-1.96.99-2.05,1.71-.06.5.15.78.78.99.51-.85,1.07-1.68,1.27-2.71Z"/>
      <path d="m11.07,61.23c-.25-.48-.45-1-.35-1.61.09-.52.22-1.05-.1-1.58-.19-.31.04-.6.36-.77.63-.34,1.31-.5,2.03-.5.47,0,.72.22.76.68.03.29.04.57.03.86-.01.42-.06.83-.08,1.24q-.08,1.39-1.47,1.63c-.31.05-.63.09-.95.12-.06,0-.12-.03-.23-.07Zm1.99-3.6c-1.14-.41-1.93.12-1.37,1.55.44-.12.89-.24,1.43-.38-.02-.43-.04-.82-.05-1.17Zm-1.31,2.92c1.01-.05,1.1-.12,1.14-.82-1.08-.17-1.2-.1-1.14.82Z"/>
      <path d="m34.46,35.91c.26-.44.47-.75.65-1.08.3-.57.22-.99-.2-1.39-.47-.44-.77-.41-1.17.13-.54.71-1.08,1.43-1.63,2.14-.27.35-.59.63-1.06.36-.36-.21-.63-.98-.48-1.36.38-1,1.08-1.8,1.99-2.27,1.09-.57,2.05-.31,3.05.85.54.62.42,1.69-.23,2.47q-.19.22-.91.17Zm-1.3-2.88c-.91.09-1.33.74-1.74,1.38-.21.33-.28.7.09,1.19.58-.91,1.32-1.59,1.65-2.57Z"/>
      <path d="m154,109.71c-.24-.32-.03-.54.13-.78.3-.45.65-.89.87-1.38.49-1.08-.06-2.12-1.13-2.26-.62-.08-.9.07-1.22.68-.33.62-.66,1.25-.99,1.87-.04.08-.1.16-.15.24-.59.9-.92,1.08-1.39.75-.66-.47-.94-1.57-.43-2.13,1.18-1.31,2.61-2.17,4.47-1.96.97.11,1.84,1.39,1.49,2.42-.31.88-.9,1.67-1.39,2.49-.03.05-.17.04-.26.06Zm-3.36-1.34c.7-.78,1.14-1.65,1.58-2.62-1.08.12-2,.92-2.14,1.73-.07.4.06.68.57.89Z"/>
      <path d="m120.48,38.31c-.1-.31-.31-.62-.28-.92.13-1.55-.28-2.97-.82-4.39-.26-.69-.43-1.41-.61-2.12-.07-.26-.08-.54-.13-.87.59.06.59.43.69.76.24.85.5,1.7.8,2.69.31-.22.51-.31.64-.46.85-1,1.68-2.02,2.53-3.02.16-.19.36-.38.59-.49.12-.06.33.06.5.09-.03.14-.02.32-.11.42-.93,1.02-1.86,2.03-2.81,3.02-.3.32-.45.67-.5,1.11-.15,1.11-.33,2.21-.02,3.33.07.24-.12.56-.18.84-.09,0-.18,0-.27.01Z"/>
      <path d="m7.01,108.19c1.41-3.23,3.47-5.85,5.3-8.75.85.7,1.26,1.64,1.94,2.32.66.67,1.42,1.23,2.19,1.87-.42.33-.7.1-.95-.13-.87-.8-1.73-1.62-2.58-2.45-.13-.13-.2-.32-.31-.51-.29.19-.5.26-.59.4-1.21,1.96-2.77,3.71-3.7,5.85-.13.29-.23.6-.36.89-.15.34-.16.33-.95.49Z"/>
      <path d="m179.23,85.03c-.46-.33-.3-.55-.11-.8.29-.38.59-.77.81-1.19.44-.83.27-1.38-.51-1.87-.52-.32-.67-.26-1.1.27-.65.79-1.33,1.56-2.03,2.31-.3.32-.63.69-1.16.47-.35-.15-.55-.83-.4-1.39.06-.24.19-.48.34-.68.84-1.13,2.01-1.68,3.38-1.77.86-.06,1.57.32,2.04,1.05.46.72.26,1.43-.16,2.08-.34.52-.73,1.01-1.11,1.52Zm-1.27-3.87c-1.05.04-1.79.45-2.3,1.21-.26.39-.58.78-.17,1.39,1-.69,1.7-1.59,2.47-2.6Z"/>
      <path d="m99.26,59.15c-.61,1.05-1.2,1.13-1.93.27-.34-.4-.83-.84-.52-1.43.31-.58.91-.47,1.46-.38.03,0,.06-.01.23-.05-.03-.81.04-1.64-.22-2.6-.66.13-1.27.25-1.93.38-.01-.49.31-.6.64-.71.51-.17,1.01-.4,1.54-.49.42-.08.87,0,1.31.02.03.06.05.13.08.19-.28.23-.55.45-.86.71.02.84.07,1.7.06,2.56,0,.53.22.82.69,1.02.28.12.74.14.6.76-.37-.08-.73-.15-1.14-.23Zm-.86.14c.15-.92-.12-1.15-1.02-.84.12.55.52.74,1.02.84Z"/>
      <path d="m135.02,59.45c.3-.44.64-.8.8-1.22.35-.9-.33-1.9-1.29-1.89-.26,0-.58.23-.77.45-.26.31-.41.72-.63,1.07-.46.73-.98,1.41-1.82,1.89-.27-.47-.56-.89-.75-1.35-.09-.22-.07-.62.07-.79.91-1.03,1.99-1.83,3.41-1.97,1.35-.13,2.63,1.11,2.4,2.35-.1.54-.47,1.03-.77,1.51-.15.23-.43.27-.65-.05Zm-3.66-.64c.09,0,.18.01.28.02.29-.33.63-.63.85-.99.22-.36.65-.68.48-1.27-.85.3-1.45.78-1.81,1.52-.08.17.12.48.19.73Z"/>
      <path d="m62.51,3.63c-.24.32-.47.65-.73.96-.86,1.01-1.42,2.1-1.34,3.43.04.78.3,1.48.7,2.15.17.28.37.55.02.84-.78-.42-1.27-1.85-1.32-3.42-.04-1.37.75-2.41,1.52-3.53-1.27-.55-2.35.47-3.6.17.11-.19.15-.37.25-.41,1.41-.55,2.88-.55,4.36-.42.05.08.1.15.15.23Z"/>
      <path d="m153.93,8.95c1.22-.06,1.73-.84,1.38-2.02-1.07-.12-1.34.01-1.78.82-.35.65-.71,1.29-1.09,1.93-.12.2-.31.37-.56.5-.03-1.08,1.01-1.75,1.17-2.78-.82-.3-1.38.59-2.25.42.23-.52.62-.67,1.03-.8.24-.08.46-.19.71-.22.6-.08.97-.33.99-.95,0-.12.13-.24.2-.36.61.08.36.56.55.89.24-.03.51-.08.78-.08.64,0,.95.31,1.01.91.08.9-.38,1.56-1.03,2.13-.46.4-.78.29-1.11-.39Z"/>
      <path d="m48.76,37.64c-.02-1.68.59-3.34.53-5.11-1.22.19-1.54,1.56-2.66,1.86-.1-.57.23-.75.47-.99.77-.77,1.59-1.5,2.31-2.32.54-.61.96-1.34,1.47-2.08.42.08.53.42.32.81-.18.33-.45.62-.72.89-.46.45-.63.96-.65,1.63-.06,1.6-.23,3.19-.37,4.79-.03.34-.13.65-.7.52Z"/>
      <path d="m162.65,103.31c.76-.95,1.97-.83,3.32-1.05-.64,1.47-.39,2.93-.89,4.11-.86.04-1.58.08-2.4.12.07-.7.16-1.35.18-2,.01-.31-.11-.63-.22-1.17Zm.73,2.41c1.15.17,1.36.05,1.34-.75-.53.02-.97.18-1.34.75Zm0-1.17c1.03.04,1.19-.03,1.46-.64-.57-.08-1.03.05-1.46.64Zm1.41-1.52q-.61-.03-.99.38.61.04.99-.38Z"/>
      <path d="m194.68,106.19c-.61.17-1.21.34-1.9.53.02.77.04,1.47.05,2.17,0,.43.13.91-.49,1.21-.2-.56-.17-1.08-.16-1.61.03-1.28.07-2.56.09-3.84.02-.91.49-1.51,1.4-1.74.37-.09.75-.18,1.12-.26.09-.02.19.01.39.03,0,.27-.01.55-.03.82-.03.7-.04,1.4-.13,2.09-.03.22-.25.41-.39.62,0,0,.03-.02.03-.02Zm-1.99-1.61c.69-.05,1.17-.09,1.64-.12.15-.44.31-.79.09-1.22-.64.26-1.4.25-1.72,1.34Zm.13,1.48c.58.18.9-.21,1.28-.4.1-.05.21-.33.17-.39-.1-.12-.29-.24-.45-.24-.51,0-.79.28-.99,1.03Z"/>
      <path d="m80.37,85.65c-.18-.84-.68-.83-1.19-.68-.52.15-1.02.34-1.66.56-.05-.41-.09-.82-.14-1.23-.05-.42-.66-.69-.33-1.22,1.17-.31,2.36-.64,3.55-.94.4-.1.83-.15,1.24-.13.8.03,1.1.62.62,1.24-.6.78-1.28,1.49-2.09,2.41Zm-.58-1.38c1.06.36,1.44-.39,1.86-1.02.09-.14.16-.44.09-.51-.13-.13-.4-.25-.57-.2-.96.25-1.91.54-2.85.84-.27.09-.55.25-.45.62.1.39.4.47.75.42.41-.05.82-.11,1.17-.15Z"/>
      <path d="m51.98,128.43c-.26.78-.41,1.37-.64,1.92-.56,1.33-1.09,2.69-2.24,3.66-.24.21-.46.45-.92.22.12-.2.2-.39.33-.53.29-.3.63-.55.91-.86.48-.53.47-.6.07-1.15-.09-.13-.2-.25-.3-.38-.08-.1-.15-.2-.25-.33.6-.57.79.3,1.34.31.51-.59.59-1.41.83-2.28-.67-.02-1.25-.12-1.8-.02-.33.06-.67.37-.9.66-.38.47-.68,1.01-1.01,1.52-.18.27-.18.27-.7.25,0-.09-.03-.2.01-.27.52-.81,1.04-1.62,1.6-2.4.13-.19.4-.39.61-.39.96-.02,1.91.04,3.06.07Z"/>
      <path d="m21.13,3.47c.1.14.28.27.3.41.2,1.59.37,3.18.54,4.77.06.59.08,1.26.69,1.53.63.28,1.2-.21,1.67-.56.41-.31.69-.78,1.05-1.21.39.23.28.55.11.81-.58.83-1.37,1.43-2.42,1.67-.62.14-1.26-.23-1.49-.82-.09-.24-.13-.51-.16-.77-.18-1.62-.36-3.24-.52-4.86-.03-.3.01-.61.02-.91.07-.02.14-.04.21-.06Z"/>
      <path d="m158.16,103.69c.74-.32,1.48-.64,2.24-.97-.02-.34-.03-.62-.05-.97.15,0,.38-.07.41,0,.13.2.2.45.32.75.58-.17,1.17-.35,1.86-.55-.07.51-.34.62-.59.71-.36.14-.76.2-1.08.4-.2.13-.35.43-.39.68-.02.12.23.35.41.43.31.15.66.23,1.03.36-.38.93-.99.05-1.56.31-.48.54-.03,1.59-.8,2.25-.51-.81.36-1.46.09-2.24-.92.48-1.38,1.42-2.1,2.13-.37-.47-.04-.71.17-.96.54-.64,1.09-1.26,1.63-1.89.12-.14.2-.31.41-.65-.75.21-1.33.38-1.9.54l-.11-.32Z"/>
      <path d="m74.88,60.42c-.9.15-1.25-.77-2.07-.89-.41.66-.86,1.34-1.27,2.05-.19.32-.36.52-.78.23.37-1.03,1.15-1.81,1.72-2.81-.24-.36-.52-.75-.77-1.15-.31-.52-.25-.76.25-1.12.71-.5,1.49-.82,2.47-.98-.02,1.23-.94,2.04-1.05,3.09.27.7,1.29.69,1.49,1.56Zm-1.17-3.74c-.85.21-1.27.5-1.28.84-.01.32.1.57.56.53.21-.39.42-.79.73-1.36Z"/>
      <path d="m130.92,31.69c-.09.43-.2.79-.23,1.16-.09.92-.22,1.85-.2,2.77.01.55.11,1.28.75,1.43.63.15,1.03-.42,1.36-.9.77-1.11,1.21-2.33,1.03-3.71-.04-.28-.06-.58-.03-.86.02-.15.19-.28.29-.42.11.12.33.25.33.37,0,.9.09,1.84-.14,2.68-.26.93-.79,1.81-1.3,2.65-.2.33-.61.57-.97.76-.6.31-1.05.2-1.39-.39-.25-.43-.4-.94-.49-1.43-.23-1.19.09-2.36.28-3.52.04-.26.13-.58.73-.58Z"/>
      <path d="m30.26,109c.12-.52.53-.67.97-.8q1.46-.43,1.37-1.95c-.06-.99-.11-1.97-.16-2.96,0-.15.05-.3.11-.57.82.41.37,1.19.7,1.78l1.48.04c-.02.5-.37.48-.62.56-.82.28-.83.27-.87,1.14-.03.47-.03.94-.05,1.54.66-.06,1.22-.11,1.78-.15.25-.02.53-.07.76,0,.13.04.19.29.28.44-1.98.32-3.85.63-5.74.94Z"/>
      <path d="m151.62,85.13c-.38-.42-.11-.59.11-.77.32-.26.66-.51.97-.79.38-.34.48-.81.27-1.23-.26-.52-.65-.96-1.27-1.07-.35-.07-.51.19-.67.44-.46.7-.89,1.42-1.39,2.08-.5.65-1.15.64-1.61.04-.28-.37-.28-.77-.06-1.17.71-1.26,1.86-1.85,3.22-2.01,1.12-.13,2.29.92,2.4,2.05.02.16.04.34-.02.47-.42.89-1.11,1.51-1.95,1.97Zm-1.06-3.76c-.99.19-1.55.68-1.98,1.33-.1.15-.14.36-.13.54,0,.14.11.32.22.38.11.05.34.02.42-.06.56-.6,1.11-1.22,1.47-2.19Z"/>
      <path d="m207,106.98c-.36.08-.65.14-.93.19-.03-.07-.06-.14-.1-.21.36-.22.73-.41,1.08-.65.36-.24.05-.94.74-1.05,0,.19,0,.33-.02.47-.01.11-.04.22-.07.35,1.27.05,1.52-.1,1.99-1.13.11-.24.06-.7.71-.49-.18.44-.34.85-.52,1.29.77-.1,1.48-.19,2.19-.29.03.07.06.14.08.21-.15.12-.28.31-.44.35-.27.08-.57.05-.86.09-.84.14-1.63.36-2.1,1.17-.14.24-.42.41-.63.6-.07-.06-.14-.11-.21-.17.19-.33.38-.66.58-1.01-.76-.06-.87,0-1,.54-.27,1.08.19,1.9,1.26,2.22.27.08.58.06.85.14.13.04.21.23.35.39-1.94.44-3.02-.69-2.95-3.03Z"/>
      <path d="m164.91,4.71c.48-.57.53-.61,2.76-1.17.44-.11.91-.44,1.48-.05-.12.18-.2.35-.33.5-.46.55-.97,1.07-1.39,1.64-1.01,1.35-1.04,2.83-.5,4.34.09.24.38.42.69.75-.07.12-.23.38-.48.78-.87-1.26-1.13-2.48-1.08-3.81.06-1.4,1.02-2.37,1.85-3.55-1.14-.05-1.92.64-3.01.57Z"/>
      <path d="m75.28,81.94c.04-.21.04-.44.14-.61,1.19-1.98,2.68-3.72,4.12-5.6.18.18.29.28.39.39.76.95,1.52,1.89,2.27,2.84.59.75,1.18,1.51,1.75,2.29.1.14.08.37.16.73-.93-.44-1.09-1.28-1.62-1.8-.52-.51-.99-1.08-1.47-1.64-.49-.58-.97-1.18-1.54-1.87-.52.62-1.02,1.18-1.48,1.78-.45.58-.8,1.24-1.29,1.79-.49.55-.62,1.36-1.19,1.85-.08-.05-.17-.1-.25-.15Z"/>
      <path d="m202.68,59.93c-.08-.23-.16-.35-.13-.4.96-1.58,2.12-3.04,2.83-4.77.03-.08.2-.1.43-.21-.03,1.07-.85,1.74-1.01,2.72.19-.03.36-.04.53-.09.42-.11.68.07.87.42.13.25.24.52.37.78.36.75.67.88,1.45.55.49-.21.95-.48,1.45-.74.31.44.09.76-.21.91-.47.25-.99.48-1.51.56-.96.15-1.21-.04-1.63-.94-.51-1.08-1-1.18-1.87-.37-.3.28-.54.63-.83.93-.21.21-.45.39-.73.63Z"/>
      <path d="m56.8,130.76c.8-.06,1.46-.12,2.1-.17.09.47-.15.52-.43.58-.52.1-1.19.07-1.52.38-.31.28-.19.98-.38,1.45-.37.92-.81,1.81-1.25,2.69-.11.21-.35.47-.6.18-.09-.1-.03-.42.06-.58.27-.47.63-.89.9-1.36.42-.74.61-1.53.41-2.4-1.27-.09-2.42.54-3.81.59.33-.61.72-.69,1.13-.77.63-.11,1.26-.22,1.89-.36.87-.19.87-.21.86-1.07,0-.1-.06-.22-.02-.28.09-.14.23-.24.35-.36.11.13.3.25.32.39.04.31,0,.62-.02,1.08Z"/>
      <path d="m71.83,30.05c-1.04-.25-1.83.41-2.76.33.55-.88,2.22-1.29,3.6-.89-.19.47-.35.94-.56,1.39-.3.67-.66,1.32-.94,2-.28.69-.43,1.41-.29,2.16.16.83.39,1.62,1.16,2.09-.36.63-.42.65-.79.29-.75-.72-.97-1.64-1.01-2.62-.06-1.33.36-2.52,1.04-3.64.2-.33.34-.7.54-1.12Z"/>
      <path d="m106.17,9.9c.03-.74.67-.36.98-.66.09-1.37.18-2.81.28-4.32-.46.02-.82.04-1.21.06-.18-.3-.18-.6.25-.64.81-.06,1.62-.05,2.43-.05.06,0,.13.11.2.17-.05.09-.08.22-.12.23-.76.09-.92.6-.96,1.18-.07.9-.14,1.8-.16,2.71,0,.27.13.55.2.81.47.11,1.07-.17,1.22.59-1.05.09-2.07-.06-3.11-.08Z"/>
      <path d="m21.03,30.56c-.47.56-.8,1.05-1.24,1.43-.53.46-.58.92-.48,1.61.16,1.1.09,2.24.1,3.36,0,.14-.11.28-.19.45-.44-.21-.46-.54-.45-.9.02-.58.06-1.15.06-1.73,0-.33-.06-.67-.1-1.05-.74.09-1,.62-1.29,1.02-.31.42-.39,1.03-1.09,1.09-.27-.52.06-.88.3-1.23.22-.31.49-.61.79-.84,1.02-.77,1.69-1.83,2.42-2.84.24-.34.47-.6,1.18-.37Z"/>
      <path d="m114.12,106.17c-.72.27-1.22.46-1.87.7.21-.63.61-.86,1.01-.96.54-.14.92-.39,1.13-.91.03-.07.14-.1.29-.2.19.26.37.51.58.79-.42.58-.62,1.18-.32,1.88.08.19.05.45,0,.66-.13.63-.09,1.2.58,1.54-.1.14-.17.28-.2.27-.56-.1-1.1.04-1.65.14-.21.04-.45.01-.66-.05-.44-.12-.83-.76-.76-1.21.06-.35.71-.7,1.18-.61.27.05.53.17.97.32-.1-.82-.18-1.5-.28-2.38Zm-.2,3.06c-.23-.26-.44-.57-.85-.28-.06.04-.08.27-.03.34.28.37.57.26.88-.06Z"/>
      <path d="m123.9,55.44l-.06,1.99c.59-.49.97-.87,1.41-1.15.37-.24.7-.81,1.33-.38-.07.5-.48.6-.8.77-.9.48-1.63,1.13-2.14,2.01-.08.14-.17.28-.21.43-.23.81.03,1.22.87,1.17.85-.05,1.69-.26,2.58-.41.13.36-.04.71-.41.76-.85.12-1.72.21-2.57.18-.88-.04-1.44-.76-1.06-1.51.57-1.13.51-2.28.55-3.46,0-.15.15-.3.23-.45.09.02.19.04.28.06Z"/>
      <path d="m55.09,33.94c-.16.83-.09,1.69-.07,2.55,0,.32.02.64-.03.95-.02.1-.22.25-.33.24-.11,0-.26-.17-.29-.28-.05-.21-.03-.45-.02-.67.14-2.21.28-4.42.43-6.63.01-.2.12-.4.29-.59.51,1.2.02,2.47.26,3.71,1.03.06,2.04-.32,3.04.06-1,.68-2.18.22-3.28.65Z"/>
      <path d="m172.86,30.24c-.63.25-1.26.5-1.92.76.28-.83,2.2-1.64,3.62-1.56.12.48-.28.67-.54.91-.66.59-1.14,1.27-1.44,2.12-.36,1.02-.36,2.02-.09,3.02.11.41.44.76.62,1.15.08.17.15.44.07.56-.18.25-.44.1-.54-.11-.31-.66-.69-1.32-.83-2.02-.28-1.44.03-2.8.86-4.03.12-.18.22-.38.33-.56-.05-.08-.1-.15-.15-.23Z"/>
      <path d="m201.02,107.29c-.49.26-.97.52-1.47.78-.24-.34-.02-.53.18-.66.29-.19.64-.29.94-.47.34-.2.66-.45,1.09-.74.76.54,1.61-.29,2.6-.16-.06,1.4-.6,2.46-1.7,3.49-.32-.67-.57-1.19-.85-1.77-.81.29-.72,1.31-1.31,1.86-.49-.41-.13-.74.06-1.07.21-.36.41-.72.62-1.08-.05-.06-.11-.12-.16-.18Zm2.64-.7c-.59.08-1.24.02-1.39.56-.12.44-.03,1.07.59,1.37.46-.53.8-1.07.79-1.94Z"/>
      <path d="m93.65,127.62c.28.79.2,1.53.16,2.26-.06,1.03-.14,2.05-.19,3.07-.02.35,0,.71.09,1.05.24.93.96,1.2,1.76.64.44-.31.83-.71,1.22-1.08.26-.24.49-.53.95-.27-.03.11-.02.26-.09.32-.65.52-1.31,1.04-1.97,1.54-.13.1-.28.16-.43.22-.86.35-1.49.05-1.82-.83-.43-1.16-.23-2.34-.17-3.52.04-.83.01-1.66.01-2.48,0-.34-.09-.71.48-.92Z"/>
      <path d="m55.11,7.86c.39.4.44.69.06.97-.58.43-1.15.9-1.77,1.27-1.14.68-1.83.45-2.06-.81-.22-1.23-.23-2.49-.33-3.73,0-.06,0-.12.02-.17.05-.23.11-.53.42-.44.14.04.22.36.26.56.03.16-.06.34-.08.51-.14,1.08-.05,2.15.28,3.2.2.63.46.73,1.11.44.65-.29,1.26-.64,1.62-1.27.1-.17.27-.31.48-.53Z"/>
      <path d="m61.92,104.52c.75-.51,1.63-.32,2.42-.48.07-.8,0-.86-.63-.73-.37.07-.74.45-1.18.03.25-.66,1.01-.32,1.39-.76,0-.29-.02-.63-.02-.99.79-.19.52.62.88.81l1.3.04c-.24.6-.79.38-1.11.67-.14.31-.1.64.26.76.27.1.6.03.92.04-.07.56-.62.45-.88.77.04.25.1.52.14.8.1.67.09.67-.69.75-.03-.05-.09-.12-.08-.15.39-1.23.23-1.47-1-1.39-.38.03-.75.16-1.12.23-.31.06-.58.03-.6-.39Z"/>
      <path d="m80.46,56.57c.06-.79.32-1.36.83-1.96.74,1.12,1.77.06,2.65.54.02.14.1.34.05.5-.38,1.22-.75,2.45-1.21,3.64-.2.52-.63.96-.97,1.42-.15.2-.39.3-.55.04-.07-.11,0-.37.09-.49.98-1.17,1.7-3.04,1.72-4.58-.99-.2-1.71.47-2.61.89Z"/>
      <path d="m184.66,32.08c-.21.03-.42.07-.62.1-.22-.37-.04-.6.23-.74.68-.35,1.36-.71,2.08-.97.56-.2.86.17.64.75-.3.77-.66,1.53-1.01,2.28-.2.42.13.92.16,1.12.02.11,1.16,1.68,1.2,1.84-.16-.02-1.1-1.08-1.5-1.41-.05-.04-.09-.1-.11-.15-.04-.1-.07-.17-.22-.48-.58.68-1.01,1.17-1.42,1.65-.4-.2-.34-.44-.16-.66.18-.23.42-.4.58-.64.27-.4.45-.77.19-1.32-.19-.39-.05-.93-.06-1.4.78.15.29,1.01.76,1.4.46-.72.91-1.39.85-2.34-.66.21-1.28.33-1.6.97Z"/>
      <path d="m119.21,59.25c.09-1.2.17-2.26.26-3.32,0-.05.14-.09.36-.22.02.74.03,1.39.05,2.03.02.67.04,1.34.06,1.99.18.34.8.29.66.91-.45-.08-.9-.17-1.36-.23-.44-.05-.9,0-1.32-.11-.35-.1-.71-.32-.96-.58-.41-.42-.37-.81,0-1.18.44-.44.72-.43,1.23-.02.31.25.65.46,1.03.72Zm-1.66-.3c.24,1,.45,1.09,1.24.66-.46-.24-.85-.45-1.24-.66Z"/>
      <path d="m24.7,29.94c.03.27.1.54.1.8,0,.8-.02,1.6-.03,2.4,0,.81.09.92.92,1,.35.03.71.03,1.05.11.28.07.54.23.79.46-.93.49-1.86-.17-2.88.14-.02.59-.04,1.21-.05,1.84,0,.19.06.39.03.57-.02.12-.16.22-.25.34-.12-.12-.33-.22-.34-.35-.04-.64-.05-1.28-.03-1.92.04-1.63.1-3.26.17-4.9,0-.18.14-.36.21-.54.1.01.21.02.31.04Z"/>
      <path d="m104.61,130.55c.19-.78.84-1.21,1.43-1.64.55-.41,1.22-.65,1.91-.46.67.19.91.76.96,1.42.08,1.14-.02,2.25-.57,3.27-.36.68-.74,1.35-1.12,2.02-.15.27-.17.26-.84.2.19-.31.33-.57.49-.82.69-1.05,1.34-2.12,1.49-3.4.05-.44.06-.9.01-1.34-.07-.61-.38-.82-.99-.76-.67.06-1.22.36-1.67.86-.27.3-.57.56-.86.84-.08-.07-.16-.13-.23-.2Z"/>
      <path d="m156.76,85.83c-.43-.39-.25-.64-.14-.91.42-1.04.88-2.07,1.23-3.12.22-.65.29-1.35.46-2.19-.47.15-.76.23-1.16.35.09-.25.12-.5.22-.53.77-.24,1.12-.76,1.08-1.58.84.02.42.55.47.99.79-.14,1.57-.28,2.37-.43.11.51-.11.59-.44.64-.53.08-1.06.21-1.59.34-.34.08-.55.3-.56.68,0,1.15-.53,2.17-.86,3.23-.2.64-.41,1.27-.65,1.9-.08.22-.26.39-.43.64Z"/>
      <path d="m51.56,102.87c-.47.44-.8.73-1.09,1.04-1.22,1.28-1.48,2.8-.97,4.45.12.38.41.7.66,1.1-.11.11-.23.24-.36.36-1.47-1.33-1.47-3.49-.17-6.03-.7-.24-1.2.61-1.88.37.45-.78,2.44-1.52,3.81-1.3Z"/>
      <path d="m184.89,85.47c-.08-.64.31-1.02.66-1.43.76-.91,1.17-1.95,1.15-3.19-1.16-.01-2.16.27-3.12.74-.26.13-.52.29-.75-.1.2-.42.56-.58.98-.66,1.26-.22,2.52-.43,3.79-.64.45-.08.9-.18,1.55-.3-.41,1.03-1.36.44-1.85,1.07-.06,1.79-1.01,3.27-2.4,4.51Z"/>
      <path d="m138.27,109.21c.39.23.88-.04,1.06.45-.04.08-.06.17-.09.18-.75.07-1.47.13-2.18.49-.58.3-1.62-.54-1.7-1.21-.07-.62.56-1.01,1.21-.72.31.14.58.35.9.55.74-1.1.14-2.37.69-3.65.16.33.32.5.31.66-.04.86-.12,1.72-.18,2.58-.02.24-.02.48-.02.67Zm-2.34-.06c.57.74.68.76,1.26.39q-.52-.52-1.26-.39Z"/>
      <path d="m141.46,61.45c-.64-.18-1.07-.3-1.55-.44-.03-.46.36-.5.68-.5.98.02,1.49-.62,1.95-1.34.08-.12.09-.29.15-.5-.98-.23-1.87-.03-2.81.11.05.56.1,1.03.15,1.6-.69-.4-1.03-1.3-.87-2.18,1.15-.03,2.32-.1,3.49-.09.65,0,.9.42.55.97-.54.86-1.2,1.64-1.74,2.37Z"/>
      <path d="m40.21,105.08c.23-.73.73-.93,1.2-1.06.68-.18,1.28-.38,1.41-1.2,0-.05.16-.08.31-.14.24.37.39.89.99.71-.02.2-.02.3-.04.31-.67.2-.91.7-1,1.35-.09.67-.18,1.34-.36,1.99-.19.67-.46,1.33-.76,1.96-.12.25-.41.42-.62.63-.38-.42-.11-.64.05-.85.93-1.18.96-2.62,1.13-4.01.01-.08-.07-.17-.11-.26-.81-.36-1.35.4-2.21.57Z"/>
      <path d="m171.67,53.12c.22.49-.03.92-.19,1.28-.42.94-.49,1.9-.49,2.91,0,.86-.21,1.71-.32,2.57-.05.34-.08.69-.12,1.03-.03.3-.11.56-.52.61-.26-.45-.14-.89-.02-1.37.2-.81.34-1.63.48-2.45.03-.17-.03-.36-.06-.57-.7.1-.6,1.02-1.38,1.1.09-.28.1-.5.21-.65.86-1.15,1.49-2.39,1.78-3.81.06-.31.19-.61.62-.66Z"/>
      <path d="m89.67,79.77c.35-.94,1.49-.74,1.57-1.76.72.81,1.5-.26,2.22.32-.18.42-.53.43-.87.48-.88.14-.95.25-1.12,1.15-.15.78-.33,1.56-.52,2.33-.14.56-.32,1.09-.15,1.69.1.36.05.78-.56.83-.33-.83-.1-1.62.1-2.41.16-.62.36-1.23.51-1.85.07-.3.08-.62.14-1.02-.42.08-.75.14-1.31.24Z"/>
      <path d="m99.11,133.2c.56-.29.95-.49,1.43-.73.01-.36.01-.77.04-1.17.04-.73.18-.82.87-.66.3.07.61.13.93.2-.04.47-.37.42-.63.44-.37.03-.62.15-.62.57,0,.4.12.67.56.75.58.11,1.14.27,1.83.44-.73.69-1.42.15-2.04.27-.05.05-.11.09-.13.15-.25,1.02-.36,1.07-1.25.5-.3-.19-.58-.43-.99-.75Z"/>
      <path d="m134.29,2.99c-.34.68-.64,1.24-.89,1.81-.43,1-.81,2.03-.66,3.13.08.57.26,1.13.48,1.67.2.48.25.47.89.45,0,.09.03.18,0,.26-.11.28-.04.72-.47.76-.44.04-.46-.4-.62-.67-.03-.05-.04-.11-.08-.16-1.11-1.6-.92-3.25-.3-4.94.17-.46.33-.93.48-1.41.15-.49.53-.73,1.17-.9Z"/>
      <path d="m71.08,126.78c-.26.28-.49.49-.66.74-.83,1.14-1.63,2.3-2.46,3.45-.09.13-.29.18-.55.34.03-.31-.02-.54.07-.66,1.16-1.59,2.34-3.17,3.54-4.8.57.63,1.03,1.2,1.55,1.71.52.51,1.09.95,1.66,1.44-.33.46-.65.28-.91.04-.54-.5-1.06-1.03-1.58-1.55-.2-.2-.39-.41-.67-.69Z"/>
      <path d="m115.44,55.39c-.53.04-.94.08-1.4.12.05-.91.93-.56,1.4-.98.02-.15,0-.42.09-.64.05-.14.25-.23.38-.34.08.12.21.23.24.37.04.18,0,.38,0,.6.62.14,1.31-.55,2.03.27-.43.08-.72.18-1.02.19-.82.03-1.3.38-1.43,1.24-.15.94-.37,1.88-.59,2.8-.06.27-.25.51-.43.86-.67-.9,0-1.54.1-2.22.1-.71.39-1.4.64-2.26Z"/>
      <path d="m135.63,78.83c.17-.34.34-.69.58-1.16-.44-.01-.78-.06-1.11-.03-1.02.09-2.04.21-3.06.33-.92.11-1.05.24-1.27,1.2-.02.09-.09.17-.14.24-.02.02-.06.03-.14.07-.43-.36-.13-.87-.3-1.3.64-.49,1.32-.7,2.14-.66.03-.22.05-.43.08-.64.3-.23.55-.08.75.15.25.28.53.29.87.26,1.08-.11,2.16-.19,3.42-.3-.38.95-.8,1.62-1.62,1.97-.07-.04-.13-.09-.2-.13Z"/>
      <path d="m18.34,111.17c-.13-3.09.3-6.05.72-9.01.02-.11.21-.19.44-.4.03.34.09.54.07.73-.18,1.46-.42,2.92-.54,4.38-.09,1.11-.04,2.24-.02,3.36,0,.43-.03.77-.67.93Z"/>
      <path d="m143.28,103.67c.23.35.35.54.47.71.51,0,.92-.56,1.44-.2-.02.45-.35.46-.62.5-.98.13-1.46.71-1.55,1.66-.09.97-.48,1.89-.34,2.91.09.66-.48,1.19-1.09,1.22.38-1.62.75-3.25,1.13-4.89-.39-.06-.67-.1-.95-.14-.02-.06-.04-.12-.06-.18.74-.26,1.19-.81,1.56-1.6Z"/>
      <path d="m202.09,78.14c-.17.53-.35,1.05-.51,1.58-.07.24-.22.51-.16.72.26.97.05,1.91-.08,2.86-.05.38-.1.76-.13,1.14-.03.4-.18.66-.67.65-.13-.75.25-1.38.37-2.06.12-.68.33-1.36.07-2.16-1,.73-1.53,1.84-2.61,2.58-.03-.6.26-.85.5-1.12.45-.5.91-.99,1.36-1.48.55-.6.96-1.27,1.21-2.05.09-.28.28-.52.42-.78.08.04.16.07.25.11Z"/>
      <path d="m56.56,78.32c-.3-.03-.64-.05-1.06-.09.29-.73,1.03-.37,1.45-.8.21-.33-.23-1.09.68-1.23.02.38.04.71.07,1.16l1.52.05c0,.07.01.15.02.22-.35.09-.71.16-1.06.26-.74.2-.87.37-.94,1.12-.09.93.07,1.73,1.04,2.15.14.06.21.28.33.45-.8.11-1.49-.25-1.77-1.12-.22-.68-.2-1.43-.29-2.17Z"/>
      <path d="m159.28,11.26c-.28-.34-.16-.56.04-.83,1.22-1.6,1.23-3.3.32-5.02-.21-.39-.67-.66-.99-1.01-.1-.11-.1-.28-.15-.43.14-.01.34-.08.42-.02.32.22.69.43.9.74,1.23,1.79,1.27,3.67.32,5.57-.19.37-.27.86-.86,1.01Z"/>
      <path d="m9.14,10.8c-.51-.5-.86-.91-.88-1.56-.04-1.39-.2-2.78-.24-4.18-.01-.6.14-1.21.28-1.8.06-.25.28-.46.58-.62-.1.75-.29,1.51-.29,2.26-.01,1.37.07,2.73.15,4.1.02.27.19.54.33.8.15.28.36.54.07,1Z"/>
      <path d="m24.95,110.75c.08-.32.14-.65.25-.96.11-.3.28-.58.42-.86.98-1.89,1.18-3.91.99-5.99-.02-.21.03-.43.05-.63.43-.06.5.22.5.47,0,1.65.3,3.33-.49,4.92-.41.83-.69,1.72-1.05,2.58-.09.21-.24.4-.36.59-.11-.04-.21-.08-.32-.12Z"/>
      <path d="m221.02,104.18l2.24.07c-.21.17-.33.32-.47.37-.27.09-.56.12-.84.18-.55.13-.88.43-.93,1.05-.1,1.15-.25,2.29-.37,3.43-.03.33-.06.64-.57.81-.21-1.58.42-3.03.45-4.56-.24-.06-.46-.13-.82-.23.53-.45.94-.8,1.32-1.12Z"/>
      <path d="m148.09,11.14c-.18-.54-.2-.79.03-1.11.57-.79,1.14-1.6,1.28-2.58.1-.7.13-1.38-.16-2.06-.13-.29-.19-.62-.23-.93-.02-.17.09-.35.18-.65.19.22.33.32.35.43.16.86.36,1.71.43,2.58.06.72-.1,1.44-.52,2.09-.32.5-.54,1.04-.82,1.56-.11.19-.28.35-.54.68Z"/>
      <path d="m50.96,57.75c-.65.64-1.29,1.11-2.09,1.24-.35.06-.8-.16-1.14-.36-.26-.15-.45-.45-.62-.72-.28-.45-.64-.5-1.06-.24-.35.22-.68.48-1.03.71-.25.16-.51.31-.76.47l-.18-.16c.07-.17.1-.42.23-.51.57-.41,1.15-.82,1.78-1.14.63-.32,1.03-.19,1.68.68.7.93,1.01,1,1.88.28.32-.27.6-.72,1.29-.23Z"/>
      <path d="m63.74,35.87c-.16-1.71.26-3.2.27-4.71l.2-.07c.1.15.28.3.29.46.02.64,0,1.28-.02,1.92,0,.35-.02.69-.03,1.1.61.02.91-.43,1.26-.76.32-.3.64-.55,1.12-.03-1.03.64-1.87,1.48-3.08,2.08Z"/>
      <path d="m76.91,128.01c-.02.53-.02,1.03-.05,1.53-.07,1.34-.16,2.68-.24,4.02-.03.48-.07.96-.11,1.44-.03.38-.2.66-.72.72,0-.26,0-.46.02-.67.08-.73.22-1.45.26-2.18.1-1.47.15-2.94.23-4.41.01-.27.05-.52.61-.46Z"/>
      <path d="m104.63,58.45c.03-.16,0-.37.1-.47.23-.26.5-.5.78-.7.81-.57,1.13-.51,1.74.27.63.81,1.08.87,1.94.28.21-.14.4-.32.63-.42.11-.05.35,0,.42.08.07.09.07.39.01.42-.6.33-1.2.7-1.85.9-.56.17-1.02-.17-1.4-.63-.67-.81-.68-.8-1.49-.13-.23.19-.48.35-.72.52-.05-.04-.11-.08-.16-.13Z"/>
      <path d="m189.91,37.29c.17-.52.23-.93.42-1.27.91-1.71,1.38-3.5,1.09-5.46-.04-.28-.02-.58.04-.86.04-.17.23-.3.41-.52.51,3.07-.44,7.14-1.96,8.11Z"/>
      <path d="m82.05,135.47c.03-.22.02-.46.11-.66.62-1.43.89-2.92.87-4.47-.01-.77.05-1.53.1-2.3.01-.19.14-.37.39-.55.04.19.12.39.12.58-.05,1.31-.07,2.63-.21,3.93-.1.95-.34,1.88-.58,2.81-.07.28-.33.51-.51.76-.1-.03-.2-.07-.3-.1Z"/>
      <path d="m227.99,105.03c.69-.23,1.19-.44,1.71-.56.57-.14,1.07-.27.93-1.04-.02-.09.11-.2.27-.48.19.47.32.79.44,1.1.35.25.88-.29,1.12.36-.29.11-.58.21-.86.31-.38.71.31,1.69-.64,2.35-.08-.82.26-1.59-.22-2.34-.47.11-.92.24-1.39.32-.38.07-.73.56-1.35-.02Z"/>
      <path d="m215.75,59.54c-.6.89-1.25,1.17-1.93,1.35-.78.21-1.22-.2-1.18-1.01.03-.57.18-1.12.73-1.37.56-.25,1.06-.01,1.5.36.27.23.56.42.87.66Zm-2.37.87c.36-.1.74-.15,1.05-.32.17-.09.34-.42.3-.59-.05-.18-.32-.39-.53-.43-.63-.13-1.01.46-.82,1.34Z"/>
      <path d="m144.98,53.25c-.12.48-.46.45-.78.47-1.57.1-3.14.18-4.71.3-.46.04-.9.18-1.56.32.21-.32.27-.52.39-.57.32-.13.67-.26,1.01-.29,1.76-.16,3.51-.29,5.27-.41.12,0,.26.11.38.17Z"/>
      <path d="m227.85,37.05c-.67-.02-.92-.29-.88-.96.04-.68.39-1.2.93-1.6.42-.31.83-.06,1.16.14.18.1.27.48.27.73-.02.95-.72,1.72-1.47,1.69Zm.81-1.87c-.68-.08-.96.28-1.12.76-.04.12.02.34.11.42.09.08.31.08.42.02.43-.25.73-.58.58-1.2Z"/>
      <path d="m112.2,135.83c-.77,0-1.03-.37-.77-1.12.19-.57.49-1.04,1.08-1.28.51-.21,1.04-.07,1.37.35.3.39.25.83-.18,1.29-.4.43-.87.77-1.5.76Zm-.25-.69c.68.14,1.17-.04,1.41-.56.06-.13.09-.36.02-.43-.11-.12-.32-.2-.48-.2-.54.02-.83.4-.95,1.18Z"/>
      <path d="m162.2,107.84c.17.92.81,1.51,1.61,1.98.37.22.68.56.99.82.64,0,.59-.97,1.37-.84-.1.8-.65,1.19-1.2,1.61-.84-.64-1.69-1.22-2.44-1.89-.36-.33-.59-.83-.8-1.29-.15-.33.07-.46.48-.4Z"/>
      <path d="m86.69,107.17c.22.17.42.36.66.51.29.18.74.32.61.73-.12.36-.4.79-.72.93-.37.16-.89.12-1.29,0-.57-.17-.71-.9-.34-1.45.25-.37.57-.68,1.08-.72Zm.75,1.37c-.35-.42-.71-.36-1.03-.29-.13.03-.22.25-.32.39.16.12.34.36.46.33.28-.06.54-.25.89-.43Z"/>
      <path d="m136.07,103.69c-1.43.55-1.62,1.72-2,2.79-.19.54-.28,1.17-.98,1.58.03-.29.02-.47.07-.63.2-.61.38-1.22.64-1.81.21-.49.33-.94-.08-1.37.62-.62,1.21-1.14,2.35-.57Z"/>
      <path d="m68.72,9.08c.3.28.58.51.81.77.63.71.28,1.61-.69,1.81-.48.1-1.1-.41-1.12-.94-.02-.53.21-.93,1-1.65Zm-.39,1.82c.47.07.84.14.92-.36.04-.3-.12-.55-.43-.54-.59.03-.47.47-.49.9Z"/>
      <path d="m210.2,80.25c-1.05,1.2-1.88,2.51-3.1,3.45-.32.25-.7.45-1.07.62-.16.07-.39-.02-.75-.05.2-.21.26-.35.35-.37.89-.21,1.51-.81,2.08-1.47.54-.63,1.05-1.29,1.58-1.93.2-.25.38-.54.92-.26Z"/>
      <path d="m216.58,109.73c-.61-.76-1.24-1.52-1.83-2.31-.1-.14-.12-.46-.03-.6.5-.82,1.13-1.53,1.98-2.03.03-.02.11.04.21.07-.07.41-.45.58-.69.83-1.14,1.18-1.16,1.47-.06,2.71.25.29.62.47.97.73q-.09.28-.54.59Z"/>
      <path d="m61.01,36.03c-.03-.21-.11-.43-.07-.63.24-1.47.51-2.94.78-4.41.01-.06.14-.1.24-.17.4.34.23.79.18,1.15-.19,1.39-.34,2.79-.84,4.1-.09-.01-.19-.03-.28-.04Z"/>
      <path d="m242.35,110.48c-.38,0-.53-.24-.55-.61-.04-.69.72-1.62,1.41-1.71.47-.07.94.36.93.84-.02.63-1.12,1.55-1.79,1.49Zm1.05-1.6c-.87.11-.97.22-.9.98.72-.1.8-.19.9-.98Z"/>
      <path d="m8.01,131.98c.62-.64,1.24-.69,1.82-.73,1.22-.09,2.45-.27,3.66.01.02.08.03.17.05.25-.17.09-.34.27-.5.25-1.45-.17-2.87.02-4.3.28-.17.03-.36-.03-.74-.07Z"/>
      <path d="m29.37,130.06c0,.23,0,.44-.02.65-.06,1.01-.37,2.01,0,3.03.16.43-.13.74-.72.89-.04-.14-.12-.29-.11-.43.05-1.12.1-2.24.18-3.36.04-.55.11-.59.68-.77Z"/>
      <path d="m66.84,84.38c-.33-.54-.36-2.44-.08-4.47.33-.09.47.08.48.38,0,.67-.01,1.34,0,2.01,0,.28,0,.58.1.83.3.74.29.83-.5,1.25Z"/>
      <path d="m53.25,77.28c-1.8.15-3.59.29-5.39.44-.03-.07-.06-.13-.09-.2.14-.12.27-.34.42-.36,1.5-.15,3-.28,4.5-.38.2-.01.41.15.62.24-.02.09-.05.17-.07.26Z"/>
      <path d="m183.03,9.91c-.02.59-.44,1.08-.92,1.19-.55.12-.94-.17-.89-.69.07-.67.53-1.09,1.1-1.4.26-.14.49-.03.57.25.07.25.11.51.14.64Zm-1.12.62q.57-.26.37-.76c-.29.19-.52.38-.37.76Z"/>
      <path d="m110.44,105.82c-.03.3-.07.6-.07.9-.02,1.1-.35,2.21.07,3.31.05.13-.14.36-.22.54-.14-.13-.41-.26-.4-.39.02-1.4.08-2.79.15-4.19,0-.09.14-.17.22-.25l.26.08Z"/>
      <path d="m147.46,5.09c-.71.53-.95,1.17-.95,1.9,0,.28-.07.55.29.76.3.17.2.49-.05.66-.29.19-.49-.03-.55-.27-.11-.44-.29-.91-.23-1.34.07-.56.32-1.11.54-1.65.17-.41.49-.34.95-.05Z"/>
      <path d="m231.54,79.62c-.02.29-.03.58-.07.87-.11.76-.27,1.51-.36,2.26-.03.27.04.57.14.83.2.53.22.52-.38.95-.4-.73-.24-1.5-.19-2.23.06-.93.09-1.88.5-2.73.12.02.24.03.35.05Z"/>
      <path d="m94.04,55.2c-.04,1.32-.08,2.64-.12,4.04-.29.24-.53.08-.59-.31-.06-.34,0-.7,0-1.05.02-.73.03-1.47.07-2.2.02-.34.11-.64.65-.49Z"/>
      <path d="m30.86,55.06c.15,1.34.29,2.61.42,3.88,0,.04-.07.1-.14.19-.7-.2-.67-.83-.73-1.35-.16-1.47,0-2.39.45-2.72Z"/>
      <path d="m64.89,56.87c-1.44.13-2.75.25-4.06.36-.05,0-.12-.13-.18-.2.37-.43,1.32-.64,3.11-.68.63-.02.65,0,1.14.52Z"/>
      <path d="m159.2,56.1c.05,1.62.1,3.24.15,4.9-.51-.06-.58-.46-.59-.77-.04-1.18-.04-2.36-.01-3.55,0-.22.17-.44.26-.66.07.02.13.05.2.07Z"/>
      <path d="m234.47,108.17c.37-.12.57-.18.99-.32-.26.42-.38.73-.59.91-.25.22-.56.11-.74-.17-.08-.12-.13-.3-.13-.46.03-.86.05-1.72.14-2.57.05-.42.3-.76.94-.52-.74.92-.7,1.95-.61,3.12Z"/>
      <path d="m150.61,31.65c.31-.84,1.05-1.27,1.61-1.86.03-.73-.67-1.28-.56-2.2.71.52.91,1.05.82,1.74-.04.3,0,.6,0,1.03-.56.36-1.07,1.02-1.87,1.29Z"/>
      <path d="m86.39,55.89c.09.15.25.31.24.46-.07,1.1-.03,2.23-.32,3.3-.07.02-.14.03-.21.05-.1-.16-.31-.33-.29-.47.09-1.1.22-2.2.34-3.3.08-.01.16-.03.24-.04Z"/>
      <path d="m18.21,132.43c-.9,1.09-1.59,2.23-2.68,3.1-.29-.47-.14-.73.11-.95.64-.59,1.24-1.19,1.61-1.99.17-.37.23-.34.96-.16Z"/>
      <path d="m227.63,85c-.64-1.11-1.28-2.2-1.89-3.3-.05-.09.08-.28.17-.58.32.51.55.91.8,1.29.39.58.78,1.16,1.19,1.72.27.38.29.37-.27.87Z"/>
      <path d="m237.49,108.69l.12-4c.16.16.33.24.35.35.22,1.07.27,2.14.12,3.22-.05.35-.22.51-.59.43Z"/>
      <path d="m86.01,84.31c.29-.51,1.08-.54,1-1.36-.36-.03-.71-.06-1.08-.09.41-.6.91-.72,1.41-.35.44.32.46.68.04,1.23-.19.26-.41.5-.64.72-.26.25-.51.22-.74-.15Z"/>
      <path d="m39.43,103.65c-.17,1.03-.48,2.06.14,2.98-.48.38-.77.21-.85-.14-.2-.84-.28-1.71.07-2.54.07-.16.28-.26.42-.38.07.03.14.05.21.08Z"/>
      <path d="m63.79,109.45c-.59-.95-1.34-1.51-1.85-2.37.42-.19.63-.31.92.07.41.56.91,1.04,1.47,1.66-.1.11-.26.31-.53.64Z"/>
      <path d="m81.23,131.61c-.14.37-.44.5-.76.37-.22-.1-.5-.37-.52-.59-.05-.54,0-1.09.1-1.62.06-.32.26-.67.82-.53-.12.4-.27.77-.33,1.16-.12.76-.04.88.7,1.21Z"/>
      <path d="m70.65,82.09c.89.64,1.69,1.2,2.47,1.79.11.08.1.32.15.48-.14.04-.34.16-.43.1-.82-.54-1.68-1.05-2.2-1.94-.05-.09,0-.24,0-.44Z"/>
      <path d="m189.82,30.5c-.1.87-.2,1.71-.28,2.54-.03.33-.12.55-.6.51-.03-.22-.11-.45-.08-.68.07-.57.19-1.12.29-1.69.07-.42.31-.65.68-.69Z"/>
      <path d="m58.2,107.61c.11-1.01.21-1.89.32-2.87.72.29.66.86.56,1.29-.12.53.19,1.33-.88,1.57Z"/>
      <path d="m224.13,82.14c-.4,1.3-1.07,2.42-2.17,3.29-.37-.2-.31-.46-.09-.63.84-.62,1.28-1.49,1.66-2.42.07-.16.28-.26.43-.39.06.05.11.1.17.15Z"/>
      <path d="m54.49,130.04c.37-1.07,1.57-1.96,2.7-2.06-.67,1.1-1.9,1.31-2.7,2.06Z"/>
      <path d="m191.82,77.48c-.32.53-.51,1.06-.88,1.4-.25.24-.81.03-1.04.75-.32-.85-.02-1.25.26-1.76.2.19.34.33.5.48.37-.21.21-1.12,1.16-.87Z"/>
      <path d="m187.7,78.18c-.99.57-2.08.73-3.22,1.07.08-.58.46-.69.76-.76.8-.18,1.59-.52,2.46-.31Z"/>
      <path d="m197.86,79c-.68-.46-.25-1.13-.57-1.58-.82.11-.28.89-.66,1.24-.51-.09-.34-.5-.34-.8.03-1.03.96-.67,1.52-1.05.11.76.13,1.41.05,2.18Z"/>
      <path d="m94,82.63c.2-.11.33-.24.39-.21.82.41,1.59.9,2.21,1.59-.1.39-.36.51-.64.29-.64-.5-1.24-1.05-1.97-1.67Z"/>
      <path d="m32.54,132.51c.79-.08.86-.04,2.51,1.57-.18.28-.38.53-.74.23-.58-.49-1.14-1.02-1.69-1.54-.06-.05-.06-.17-.08-.26Z"/>
      <path d="m184.76,56.54c.07.79.16,1.57.21,2.36.01.17-.1.36-.19.52-.03.06-.17.06-.35.12-.02-.51-.01-.97-.05-1.43-.04-.45-.13-.89-.16-1.33,0-.09.19-.2.29-.3.09.02.17.05.26.07Z"/>
      <path d="m160.5,108.22c-.18.4-.36.63-.39.89-.06.42-.27.88.22,1.23.08.06.06.4-.03.48-.09.08-.41.08-.49,0-.46-.51-.35-1.14-.27-1.74.06-.42.23-.8.97-.86Z"/>
      <path d="m16.84,105.19c0,1.36-.29,2.59-.75,3.12-.1-1.01-.04-1.9.23-2.78.04-.12.27-.19.52-.35Z"/>
      <path d="m169.58,106.14c-.17.93-.65,1.87.03,2.75-.42.26-.72.11-.76-.18-.13-.84-.23-1.71.31-2.48.03-.05.1-.09.16-.1.06-.02.12,0,.27.02Z"/>
      <path d="m160.69,82.84c.88.37,1.69.85,2.24,1.69.06.09.01.33-.07.42-.06.06-.37.03-.39-.03-.31-.79-1.06-1.07-1.67-1.5-.12-.09-.17-.28-.24-.43.05-.05.09-.09.14-.14Z"/>
      <path d="m194.4,34.58c-.42.98-.69,2.06-1.78,2.76-.05-.2-.16-.38-.11-.46.4-.67.83-1.34,1.26-1.99.11-.17.29-.3.43-.46.06.05.13.1.19.15Z"/>
      <path d="m230.12,109.45c-.6.51-.67.53-.97.06-.26-.4-.49-.82-.66-1.25-.05-.14.13-.37.21-.55.14.12.39.23.41.38.09.64.41,1.1,1.01,1.37Z"/>
      <path d="m74.71,132.8c-.34.28-.68.27-.7-.09-.03-.65.06-1.31.17-1.96.05-.31.32-.35.66-.14-.38.71-.53,1.45-.13,2.19Z"/>
      <path d="m142.54,56.6c-.1.16-.19.42-.29.42-.83.06-1.67.28-2.64-.11.54-.44,1.05-.28,1.51-.32.45-.04.9-.37,1.42,0Z"/>
      <path d="m15.27,52.61c-.27,1.03-1.03,1.61-1.95,2.18.25-.81,1.28-2.02,1.95-2.18Z"/>
      <path d="m139.57,55.7c.76-.7,1.72-.61,2.8-.66-.1.26-.13.52-.21.53-.83.14-1.67.25-2.5.36l-.08-.23Z"/>
      <path d="m172.69,108.72l.08-2.78c.42.04.43.35.46.62.13,1.05,0,1.8-.54,2.16Z"/>
      <path d="m77.86,80.6c.8-.5,1.7-.58,2.72-.67-.08.26-.08.42-.16.47-.3.2-2.13.41-2.56.2Z"/>
      <path d="m34.06,128.86c-.22.25-.31.44-.46.51-.61.29-1.24.54-1.91.83.18-.97.86-1.36,2.37-1.34Z"/>
      <path d="m234.95,82.21c.81.74,1.47,1.35,2.25,2.08-.28.08-.55.22-.62.15-.57-.55-1.11-1.14-1.64-1.72-.04-.05,0-.17,0-.51Z"/>
      <path d="m23.82,106.3c-.45.03-.67-.2-.68-.54,0-.47.05-.95.13-1.42.02-.1.22-.25.33-.24.1,0,.26.2.26.31,0,.59-.02,1.19-.04,1.89Z"/>
      <path d="m223.38,107.39c.7.63,1.22,1.06,1.7,1.54.1.1.08.32.12.48-.16.01-.39.1-.48.02-.42-.34-.83-.69-1.17-1.11-.14-.18-.1-.51-.17-.93Z"/>
      <path d="m25.98,2.88c.41.38.45,1.43.09,2.27-.38-.43-.42-1.49-.09-2.27Z"/>
      <path d="m95.59,28.23c-.63-.82-.07-1.68-.17-2.59.64.27.67.66.17,2.59Z"/>
      <path d="m89.09,57.61c.61.3,1.22.61,1.92.96-.11.14-.27.43-.33.41-.44-.14-.89-.3-1.29-.54-.22-.14-.34-.45-.5-.68.07-.05.13-.1.2-.15Z"/>
      <path d="m163.15,80.09c0,.09.01.24-.03.26-.73.42-1.47.83-2.37,1.33.07-.33.05-.5.13-.58.46-.48,1.69-1.01,2.27-1Z"/>
      <path d="m70.74,79.66c.04-.22,0-.54.13-.64.52-.4,1.07-.84,1.94-.49-.48.74-1.47.55-1.89,1.23-.06-.03-.12-.07-.18-.1Z"/>
      <path d="m145.84,107.84c.52.41,1.02.79,1.5,1.19.09.07.12.28.09.4-.01.07-.21.14-.32.14-.36-.02-1.44-1.19-1.45-1.56,0-.04.08-.08.18-.17Z"/>
      <path d="m11.91,103.73c-.03-.54.24-.67.53-.7.4-.05.82-.04,1.23-.02.07,0,.19.22.17.29-.04.13-.17.29-.28.31-.28.04-.57-.02-.86,0-.24.01-.48.08-.79.13Z"/>
      <path d="m181.4,59.63c-.75-.74-.71-2,.15-2.69-.05.52-.05.98-.16,1.41-.11.43.58.85,0,1.28Z"/>
      <path d="m72.93,34.36c-.11-.23-.31-.46-.31-.69-.01-.34.1-.68.2-1.01.02-.06.23-.12.32-.08.09.04.2.19.2.28-.01.47-.06.94-.1,1.4-.1.03-.2.07-.3.1Z"/>
      <path d="m19.3,53.61c1.02.27,1.46.97,1.1,1.69-.53-.43-.92-.91-1.1-1.69Z"/>
      <path d="m140.45,84.05c.1-.76.96-1.25,2.17-1.26-.73.64-1.47.9-2.17,1.26Z"/>
      <path d="m236.45,78.24c-.44.65-.76.85-1.86,1.16.03-.19,0-.44.08-.5.53-.35,1.03-.81,1.78-.66Z"/>
      <path d="m96.37,79.6c-.79.35-1.4.62-2.1.93.24-.95,1.07-1.35,2.1-.93Z"/>
      <path d="m100.12,83.83c.38-.08.59.07.75.33.2.32.4.63.58.97.02.05-.11.21-.21.27-.06.04-.23.02-.25-.02-.27-.51-.79-.88-.87-1.55Z"/>
      <path d="m88.92,55.51c.29-.81.76-.98,1.69-.62-.49.48-1.02.66-1.69.62Z"/>
      <path d="m14.4,77.39c.05.78.19,1.46-.29,2.09-.46-.81-.38-1.67.29-2.09Z"/>
      <path d="m72.03,128.83c-.62.44-1.33.57-2.16.73.55-.77,1.19-.99,2.16-.73Z"/>
      <path d="m74.72,31.95c.12.77,0,1.37-.42,1.95-.42-.68-.25-1.56.42-1.95Z"/>
      <path d="m30.5,84.52c.41-.68,1.06-.69,1.76-.73-.65.89-1.12,1.09-1.76.73Z"/>
      <path d="m45.51,101.06c-.62-.34-.42-.94-.64-1.58.32.08.64.1.66.18.08.45.52.93-.02,1.41Z"/>
      <path d="m145.9,106.47c.39-.89.75-1.05,1.76-.88-.33.88-1.15.53-1.76.88Z"/>
      <path d="m93.78,28.39c-.7-.35-.56-.92-.52-1.43.02-.29.14-.49.58-.34l-.05,1.77Z"/>
      <path d="m106.14,128.57c-.3-.7-.27-1.23-.15-1.76.02-.1.22-.15.4-.27.21.72.16,1.31-.25,2.02Z"/>
      <path d="m56.24,60.7c-.71-.35-.96-.81-.96-1.48.69.17.95.55.96,1.48Z"/>
      <path d="m55.82,107.09c-.29.29-.59.3-.76.04-.17-.27-.24-.62-.31-.94-.01-.05.17-.19.26-.2.1-.01.26.06.31.14.1.16.12.36.2.52.08.16.2.29.3.44Z"/>
      <path d="m196.64,33.85c.16.62.51,1.13.52,1.85-.84-.53-1.01-1.17-.52-1.85Z"/>
      <path d="m31.28,83.35c.21-.85.61-1,1.52-.66-.39.46-.9.54-1.52.66Z"/>
      <path d="m156.63,6.23c-.59-.85-.6-.92-.21-1.37.51.49.55.71.21,1.37Z"/>
      <path d="m44.4,101.52c-.45-.28-.69-.81-.53-1.19.06-.14.3-.2.58-.38l-.05,1.57Z"/>
      <path d="m121.31,54.56c-.6.25-1.05.13-1.5-.14.5-.68.84-.66,1.5.14Z"/>
      <path d="m138.33,29.26c-.52-.64-.23-1.1.03-1.63q.44.54-.03,1.63Z"/>
      <path d="m137.69,28.02c-.24.54-.41.92-.6,1.35-.56-.7-.4-1.13.6-1.35Z"/>
      <path d="m141.32,82.24c-.12-.41.07-.56.35-.59.24-.03.49,0,.72.05.05,0,.1.23.07.33-.03.1-.16.22-.25.23-.3.02-.6,0-.88-.02Z"/>
      <path d="m24.66,5.25c-.37-1.08-.24-1.36.57-1.31-.18.4-.34.78-.57,1.31Z"/>
      <path d="m225.26,105.4c-.44.14-.89.28-1.44.45.32-.8.44-.85,1.36-.67.03.07.05.15.08.22Z"/>
      <path d="m127.8,79.43c-.57-.45-.48-.95-.52-1.48.2,0,.42-.05.47.02.3.41.26.86.05,1.46Z"/>
      <path d="m141.15,51.39c-.07.5-.13,1.01-.22,1.64-.52-.77-.5-1.15.22-1.64Z"/>
      <path d="m170.87,5.86q.55.56.12,1.16c-.36-.37-.31-.74-.12-1.16Z"/>
      <path d="m169.16,7.68c-.13-.99-.09-1.08.59-1.33-.12.47-.05.93-.59,1.33Z"/>
      <path d="m165.87,107.03c.37.5.37.9-.08,1.34-.32-.48-.29-.88.08-1.34Z"/>
      <path d="m164.15,108.4c.01-.35,0-.65.04-.93.02-.09.22-.19.35-.2.07,0,.22.15.22.24,0,.38,0,.76-.61.89Z"/>
      <path d="m175.88,33.52c-.05-.48-.08-.84-.13-1.26.76.33.81.74.13,1.26Z"/>
      <path d="m108.32,102.5c-.14-.4-.26-.65-.31-.91-.02-.1.12-.26.22-.33.05-.03.26.06.29.14.12.32.23.65-.2,1.1Z"/>
      <path d="m203.75,104.94c.64-.02.99.28,1.37.72-.69.12-1.06-.13-1.37-.72Z"/>
      <path d="m225.55,103.29c-.02-.57-.26-1.08.5-1.33.03.51.06.95-.5,1.33Z"/>
      <path d="m139.66,104.88c-.46-.19-.79-.32-1.11-.45.04-.47.29-.45.56-.4.34.07.6.21.55.84Z"/>
      <path d="m126.37,58.78c0-.26-.03-.52.04-.76.03-.11.27-.16.63-.35-.16.54-.26.85-.35,1.17-.11-.02-.21-.04-.32-.06Z"/>
      <path d="m205.86,80.77c-.52-.17-.77-.42-.78-.89.65.1.65.1.78.89Z"/>
      <path d="m227.05,101.45c.68.58.68.76.06,1.31-.02-.43-.04-.77-.06-1.31Z"/>
      <path d="m174.58,33.89c-.48-.92-.46-1.01.24-1.32-.08.44-.14.79-.24,1.32Z"/>
      <path d="m127.76,57.42c.66.2.55.57.38,1.05-.45-.23-.49-.56-.38-1.05Z"/>
      <path d="m81.26,57.27c.49-.02.56.27.52.66q-.53-.05-.52-.66Z"/>
      <path d="m118.36,109.73c.16.29.29.46.33.64.01.07-.23.28-.3.25-.14-.06-.33-.21-.35-.34-.01-.13.16-.29.32-.55Z"/>
      <path d="m107.7,102.21c-.21.15-.35.25-.48.34-.08-.16-.21-.31-.22-.47,0-.09.23-.29.28-.27.14.07.25.22.43.4Z"/>
      <path d="m188.83,104.35c-.27-.42-.27-.66.08-.71.09-.01.28.17.27.18-.1.18-.23.35-.35.53Z"/>
      <path d="m111.73,38.37c-.15-.09-.31-.17-.45-.27,0,0,.08-.14.12-.22.15.09.3.18.46.26-.04.07-.08.15-.13.22Z"/>
    </g>
  </g>
</svg>