<?xml version="1.0" encoding="UTF-8"?>
<svg id="_レイヤー_2" data-name="レイヤー 2" xmlns="http://www.w3.org/2000/svg" viewBox="0 0 31.84 26.21">
  <defs>
    <style>
      .cls-1 {
        fill: #4b4b4b;
      }
    </style>
  </defs>
  <g id="_デザイン" data-name="デザイン">
    <g>
      <path class="cls-1" d="m19.82,22.8H4.97c-.86,0-1.56-.7-1.56-1.56V6.39c0-.86.7-1.56,1.56-1.56h12.93c.41,0,.81-.16,1.1-.46l.28-.28c.98-.98.29-2.66-1.1-2.66H1.56c-.86,0-1.56.7-1.56,1.56v21.66c0,.86.7,1.56,1.56,1.56h21.66c.86,0,1.56-.7,1.56-1.56v-3.84c0-1.39-1.68-2.09-2.66-1.1l-.28.28c-.29.29-.46.69-.46,1.1v.15c0,.86-.7,1.56-1.56,1.56Z"/>
      <path class="cls-1" d="m8.81,8.12l-.89.89c-.72.72-.72,1.89,0,2.61l4.4,4.4,2.2,2.2c.72.72,1.89.72,2.61,0l2.2-2.2,11.98-11.98c.72-.72.72-1.89,0-2.61l-.89-.89c-.72-.72-1.89-.72-2.61,0l-10.67,10.67c-.72.72-1.89.72-2.61,0l-3.09-3.09c-.72-.72-1.89-.72-2.61,0Z"/>
    </g>
  </g>
</svg>