<?xml version="1.0" encoding="UTF-8"?>
<svg id="_レイヤー_2" data-name="レイヤー 2" xmlns="http://www.w3.org/2000/svg" viewBox="0 0 110 77.33">
  <defs>
    <style>
      .cls-1 {
        fill: #4b4b4b;
      }
    </style>
  </defs>
  <g id="_デザイン" data-name="デザイン">
    <g>
      <path class="cls-1" d="m97.06,0H12.94C5.8,0,0,5.81,0,12.94v47.59c0,9.26,7.53,16.8,16.8,16.8h76.41c9.26,0,16.8-7.54,16.8-16.8V12.94c0-7.13-5.8-12.94-12.94-12.94Zm6.4,60.53c0,5.66-4.6,10.26-10.26,10.26H16.8c-5.66,0-10.26-4.6-10.26-10.26V12.94c0-3.53,2.87-6.4,6.4-6.4h84.13c3.53,0,6.4,2.87,6.4,6.4v47.59h0Z"/>
      <path class="cls-1" d="m32.43,44.11h7.01c1.07,0,1.94-.87,1.94-1.94v-7.01c0-1.07-.87-1.94-1.94-1.94h-7.01c-1.07,0-1.94.87-1.94,1.94v7.01c0,1.07.87,1.94,1.94,1.94Z"/>
      <path class="cls-1" d="m48.77,44.11h7.01c1.07,0,1.94-.87,1.94-1.94v-7.01c0-1.07-.87-1.94-1.94-1.94h-7.01c-1.07,0-1.94.87-1.94,1.94v7.01c0,1.07.87,1.94,1.94,1.94Z"/>
      <path class="cls-1" d="m65.11,44.11h7.01c1.07,0,1.94-.87,1.94-1.94v-7.01c0-1.07-.87-1.94-1.94-1.94h-7.01c-1.07,0-1.94.87-1.94,1.94v7.01c0,1.07.87,1.94,1.94,1.94Z"/>
      <path class="cls-1" d="m93.9,49.56h-7.01c-1.07,0-1.94.87-1.94,1.94v7.01c0,1.07.87,1.94,1.94,1.94h7.01c1.07,0,1.94-.87,1.94-1.94v-7.01c0-1.07-.87-1.94-1.94-1.94Z"/>
      <path class="cls-1" d="m32.43,27.77h7.01c1.07,0,1.94-.87,1.94-1.94v-7.01c0-1.07-.87-1.94-1.94-1.94h-7.01c-1.07,0-1.94.87-1.94,1.94v7.01c0,1.07.87,1.94,1.94,1.94Z"/>
      <path class="cls-1" d="m23.11,33.22h-7.01c-1.07,0-1.94.87-1.94,1.94v7.01c0,1.07.87,1.94,1.94,1.94h7.01c1.07,0,1.94-.87,1.94-1.94v-7.01c0-1.07-.87-1.94-1.94-1.94Z"/>
      <path class="cls-1" d="m23.11,16.88h-7.01c-1.07,0-1.94.87-1.94,1.94v7.01c0,1.07.87,1.94,1.94,1.94h7.01c1.07,0,1.94-.87,1.94-1.94v-7.01c0-1.07-.87-1.94-1.94-1.94Z"/>
      <path class="cls-1" d="m23.11,49.56h-7.01c-1.07,0-1.94.87-1.94,1.94v7.01c0,1.07.87,1.94,1.94,1.94h7.01c1.07,0,1.94-.87,1.94-1.94v-7.01c0-1.07-.87-1.94-1.94-1.94Z"/>
      <path class="cls-1" d="m48.77,27.77h7.01c1.07,0,1.94-.87,1.94-1.94v-7.01c0-1.07-.87-1.94-1.94-1.94h-7.01c-1.07,0-1.94.87-1.94,1.94v7.01c0,1.07.87,1.94,1.94,1.94Z"/>
      <path class="cls-1" d="m65.11,27.77h7.01c1.07,0,1.94-.87,1.94-1.94v-7.01c0-1.07-.87-1.94-1.94-1.94h-7.01c-1.07,0-1.94.87-1.94,1.94v7.01c0,1.07.87,1.94,1.94,1.94Z"/>
      <path class="cls-1" d="m77.56,49.56h-45.13c-1.07,0-1.94.87-1.94,1.94v7.01c0,1.07.87,1.94,1.94,1.94h45.13c1.07,0,1.94-.87,1.94-1.94v-7.01c0-1.07-.87-1.94-1.94-1.94Z"/>
      <path class="cls-1" d="m93.9,16.88h-12.46c-1.07,0-1.94.87-1.94,1.94v23.35c0,1.07.87,1.94,1.94,1.94h12.46c1.07,0,1.94-.87,1.94-1.94v-23.35c0-1.07-.87-1.94-1.94-1.94Z"/>
    </g>
  </g>
</svg>