<?xml version="1.0" encoding="UTF-8"?>
<svg id="_レイヤー_2" data-name="レイヤー 2" xmlns="http://www.w3.org/2000/svg" viewBox="0 0 80.26 99.73">
  <defs>
    <style>
      .cls-1 {
        fill: #4b4b4b;
      }
    </style>
  </defs>
  <g id="_デザイン" data-name="デザイン">
    <g>
      <path class="cls-1" d="m20.12,32.03l.16.09,11.23.1.16-.09c3.74-2.06,6.09-5.98,6.13-10.24.04-4.04-1.32-7.49-2.63-10.82-.9-2.28-1.82-4.63-2.3-7.17-.4-2.1-.32-3-.32-3.01l.11-.9-.89.14c-4.15.65-8.49,3.35-11.92,7.4-3.61,4.25-5.61,9.28-5.66,14.14-.04,4.26,2.24,8.23,5.94,10.35Zm-2.57-13.81c.06-.16.12-.33.18-.51.63-2.04,2.76-2.82,3.19.14.43,2.97,2.85,2.34,3.42-.2.71-3.19,2.64-2.37,2.97-1.11.33,1.26-.03,3.53,1.68,3.66,1.03.08,1.34-1.29,1.97-3.29.36-1.14,2.29-2.19,3.42,1,.3,1.27.48,2.57.47,3.94-.03,2.98-1.6,5.81-4.12,7.4l-9.62-.09c-2.49-1.65-4.01-4.5-3.98-7.48.01-1.14.16-2.31.43-3.49Z"/>
      <path class="cls-1" d="m28.46,35.47l-5.18-.05c-1.59-.01-3.13.63-4.24,1.78-1.11,1.15-1.69,2.7-1.63,4.29l.31,7.36h16.04l.44-7.21c.1-1.59-.46-3.15-1.55-4.32-1.09-1.17-2.61-1.84-4.2-1.85Z"/>
      <path class="cls-1" d="m19.71,94.35c.13,2.99,2.57,5.35,5.56,5.38h.04c2.99.03,5.48-2.29,5.66-5.28l2.64-43.04h-15.77l1.87,42.94Z"/>
      <path class="cls-1" d="m73.4,33.2c-4.32-6.4-10.45-11.49-17.65-14.54-4.78-2.02-10.04-3.15-15.54-3.16.4,1.47.7,3.01.82,4.66,7.01.18,13.49,2.38,18.93,6.05,5.66,3.83,10.16,9.25,12.86,15.62,1.79,4.23,2.79,8.9,2.79,13.8-.01,8.09-2.73,15.45-7.3,21.39-4.56,5.94-11,10.44-18.38,12.72-.34.1-.79.18-1.29.18-.59,0-1.23-.11-1.8-.31-.57-.21-1.07-.51-1.44-.87-.25-.25-.46-.53-.63-.87-.22-.45-.36-1.01-.37-1.8,0-.47.07-1.02.21-1.67.18-.81.44-1.71.67-2.73.22-1,.42-2.12.42-3.35,0-3.67-1.12-7.12-3.03-9.95-1.63-2.41-3.84-4.4-6.43-5.76l-.32,5.3c1.79,1.37,3.22,3.2,4.1,5.3.67,1.57,1.03,3.29,1.03,5.11,0,.72-.12,1.49-.31,2.33-.19.84-.45,1.74-.67,2.73-.21.95-.32,1.84-.32,2.69,0,1.59.37,3.05,1.06,4.24.67,1.21,1.63,2.14,2.67,2.8.69.44,1.44.77,2.18,1,1,.31,2.01.45,2.99.45.91,0,1.81-.12,2.66-.38,8.3-2.57,15.53-7.62,20.7-14.33,5.16-6.7,8.26-15.08,8.26-24.23,0-8.3-2.53-16.03-6.86-22.43Z"/>
      <path class="cls-1" d="m13.89,66.7c-.58.23-1.26.36-1.98.36-.89,0-1.84-.21-2.73-.67-.89-.46-1.74-1.17-2.48-2.24-.5-.71-.94-1.58-1.29-2.67-.46-1.44-.76-3.24-.76-5.45,0-.12,0-.23.01-.35.04-3.68.64-7.24,1.69-10.57,1.06-3.34,2.57-6.47,4.49-9.29,1.06-1.57,2.23-3.05,3.51-4.42-1.03-1.24-1.87-2.66-2.44-4.17-.01.01-.03.03-.04.04C4.64,34.52.15,44.55.01,55.6H.01c-.01.14-.01.27-.01.42,0,2.95.44,5.48,1.23,7.61.8,2.12,1.96,3.85,3.34,5.15.92.86,1.95,1.53,3,2.01,1.42.63,2.9.92,4.33.92,1.21,0,2.4-.21,3.49-.62l-.22-5.19c-.34.32-.78.59-1.29.79Z"/>
      <path class="cls-1" d="m50.18,68.82c0,1.68.52,3.25,1.4,4.55.88,1.3,2.11,2.33,3.57,2.95.98.42,2.06.65,3.18.65,1.67,0,3.25-.52,4.55-1.4,1.3-.88,2.32-2.12,2.95-3.59.41-.97.64-2.04.64-3.17,0-1.68-.52-3.25-1.39-4.55-.88-1.3-2.12-2.33-3.58-2.95-.98-.41-2.06-.64-3.17-.64-1.68,0-3.25.52-4.55,1.39-1.3.88-2.33,2.12-2.95,3.58-.42.98-.65,2.05-.65,3.17Zm4.77-2.28c.44-.65,1.06-1.17,1.79-1.47.48-.21,1.01-.32,1.58-.32.85,0,1.62.25,2.28.69.65.44,1.17,1.07,1.47,1.79.21.48.32,1.02.32,1.58,0,.85-.25,1.63-.69,2.28-.44.65-1.07,1.17-1.79,1.47-.48.21-1.02.32-1.58.32-.86,0-1.63-.25-2.28-.69-.65-.44-1.18-1.07-1.47-1.79-.21-.48-.32-1.01-.32-1.58,0-.85.25-1.62.69-2.28Z"/>
      <path class="cls-1" d="m49.92,33.73c0-2.57-2.08-4.65-4.65-4.65s-4.65,2.08-4.65,4.65,2.08,4.65,4.65,4.65,4.65-2.08,4.65-4.65Z"/>
      <path class="cls-1" d="m56.71,36.47c-2.29,0-4.14,1.85-4.14,4.14s1.85,4.14,4.14,4.14,4.14-1.86,4.14-4.14c0-2.29-1.85-4.14-4.14-4.14Z"/>
      <path class="cls-1" d="m62.33,54.8c1.79,0,3.24-1.45,3.24-3.24s-1.45-3.24-3.24-3.24-3.24,1.45-3.24,3.24,1.45,3.24,3.24,3.24Z"/>
    </g>
  </g>
</svg>