<?xml version="1.0" encoding="UTF-8"?>
<svg id="_レイヤー_2" data-name="レイヤー 2" xmlns="http://www.w3.org/2000/svg" viewBox="0 0 90 88.35">
  <defs>
    <style>
      .cls-1 {
        fill: #4b4b4b;
      }
    </style>
  </defs>
  <g id="_デザイン" data-name="デザイン">
    <g>
      <path class="cls-1" d="m74.18.23c-18.75,2.59-36.7,37.77-45.54,54.05-2.22,4.1,1.66,6.22,3.94,2.31,1.64-2.82,5.64-10.99,7.81-10.56,10.34,1.72,15.85-5.02,11.93-9.26,13.15.27,19.67-6.96,15.94-11.36,3.92,1.24,9.68,1.06,14.72-1.69,10.76-5.87,10.11-26.1-8.81-23.49Z"/>
      <path class="cls-1" d="m71.93,35.57c-1.71,1.61-4.75,3.89-7.3,4.89v36.4c0,.81-.31,1.5-.84,2.03-.53.53-1.22.84-2.03.84H11.49c-.81,0-1.5-.31-2.03-.84-.53-.53-.84-1.22-.84-2.03V26.59c0-.81.31-1.5.84-2.03.53-.53,1.23-.84,2.03-.84h28.19c1.97-3.01,4-5.9,6.06-8.62H11.49c-3.16,0-6.06,1.29-8.12,3.36C1.29,20.53,0,23.43,0,26.59v50.26c0,3.16,1.29,6.06,3.36,8.13,2.07,2.07,4.97,3.37,8.12,3.36h50.27c3.16,0,6.06-1.29,8.12-3.36,2.07-2.07,3.37-4.97,3.36-8.13v-41.47s-.47-.62-1.32.18Z"/>
    </g>
  </g>
</svg>