<?xml version="1.0" encoding="UTF-8"?>
<svg id="_レイヤー_2" data-name="レイヤー 2" xmlns="http://www.w3.org/2000/svg" viewBox="0 0 78 117">
  <defs>
    <style>
      .cls-1 {
        opacity: .45;
      }

      .cls-1, .cls-2, .cls-3, .cls-4, .cls-5 {
        fill: #2b2b2b;
      }

      .cls-2 {
        opacity: .5;
      }

      .cls-3 {
        opacity: .77;
      }

      .cls-4 {
        opacity: .55;
      }

      .cls-5 {
        opacity: .3;
      }
    </style>
  </defs>
  <g id="_デザイン" data-name="デザイン">
    <g>
      <path class="cls-5" d="m19.5,117c10.76,0,19.5-8.74,19.5-19.5v-19.5h-19.5c-10.76,0-19.5,8.74-19.5,19.5s8.74,19.5,19.5,19.5Z"/>
      <path class="cls-3" d="m0,58.5c0-10.76,8.74-19.5,19.5-19.5h19.5v39h-19.5c-10.76,0-19.5-8.74-19.5-19.5Z"/>
      <path class="cls-4" d="m0,19.5C0,8.74,8.74,0,19.5,0h19.5v39h-19.5C8.74,39,0,30.26,0,19.5Z"/>
      <path class="cls-1" d="m39,0h19.5c10.76,0,19.5,8.74,19.5,19.5s-8.74,19.5-19.5,19.5h-19.5V0Z"/>
      <path class="cls-2" d="m78,58.5c0,10.76-8.74,19.5-19.5,19.5s-19.5-8.74-19.5-19.5,8.74-19.5,19.5-19.5,19.5,8.74,19.5,19.5Z"/>
    </g>
  </g>
</svg>