<?xml version="1.0" encoding="UTF-8"?><svg xmlns="http://www.w3.org/2000/svg" viewBox="0 0 338.37 191.76"><defs><style>.d{fill:#161616;}</style></defs><g id="a"/><g id="b"><g id="c"><g><path class="d" d="M197.48,75.87c-.92-.49-.84-.92-.59-1.42,1.28-2.52,2.73-4.95,4.82-6.95,3.49-3.34,7.08-6.59,10.61-9.9,1.15-1.08,2.26-2.19,3.3-3.36,.38-.43,.51-1.06,.9-1.9-.71,.16-1.14,.19-1.51,.34-3.39,1.41-6.75,2.89-10.16,4.24-2.29,.91-4.65,1.68-7,2.44-.58,.19-1.26,.17-1.89,.12-.26-.02-.66-.33-.71-.56-.04-.22,.22-.64,.46-.74,1-.43,2.02-.86,3.07-1.14,1.28-.33,1.71-1.06,1.81-2.24,.28-3.11-.03-6.2-.33-9.29-.11-1.14-.16-2.28-.13-3.42,0-.57,.02-1.29,.82-1.47,.75-.16,1.17,.32,1.49,.88,.05,.09,.16,.15,.26,.23,2.52-1.3,4.99-2.72,7.59-3.87,2.24-.99,4.62-1.75,6.98-2.47,1.41-.43,2.66-.94,3.65-2.03,1.88-2.08,3.9-4.04,5.73-6.15,.86-1,1.51-2.19,2.1-3.36,.61-1.21,.25-2.02-1.08-2.46-1.19-.39-2.45-.73-3.69-.79-5.16-.24-10.04,.9-14.53,3.23-1.47,.76-2.72,2.04-3.79,3.3-2.67,3.13-5.71,6.03-7.5,9.77-.14,.29-.39,.53-.58,.78-.99-.81-1.17-1.37-.55-2.32,1.18-1.8,2.45-3.54,3.73-5.28,.66-.89,1.47-1.68,2.14-2.56,.4-.52,.96-1.16,.92-1.71-.13-1.78,1.17-2.38,2.48-2.93,2.07-.86,4.18-1.64,6.3-2.36,3.68-1.25,7.44-2.13,11.4-1.81,1.61,.13,3.21,.18,4.74,.86,3.05,1.36,3.36,3.68,1.53,6.01-1.93,2.44-4.17,4.67-6.27,6.99-.22,.24-.4,.5-.74,.93,.57,0,.94,.04,1.29,0,3.72-.5,7.16,.35,10.36,2.05,1.03,.55,1.87,1.46,2.67,2.31,1.17,1.25,1.21,2.63,.29,4.06-.6,.93-1.15,1.89-1.8,2.79-1.58,2.2-3.95,3.47-6.38,4.65-.23,.11-.53,.1-.87,.15-.05-.93,.63-1.19,1.18-1.55,2.36-1.56,4.28-3.5,5.63-5.9,1.21-2.14,.77-3.56-1.48-4.8-3.85-2.13-7.96-2.53-12.23-1.37-1.07,.29-2.32,.33-3.05,1.54,1.09,.48,.92,1.34,.85,2.21-.19,2.55-.33,5.1-.48,7.65-.02,.31,.07,.62,.14,1.22,1.32-.65,2.48-1.21,3.62-1.8,.56-.29,1.05-.71,1.62-.94,.53-.21,1.14-.25,1.98-.42-.61,2.81-3.51,3.76-4.45,5.98,2.78,2.13,4.94,4.58,6.33,7.58,1.16,2.49,2.45,4.94,3.42,7.5,.72,1.88,1.13,3.88,1.49,5.86,.33,1.8,0,3.56-.87,5.24-1.22,2.32-2.76,4.4-4.66,6.27-1.26,1.24-2.83,1.89-4.61,2.07-2.03,.21-3.58-1.25-3.5-3.37,.33,.21,.63,.35,.86,.57,1.32,1.27,2.43,1.45,4.14,.67,1.34-.61,2.36-1.56,3.29-2.61,3.3-3.71,3.98-7.84,2.43-12.4-1.34-3.96-2.94-7.82-5.36-11.3-1-1.43-2.43-2.61-3.78-3.8-.77-.68-1.67-.55-2.47,.21-1.27,1.2-2.47,2.45-3.73,3.66-1.34,1.28-2.71,2.53-4.09,3.78-3.88,3.52-7.76,7.03-10.98,11.13-.88,1.13-1.7,2.3-2.59,3.5v-.02Zm5.42-20.33c.39-.07,.61-.08,.83-.15,4.17-1.21,8.05-3.03,11.85-5.02,1.02-.53,1.5-1.3,1.54-2.37,.1-2.88,.22-5.76,.31-8.63,0-.34-.08-.68-.14-1.09-1.69,1.09-2.94,1.62-3.75,1.57,.33-.47,.65-.91,1.14-1.61-.69,.15-1.05,.16-1.34,.3-3.41,1.72-6.81,3.47-10.22,5.2-.69,.35-.69,.9-.64,1.53,.16,2.11,.31,4.23,.41,6.35,.06,1.24,0,2.49,0,3.91h0Z"/><path class="d" d="M64.17,.01c1.63,.14,2.06,1.17,2.36,2.11,.56,1.76,.98,3.54,.96,5.43-.08,5.22-.01,10.44,.01,15.67,0,.35,.13,.7,.19,1,4.65-.55,9.16-1.15,13.68-1.59,4.61-.45,9.24-.75,13.86-1.11,3.76-.29,7.51-.63,11.28-.8,2.83-.12,5.67,0,8.51,.03,.46,0,.95,.08,1.35,.26,.32,.14,.79,.52,.76,.73-.05,.35-.39,.88-.72,.95-2.29,.56-4.6,1.02-6.9,1.5-.02,0-.07-.07-.24-.28l2.56-1.55c-1.18-.06-2.03-.16-2.86-.13-9.09,.43-18.2,.78-27.24,1.86-3.97,.47-7.95,.88-11.92,1.33-2.1,.24-2.1,.25-2.51,2.2-.07,.31-.14,.62-.16,.72,1.2,1.02,2.22,1.96,3.31,2.81,2.44,1.92,4.91,3.8,7.38,5.69,2.38,1.82,4.78,3.62,7.15,5.44,.16,.12,.22,.35,.37,.6-.74,.46-1.36,.33-1.98-.05-.63-.39-1.29-.74-1.89-1.17-4.19-2.99-8.83-5.42-12.52-9.03-.37-.36-1.15-.57-1.7-.52-.77,.08-.79,.87-.84,1.45-.2,2.11-.34,4.23-.52,6.35-.26,3.09-.55,6.18-.79,9.28-.34,4.34-.67,8.68-.92,13.02-.06,.96,.32,1.94,.31,2.9-.04,2.77-.15,5.54-.29,8.31-.01,.3-.41,.82-.61,.81-.39-.02-.92-.26-1.09-.56-.26-.46-.35-1.04-.35-1.57-.08-5.17-.19-10.35,.41-15.51,.29-2.49,.38-5,.61-7.49,.31-3.36,.67-6.72,.99-10.08,.1-1.06,.16-2.12-.1-3.55-.99,1.08-1.81,1.83-2.45,2.7-2.09,2.82-4.42,5.45-6.89,7.98-2.7,2.77-5.22,5.69-7.82,8.54-1.89,2.07-3.77,4.13-5.68,6.18-.42,.45-.89,.91-1.44,1.16-.38,.18-1.03,.15-1.41-.04-.62-.32-.34-.88,0-1.26,1.11-1.26,2.19-2.55,3.4-3.71,5.41-5.18,10.36-10.73,15.13-16.42,1.76-2.09,3.38-4.28,5.08-6.41,.35-.43,.71-.87,1.14-1.23,2.04-1.76,2.06-3.99,1.83-6.4-1.41-.29-2.71,.04-3.97,.31-3.16,.68-6.3,1.48-9.46,2.21-2.02,.47-4.06,.89-6.08,1.37-2.14,.51-4.27,1.03-6.39,1.6-4.57,1.23-9.02,2.75-13.47,4.32-4.59,1.61-8.99,3.53-13.31,5.63-2.88,1.4-5.68,2.97-8.02,5.15-.28,.26-.51,.56-.82,.9l1.55,1.94c-1.85,.64-3.79,.17-4.7-1.02-.45-.58-.4-1.34,.27-1.9,.99-.83,1.97-1.73,3.11-2.35,4.72-2.56,9.41-5.18,14.28-7.48,2.93-1.39,6.16-2.22,9.25-3.3,.87-.3,1.73-.63,2.61-.9,4.8-1.45,9.58-2.94,14.56-3.83,2.73-.49,5.41-1.23,8.11-1.84,3.6-.82,7.21-1.63,10.81-2.44,.39-.09,.78-.21,1.17-.31,.71-.18,1.03-.58,1.04-1.3,.08-5.66,.67-11.31-.2-16.97-.25-1.62-.29-3.24-1.05-4.76-.21-.42-.08-.99-.11-1.59h.03Z"/><path class="d" d="M135.58,58.76c1.43-1.27,2.48-2.76,3.08-4.85-.64,.24-1,.35-1.33,.49-5.32,2.29-10.59,4.69-15.98,6.83-3.19,1.27-6.57,2.12-9.87,3.16-1.76,.55-3.52,1.09-5.27,1.65-.74,.24-1.24,.59-1.38,1.46-.19,1.25-.9,1.39-1.84,.51-.2-.19-.39-.39-.55-.56-1.45,.09-2.34-.37-2.65-1.37l2.21-.7c0-.54,.06-1.08,0-1.6-.74-5.96-.34-11.96-.62-17.93-.25-5.29,.09-10.54,.57-15.8,.1-1.08,.09-2.18,.18-3.26,.04-.5,.21-.99,.33-1.55,2.58,.41,1.23,2.51,2.02,3.55,.17,.02,.31,.08,.37,.03,2.56-1.87,5.47-2.99,8.58-3.81,2.45-.64,4.82-1.46,7.39-1.73,4.95-.51,9.37,.64,13.6,3,4.1,2.29,4.76,5.45,6.01,9.62,1.48,4.9,3.23,10.25,.81,15.14-.85,1.72-.63,3.42-1.52,5.12-.53,1-1.3,1.92-2.1,2.75-.67,.7-1.04,.6-2.04-.2v.05Zm.13-28.62c-.37-.46-.52-.77-.77-.95-3.71-2.65-7.77-4.21-12.57-3.83-2.73,.21-5.36,.64-7.99,1.38-3.03,.86-5.85,2.09-8.49,3.7-.75,.46-1.57,.97-1.67,1.97-.36,3.68-.93,7.34-.72,11.07,.22,3.86,.17,7.72,.27,11.59,.07,2.5,.18,5.01,.32,7.51,.08,1.34,.44,1.65,1.89,1.4,1.3-.22,2.57-.64,3.82-1.03,4.62-1.45,9.27-2.83,13.82-4.45,2.98-1.06,5.8-2.47,8.7-3.74,2-.87,3.96-1.82,5.99-2.62,1.4-.55,2-1.58,2.35-2.83,.18-.63,.24-1.29,.39-1.92,.9-3.83-.13-7.79-1.43-11.46-.45-1.27-.61-2.25-1.34-3.42-.39-.63-.97-1.01-1.89-.68-1.62,.58-3.29,1.03-4.93,1.56-3.5,1.13-6.96,2.36-10.5,3.38-3.09,.89-6.26,1.56-9.4,2.3-1.78,.41-3.58,.75-5.33,1.11-.72-1.54-.66-1.73,.59-2.03,3.92-.96,7.86-1.87,11.77-2.87,3.74-.96,7.48-1.95,11.19-3.03,1.93-.56,3.78-1.34,5.92-2.11h0Z"/><path class="d" d="M139.94,111.82c2.75,2.48,5.24,4.97,7.34,7.79,1.6,2.13,3.18,4.27,4.9,6.32,2.8,3.33,5.75,6.55,8.53,9.89,1.14,1.36,2.06,2.89,3,4.38,.51,.8,.61,1.65-.36,2.27-.16-.05-.34-.07-.35-.12-.62-2.58-2.81-4.16-4.44-6.07-3.15-3.69-6.58-7.16-9.44-11.08-2.55-3.5-5.4-6.8-8.56-9.85-.79-.77-1.51-1.6-2.38-2.54-.41,.32-.92,.65-1.35,1.07-2.98,2.9-5.74,5.97-8.09,9.36-2.05,2.95-4.37,5.74-6.54,8.62-.86,1.15-1.5,2.46-2.43,3.54-1.54,1.79-2.78,3.72-3.95,5.74-1.99,3.43-4.16,6.77-6.63,9.94-1.78,2.27-3.15,4.82-4.76,7.2-1.8,2.66-3.69,5.26-5.48,7.92-.99,1.47-1.86,3.01-2.78,4.52-2.09,3.47-3.61,7.17-5.13,10.87-.87,2.1-1.31,4.28-1.05,6.54,.04,.37,.07,.77,.22,1.11,.65,1.43,1.61,1.62,2.79,.53,.32-.3,.49-.74,.81-1.04,.92,.49,.87,.93,.54,1.4-.65,.91-2.8,1.8-3.82,1.6-1.31-.26-2.35-1.47-2.57-2.98-.43-2.92-.16-5.78,1.16-8.47,2.2-4.5,4.38-9.01,6.75-13.43,1.03-1.93,2.55-3.63,3.79-5.46,1.8-2.66,3.52-5.38,5.34-8.03,2.01-2.92,4.11-5.78,6.13-8.7,2.05-2.97,3.98-6.01,6.06-8.95,3.17-4.48,6.41-8.91,9.66-13.33,1.78-2.42,3.56-4.84,5.51-7.13,1.41-1.65,3.05-3.13,4.7-4.58,.6-.52,1.48-.88,2.29-1.04,1.19-.23,1.6,.38,1.09,1.43-.12,.24-.3,.45-.5,.76h0Z"/><path class="d" d="M246.36,153.07c1.02-.44,1.7-.73,2.37-1.03,2.67-1.19,5.33-2.41,8-3.58,.52-.23,1.09-.36,1.66-.45,.51-.08,1,.13,.94,.67-.04,.35-.31,.89-.6,.99-5.54,1.74-10.38,4.83-15.6,7.17-1.56,.7-2.99,1.67-4.51,2.45-1.23,.63-1.83,.53-3.16-.43,.49-.39,.91-.82,1.42-1.09,1.67-.88,3.35-1.74,5.07-2.52,1.65-.75,2.84-1.79,3.43-3.47,.56-1.59,1.64-3.03,1.38-4.82-.03-.21-.07-.42-.13-.71-1.17-.16-2.17,.31-3.17,.64-4.14,1.38-8.26,2.83-12.39,4.25-.89,.31-1.41,.91-1.71,1.72-.66,1.8-1.35,3.59-2.01,5.39-1.1,2.98-2.24,5.94-3.27,8.94-.33,.97-.44,2.02-.54,3.04-.04,.45,.2,.92,.28,1.38s.23,.96,.12,1.4c-.21,.88-1.01,1.54-1.65,1.43-.98-.17-.98-.96-1.06-1.66-.29-2.43,.26-4.77,1.09-7.04,1.51-4.11,3.08-8.2,4.63-12.3,.04-.1,.04-.21,.07-.42-.21-.1-.49-.17-.7-.33-.73-.56-.78-1.15,.04-1.53,1.38-.64,1.75-1.82,2.17-3,1.41-3.97,2.83-7.94,4.17-11.93,.81-2.43,1.45-4.92,2.23-7.36,.4-1.24,.92-2.45,1.43-3.65,.12-.27,.39-.59,.66-.68,.34-.11,.82-.11,1.12,.05,.2,.11,.2,.56,.26,.87,.02,.1-.04,.21-.08,.32-1.17,3.87-2.29,7.75-3.54,11.59-.73,2.23-1.7,4.39-2.51,6.6-.59,1.62-1.09,3.26-1.71,5.13,.71-.11,1.1-.13,1.46-.24,4.28-1.37,8.55-2.75,12.82-4.13,.27-.09,.54-.19,.8-.31,1.06-.47,1.25-.73,.95-1.77-.35-1.21-.84-2.37-1.22-3.57-.23-.71-.36-1.44-.54-2.16,1.58-.29,2.01-.23,2.45,.75,.53,1.19,.87,2.47,1.24,3.72,.18,.61,.25,1.25,.42,2.14,.85-.36,1.53-.61,2.16-.93,2.69-1.38,5.54-2.11,8.61-1.95,.25,0,.5,.23,.79,.37-.26,.96-1.14,1.08-1.86,1.32-2.46,.82-4.91,1.64-7.41,2.34-1.48,.42-2.26,1.1-2.61,2.61-.39,1.67-1.33,3.22-2.02,4.82-.08,.19-.11,.4-.26,.97h.02Z"/><path class="d" d="M157.74,84.78c1.64-1.13,1.74-3.18,3.02-4.91,.12,.48,.25,.69,.2,.84-.49,1.45-1.01,2.89-1.54,4.32-.09,.25-.26,.5-.45,.69-.59,.58-1.14,1.33-2.18,1.07s-1.5-1.1-1.58-1.96c-.11-1.13-.16-2.33,.16-3.4,.79-2.67,1.67-5.33,2.77-7.89,1.17-2.72,2.61-5.34,4-7.97,1.94-3.66,3.92-7.29,5.93-10.91,.81-1.45,1.4-2.87,.6-4.49-.11-.22,0-.52,0-.73,.81-.7,1.32,.24,2.16,.15,.28-.31,.72-.67,1-1.13,3.1-5.1,6.14-10.25,9.28-15.33,3.41-5.51,6.3-11.27,9.3-16.97,.62-1.17,1.26-2.33,1.95-3.47,.29-.49,.73-.9,1.42-.53,.58,.31,.67,.9,.31,1.55-1.73,3.14-3.41,6.3-5.2,9.42-2.99,5.22-6.01,10.43-9.09,15.61-2.2,3.71-4.4,7.42-6.81,11.01-1.44,2.15-1.71,4.34-1.23,6.72,.74,3.63,1.6,7.24,2.23,10.89,.56,3.22,.9,6.47,1.27,9.71,.32,2.81,.53,5.64,.82,8.46,.14,1.37,0,1.66-1.33,2.31-.77-.47-.8-1.24-.86-2-.33-4.18-.55-8.37-1.01-12.54-.35-3.13-.97-6.24-1.54-9.35-.36-1.98-.84-3.94-1.29-5.91-.11-.51-.28-1.01-.48-1.75-.38,.48-.66,.74-.82,1.06-3.05,5.69-6.37,11.26-8.75,17.24-1.07,2.68-1.84,5.47-2.67,8.23-.17,.57-.03,1.23-.03,1.85l.44,.1h0Z"/><path class="d" d="M196.77,179.15c.79-.06,1.59-.1,2.38-.17,2.68-.26,5.38-3.02,5.4-5.56,0-1.36-.04-2.72-.08-4.08-.12-3.58,1.23-6.7,3.36-9.59,.25-.34,.48-.69,.95-1.38-2.12,.4-3.89,.61-5.59,1.08-2.14,.58-4.3,.87-6.5,.98-.33,.02-.67-.1-.99-.14-.23-1.47-.16-1.52,1.01-1.71,3.42-.57,6.83-1.2,10.25-1.77,1.25-.21,2.52-.39,3.79-.41,1.27-.03,1.67,.69,1.02,1.71-.47,.75-1.04,1.44-1.61,2.13-2.58,3.17-3.57,6.78-3.46,10.71,0,.33,0,.65,.03,.98,.21,2.51-.37,4.76-2.43,6.53-.12,.1-.16,.28-.27,.5,.6,.53,1.39,.31,1.93,.18,4.19-1,8.4-.72,12.61-.26,3.62,.4,7.27,.71,10.86,1.3,3.12,.51,6.21,1.29,9.27,2.09,3.62,.95,7.28,1.41,11,.86,2.74-.41,5.48-.93,8.16-1.6,1.49-.38,2.85-1.18,4.27-1.8,.47-.21,.92-.57,1.4-.6,.43-.03,1.08,.19,1.27,.5,.19,.32,.07,.94-.15,1.31-.21,.34-.71,.53-1.1,.76-2.44,1.48-5.27,2-8.02,2.56-2.93,.6-5.95,.85-8.93,1.23-.45,.06-.93-.02-1.38-.08-3.4-.38-6.75-.93-10.03-1.92-2.92-.89-5.9-1.58-9.01-1.7-1.26-.05-2.51-.37-3.77-.56-5.31-.81-10.63-.81-15.95-.18-2.62,.31-5.21,.18-7.81-.02-1.41-.11-1.79-.55-1.88-1.86v-.02Z"/><path class="d" d="M139.59,165.65c.28-.55,.52-1.12,.83-1.66,1.43-2.48,2.97-4.91,4.3-7.45,.65-1.25,1.03-2.65,1.34-4.02,.29-1.27-.18-1.68-1.59-1.66-2.62,.04-4.99,.94-7.28,2.01-4.52,2.12-8.81,4.59-12.75,7.58-.99,.75-2.09,1.36-3.15,2.03-.47,.29-.78,.64-.64,1.21,.65,2.65,.59,5.28-.29,7.88-.03,.09,.03,.21,.1,.54,1.73-.53,3-1.76,4.57-2.44,1.62-.71,3.17-1.59,4.72-2.43,1.51-.81,2.94-1.75,4.49-2.48,1.56-.74,2.94-1.92,5.15-2.03-.36,.51-.5,.86-.77,1.06-1.13,.85-2.23,1.76-3.46,2.46-4.47,2.52-8.98,4.99-13.51,7.41-1.48,.79-2.49,1.87-3.27,3.26-1.95,3.46-3.97,6.89-5.99,10.32-.36,.61-.84,1.18-1.36,1.68-.23,.22-.92,.39-1.03,.28-.26-.28-.49-.79-.38-1.11,.2-.61,.65-1.14,.97-1.71,2.11-3.69,4.37-7.31,6.27-11.09,1.44-2.85,2.16-5.95,2.1-9.16-.01-.84-.05-1.57-.97-2.1-.73-.42-.67-.9,0-1.44,.43-.36,.94-.63,1.4-.96,4.55-3.19,9.05-6.43,14.1-8.91,2.82-1.38,5.61-2.86,8.77-3.49,.73-.15,1.49-.26,2.23-.27,2.89-.02,4.48,1.95,3.65,4.57-1.12,3.52-2.8,6.79-5.25,9.67-.65,.76-1.29,1.53-2,2.24-.23,.23-.65,.29-.98,.43l-.3-.23h-.02Z"/><path class="d" d="M286.77,50.41c2.3-.66,4.37-1.19,6.39-1.84,2.79-.9,5.64-.78,8.43-.35,2.36,.36,3.37,1.98,2.32,4.47-.81,1.9-1.95,3.74-3.27,5.37-1.89,2.32-3.86,4.69-6.83,5.92-.92,.38-2,.47-3.01,.55-.59,.04-1.26-.15-1.6-1.02,.63-.11,1.17-.25,1.71-.3,1.75-.15,3.25-.85,4.46-1.99,2.26-2.13,4.24-4.47,5.67-7.18,.08-.15,.17-.29,.23-.44,1.42-3.5,.5-3.73-2.49-3.89-4-.21-7.66,1-11.23,2.51-.84,.35-1.34,.97-1.63,1.81-1.31,3.83-2.64,7.64-4,11.45-.59,1.65-1.23,3.28-1.89,4.91-.31,.76-.8,1.33-1.88,1.03-.26-1.04-.18-2.05,.22-3.03,.64-1.58,1.36-3.13,1.91-4.73,1-2.89,1.9-5.82,2.83-8.73,.06-.19,.04-.4,.08-.77-.5,.13-.89,.16-1.22,.32-1.96,.94-3.93,1.88-5.86,2.87-.65,.34-1.22,.83-1.82,1.25-.51,.36-1,.74-1.52,1.09-.51,.34-1.12,.57-1.52-.02-.33-.48-.22-1.08,.32-1.46,1.34-.94,2.62-2,4.07-2.77,2.12-1.13,4.34-2.08,6.55-3.03,1.3-.56,1.86-1.37,2.32-2.73,.83-2.42,.69-4.95,1.46-7.35,.19-.57,.26-1.2,.57-1.71,.17-.28,.76-.55,1.08-.49,.33,.07,.73,.53,.79,.86,.08,.52-.07,1.08-.18,1.61-.44,2.18-.9,4.36-1.34,6.54-.07,.36-.09,.73-.15,1.24l.03,.03Z"/><path class="d" d="M333.1,166.48c-.43-.18-1.14-.42-1.77-.77-2.5-1.37-4.98-2.78-7.46-4.17-4.37-2.46-8.74-4.93-13.12-7.37-1.59-.89-3.21-1.75-4.83-2.59-1.32-.69-1.55-.61-2.34,.58-2.17,3.29-3.73,6.86-5.45,10.36-.58,1.18-1.3,2.3-1.97,3.44-1.25,2.15-2.51,4.29-3.78,6.43-.25,.43-.53,.84-.85,1.23-.43,.54-.99,.77-1.66,.36-.65-.4-.72-.94-.33-1.55,.09-.14,.19-.27,.28-.41,2.75-4.29,5.39-8.62,7.61-13.19,1.58-3.26,3.42-6.43,5.18-9.61,.88-1.59,1.78-1.78,3.36-.81,2.61,1.61,5.19,3.27,7.84,4.83,2.15,1.27,4.39,2.42,6.57,3.66,2.43,1.37,4.82,2.82,7.28,4.16,2.05,1.11,4.17,2.13,6.28,3.14,.66,.31,1.06,.72,.9,1.39-.16,.68-.76,.91-1.76,.9h.02Z"/><path class="d" d="M239.08,162.33c1.31,.89,2.17,.55,3.04,.06,1.64-.93,3.27-1.86,4.95-2.73,2.32-1.2,4.81-1.88,7.49-1.78,1.86,.07,3.31,1.4,3.18,3.14-.09,1.17-.41,2.35-.84,3.45-.85,2.23-2.4,4.06-4.14,5.74-.16,.15-.35,.29-.55,.38-.13,.06-.31,0-.78,0,.75-1.27,1.4-2.37,2.19-3.7-.51,.19-.85,.28-1.15,.44-2.97,1.58-5.93,3.18-8.9,4.77-.7,.38-1.41,.76-2.11,1.14-1.15,.62-2.06,1.39-2.16,2.75-.02,.26-.09,.57-.26,.77-.23,.27-.57,.62-.87,.63-.25,0-.66-.4-.74-.69-.17-.61-.37-1.05-1.04-1.37-.8-.38-.89-.96-.15-1.37,2.01-1.12,1.83-3.02,2.05-4.75,.19-1.45,.08-2.94,.2-4.4,.06-.72,.33-1.42,.59-2.5h0Zm1.47,8.73c.3-.05,.55-.04,.73-.13,4.19-2.08,8.38-4.17,12.55-6.28,1.4-.71,1.72-1.97,1.67-3.33-.04-.97-.43-1.44-1.48-1.45-.96,0-1.97,.11-2.89,.39-3.47,1.03-6.37,3.04-9.3,4.98-.4,.27-.86,.69-.95,1.11-.36,1.52-.6,3.07-.34,4.71h0Z"/><path class="d" d="M327.66,69.5c-.19-.54-.36-1.04-.53-1.51,4.77-2.89,6.99-7.28,8.76-11.93,.36-.95,.47-2.04,.41-3.05-.19-3.13-2.05-3.71-4.5-3.21-2.48,.51-4.63,1.65-6.63,3.1-2.76,2.01-5.3,4.22-7.52,6.76-.29,.33-.6,.77-1,.88-.56,.16-1.27,.22-1.78,.02-.3-.11-.5-.82-.46-1.25,.1-1.08,.37-2.14,.53-3.21,.39-2.53,.76-5.06,1.14-7.58,.07-.43,.14-.86,.29-1.27,.34-.93,.53-.99,2.07-.6-.5,3.49-1.01,7.02-1.54,10.72,1.87-1.56,3.58-2.97,5.26-4.4,2.04-1.74,4.36-3.09,6.9-4.05,1.31-.5,2.78-.78,4.2-.85,2.9-.15,4.89,1.73,5.08,4.42,.14,2-.23,3.89-1.08,5.72-1.27,2.75-2.56,5.49-4.56,7.85-.9,1.06-1.97,1.99-2.95,3-.53,.55-1.17,.65-2.1,.44h0Z"/><path class="d" d="M120.12,181.47c-.25-1.21,.36-1.78,1.14-2.2,2.71-1.48,5.48-2.84,8.5-3.69,3.32-.93,6.63-1.9,9.98-2.77,.81-.21,1.72-.16,2.57-.08,.92,.09,1.25,.58,.88,1.37-.41,.89-.94,1.75-1.58,2.51-1,1.2-2.14,2.29-3.2,3.44-.37,.4-.69,.84-1.22,1.49l2.04-.39c.53,.75-.05,1.01-.48,1.38-2.48,2.1-5.38,3.58-8.3,5.03-.95,.47-1.82,1.09-2.92,1.75-.4,.05-1.07,.14-1.73,.21-.46,.05-.93,.17-1.38,.11-.47-.06-1.19-.16-1.33-.45-.34-.66,.45-.88,.9-1.16,.47-.3,1.01-.51,1.69-.84-.88-2.04-1.75-4.06-2.67-6.18-.81,.13-1.84,.3-2.89,.46h0Zm5.09-2c.2,2.56,1.31,4.64,2.23,6.91,2.16-.88,4.42-1.47,6.04-2.97,2.42-2.25,4.67-4.68,6.42-7.46,.18-.29,.22-.65,.41-1.23-5.33,1.19-10.27,2.61-15.09,4.75h-.01Z"/><path class="d" d="M175.64,182.58c-.1-1.85-.25-3.65-.27-5.44-.06-6.43-.05-12.86-.12-19.28-.05-4.74-.17-9.47-.25-14.21,0-.38-.03-.77,.03-1.14,.12-.76,.69-1.16,1.44-1.11,.78,.06,.91,.56,.91,1.15v2.12c.05,8,.08,16,.15,24,.03,2.83,.13,5.66,.23,8.49,.08,2.18,.23,4.35,.33,6.52,.03,.65,.11,1.33-.03,1.95-.24,1.06-1.17,1.29-1.88,.46-.37-.43-.56-1.05-.64-1.61-.09-.64,.05-1.3,.08-1.9h.02Z"/><path class="d" d="M104.23,90.73c-3.92,.1-6.36-1.98-7.84-5.03-.97-2-1.39-4.24-2.04-6.38-.14-.48-.25-1.01,.41-1.25,.74-.26,1.06,.25,1.32,.75,.23,.43,.38,.9,.55,1.36,.55,1.49,.99,3.01,1.64,4.46,1.72,3.85,4.76,4.42,8.35,3.8,2.3-.4,4.42-1.31,6.41-2.43,4.62-2.59,9.21-5.25,13.81-7.87,.39-.22,.83-.57,1.22-.54,.43,.02,.98,.32,1.22,.65,.33,.47-.17,.72-.59,.97-3.78,2.21-7.47,4.57-11.34,6.62-3.36,1.78-6.68,3.75-10.56,4.5-.85,.16-1.71,.26-2.56,.39h0Z"/><path class="d" d="M245,74.56c-3.07-.31-6.08-.84-8.4-3-2.16-2.02-2.46-4.41-1.15-7,.89-1.76,2.25-3.15,3.62-4.56,2.07-2.12,4.05-4.34,6.22-6.37,.86-.81,2.1-1.29,3.23-1.8,.41-.18,1.04-.11,1.51,.03,.69,.21,.77,1.03,.16,1.41-.43,.27-.97,.38-1.4,.63-.92,.54-1.96,1.01-2.69,1.73-2.2,2.16-4.33,4.4-6.4,6.66-.82,.9-1.59,1.9-2.13,2.97-1.29,2.51-.82,3.97,1.25,5.46,1.71,1.22,3.77,1.89,5.94,2.11,1.44,.15,2.76-.22,3.98-.9,.4-.22,.76-.57,1.19-.66,.38-.08,.95-.03,1.23,.2,.45,.37,.31,.91-.12,1.29-.25,.22-.56,.39-.86,.54-1.6,.82-3.29,1.36-5.17,1.24v.02Z"/><path class="d" d="M225.62,64.38c-.19,.42-.32,.78-.5,1.11-2.25,4.14-5.06,7.91-8.31,11.41-.91,.98-1.71,2.06-2.68,2.99-1.53,1.47-3.16,2.86-4.77,4.27-.41,.36-.93,.5-1.36,0-.39-.46-.26-.91,.14-1.32,.16-.16,.31-.32,.49-.46,3.34-2.58,5.87-5.86,8.57-8.96,2.22-2.55,3.9-5.51,5.83-8.28,.31-.45,.59-.96,1.02-1.29,.24-.19,.76-.15,1.12-.07,.19,.04,.3,.39,.45,.6Z"/><path class="d" d="M135.45,145.59l.87-2.42c-.55,.14-.93,.18-1.26,.33-4,1.85-8,3.71-11.98,5.6-1.03,.49-1.98,1.13-2.96,1.7-.25,.14-.48,.32-.74,.43-.57,.22-1.18,.64-1.69-.06-.4-.55-.1-.97,.71-1.53,5.03-3.42,10.85-5.37,16.4-7.82,.58-.26,1.36-.25,2.02-.17,1,.12,1.39,.87,.9,1.66-.54,.87-1.22,1.67-1.84,2.5l-.43-.22h0Z"/><path class="d" d="M74.77,96.59c.45-.45,.86-.94,1.35-1.35,.17-.14,.59-.2,.76-.1,.18,.11,.31,.47,.28,.69-.17,1.17-2.45,2.61-3.66,2.36-.82-.17-1.43-.58-1.33-1.44,.17-1.34,.18-2.77,.73-3.97,1.24-2.69,1.57-5.54,2.17-8.35,.04-.21,.01-.44,.05-.65,.09-.59,.09-1.26,1.01-1.26,.84,0,1.09,.66,1.14,1.22,.07,.8,.03,1.64-.17,2.41-.72,2.72-1.56,5.41-2.31,8.12-.19,.7-.25,1.43-.37,2.14l.37,.15-.02,.03Z"/><path class="d" d="M143.11,157.03c-5,2.37-9.91,4.68-14.8,7.04-1.02,.49-1.99,1.12-2.88,1.79-1.24,.94-1.68,.82-2.08-.73,2.07-2.08,4.73-3.26,7.41-4.43,2.62-1.15,5.22-2.36,7.86-3.48,1.05-.45,2.17-.75,3.27-1.08,.67-.2,1.12,.03,1.24,.89h-.02Z"/><path class="d" d="M207.67,74.77c-.59-1.12-.33-1.82,.1-2.5,2.27-3.6,4.53-7.2,6.79-10.81,.72-1.14,1.7-1.95,3.15-2.05,.32-.02,.9,.23,.96,.45,.09,.35-.03,1.01-.28,1.13-1.98,.94-2.7,2.81-3.74,4.41-1.71,2.65-3.13,5.47-5.27,7.87-.46,.51-1.04,.93-1.72,1.51h.01Z"/><path class="d" d="M159.35,161.09c0-1.47,0-2.93,0-4.4,0-.38,.06-.76,.18-1.12,.27-.81,.95-.94,1.54-.32,.62,.65,.74,1.44,.7,2.28-.09,1.9-.16,3.8-.19,5.69,0,1.08,.13,2.17,.1,3.25-.02,.64,.05,1.1,.63,1.56,.29,.23,.48,1.04,.28,1.25-.41,.45-1.05,.82-1.67,.98-.62,.16-.91-.43-.97-.92-.26-1.88-.5-3.77-.68-5.65-.08-.86,0-1.74,0-2.6h.09Z"/><path class="d" d="M207.18,149.51s-.12-.07-.11-.09c.36-1.78-.56-2.69-2.32-3.1-.83-.19-1.63-.49-2.44-.78-.7-.25-1.42-.49-2.06-.84-.55-.29-1.23-.78-.76-1.4,.28-.37,1.2-.7,1.62-.54,2.19,.83,4.4,1.67,6.41,2.79,1.63,.91,1.35,2.84-.33,3.95h0Z"/><path class="d" d="M298.36,40.82c.88-.54,1.43-.53,1.97-.02,1.15,1.09,1.42,2.45,1.38,3.9,0,.2-.3,.51-.51,.55-.2,.05-.59-.13-.69-.31-.73-1.34-1.41-2.71-2.14-4.13h0Z"/><path class="d" d="M117.23,73.35c-.25-.82-.54-1.49-.63-2.19-.03-.23,.41-.69,.7-.74,.25-.05,.81,.28,.86,.52,.18,.82,.26,1.7-.92,2.41h-.01Z"/><path class="d" d="M323.04,39.26c-.66-.14-1.09-.14-1.38-.33-.33-.22-.6-.59-.75-.95-.04-.1,.46-.58,.68-.56,.47,.04,1,.2,1.33,.5,.2,.18,.08,.68,.12,1.35h0Z"/><path class="d" d="M122.75,73.33c-.19,.12-.49,.44-.84,.5-.71,.12-1.03-.31-1.05-.95-.02-.52,.07-.99,.77-1.02,.59-.03,1.1,.52,1.12,1.47Z"/><path class="d" d="M105.57,51.01c-.4-1.45-.35-1.66,.78-1.95,1.84-.47,3.7-.87,5.55-1.27,4.57-.98,9.08-2.12,13.41-3.89,1.59-.65,3.26-1.11,4.92-1.58,.59-.17,1.25-.19,1.88-.18,.2,0,.56,.31,.56,.48,0,.27-.17,.68-.4,.78-.57,.25-1.22,.32-1.81,.53-3.68,1.29-7.34,2.63-11.04,3.88-1.68,.56-3.41,.99-5.15,1.38-2.89,.65-5.8,1.22-8.7,1.83h0Z"/></g></g></g></svg>