<?xml version="1.0" encoding="UTF-8"?>
<svg id="_レイヤー_2" data-name="レイヤー 2" xmlns="http://www.w3.org/2000/svg" viewBox="0 0 250 20">
  <defs>
    <style>
      .cls-1 {
        fill: none;
      }
    </style>
  </defs>
  <g id="_デザイン" data-name="デザイン">
    <g>
      <path d="m110.07,5.3c-.29.21-.52.4-.77.56-.33.21-.56.22-.51-.29.03-.27-.09-.67.05-.8.42-.39.88-.71,1.55-.68.76.03,1.52-.11,2.28-.18.55-.05,1.09-.13,1.64-.11.64.02,1.05.44.89,1.05-.18.73-.48,1.47-.9,2.09-.56.83-1.29,1.54-1.94,2.31-.12.15-.23.31-.44.6.56,0,.97.04,1.37,0,.62-.08.99.35,1.41.65,1.07.77,1.28,1.86.84,3.08-.95,2.66-2.98,4.18-5.41,5.32-.25.12-.53.24-.68-.15-.18-.44-.04-.73.41-.9,1.41-.53,2.73-1.21,3.62-2.47.49-.69.86-1.48,1.23-2.25.11-.23.08-.54.04-.8-.02-.11-.21-.2-.33-.3-.13-.11-.25-.22-.38-.33-.17-.15-.33-.39-.52-.43-1.05-.22-2.01.04-2.82.72-.22.18-.39.54-.4.83-.05,1.04-.04,2.09-.04,3.13,0,.53-.26.88-.7,1.08-.28.13-.46.07-.44-.34.05-1.19.05-2.37.06-3.56,0-.28-.13-.4-.43-.31-.19.06-.41.15-.58.1-.16-.05-.38-.25-.39-.4-.02-.18.09-.49.23-.56,1.18-.59,1.36-1.66,1.46-2.8.04-.47.18-.93.27-1.4.02-.13.1-.28.05-.37-.3-.67-.04-1.24.29-1.8.03-.05,0-.13-.02-.26Zm.43,4.48c.08.05.16.1.24.15.15-.22.29-.46.46-.67.68-.84,1.39-1.65,2.06-2.5.31-.4.57-.85.82-1.3.24-.43.14-.6-.34-.66-.73-.1-1.34.18-1.97.52-.61.33-.85.76-.9,1.43-.06.74-.25,1.48-.36,2.22-.04.26,0,.54,0,.81Z"/>
      <path d="m130.07,17.32c.77-.1,1.39-.22,2.02-.26.86-.06,1.72-.1,2.57-.09.3,0,.59.2.86.3-.35.28-.63.54-.95.75-.15.11-.37.22-.53.19-.68-.12-1.32.02-2,.1-1.37.17-2.78.15-4.17.19-.53.02-1.06.02-1.59,0-.17,0-.33-.1-.5-.15.07-.18.09-.39.21-.53.48-.57,1.06-.83,1.8-.5.1.04.21.05.32.07.97.15,1.02.07,1.09-.88.06-.89.23-1.78.33-2.67.09-.77,0-.8-.74-.69-.9.13-1.66.54-2.42,1-.15.09-.32.16-.47.24-.41-.78-.24-1.23.53-1.46.79-.24,1.58-.47,2.36-.71.29-.09.51-.2.36-.59-.19-.49.1-.81.48-1.03.46-.26.71-.09.73.43.03,1.04.05,1.06,1.08.91.6-.09,1.2-.17,1.78-.35.22-.07.49-.35.53-.58.38-1.96.78-3.91.8-5.92,0-.71-.01-1.43.02-2.14.05-.95.42-1.23,1.41-1.12-.42,1.95-.36,3.94-.46,5.92,0,.2-.06.4-.13.58-.4,1.07-.55,2.22-1.05,3.28-.25.54-.36.98-1,1.05-.56.06-1.13.11-1.69.16-.8.06-1.06.3-1.17,1.1-.14,1.07-.27,2.14-.43,3.38Z"/>
      <path d="m124.16,12.27c-.04-.69-.08-1.29-.12-1.95-.52-.03-1.07,0-1.57.33-.31.21-.75.55-1.02.19-.29-.39.12-.76.48-.95.43-.23.9-.39,1.36-.56.24-.09.51-.11.73-.23.34-.18.61-.4.61-.88,0-.4.18-.81.27-1.21.05-.23.1-.47.15-.7-.05-.04-.1-.08-.15-.12-.78.37-1.55.74-2.39,1.14-.14-.62.27-.93.54-1.24.47-.55,1.11-.74,1.84-.86,1.26-.2,2.49-.55,3.73-.82.33-.07.68-.08,1.02-.12.03.07.07.15.1.22-.22.22-.41.54-.67.63-.81.29-1.01.94-1.15,1.66-.05.28-.06.57-.12,1.05.63-.26,1.13-.49,1.64-.68.39-.14.79-.3,1.19-.35.35-.04.47-.15.46-.51-.01-.68-.06-1.37.06-2.03.08-.41.42-.78.68-1.15.04-.05.3-.05.34.01.09.14.17.33.16.49-.05.68-.18,1.35-.18,2.02,0,.9.06,1.79.14,2.69.04.38.03.67-.43.71-.44.03-.68-.24-.69-.7-.01-.34-.07-.68-.11-1.02-.62.34-1.16.66-1.72.95-.19.1-.41.17-.62.2-.57.07-.77.44-.81.94-.03.38-.03.77-.07,1.15-.05.44-.27.74-.85.85-.09-.79-.18-1.53-.26-2.26-1.4.34-1.7.74-1.84,2.08-.04.4-.14.75-.75,1Zm2.79-6.37c-.84.17-1.14.45-1.15.95,0,.34-.04.69-.03,1.03,0,.2.08.4.12.59.2-.13.52-.23.58-.41.2-.68.31-1.39.47-2.17Z"/>
    </g>
    <rect class="cls-1" width="250" height="20"/>
  </g>
</svg>