<?xml version="1.0" encoding="UTF-8"?>
<svg id="_レイヤー_2" data-name="レイヤー 2" xmlns="http://www.w3.org/2000/svg" viewBox="0 0 602 355.55">
  <defs>
    <style>
      .cls-1 {
        fill: none;
      }
    </style>
  </defs>
  <g id="_デザイン" data-name="デザイン">
    <g>
      <path d="m55.04,333.73c-2.1.66-3.71,1.14-4.56,2.74,1.28-.24,2.57-.48,3.8-.71,1.06,2.5.58,10.41-.53,12.21-1.91-.06-3.74-.11-5.88-.17.36-2.86.74-5.77,1.16-9.06-.6.42-1,.59-1.24.89-.54.68-1.08,1.37-1.46,2.14-1.32,2.69-2.97,1.61-4.4.14-.23-.23-.09-.83-.12-1.26.42-.01.89-.16,1.23-.01.39.17.67.61,1.2,1.13,1.84-1.66,2.92-3.79,4.56-5.48-.09-.18-.18-.37-.27-.55-.71.1-1.48.05-2.12.32-1.77.75-3.52,1.27-5.49.5-1.14,3.25.09,6.92-1.64,9.86-.32-.06-.63-.11-.95-.17.3-2.95.6-5.89.93-9.23-2.44.63-4.5,1.16-6.85,1.77.68-2.57,2.92-3.43,4.05-5.32-.79-.72-1.57-1.43-2.49-2.27.84-.88,1.52-1.73,2.33-2.41.69-.58.82-1.99,2.62-1.61-.87,1.38-1.64,2.59-2.39,3.77,1.18,1.61,1.46,1.66,2.63.5.56-.55,1.06-1.18,1.68-1.65.35-.27.89-.28,1.34-.41.09.14.18.29.27.43-1.78,1.9-3.56,3.81-5.43,5.81,2.1.62,2.97-.76,3.81-1.94.28,0,.48-.05.58.03,2.09,1.58,3.98,1.7,6.19.4,1.15-.68.89-1.68.69-2.85-.93.03-1.82.06-3.23.1.77-.62,1.11-1.01,1.54-1.22.87-.43,1.99-.54,1.91-1.95-.01-.17.8-.6.89-.53.41.36.7.86,1.16,1.48.64-.06,1.5-.26,2.33-.2,1.26.09,2.09-.28,2.57-1.51.31-.8.84-1.54,2.16-.69-.94,1.22-1.81,2.39-2.71,3.53-.82,1.04-1.55,2.07.14,3.42Zm-1.97,3.92c-2.5.11-3.03,1.11-2.27,3.97,2.64-.04,2.91-.48,2.27-3.97Zm0,5.28c-.92.17-1.63.2-2.24.46-.43.18-1.02.7-1,1.04.02.51.4,1.18.83,1.45,1.33.82,2.35.2,2.46-1.41.03-.38-.02-.76-.05-1.54Zm.21-12.24c-3.26-.12-3.75.35-3.03,2.69,1.46-.25,2.15-1.35,3.03-2.69Z"/>
      <path d="m170.85,333.13c-.72,2.34-1.25,4.36-1.99,6.31-.2.52-.98.95-1.58,1.14-.88.28-1.85.29-2.78.47-.94.19-1.09.76-.59,1.67,2.29-.54,4.59-1.41,7.28-.46-1.31,3.27-4.1,4.4-6.93,5.7-.34-1.13-.66-2.16-.96-3.16-2.22.39-2.25,3.58-4.86,3.14.07-.32.05-.62.18-.71,3.1-2.27,3.84-5.52,3.91-9.1.02-1.23-.19-2.84.47-3.57.66-.72,2.3-.54,3.51-.74,1.36-.23,2.71-.44,4.33-.69Zm-7.23,3.35c3.25.31,3.72.16,4.7-1.51-1.4.56-3.22-.4-4.7,1.51Zm5.34,6.45c-1.63.21-3.2.1-4.23,1.6,1.67,1.11,2.69.74,4.23-1.6Zm-5.29-3.62c1.95.59,3.34.33,4.51-1.43-1.78-.14-3.27-.17-4.51,1.43Z"/>
      <path d="m211.19,344.77c1.21.29,2.18.53,3.15.76-.44,1.8-.56,1.81-4.07.18-.46.4-.96.87-1.49,1.3-.89.73-1.97,1.29-3.03.72-1.09-.59-2.02-1.52-2.02-2.96,0-.69.04-1.39.06-2.02,2.02-1.11,3.62.42,5.53.49.47-1.9.45-3.77.06-5.79-1.84-.05-3.59-.11-5.41-.16.2-1.51,1.26-1.03,1.99-1.11.85-.09,1.71-.08,2.92-.14-.33-1.14-.6-2.07-.9-3.1-1.18.1-2.23.19-3.46.29.56-1.51,1.94-1.19,2.9-1.87.05-.47.1-1.05.17-1.79,1.48.83,2.78,1.57,4.4,2.48-.95.36-1.6.61-2.44.93.3.81.55,1.51.86,2.35,1.09-.06,2.08-.12,3.28-.19-.14,1.65-1.88.87-2.71,1.69.07,2.55.13,5.1.21,7.92Zm-2.56.03c-.82-.32-1.56-.69-2.34-.89-.3-.08-.88.14-.99.38-.17.36-.19.94,0,1.29.73,1.36,1.95,1.13,3.33-.78Z"/>
      <path d="m96.87,330.31c.09,1.42.17,2.84.27,4.33,2.09.77,4.06-.67,6.16-.14.07.3.24.62.18.87-.65,2.83-1.28,5.66-2.94,8.12-.25.38-.59.72-.95,1-.13.1-.53.07-.63-.05-.18-.21-.33-.56-.28-.8.06-.27.36-.49.55-.74,1.47-1.96,2.18-4.13,1.82-6.9-.83.06-1.65.13-2.46.19-1.07.09-1.52.69-1.93,1.7-1.13,2.83-2.45,5.6-3.77,8.35-.45.94-1,1.96-2.68,1.68,1.52-3.81,4.78-6.63,5.19-10.85-1.85-.64-3.69.53-5.85-.09,1.67-2.07,4.09-.71,5.68-1.78,1.07-1.5-.33-3.54.94-4.98.24.02.49.05.73.07Z"/>
      <path d="m147.06,339.62c-.64-.43-1.21-.81-1.97-1.32.47-1.34.94-2.68,1.47-4.2-1.17-.09-2.1-.16-3.56-.27,1.62-1.57,4.2-.91,4.65-3.36.22.57.43,1.14.69,1.82l2.95.09c0,1.27-.85,1.18-1.63,1.29-1.35.18-2.88,2.46-2.6,3.79.18.83,1.1,1.26,1.82.75.63-.45,1.16-1.06,1.76-1.56.69-.57.71-.55,2.18-.59-.39,1.99-2.63,2.36-3.54,4.1.74.22,1.36.4,2.23.65-.15.61-.31,1.21-.54,2.11-.94-.59-1.62-1.02-2.55-1.61-.49.45-1.28.85-1.53,1.47-.35.89-.58,2-.36,2.89.29,1.2,1.55.77,2.43.77.78,0,1.55-.21,2.33-.28.48-.04.98.02,1.49.03-.06.42-.02.63-.11.71-1.31,1.18-5.26,1.46-6.65.48-1.14-.81-1.57-1.89-1-3.55.47-1.39,1.27-2.66,2.03-4.22Z"/>
      <path d="m119.95,333.57c-.63,1.91-.99,3.35-1.56,4.7-1.36,3.26-2.66,6.57-5.48,8.95-.6.5-1.13,1.1-2.26.54.29-.48.48-.96.81-1.3.71-.73,1.54-1.35,2.22-2.1,1.18-1.29,1.16-1.46.18-2.81-.23-.32-.48-.62-.73-.93-.19-.24-.38-.49-.62-.81,1.47-1.39,1.92.73,3.27.76,1.24-1.45,1.43-3.45,2.03-5.57-1.64-.05-3.06-.29-4.4-.06-.81.14-1.63.91-2.19,1.6-.94,1.15-1.67,2.47-2.48,3.72-.43.67-.44.65-1.7.62,0-.22-.07-.5.03-.66,1.28-1.98,2.54-3.96,3.9-5.88.32-.46.99-.95,1.5-.95,2.34-.04,4.68.09,7.48.18Z"/>
      <path d="m131.74,335.17c1.96-.16,3.56-.28,5.13-.41.22,1.15-.38,1.28-1.04,1.41-1.28.25-2.9.17-3.73.93-.75.7-.47,2.4-.93,3.54-.91,2.24-1.98,4.42-3.07,6.58-.26.52-.86,1.14-1.48.45-.22-.24-.07-1.02.15-1.41.67-1.15,1.54-2.18,2.19-3.33,1.03-1.81,1.5-3.74,1-5.88-3.12-.22-5.93,1.31-9.32,1.45.8-1.5,1.76-1.7,2.76-1.88,1.55-.27,3.09-.54,4.63-.87,2.12-.45,2.14-.51,2.11-2.61,0-.23-.14-.54-.04-.69.23-.33.57-.59.87-.88.28.31.74.6.79.95.1.75,0,1.52-.04,2.64Z"/>
      <path d="m221.86,328.67c.69,1.94.48,3.74.38,5.52-.14,2.51-.35,5.01-.47,7.52-.04.85.01,1.74.22,2.56.59,2.29,2.36,2.95,4.29,1.57,1.08-.77,2.02-1.74,2.99-2.65.63-.59,1.2-1.3,2.33-.65-.07.26-.06.64-.23.78-1.58,1.28-3.19,2.53-4.81,3.77-.31.23-.68.39-1.04.53-2.11.86-3.65.13-4.44-2.02-1.05-2.84-.56-5.73-.41-8.62.1-2.02.03-4.05.03-6.07,0-.83-.22-1.74,1.17-2.24Z"/>
      <path d="m248.66,336.12c.46-1.9,2.05-2.95,3.5-4.01,1.35-.99,2.98-1.6,4.66-1.12,1.63.46,2.23,1.87,2.34,3.47.18,2.78-.06,5.5-1.4,8.01-.89,1.66-1.8,3.31-2.74,4.94-.37.65-.41.63-2.06.5.46-.76.81-1.39,1.21-2,1.68-2.57,3.28-5.19,3.64-8.33.13-1.08.16-2.2.03-3.28-.18-1.49-.93-2-2.42-1.87-1.65.14-2.97.89-4.08,2.1-.66.73-1.4,1.38-2.11,2.06-.19-.16-.38-.32-.57-.48Z"/>
      <path d="m235.21,345.25c1.36-.7,2.31-1.19,3.49-1.79.03-.88.03-1.88.09-2.87.1-1.77.44-2.01,2.14-1.6.74.18,1.49.32,2.28.49-.1,1.15-.9,1.03-1.55,1.08-.9.06-1.51.37-1.53,1.39-.02.98.29,1.63,1.38,1.84,1.41.27,2.79.66,4.49,1.07-1.8,1.68-3.47.37-4.98.66-.12.13-.28.23-.31.36-.62,2.49-.88,2.61-3.07,1.21-.74-.47-1.41-1.06-2.43-1.84Z"/>
      <path d="m165.65,325.93c-.62.68-1.19,1.19-1.62,1.8-2.02,2.8-3.99,5.64-6.01,8.43-.22.31-.7.44-1.34.82.06-.77-.06-1.32.16-1.62,2.83-3.9,5.71-7.76,8.66-11.74,1.4,1.55,2.53,2.93,3.8,4.17,1.27,1.24,2.67,2.33,4.06,3.53-.81,1.14-1.58.68-2.22.09-1.32-1.23-2.58-2.52-3.86-3.8-.49-.49-.96-.99-1.63-1.69Z"/>
      <path d="m180.92,329.13c-.04,1.29-.05,2.52-.12,3.74-.18,3.28-.38,6.55-.59,9.83-.07,1.17-.16,2.34-.27,3.51-.09.93-.48,1.6-1.77,1.77.02-.63,0-1.14.06-1.64.21-1.78.53-3.54.65-5.32.24-3.59.37-7.18.56-10.78.03-.65.13-1.28,1.48-1.11Z"/>
      <path d="m193.49,347.74c.08-.54.06-1.13.27-1.62,1.51-3.5,2.18-7.14,2.13-10.94-.02-1.87.11-3.75.24-5.63.03-.47.34-.91.96-1.34.1.47.3.95.29,1.42-.13,3.21-.17,6.42-.51,9.61-.25,2.32-.83,4.61-1.41,6.87-.17.68-.82,1.25-1.25,1.86-.24-.08-.49-.16-.73-.24Z"/>
      <path d="m267.23,347.98c-1.89-.01-2.51-.9-1.89-2.74.47-1.38,1.21-2.55,2.64-3.13,1.25-.51,2.55-.18,3.36.87.73.95.6,2.03-.44,3.16-.99,1.06-2.12,1.87-3.66,1.85Zm-.6-1.69c1.66.35,2.87-.1,3.44-1.36.14-.31.23-.87.06-1.06-.27-.29-.78-.5-1.18-.48-1.33.06-2.03.99-2.32,2.9Z"/>
      <path d="m12.4,340.8c1.51-1.55,3.02-1.68,4.45-1.78,2.99-.22,6-.66,8.96.03.04.2.08.41.12.61-.41.22-.84.67-1.21.62-3.55-.42-7.03.05-10.51.68-.41.08-.87-.07-1.81-.16Z"/>
      <path d="m64.65,336.82c-.02.57-.02,1.09-.05,1.6-.14,2.46-.91,4.9-.01,7.4.38,1.06-.31,1.82-1.77,2.17-.1-.35-.29-.7-.28-1.05.12-2.74.24-5.49.45-8.23.1-1.36.27-1.45,1.66-1.89Z"/>
      <path d="m37.34,340.4c-2.2,2.67-3.88,5.45-6.54,7.59-.71-1.15-.34-1.77.26-2.33,1.55-1.43,3.02-2.91,3.94-4.88.42-.9.55-.84,2.34-.38Z"/>
      <path d="m192.47,336.96c-.34.9-1.09,1.23-1.86.9-.55-.24-1.22-.91-1.27-1.43-.11-1.31-.01-2.67.23-3.97.15-.79.64-1.64,2-1.29-.29.98-.66,1.89-.81,2.84-.29,1.87-.09,2.14,1.7,2.96Z"/>
      <path d="m126.08,332.98c.89-2.61,3.84-4.79,6.61-5.04-1.65,2.68-4.64,3.21-6.61,5.04Z"/>
      <path d="m72.38,343.25c1.94-.2,2.1-.1,6.15,3.83-.45.69-.94,1.3-1.8.57-1.42-1.21-2.78-2.5-4.14-3.77-.14-.13-.14-.41-.2-.63Z"/>
      <path d="m175.53,338.5c-.83.69-1.66.66-1.71-.22-.07-1.59.15-3.21.41-4.79.12-.76.77-.87,1.62-.34-.92,1.73-1.3,3.56-.32,5.35Z"/>
      <path d="m77.1,335.71c-.54.61-.76,1.07-1.12,1.24-1.49.71-3.02,1.32-4.68,2.03.43-2.37,2.1-3.32,5.8-3.27Z"/>
      <path d="m167.98,331.18c-1.52,1.08-3.24,1.4-5.27,1.8,1.35-1.88,2.9-2.41,5.27-1.8Z"/>
      <path d="m252.41,330.98c-.74-1.71-.67-3.01-.37-4.3.06-.24.54-.38.98-.65.52,1.75.39,3.19-.61,4.95Z"/>
    </g>
    <g>
      <path d="m79.2,1.83c-.24.71-.45,1.35-.69,1.98-.26.66-.66,1.29-.83,1.97-.65,2.56-.51,2.73,2.22,3.14,5.13.77,7.8,5.21,5.68,9.85-.89,1.94-2.31,3.67-3.54,5.46-.16.23-.62.27-1.29.53.23-.74.3-1.21.52-1.6.59-1.08,1.26-2.12,1.87-3.19.39-.69.83-1.38,1.08-2.12,1.31-3.84.06-6.09-4.16-7.37-1.06-.32-2.25-.28-3.38-.4-.91,1.76-1.79,3.39-2.58,5.05-.38.78-.1,1.49.52,2.15.63.66,1.37,1.39.55,2.61-.74-.71-1.38-1.32-2.12-2.03-.89,1.12-1.59,2.2-2.48,3.11-1.66,1.69-2.79,1.74-4.76.36-.61-.43-1.19-.92-1.67-1.46-1.67-1.9-1.64-4.44.13-6.24.77-.78,1.71-1.42,2.61-2.07.83-.61,1.72-1.15,2.61-1.74,0-1.75-1.78-3.07-1.34-4.86.73-.49,1.23-.24,1.55.34.21.37.21.83.38,1.22.35.83.75,1.64,1.14,2.45,1.4-.23,2.82-.42,4.2-.71.25-.05.48-.54.56-.86.39-1.51.76-3.02,1.09-4.54.21-.99.65-1.56,2.14-1.05Zm-9.08,10.05c-1.91.19-3.01,1.42-4.31,2.38-.8.59-1.09,1.32-1.16,2.21-.16,2.13.98,3.42,3.85,4.15.92-.95,1.84-1.98,2.86-2.93.85-.78.83-1.69.46-2.56-.47-1.11-1.12-2.15-1.71-3.25Zm4.69-1.45c-1.3.04-2.08.06-2.85.08-.52,1.62.14,2.53,1.48,3.42.45-1.15.83-2.11,1.37-3.5Z"/>
      <path d="m427.71,2c-.15,1.05-.28,1.99-.41,2.93.85.71,1.64.14,2.43.06.8-.08,1.6-.13,2.84-.22-1.31,2.5-3.84.88-5.37,2.2.14,2.32.41,4.8.4,7.27,0,2.7-.19,5.41-.47,8.1-.11,1.01-.63,2.05-2.08,2.43-.86-1.8,1.15-3.24.55-4.89-.14-.01-.32-.09-.41-.04-2.6,1.67-3.6,1.46-5.54-.79-2.51-2.92-1.42-6.22.66-8.09.44-.39.93-.75,1.37-1.14,1.06-.94,2.18-1.49,3.94-.12-.04-1.27-.06-2.04-.08-2.99-3.01-.28-5.79-.05-8.67.21-.23-.89.38-1.23,1.04-1.32,1.28-.17,2.59-.23,3.88-.3.61-.03,1.23.02,1.84,0,1.78-.04,1.79-.04,2.32-1.67.25-.75.47-1.5,1.77-1.63Zm-4.08,8.15c-1.12,1-2.34,1.85-3.25,2.93-1.54,1.83-.89,4.72,1.19,6.03.83.52,1.65.42,2.2-.34,1.03-1.41,1.86-2.9,2.01-4.68.13-1.56-.3-2.8-2.15-3.94Z"/>
      <path d="m94.85,19.87c2.62-.73,4.42,1.44,6.94,1.24-.29-2.03-.54-4.1-.9-6.15-.2-1.14-1.25-1.09-2.17-1.09-.86,0-1.82.35-2.46-.57q1.45-1.1,4.04-1c-.06-1.25-.12-2.47-.18-3.76-1.18-.22-2.15-.4-3.17-.59.4-1.44,1.79-.99,2.52-1.68.12-.67.25-1.41.41-2.27,2.19.59,1.47,3.06,3.57,3.81-.79.38-1.26.6-1.93.92.21,1.11.44,2.26.62,3.23,1.07.55,2.1-.77,2.78.73-.85.34-1.71.69-2.75,1.11.45,2.53.87,5.04,1.37,7.53.18.89,1.72,1.7,3.1,1.77.3.01.59-.02.91-.03.1.25.24.44.24.63,0,.27-.08.53-.17,1.07-.88-.21-1.68-.34-2.42-.6-1.35-.49-2.56-.99-4.1-.18-.92.49-2.23.46-3.36.44-2.95-.05-4.13-1.91-2.88-4.55Zm4.94,2.69c-1.23-.5-2.25-1.74-3.89-1.03.9,1.76,1.41,1.91,3.89,1.03Z"/>
      <path d="m337.88,13.46c-4.24.82-5.78,4-7.49,7.34-1.48-1.85-.87-3.58-.87-5.18,0-1.57-.26-3.21.45-5.05,1.78,1.72.31,3.61.98,5.18,2.24-1.37,4.43-2.72,6.92-4.24.65-1.14-1.48-2.78.14-4.41,1.18,1.29.66,2.97,1.68,4.46.86.03,1.92-.03,2.96.1,2.66.33,4.3,2.35,3.77,4.69-.41,1.84-2.22,2.38-3.75,3.14-.19.1-.45.15-.67.14-2.77-.16-3.65,1.47-4.04,3.62-.19,1.04-.25,1.03-1.61,1.51-.56-.89,0-1.63.37-2.36,1.25-2.53,1.23-5.25,1.41-7.94.02-.32-.16-.65-.26-1Zm1.45,5.4c1.29-.28,2.37-.38,3.33-.74,1.72-.64,2.71-2.09,2.41-3.24-.26-1.01-1.82-1.91-3.5-2.02-1.44-.09-1.98.27-2.1,1.62-.12,1.34-.1,2.68-.15,4.38Z"/>
      <path d="m244.73,25.76c-1.63-3.16-3.18-6.17-4.74-9.2-1.72-.07-2.87.85-3.91,1.68-.47.37-.37,1.43-.41,2.18-.05.95.35,2-.95,2.87-.26-.45-.67-.83-.67-1.2.01-1.85.03-3.71.24-5.55.33-2.77.67-5.52.07-8.3-.09-.4.01-.83.03-1.51,2.59.05,5.1-.34,7.55.19,1.71.37,2.85,1.68,3.6,3.13.54,1.04.28,2.13-.59,2.97-.68.67-1.44,1.27-2.22,1.83-1.43,1.02-1.47,1.05-.66,2.61,1.07,2.05,2.15,4.11,3.25,6.15.4.75.7,1.45-.59,2.16Zm-8.77-8.96c2.89-1.43,5.56-2.41,7.6-4.42.83-.82.88-1.54.16-2.44-1.39-1.73-4.55-2.59-6.6-1.66-.41.18-.88.7-.9,1.08-.15,2.32-.18,4.65-.26,7.44Z"/>
      <path d="m271.57,14.32c2.03-2.35,3.57-4.44,5.44-6.22,1.81-1.72,2.84-4.2,5.47-5.18-1.73,3.37-4.81,5.77-7.02,9.03,1.24,1.28,2.52,2.5,3.65,3.82,1.02,1.2,5.23,5.86,4.88,7.79-.89.48-3.55-3.89-3.94-4.35-1.75-2.06-3.52-4.1-5.38-6.26-2.63,2.33-4.85,4.46-3.63,8.05.25.74-.1,1.69-.32,2.51-.13.48-.56.89-1.08,1.26-.87-4.23.24-8.32.52-12.44.28-4.08.53-8.17.79-12.32,1.29.23,1.26.99,1.22,1.69-.14,2.56-.32,5.12-.46,7.68-.08,1.46-.09,2.92-.15,4.94Z"/>
      <path d="m304,25.55c-1.3,0-2.55-3.59-2.76-4.32-.41-1.44-.7-2.92-1.24-4.32-.61-1.59-.71-1.58-2.55-1.39-1.21.12-2.42.36-3.63.46-1.4.11-2.19.82-2.69,1.98-.89,2.04-1.83,4.06-2.77,6.08-.11.23-.35.41-.63.72-.78-.76-.59-1.47-.27-2.2,2.3-5.11,4.59-10.23,6.93-15.33.46-1.01,1.14-1.94,1.84-3.12,1.75,1.34,1.37,3.2,2.18,4.58.88,1.48,1.36,3.17,1.99,4.78.6,1.54,1.28,3.06,1.74,4.64.45,1.52,2.55,5.75,1.86,7.43Zm-4.97-11.74c-1.01-2.37-1.88-4.4-2.74-6.42-1.59,2.27-2.72,4.46-3.28,7.09,2.09-.23,3.8-.42,6.02-.67Z"/>
      <path d="m30.96,8.24c-1.8-.05-3.23-.08-4.65-.17-.14,0-.25-.43-.43-.77,1.68-.73,3.97.16,4.84-2.06,1.03.42,1.92.78,3.06,1.24-1.1,1.18-.86,2.36-.61,3.61.39,1.88.6,3.8.9,5.7.48,3.07.26,3.8-2.01,6.53.72.65,1.45,1.31,2.3,2.07-.97.66-1.72.34-2.23-.12-1.4-1.26-2.94-1.33-4.67-.83-1.08.31-2.12.1-3.05-.52-.98-.65-1.41-1.59-.98-2.38.51-.94,1.5-.89,2.4-.76.58.09,1.12.43,1.67.67,3.27,1.44,5.09.44,4.95-2.93-.13-3.1-.56-6.19-1.51-9.27Zm-5.33,12.98q.46.95,1.65.59c-.72-.26-1.18-.42-1.65-.59Z"/>
      <path d="m202.81,24.76c-1.27-.2-1.34-1.14-1.44-1.96-.18-1.48-.41-3-.28-4.47.17-1.96-.64-3.45-1.92-4.85-2.18-2.39-4.36-4.79-6.54-7.18-.59-.65-1.25-1.27-.6-2.44,3.36,2.72,5.36,6.45,8.96,9.22,1.59-2.2,3.02-4.35,4.64-6.37,1.61-2.01,3.42-3.88,5.21-5.87,1.05.95.65,1.56.04,2.2-1.58,1.64-3.28,3.2-4.67,4.97-1.34,1.7-2.37,3.62-3.51,5.45-.14.22-.11.55-.11.83.04,2.06.06,4.13.17,6.19.03.62.26,1.23.47,1.83.31.91.57,1.78-.42,2.47Z"/>
      <path d="m227.8,8.07c.2.4.57.8.56,1.19-.15,4.21-.35,8.43-2.77,12.17-.62.95-1.45,1.84-2.38,2.55-1.56,1.19-3.33.98-4.68-.42-.4-.42-.73-.92-.97-1.44-1.62-3.48-1.24-7.12-.9-10.74.01-.13.13-.26.23-.36.1-.1.24-.15.49-.29.93.45.6,1.3.61,2.01.05,2.14.03,4.27.1,6.41.04,1.24.42,2.39,1.4,3.31,1.11,1.04,2.04,1.19,3.2.19.93-.81,1.75-1.8,2.35-2.85.89-1.57,1.5-3.24,1.54-5.09.05-2.18.32-4.36.5-6.54.24-.03.47-.07.71-.1Z"/>
      <path d="m145.7,6.71c-.6.78-1.16,1.59-1.8,2.35-2.1,2.46-3.46,5.13-3.28,8.4.11,1.91.73,3.62,1.7,5.26.41.69.9,1.36.05,2.05-1.92-1.02-3.12-4.53-3.22-8.38-.09-3.35,1.83-5.89,3.71-8.64-3.11-1.34-5.76,1.14-8.8.41.28-.47.37-.9.61-1,3.46-1.33,7.05-1.34,10.67-1.02.12.19.24.37.36.56Z"/>
      <path d="m369.55,20.46c3.45-.22,4.88-2.92,3.93-6.99-3.02-.38-3.78.07-5.02,2.87-1,2.24-2.02,4.46-3.1,6.65-.34.7-.88,1.27-1.58,1.72-.06-3.73,2.88-6.05,3.34-9.59-2.29-1.02-3.89,2.05-6.33,1.49.65-1.8,1.77-2.3,2.92-2.76.67-.27,1.31-.66,2-.78,1.7-.3,2.75-1.17,2.8-3.28.01-.42.37-.84.56-1.24,1.71.27,1,1.92,1.54,3.05.69-.1,1.44-.28,2.19-.29,1.8-.02,2.68,1.06,2.82,3.1.22,3.1-1.1,5.39-2.95,7.36-1.32,1.39-2.2,1.02-3.12-1.31Z"/>
      <path d="m44.48,6.54c.25.33.69.65.73,1,.48,3.88.91,7.77,1.32,11.66.15,1.44.19,3.09,1.7,3.75,1.55.68,2.94-.5,4.07-1.36,1-.76,1.68-1.91,2.56-2.96.97.57.69,1.36.27,1.97-1.41,2.04-3.36,3.5-5.92,4.08-1.52.35-3.08-.56-3.64-2-.23-.6-.32-1.25-.39-1.88-.44-3.96-.88-7.93-1.27-11.9-.07-.74.03-1.49.05-2.23.17-.05.35-.1.52-.14Z"/>
      <path d="m396.13,8.14c1.17-1.4,1.29-1.49,6.74-2.86,1.07-.27,2.22-1.08,3.61-.13-.28.44-.5.86-.8,1.22-1.12,1.35-2.36,2.62-3.4,4.02-2.46,3.31-2.54,6.93-1.21,10.63.21.59.93,1.02,1.7,1.83-.18.3-.56.93-1.16,1.92-2.13-3.08-2.77-6.06-2.63-9.33.14-3.41,2.5-5.8,4.52-8.69-2.78-.12-4.69,1.56-7.36,1.39Z"/>
      <path d="m253.2,24.48c.08-2.48,1.49-1.22,2.18-2.23.24-4.59.49-9.39.76-14.46-1.01.09-1.81.17-2.67.25-.38-1.01-.38-2.01.58-2.14,1.79-.23,3.59-.21,5.38-.25.14,0,.28.35.44.57-.1.29-.18.74-.28.76-1.69.31-2.05,2.02-2.16,3.97-.17,3.01-.37,6.03-.45,9.04-.03.92.27,1.84.41,2.71,1.04.37,2.36-.59,2.68,1.95-2.33.33-4.57-.13-6.87-.17Z"/>
      <path d="m125.6,18.35c.94.97,1.08,1.69.15,2.38-1.43,1.06-2.81,2.2-4.34,3.12-2.79,1.67-4.48,1.09-5.04-1.99-.55-3-.56-6.08-.8-9.13-.01-.14.01-.29.04-.42.12-.57.26-1.29,1.04-1.08.33.09.54.88.63,1.37.07.4-.15.83-.21,1.26-.35,2.65-.13,5.26.68,7.83.49,1.55,1.12,1.8,2.72,1.09,1.6-.71,3.08-1.57,3.95-3.11.24-.42.66-.75,1.18-1.31Z"/>
      <path d="m321.26,5.01c-.83,1.67-1.58,3.02-2.18,4.43-1.05,2.45-1.97,4.97-1.61,7.65.19,1.39.64,2.77,1.18,4.08.49,1.18.61,1.14,2.17,1.11,0,.21.08.44.01.63-.26.69-.1,1.76-1.16,1.86-1.09.1-1.12-.99-1.52-1.63-.08-.12-.1-.27-.19-.39-2.71-3.91-2.26-7.96-.74-12.08.42-1.14.8-2.29,1.17-3.44.38-1.21,1.29-1.78,2.86-2.21Z"/>
      <path d="m382.37,24.76c-.69-.84-.4-1.38.1-2.03,2.99-3.91,3.01-8.08.79-12.28-.51-.96-1.65-1.61-2.43-2.46-.24-.26-.25-.7-.36-1.05.35-.03.82-.2,1.04-.05.79.54,1.69,1.06,2.19,1.8,3.01,4.39,3.12,8.98.78,13.62-.46.91-.66,2.1-2.1,2.47Z"/>
      <path d="m15.17,24.76c-1.25-1.22-2.1-2.23-2.15-3.82-.1-3.41-.5-6.81-.58-10.21-.03-1.47.34-2.96.68-4.41.14-.6.69-1.12,1.41-1.5-.25,1.85-.71,3.69-.72,5.54-.02,3.34.17,6.69.38,10.03.04.66.47,1.33.81,1.95.37.69.89,1.32.17,2.43Z"/>
      <path d="m355.01,24.76c-.44-1.33-.48-1.94.07-2.71,1.4-1.93,2.79-3.91,3.12-6.32.24-1.7.32-3.39-.39-5.05-.31-.72-.47-1.51-.55-2.28-.04-.42.22-.86.43-1.6.46.54.81.77.87,1.05.4,2.09.89,4.19,1.06,6.3.14,1.77-.26,3.51-1.27,5.11-.77,1.22-1.31,2.56-2.01,3.81-.26.47-.67.86-1.33,1.67Z"/>
      <path d="m160.88,18.4c.73.69,1.42,1.25,1.98,1.89,1.53,1.74.67,3.94-1.7,4.43-1.18.25-2.69-1.01-2.73-2.29-.04-1.3.53-2.29,2.45-4.04Zm-.96,4.46c1.16.17,2.06.34,2.24-.89.11-.74-.29-1.36-1.05-1.32-1.43.07-1.14,1.15-1.19,2.21Z"/>
      <path d="m440.47,21.78c-.04,1.44-1.08,2.65-2.24,2.91-1.33.3-2.3-.42-2.18-1.68.16-1.63,1.29-2.66,2.7-3.42.63-.34,1.19-.08,1.39.61.17.61.27,1.24.34,1.58Zm-2.74,1.52q1.4-.64.91-1.86c-.71.47-1.28.92-.91,1.86Z"/>
      <path d="m353.46,11.5c-1.74,1.31-2.32,2.86-2.31,4.64,0,.68-.17,1.34.7,1.85.73.43.49,1.2-.13,1.6-.71.46-1.19-.08-1.34-.66-.28-1.08-.7-2.22-.56-3.28.18-1.37.78-2.72,1.32-4.02.42-1.01,1.2-.83,2.32-.12Z"/>
      <path d="m55.35,3.2c1,.93,1.1,3.5.23,5.56-.92-1.06-1.03-3.63-.23-5.56Z"/>
      <path d="m377.88,12.55c-1.42-2.55-1.44-2.77-.49-4.14,1.24,1.47,1.34,2.14.49,4.14Z"/>
      <path d="m51.12,9.76c-.91-2.63-.58-3.31,1.4-3.22-.43.99-.83,1.9-1.4,3.22Z"/>
      <path d="m412.73,3.92q1.35,1.36.3,2.85c-.89-.91-.75-1.81-.3-2.85Z"/>
      <path d="m408.53,6.76c-.31-2.43-.22-2.63,1.44-3.26-.3,1.15-.12,2.28-1.44,3.26Z"/>
    </g>
    <g>
      <path d="m343.61,207.37c-1.26.38-2.23.63-3.17.96-1.1.38-2.07.56-2.99-.51-.46-.53-1.27-.77-2.09-1.25-1.13,3.74-.38,7.64-2.59,10.78-.08.12-.43.05-.98.1.75-3.12,1.46-6.1,2.3-9.61-2.84,1.49-3.83,4.07-5.96,5.66-1.14-3.93-4.71-3.05-7.36-3.95-.34-.12-1.01.34-1.35.7-.68.73-1.24,1.58-1.88,2.42.77,1.09,1.49,2.1,2.29,3.22,1.4-.65,1.97-1.92,2.52-3.62-1.36.18-2.47.33-3.91.52.32-.59.42-1.08.65-1.16,1.58-.52,3.19-.63,4.92-.16,0,1.47-.71,2.56-1.46,3.65-.35.51-.74,1-1.06,1.54-.79,1.32-1.22,1.48-2.66,1.11-.92-.24-1.35-.72-1.18-1.69.14-.79.27-1.62-.7-2.01-1-.4-1.33.55-1.93.99-.77.56-1.23,1.65-2.42,1.61-.57-.97.22-1.33.67-1.78,1.77-1.77,3.56-3.53,5.41-5.36-.48-.65-.89-1.19-1.45-1.95l2.42.07c.43-.99.87-2,1.4-3.23-1.84-.17-2.69.77-3.52,1.65-.7.74-1.25,1.62-1.96,2.34-.31.31-.85.39-1.44.37,1.2-2.31,2.56-4.42,4.65-6.15.75.07,1.61.09,2.45.23,1.34.21,1.7.9,1.15,2.17-.43.98-.96,1.92-1.51,3.03,2.82.86,5.4,1.65,8.34,2.54,1.57-1.74,3.59-3.53,4.73-6.27-1.41-.38-1.75.94-2.76,1.06-.62-.56-.52-1.26.18-1.65,1.55-.87,2.68-2.02,3.15-3.77.02-.08.27-.11.48-.18.55.93,1.1,1.88,1.8,3.07-.1.13-.5.43-.61.82-.15.54-.32,1.41-.04,1.68,1.12,1.08,2.39,2.21,4.13,1.74,1.16-.32,2.62-.26,3.3-1.51-.08-.19-.15-.39-.23-.58-1.13.35-2.26.7-3.41,1.06-.54-.46-.58-.95.11-1.25.86-.37,1.79-.59,2.67-.91.32-.12.6-.35.77-.92-1.01.16-2.02.33-3.17.51.06-.37.02-.68.13-.74,1.17-.64,1.18-1.52.63-2.58-.42-.82-.64-1.6.76-2.04.34,1.18.66,2.25.99,3.41,1.18-.28,1.39-1.2,1.83-1.87.47-.72.87-1.5,1.36-2.2.41-.57.94-.86,1.69.04-.64.86-1.3,1.75-2.12,2.85.69.24,1.21.42,1.71.59.13,1.64-1.77.79-2.05,1.79.92.9,1.84,1.8,2.96,2.89-2.01.71-4.03,1.17-3.3,4.08,1.1-.75,2.12-1.43,3.13-2.12.14.09.27.18.41.28-.14.43-.15.98-.43,1.28-.63.69-1.44,1.22-2.1,1.89-1.08,1.1-1.14,1.52-.07,2.56.71.69,1.63,1.16,2.48,1.68.37.23.8.35,1.31.56-.4,1.1-1.01,1.32-1.85.82-1.07-.64-2.11-1.34-3.15-2.02-1.57.99.52,3.69-2.36,4.52.44-4.07,1.3-7.79,1.36-11.82Z"/>
      <path d="m45.45,219.19c-.27-1.95-1.41-1.99-2.41-2.1-.96-1.2.46-2.97-1.21-3.99-1.94.07-2.63,3.32-5.39,2.21,2.88-2.19,5.88-4.05,7.46-7.66-.86-.45-1.64-.87-2.51-1.33-.92,1.07-1.76,2.04-2.81,3.25.47-5.2,5.07-9.82,11.27-6.86.56-.91,1.14-1.85,2.01-3.25-1.84.11-3.15.12-4.44.28-2.26.27-4.52.56-6.76.96-1.73.32-3.36.85-3.77,2.99-.15.79-.31.76-1.76.81.41-1.31.66-2.6,1.23-3.74.25-.5,1.1-.82,1.74-.99,1.2-.33,2.44-.5,3.77-.75-.27-.73-.5-1.33-.75-2.03.39-.05.7-.19.81-.1,2.25,2.02,4.92,1.66,7.59,1.41,1.37-.13,2.75-.1,4.22-.14-.04,2.28-1.07,3.74-2.23,5.13-.14.17-.42.36-.59.33-2.56-.49-3.12,1.96-4.76,3.11,1.22,1.22,2.74,1.58,4.12,2.22,1.22.56,2.93.36,3.39,2.43-.94-.17-1.88-.34-2.95-.53-1.53,2.61-2.56,5.61-5.25,8.36Zm2.83-7.35c-1.67-.4-2.81.21-4,.83-.06.33-.14.62-.15.93-.05.89-.01,1.74,1.15,1.92,1.04.16,1.83-.12,2.19-1.21.25-.78.51-1.55.82-2.46Zm-1.5-8.59c-3.1-.11-3.76.27-4.26,2.3.8.21,1.6.42,2.48.65.6-1,1.11-1.84,1.78-2.96Zm-3.76,8.4c1.97-.62,3.56-1.11,5.16-1.61-1.92-2.22-3.49-1.52-5.16,1.61Z"/>
      <path d="m121.74,210.58c.62.3,1.22.59,1.96.95-1.06,1.27-3,.19-3.72,1.83-.53,1.21-1.37,2.28-2.13,3.52.32.56.68,1.19,1.09,1.9-1.65.14-3.12.26-4.83.41.21-.48.39-.91.53-1.24-.87-1.31-1.7-2.57-2.73-4.12-.59-.13-1.59-.35-2.83-.63.81-1.17,1.66-.74,2.36-.79.85-.06,1.56-.22,1.81-1.16.3-1.11.6-2.22.98-3.63-1.6.41-2.97.77-4.45,1.15-.11-2.26-.21-4.27-.31-6.5.75-.09,1.58-.25,2.41-.29,1.54-.06,2.8-.42,2.67-2.71.98.78,1.65,1.31,2.46,1.95.36-.95.65-1.72,1.07-2.83.43.88.72,1.45,1.05,2.12,2.26-.1,4.55-.21,7.27-.33-.92,2.94-3.23,4.07-4.99,5.87,1.71,1.34-.11,2.85.33,4.52Zm-7.2,1.32c1.61.63,3.02.04,4.43-.26.26-.06.61-.34.68-.59.37-1.35.67-2.71,1.04-4.27-1.11.54-1.93.94-2.71,1.31q-1.31-1.01-2.72-.75c-.23,1.49-.47,3-.72,4.56Zm8.68-9.84c-.06-.16-.11-.32-.17-.48-1.35.17-2.71.34-4.31.55.05,1.21.09,2.31.14,3.66,2.24-.76,3.06-2.5,4.34-3.73Zm-8.97,11.78c.17,1.89.67,2.48,1.91,2.45.95-.02,1.84-1.21,2.1-3-1.32.18-2.59.36-4.02.55Zm-.04-10.81c-.95.23-1.62.35-2.26.57-.91.31-.85,1.1-.62,1.76.15.43.6.96,1.01,1.06.75.19,1.38-.2,1.55-1.05.12-.61.17-1.23.32-2.34Zm1.22,2.37c1.11.36,1.78.28,1.84-.68.04-.72-.16-1.45-.26-2.18-.45.16-1.19.21-1.29.49-.25.69-.2,1.48-.29,2.37Z"/>
      <path d="m138.97,205.17c.52-3.21,3.4-5.35,3.27-8.86,2.54-.22,5.03-.55,7.98-.27-.56,1.1-.98,1.82-1.31,2.58-.78,1.8-1.56,3.59-2.24,5.42-.65,1.76-1.15,3.57-1.77,5.34-.37,1.05-1.11,1.28-2.23,1.04-.92-.19-1.93.02-2.86.05q-.18,2.43,1.68,3.12c.29.11.56.28.8.47.1.08.1.28.2.64-.44.06-.84.18-1.24.16-.91-.04-1.86-.14-1.76,1.19.1,1.35,1.12.96,1.95.94,1.41-.03,2.82,0,4.23.02.39,0,.86-.03,1.14.16.32.22.48.67.71,1.03-.31.18-.62.48-.93.5-.45.02-.91-.21-1.37-.27-2.2-.3-4.3-.04-6.46.59-1.35.4-2.93,0-4.74-.06.69-1.27,1.56-1.38,2.35-1.53,1.11-.21,1.67-.78,1.56-2.28-1.57.2-3.13.39-5.07.63,1.27-2.4,3.52-1.43,5.28-2.27-.04-.77-.08-1.58-.12-2.44-2.66-.76-4.92.67-7.55,1.14.58-1.9,1.81-2.12,3.03-2.28,2.73-.36,5.45-.77,8.19-.99,1.69-.13,2.55-.97,2.97-2.48.5-1.8,1.01-3.59,1.52-5.39-3.36-.69-3.44-.67-4.3,1.39.33.24.7.51,1.06.77.31.22.62.44,1.24.89-.69.16-1.12.42-1.42.31-1.39-.49-2.58-.28-3.8.74Zm8.4-7.38c-2.66-.74-3.22-.57-3.97,1.27,1.05.22,2.08.43,3.15.66.2-.34.39-.58.5-.85.14-.34.21-.71.32-1.07Z"/>
      <path d="m81.41,210.55c-.74.55-1.47,1.11-2.27,1.7,1.43,2.32,2.76,4.49,4.22,6.85-.53.35-1.07.71-1.64,1.08-.25-.36-.41-.53-.5-.74-.49-1.07-.89-2.18-1.45-3.21-1.03-1.93-1.09-1.92-3.6-1.98-.62.9-.41,1.88-.27,2.89.04.32-.39.7-.61,1.06-.3,1.33-.85-.49-.96-.83-.16-.49-.02-1.08,0-1.63.05-1.79.11-3.59.16-5.44-1.72-.65-3.32,1.08-5.09.16.47-1.53,1.91-.93,2.74-1.45.86-.54,2.25.13,2.9-1.28-.97-.81-1.94-.65-2.84-.13-.98.57-1.39.09-1.99-.95,1.54-.47,2.91-.88,4.34-1.32-.17-1.35-.99-1.24-1.88-1.1-.84.14-1.7.98-2.69-.06.72-1.29,2.24-.94,3.36-1.73-.58-1.09-2.64-1.75-1.38-3.53,1.48-.17,1.18,1.52,2.38,2.09.89-1.3,1.82-2.66,2.78-4.07,1.04.42,1.49.9.66,1.91-.58.71-1.04,1.51-1.63,2.38.71.42,1.24.73,1.93,1.15-.79.61-1.49,1.15-2.4,1.84.49.57.91,1.07,1.42,1.67-.28.37-.61.81-.94,1.24,1.1,1.51,2.47-.28,3.55.49.09,1.1-.68,1.28-1.45,1.53-2.38.78-2.38.79-2.15,3.63,2.27.21,2.5-3.47,4.95-2.84.11.2.23.39.34.59Z"/>
      <path d="m17.43,203.88c-1.75.14-3.2.25-4.85.39.55-1.64,1.87-1.45,2.91-1.71,1.2-.3,2.43-.71,3.65-.72,1.02-.01,2.36-.48,3.3,1.12-1.11.2-1.98.36-2.84.52-.73,1.85-.73,2.07.07,4.73,1-.17,2.04-.44,3.1-.5,1.55-.1,3.16-.28,4.66,0,2.52.47,3.28,2.48,1.84,4.57-1.15,1.67-2.48,3.22-3.77,4.8-.49.6-1.08,1.16-1.96.54,1.75-2.33,3.46-4.61,5.16-6.86-2.2-2.23-6.9-2.42-8.91-.43-.45.44-.69,1.21-.78,1.87-.22,1.55-.28,3.12-.42,4.69-.09.99-.42,1.86-1.46,2.21-1.04.34-1.85-.09-2.45-.92-.59-.82-1.27-1.61-1.67-2.52-.72-1.62-.4-2.75,1.02-3.92.84-.69,1.85-1.17,2.66-1.88.47-.41.97-1.07,1-1.64.07-1.31-.13-2.63-.25-4.3Zm.08,7.78c-1.88-.2-2.64.99-2.83,2.12-.16.92.4,2.07.92,2.96.41.7,1.42.43,1.54-.42.22-1.52.26-3.06.38-4.66Z"/>
      <path d="m404.47,218.35c-.54-.76-1.07-1.5-1.7-2.37-.68.63-1.3,1.21-1.92,1.78-1.53,1.4-1.62,1.41-3.48.52-.28-.14-.56-.28-.99-.5-.16-2.68.03-5.29,2.63-6.98,1.48-.96,2.24-2.09,1.72-3.89-.08-.26.24-.64.86-1.01.28.88.56,1.76.86,2.7,2.14-.38,4.15-.84,5.05-3.2.27-.72.82-1.38,1.95-.78-.4.86-.77,1.67-1.23,2.65,1.43.28,2.72.51,3.99.8,1.93.44,2.4,1.1,2.6,3.07.36,3.6-1.91,5.8-4.18,7.99-.17.17-.66,0-1.62-.03.9-.99,1.41-1.61,1.99-2.17,1.6-1.57,2.36-3.47,2.33-5.7-.01-1.11-.5-1.77-1.63-1.93-.39-.05-.78-.08-1.16-.17-1.98-.46-3.5-.09-4.29,2.07-.31.85-.99,1.6-1.59,2.32-.84.99-.94,1.88-.06,2.92.43.51,1.22,1.21-.1,1.92Zm-6.09-1.02c1.95-.79,2.28-1.06,3.86-3.15-.63-.89-.25-2.35-1.58-3.13-1.73,1.75-3.32,3.42-2.28,6.28Zm7.37-8.05c-1.6.23-2.73.17-3.11,1.29-.26.76-.01,1.63,1.02,2.34.67-1.17,1.26-2.2,2.09-3.64Z"/>
      <path d="m538.59,201.19c.8-.77-.11-2.31,1.62-2.49.19.88.36,1.68.55,2.59.41.04.78.13,1.15.11,1.76-.07,1.86-.17,2.06-1.84.09-.76.17-1.52.26-2.32q1.21.41.88,4.19c.79-.15,1.6-.11,2.18-.45,1.23-.73,2.04-.44,2.88.88-.44.25-.84.6-1.29.69-.52.11-1.09,0-1.64-.02-2.88-.08-3.27.43-2.71,3.56,2.27-.19,4.55-.39,7.13-.61-.54,1.78-1.54,1.85-2.69,1.73-.9-.1-1.82-.16-2.73-.13-1.29.04-2.26.49-2.4,2.02-.03.32-.68.58-1.33,1.09l.06-2.17c-3.46-.09-6.69,1.25-10.03,1.44-.05-.17-.1-.34-.15-.51.33-.23.64-.57,1-.65.91-.22,1.85-.34,2.78-.46,1.83-.25,1.91-.31,2.11-2.15.1-.92.17-1.84.29-3.08-1.86.2-3.53.38-5.43.59,1.49-2.25,3.9-1.26,5.45-2Zm1.82,5.61c2.58-.16,2.92-.7,2.76-4.14-3.33-.42-4.14.72-2.76,4.14Z"/>
      <path d="m296.49,206.03c-1.02.64-1.56,1.07-2.17,1.31-.34.13-.81-.07-1.23-.12.12-.41.13-.94.39-1.2,1.21-1.14,4-1.78,6.15-1.41-1.81,1.55-1.76,3.54-1.67,5.84,4.04-1.12,8.03-2.21,11.61,1.34-1.11,3.2-3.77,5.18-6.27,7.25-.29.24-.87.15-1.38,0,2.15-2.12,4.41-4.01,5.93-6.53-1.89-1.92-3.35-2.3-5.53-1.74-5.04,1.28-4.59,1.4-4.66,5.51-.01.65-.51,1.52-1.05,1.89-.81.55-1.41-.3-1.96-.84-.39-.38-.76-.8-1.03-1.27-.82-1.42-.73-1.91.44-3.08.06-.06.11-.11.17-.16.72-.59,1.46-1.16,2.16-1.78.14-.13.17-.44.17-.67,0-1.25-.03-2.49-.06-4.34Zm-.23,10.41l.1-3.28c-1.87,1.6-1.88,1.86-.1,3.28Z"/>
      <path d="m268.24,208.18c-3.23.03-4.93,2.41-7.5,3.75.02-.75-.16-1.4.08-1.66,1-1.11.6-2.11.06-3.23-.95-1.96-1.81-3.97-2.75-6.04,1.22-.55,1.54.3,1.86.94.53,1.05.93,2.16,1.45,3.21.38.76.88,1.46,1.42,2.33,2.21-1.27,3.45-3.31,5.1-4.91,1.55-1.5,2.31-3.9,4.87-4.61.33,1.19-.36,1.64-.87,2.19-1.81,1.95-3.6,3.92-5.39,5.9-.15.16-.22.4-.43.79,1.76.18,3.29-1.38,5.18-.25-.39.64-.85,1.25-1.16,1.92-.66,1.41-1.3,2.82-1.83,4.28-.67,1.85-.28,3.56,1.01,5.04.41.47.73,1,.09,1.34-.26.14-.99-.21-1.28-.54-1.71-1.95-1.83-4.26-1.21-6.64.31-1.19.79-2.34,1.29-3.79Z"/>
      <path d="m62.21,210.93c-2.9,1.75-4.51,4.67-7.39,6.16-.06.03-.23-.17-.6-.46,1-1.05,2.03-2.04,2.95-3.13,1.62-1.91,3.18-3.88,4.74-5.84.51-.64.85-1.35.09-2.25-1,.25-2.07.51-3.34.82.15-2.54,2.35-1.64,3.39-2.6l.06-2.08c1.36-.2,1.32,1.08,2.08,1.61.78-.05,1.67-.12,2.67-.19-.06,1.31-1.03,1.21-1.65,1.55-.44.25-1.18.66-1.15.92.07.62.38,1.38.85,1.75.89.71,1.97,1.18,3.18,1.87-1.68,1.54-3.09-1.06-4.49.14-.22,3.28-.45,6.61-.68,9.92-1.65.3-1.65-.67-1.56-1.52.23-2.23.55-4.45.83-6.68Z"/>
      <path d="m516.43,205.49c-1.31.18-2.61.36-3.92.54-.05-.16-.1-.33-.15-.49.49-.27.97-.69,1.49-.77,1.68-.26,3.17-.76,4.06-2.69.4.8.66,1.33.97,1.95.58-.09,1.18-.24,1.79-.27.5-.02,1.01.1,1.51.16.04.16.09.33.13.49-.48.24-1,.72-1.45.66-1.91-.24-2.91.64-3.44,2.35-.11.35-.43.66-.69.95-.93,1.04-.93,2.1.1,3.45.66-.47,1.34-.93,1.97-1.43.8-.63,1.53-1.35,2.36-1.95.72-.51,1.45-.58,1.96.5-1.85,1.24-3.69,2.48-5.38,3.61.12,1.29.82,1.46,1.52,1.62.63.14,1.07.49.74,1.14-.35.7-1,.71-1.59.26-.55-.43-1.05-.92-1.7-1.51-.35.39-.73.67-.92,1.04-.9,1.71-.17,3.09,1.71,3.01,1.47-.06,2.92-.46,4.38-.73.57-.11,1.13-.27,1.69-.41.41,1.03-.09,1.53-.69,1.61-2.24.29-4.5.61-6.75.61-1.56,0-2.48-1.87-1.91-3.58.32-.96.88-1.83,1.18-2.45-.23-1.52-.76-2.85-.53-4.03.22-1.12,1.25-2.07,1.92-3.1-.11-.18-.23-.36-.34-.54Z"/>
      <path d="m100.73,218.87c.22-.68.47-1.35.65-2.04.34-1.27.85-2.55.91-3.84.08-1.91-.77-2.64-3.1-2.95-.63,1.49-1.39,3.03-1.93,4.64-1.72,5.09-3.1,3.83-6.43,1.76-1.07-.67-1.39-1.93-.82-2.91,1.7-2.94,3.8-5.36,7.59-5.52,5.75-.24,6.93,3.66,5.91,8.08-.19.82-.66,1.6-1.14,2.31-.24.36-.79.52-1.2.77-.15-.11-.3-.21-.45-.32Zm-3.3-9.08c-2.65-.12-4.04,1.46-5.33,3.11-.3.39-.38,1.04-.38,1.57,0,1.42,1.3,1.37,2.17,1.74.78.33,1.44.04,1.71-.74.63-1.81,1.18-3.66,1.82-5.68Z"/>
      <path d="m465.14,219.07c1.2-4.03,3.71-7.45,4.02-11.9-1.09.04-2,.05-2.9.12-.7.06-1.6.12-1.6,1.01,0,.48.62.96.96,1.45-1.61,1.07-2.11.72-2.66-2.1-1.27-.04-2.59-.08-4.06-.12.51-1.2,1.38-.95,2.1-1.02q2.22-.22,2.83-2.33c.19-.65.2-1.45,1.32-1.42.93,1.01-.56,2.04.1,3.32,1.04-.06,2.23-.14,3.19-.19,1.11-1.68-.84-3.09.22-4.49.06-.08.29-.05.75-.11.32,1.35.64,2.75,1.03,4.4,1.92-.33,3.77-.64,5.9-1-.56,1.68-1.7,1.75-2.73,1.94-.61.11-1.26.05-1.87.15-.77.12-1.13.58-1.38,1.37-1.06,3.44-2.22,6.84-3.34,10.27-.25.76-.76.9-1.87.65Z"/>
      <path d="m284.25,219.19c-1.04-1.23-.51-1.81.13-2.5.62-.67,1.29-1.43,1.56-2.27.84-2.59-.52-4.77-3.63-5.75-.35.7-.73,1.44-1.08,2.18-.81,1.7-1.48,3.48-2.46,5.07-.49.8-.92,2.14-2.46,1.65-1.52-.49-2.7-1.78-2.47-3.28.16-1.11.67-2.24,1.28-3.2,1.13-1.77,2.81-2.93,4.82-3.55,2.46-.75,4.82,0,6.32,1.92,1.78,2.28,1.96,4.61.39,6.96-.64.95-1.51,1.75-2.4,2.77Zm-3.94-9.91c-2.08.09-4.8,2.43-5.01,4.19-.15,1.21.37,1.9,1.9,2.43,1.26-2.07,2.61-4.1,3.11-6.62Z"/>
      <path d="m431.18,219.19c-1.13-.81-.73-1.34-.26-1.95.71-.93,1.44-1.87,1.98-2.9,1.08-2.03.67-3.39-1.24-4.57-1.27-.78-1.63-.63-2.69.65-1.6,1.93-3.25,3.82-4.97,5.65-.73.78-1.55,1.7-2.84,1.14-.86-.37-1.35-2.02-.99-3.41.15-.59.47-1.17.84-1.66,2.06-2.76,4.92-4.1,8.28-4.34,2.12-.15,3.84.79,4.99,2.58,1.13,1.76.63,3.49-.39,5.09-.82,1.28-1.79,2.47-2.71,3.71Zm-3.1-9.47c-2.56.1-4.38,1.1-5.62,2.96-.63.94-1.41,1.91-.43,3.39,2.45-1.69,4.15-3.9,6.05-6.35Z"/>
      <path d="m189.37,219.19c-.45-2.04-1.66-2.03-2.92-1.67-1.26.36-2.49.84-4.05,1.37-.12-1-.22-2.01-.35-3.02-.13-1.03-1.61-1.68-.81-2.99,2.86-.76,5.76-1.58,8.69-2.3.98-.24,2.02-.37,3.02-.33,1.95.08,2.7,1.51,1.52,3.04-1.46,1.9-3.14,3.64-5.11,5.88Zm-1.42-3.37c2.6.88,3.52-.94,4.55-2.5.23-.34.39-1.06.21-1.25-.32-.33-.98-.6-1.39-.5-2.34.61-4.66,1.32-6.97,2.06-.66.21-1.35.6-1.1,1.53.26.94.97,1.14,1.84,1.03,1-.13,2.01-.26,2.86-.38Z"/>
      <path d="m363.64,219.19c-.94-1.02-.27-1.43.28-1.88.79-.64,1.6-1.25,2.36-1.93.93-.83,1.18-1.97.67-3.01-.63-1.26-1.59-2.34-3.12-2.62-.87-.16-1.24.46-1.64,1.07-1.12,1.71-2.17,3.47-3.41,5.09-1.21,1.59-2.81,1.57-3.94.09-.69-.9-.69-1.88-.14-2.86,1.73-3.08,4.55-4.52,7.88-4.92,2.75-.33,5.6,2.26,5.87,5.01.04.38.1.84-.05,1.16-1.04,2.17-2.71,3.69-4.76,4.81Zm-2.59-9.21c-2.43.46-3.79,1.66-4.84,3.25-.24.36-.35.88-.33,1.32.02.33.26.79.54.93.26.13.84.06,1.04-.16,1.38-1.46,2.71-2.98,3.59-5.35Z"/>
      <path d="m176.94,212.82c.11-.5.1-1.08.35-1.49,2.91-4.84,6.57-9.11,10.09-13.71.44.45.72.68.94.96,1.86,2.31,3.72,4.62,5.56,6.96,1.45,1.84,2.89,3.7,4.28,5.59.25.34.2.89.38,1.78-2.27-1.08-2.67-3.13-3.96-4.39-1.28-1.26-2.43-2.65-3.59-4.02-1.21-1.42-2.37-2.87-3.76-4.57-1.27,1.52-2.5,2.9-3.62,4.35-1.1,1.43-1.97,3.04-3.16,4.38-1.21,1.35-1.53,3.32-2.9,4.53-.2-.12-.4-.25-.61-.37Z"/>
      <path d="m376.2,219.19c-1.05-.96-.6-1.58-.34-2.22,1.03-2.54,2.14-5.05,3.02-7.64.54-1.59.71-3.31,1.13-5.35-1.16.35-1.85.56-2.84.87.23-.6.29-1.23.53-1.31,1.88-.59,2.74-1.86,2.63-3.87,2.04.05,1.02,1.35,1.14,2.41,1.92-.35,3.84-.69,5.81-1.05.27,1.25-.27,1.43-1.07,1.56-1.31.21-2.6.51-3.89.83-.84.21-1.36.74-1.36,1.67-.02,2.82-1.29,5.3-2.12,7.9-.49,1.56-1,3.11-1.58,4.64-.2.53-.65.97-1.06,1.56Z"/>
      <path d="m445.02,219.19c-.21-1.58.77-2.49,1.61-3.5,1.85-2.23,2.86-4.76,2.82-7.8-2.84-.04-5.29.67-7.63,1.81-.63.31-1.27.72-1.85-.25.48-1.02,1.37-1.43,2.39-1.6,3.08-.53,6.17-1.04,9.26-1.57,1.1-.19,2.2-.43,3.79-.74-1.01,2.53-3.32,1.08-4.52,2.61-.14,4.39-2.48,8.01-5.87,11.04Z"/>
      <path d="m212.12,206.87c.87-2.3,3.65-1.81,3.85-4.3,1.75,1.97,3.67-.65,5.42.77-.45,1.02-1.29,1.04-2.13,1.17-2.14.34-2.32.61-2.75,2.81-.37,1.91-.82,3.82-1.28,5.71-.33,1.36-.78,2.66-.36,4.13.25.89.12,1.9-1.38,2.03-.81-2.03-.26-3.97.26-5.9.4-1.51.87-3,1.25-4.51.18-.73.21-1.51.33-2.49-1.04.19-1.83.33-3.21.58Z"/>
      <path d="m324.52,203.57c.42-.84.84-1.69,1.41-2.83-1.09-.03-1.91-.14-2.72-.07-2.5.23-4.99.52-7.48.81-2.25.26-2.57.58-3.11,2.94-.05.21-.21.41-.34.6-.04.06-.14.07-.35.17-1.06-.87-.31-2.14-.73-3.19,1.57-1.21,3.24-1.71,5.24-1.63.07-.54.13-1.04.19-1.56.74-.56,1.34-.2,1.83.36.6.68,1.3.71,2.13.63,2.64-.27,5.28-.47,8.37-.73-.92,2.31-1.95,3.97-3.97,4.82-.16-.11-.32-.21-.48-.32Z"/>
      <path d="m487.08,202.19c-.42,1.29-.85,2.58-1.25,3.87-.18.58-.53,1.25-.39,1.77.63,2.37.11,4.67-.21,6.99-.13.93-.25,1.86-.32,2.79-.08.98-.44,1.61-1.65,1.58-.31-1.83.62-3.38.9-5.04.29-1.67.81-3.32.17-5.28-2.44,1.79-3.73,4.5-6.39,6.31-.07-1.47.64-2.09,1.22-2.73,1.09-1.22,2.22-2.42,3.33-3.63,1.34-1.46,2.35-3.1,2.95-5,.21-.67.67-1.27,1.02-1.9.2.09.4.18.6.27Z"/>
      <path d="m132.14,199.08c-.74-.06-1.56-.13-2.59-.22.72-1.79,2.53-.9,3.56-1.95.51-.79-.56-2.67,1.67-3,.05.92.1,1.73.16,2.83,1.24.04,2.48.07,3.73.11.02.18.03.36.05.54-.86.21-1.73.4-2.59.63-1.81.49-2.12.9-2.3,2.75-.22,2.28.16,4.23,2.54,5.27.34.15.51.67.81,1.1-1.96.28-3.64-.62-4.33-2.74-.54-1.65-.49-3.5-.71-5.32Z"/>
      <path d="m506.93,209.16c-2.58,2.95-4.6,6.13-7.58,8.45-.79.62-1.7,1.11-2.62,1.52-.39.17-.95-.04-1.84-.11.49-.52.64-.85.86-.9,2.19-.52,3.7-1.98,5.08-3.6,1.32-1.54,2.57-3.15,3.86-4.73.49-.6.92-1.33,2.24-.63Z"/>
      <path d="m156.29,219.19c-.8-1.31-.89-5.98-.18-10.92.8-.21,1.16.18,1.16.93.02,1.64-.03,3.27,0,4.91.01.68,0,1.42.26,2.04.75,1.81.7,2.04-1.23,3.05Z"/>
      <path d="m123.05,198.12c-4.39.36-8.78.72-13.18,1.08-.07-.16-.14-.32-.21-.48.34-.3.67-.83,1.04-.87,3.66-.37,7.33-.69,11.01-.94.49-.03,1.01.37,1.52.57-.06.21-.11.43-.17.64Z"/>
      <path d="m559.12,207.18c-.05.71-.07,1.42-.17,2.13-.28,1.85-.65,3.68-.87,5.54-.08.66.1,1.39.34,2.03.5,1.29.55,1.27-.92,2.33-.98-1.78-.58-3.66-.47-5.44.15-2.26.23-4.59,1.22-6.68.29.04.58.07.87.11Z"/>
      <path d="m549.53,219.19c-1.57-2.72-3.13-5.38-4.62-8.08-.12-.22.18-.68.41-1.43.78,1.26,1.34,2.23,1.96,3.16.95,1.42,1.91,2.83,2.91,4.22.67.93.7.91-.66,2.13Z"/>
      <path d="m203.18,218.43c.7-1.26,2.63-1.32,2.45-3.32-.87-.07-1.74-.15-2.65-.23,1.01-1.48,2.22-1.76,3.45-.85,1.07.79,1.13,1.65.11,3.01-.47.63-.99,1.22-1.56,1.76-.63.6-1.25.53-1.8-.37Z"/>
      <path d="m165.6,213.35c2.17,1.56,4.13,2.93,6.04,4.38.27.2.25.77.37,1.17-.35.09-.84.38-1.04.25-2.01-1.33-4.12-2.57-5.38-4.73-.13-.22,0-.59.01-1.07Z"/>
      <path d="m540.99,211.15c-.97,3.17-2.62,5.92-5.31,8.04-.9-.48-.77-1.13-.23-1.53,2.04-1.52,3.13-3.65,4.07-5.91.16-.4.69-.64,1.05-.95.14.12.27.24.41.36Z"/>
      <path d="m458.96,197.92c-.77,1.29-1.25,2.58-2.15,3.43-.62.58-1.99.07-2.55,1.84-.77-2.09-.04-3.06.63-4.3.49.46.84.8,1.23,1.17.9-.52.53-2.74,2.84-2.13Z"/>
      <path d="m451.9,201.58c-2.42,1.39-5.1,1.78-7.87,2.61.2-1.41,1.12-1.68,1.85-1.85,1.96-.45,3.88-1.27,6.02-.76Z"/>
      <path d="m475.74,203.19c-1.65-1.12-.62-2.75-1.4-3.85-1.99.27-.68,2.19-1.62,3.04-1.25-.22-.84-1.22-.82-1.97.06-2.53,2.34-1.63,3.72-2.56.26,1.85.32,3.45.12,5.34Z"/>
      <path d="m222.72,214.85c.48-.27.82-.59.96-.52,2.01,1.01,3.89,2.19,5.41,3.88-.26.96-.88,1.24-1.56.71-1.57-1.22-3.04-2.56-4.82-4.08Z"/>
      <path d="m385.83,213.96c2.15.91,4.14,2.07,5.49,4.13.15.23.03.81-.18,1.02-.16.16-.9.07-.96-.08-.76-1.92-2.59-2.61-4.09-3.67-.3-.21-.4-.7-.6-1.06.12-.12.23-.23.35-.35Z"/>
      <path d="m183.23,207.98c1.97-1.22,4.16-1.43,6.66-1.65-.2.64-.21,1.03-.39,1.15-.73.5-5.21,1-6.27.49Z"/>
      <path d="m567.46,213.69c1.97,1.82,3.59,3.31,5.51,5.09-.7.19-1.35.54-1.52.38-1.39-1.35-2.71-2.78-4.02-4.22-.11-.12,0-.42.02-1.25Z"/>
      <path d="m391.85,206.31c-.02.22.04.58-.08.64-1.79,1.03-3.6,2.02-5.79,3.24.16-.8.12-1.23.31-1.43,1.13-1.16,4.13-2.46,5.56-2.46Z"/>
      <path d="m165.82,208.94c.1-.54,0-1.32.33-1.56,1.28-.98,2.61-2.06,4.74-1.2-1.18,1.8-3.61,1.33-4.62,3.02-.15-.08-.3-.17-.45-.25Z"/>
      <path d="m337.32,217.19c.25-1.87,2.34-3.06,5.31-3.08-1.77,1.56-3.61,2.2-5.31,3.08Z"/>
      <path d="m571.12,206.36c-1.08,1.59-1.86,2.07-4.56,2.83.07-.48-.02-1.08.2-1.22,1.29-.85,2.51-1.98,4.36-1.61Z"/>
      <path d="m228.52,207.9c-1.94.87-3.43,1.53-5.13,2.29.57-2.32,2.63-3.31,5.13-2.29Z"/>
      <path d="m237.69,215.3c.93-.2,1.44.18,1.84.81.49.78.99,1.55,1.41,2.37.06.11-.28.51-.5.66-.14.1-.56.06-.62-.05-.66-1.24-1.92-2.16-2.12-3.79Z"/>
      <path d="m28.04,200.09c.12,1.91.46,3.57-.72,5.11-1.14-1.97-.92-4.08.72-5.11Z"/>
      <path d="m67.41,217.77c.99-1.66,2.59-1.68,4.3-1.77-1.58,2.18-2.73,2.65-4.3,1.77Z"/>
      <path d="m69.32,214.19c.52-2.07,1.5-2.46,3.72-1.62-.95,1.12-2.21,1.32-3.72,1.62Z"/>
      <path d="m338.45,212.14c-.29-1,.17-1.38.86-1.45.58-.06,1.19,0,1.76.13.12.02.24.57.16.81-.07.23-.39.53-.62.55-.74.05-1.48-.02-2.16-.04Z"/>
      <path d="m306.38,207.19c-1.41-1.1-1.17-2.34-1.28-3.62.48.01,1.02-.12,1.15.06.74,1.01.64,2.11.13,3.57Z"/>
      <path d="m497.31,210.19c-1.28-.43-1.88-1.02-1.91-2.18,1.59.24,1.59.24,1.91,2.18Z"/>
    </g>
    <path d="m358.77,145.48c1.22.39,2.5-1.15,3.89.24-.88.38-1.65.72-2.62,1.13,1.43,1.66,2.8,3.07,4.82,3.67-.96,1.48-1.02,1.55-2.02.83-.88-.64-1.68-1.41-2.44-2.19-.65-.66-1.2-1.41-1.8-2.14-1.58.94-1.44,2.27-1.61,3.46-.16,1.18.29,2.57-1.25,3.46-1.31-1.84.56-3.58.06-5.48-2.27,1.03-3.56,3.91-7.01,3.48,1.65-1.15,2.97-2.08,4.29-3-.07-.16-.15-.32-.22-.48-.99.35-1.97.71-2.96,1.06,1.14-3.22,4.79-2.01,6.86-4.04-2.16-.78-3.45,1.17-5.28,1.17-1.19-2.2.64-4.42.03-6.68-1.79.23-3.53.45-5.33.68-.1-1.53.92-1.57,1.69-1.74.76-.17,1.59,0,2.33-.2.53-.14,1.17-.54,1.41-1,.33-.65.65-1.65.37-2.15-.25-.44-1.37-.62-2.06-.52-1.13.16-2.22.63-3.39.99-.67-.51-.48-1.16.13-1.45.9-.43,1.9-.82,2.87-.85,1.46-.03,2.57-.34,3.14-1.8.03-.08.28-.08.62-.17.27.54.55,1.12.83,1.69,1.96.27,1.94.26,2.62-1.26.33-.73.47-1.68,1.83-1.73-.22.99-.4,1.86-.66,3.06,2.26.05,4.38-.19,6.59-.32.57,1.09-.07,1.55-1,1.74-.99.2-2,.27-3.07.4-.21.76-.4,1.42-.66,2.36,2.24-.15,4.3-.28,6.31-.41.25,1.1-.35,1.38-.98,1.48-1.08.17-2.17.27-3.26.31-2.09.09-2.53.47-2.83,2.61-.04.3-.08.61-.13.97-.51.19-.99.36-1.47.54.02.09.03.18.05.27,1.48-.14,2.96-.29,4.59-.44-.27,2.37-3.06.37-3.29,2.43Zm-6.6-.82c2.26-.63,2.75-1.38,2.57-3.3-.09-.97-.39-1.67-1.75-1.24-.25,1.39-.51,2.8-.82,4.54Zm3.97-6.31c2.39-.03,2.55-.26,2.45-3.24-2.23-.18-2.64.33-2.45,3.24Zm-.8-3.44c-.91-.19-1.43-.02-1.59.75-.19.88-.37,1.76-.5,2.65-.01.09.38.36.53.32.26-.07.63-.26.7-.48.32-1.01.56-2.05.87-3.24Zm2.67,5.29q-1.89-.28-1.63,1.79c.67-.73,1.15-1.26,1.63-1.79Z"/>
    <path d="m151.32,153.94c-.65-3.16,1.81-5.76.8-8.93-1.21.45-2.34.87-3.89,1.44.2-.72.18-1.33.45-1.53.55-.4,1.25-.63,1.91-.86,1.33-.45,2.15-1.2,2.02-2.73-.04-.46.03-.94.1-1.41.25-1.65.23-3.18-2.29-3.93,2.93-1.47,4.33-4.56,7.96-4.18-.58,1.89-2.73,1.63-3.73,3.18,1.59-.17,2.86-.31,4.41-.48.02,2.48-1.67,4.55-.74,6.81,2.54-.06,2.8-.31,3.28-2.61.34-1.6.85-3.15,1.26-4.63,1.26-.25,2.31-.44,3.36-.69,1.81-.43,2.43.03,2.44,1.91,0,1,0,1,.86,1.93,1,.22,1.29-2.22,2.79-.55-.41.5-.76,1.09-1.26,1.52-1.7,1.43-3.29.92-3.85-1.19-.16-.59-.27-1.2-.43-1.92-1.78.08-2.78,1.02-3.38,2.48-.3.72-.5,1.48-.81,2.2-.84,1.94-2.4,3.02-4.64,3.41.15,2.39.32,4.64.42,6.88.04.79.47,2.07-.76,2.09-1.35.02-.72-1.22-.72-2,.01-1.95,0-3.89,0-5.79-2.77-.56-3.33.1-2.8,3.17.95-.63.06-2.44,1.63-2.49.41,1.4-.19,3.87-1.4,4.47-1.05.51-1.28,1.22-1.43,2.19-.13.83-.24,1.71-1.55,2.24Zm2.78-11.25c1.93-.19,2.44-.58,2.41-1.69-.02-.99-.45-1.23-2.33-1.19-.03.89-.05,1.8-.09,2.88Zm.32-4.5c.58.02,1.19.2,1.59,0,.35-.18.47-.81.7-1.24-.42-.2-.88-.62-1.26-.55-.69.12-1.32.52-1.03,1.8Z"/>
    <path d="m416.29,139.23c-.07-.87-.13-1.61-.21-2.59-1.48.13-2.75.25-4.19.38.53-2.24,2.42-1.47,3.75-2.03.21-.56.44-1.19.79-2.15.53.76.89,1.29,1.28,1.86.93-.08,1.9-.16,3.41-.29-.64.73-.85,1.14-1.19,1.33-.54.31-1.31.33-1.7.74-.43.45-.72,1.21-.69,1.81.01.28.93.76,1.42.74,1.56-.09,3.1-.43,4.66-.53.53-.03,1.4.23,1.55.59.19.45-.02,1.36-.39,1.69-1.5,1.35-3.1,2.62-4.74,3.8-.75.54-1.76.72-2.53,1.24-1.53,1.04-1.6,2.41-.27,3.63,1.1,1.01,2.22,1.99,3.32,2.99.27.25.49.55.75.85-.68,1.02-1.24.58-1.78.08-.57-.54-1.09-1.12-1.68-1.63-.53-.46-1.11-.86-1.93-1.49-.39.69-.74,1.33-1.11,1.96-.31.53-.55,1.18-1.01,1.53-.31.24-1.18.26-1.39.02-.46-.52-.73-1.46.22-1.71,1.51-.39,1.4-1.71,2.12-2.83-1.04-.8-2.01-1.55-2.61-2.02-.76-1.75-1.38-3.14-1.96-4.54-.69-1.66-.56-2.13,1.12-2.61,1.48-.42,3.06-.53,4.97-.83Zm7.52.46c-1.73.22-2.94.36-4.15.52-2.18.28-2.39.56-2.24,3.23,2.37-.51,4.57-1.19,6.39-3.75Zm-11.17,4.44c3.57-.45,3.78-.68,2.89-3.24-.88.04-1.82-.02-2.72.14-1.13.21-1.42.82-1,1.87.17.42.51.77.83,1.23Zm.1,1.49c.71.83,1.16,1.35,1.78,2.07.43-.92.72-1.55,1.2-2.56-1.18.19-1.88.31-2.98.49Z"/>
    <path d="m451.05,142.48c-1.81.37-3.49.69-5.17,1.05-.71.15-1.38.32-1.69-.99,1.26-.26,2.44-.52,3.62-.75.46-.09.93-.15,1.4-.23,2.1-.39,2.26-.67,1.66-3.25-1.8.29-3.61.59-5.63.92,1.18-2.72,3.67-1.53,5.38-2.18.74-1.05,0-2.85,2-3.4l-.08,2.85c.64.22,1.28.45,1.92.67-.01,1.3-1.26.75-1.88,1.52-.05.52-.13,1.28-.21,2.06.79.22,1.42.39,2.37.65-.77.7-1.32,1.19-1.74,1.57-.08,2.87-.17,5.6-.25,8.32q1.48,1.1,4.22,1.19c.17.86.18,1.56-1.04,1.48-.47-.03-.94-.13-1.38-.26-1.58-.48-3.08-.84-4.78-.1-1.2.52-2.61.29-3.88-.37-1.78-.93-2.24-1.92-1.43-3.32.76-1.3,2.52-1.72,3.89-.84.77.49,1.46,1.09,2.2,1.65,1.09-1.67,1.28-5.02.5-8.21Zm-1.56,9.45c-.57-1.29-1.66-1.61-2.85-1.55-.37.02-.71.54-1.14.9q2,1.21,3.99.65Z"/>
    <path d="m474.73,152.45c-.03,1.21-.63,1.52-1.53,1.49-3.3-.11-5.34-2.39-5.03-5.69.11-1.15.35-2.28.56-3.55-2.16-.57-4.02.8-6.15.7.25-1.43,1.35-1.54,2.26-1.75.98-.23,2.01-.28,3.03-.37.93-.08,1.36-.52,1.47-1.48.09-.78.44-1.52.71-2.42,1.59,1.05.58,2.21.8,3.44.79-.04,1.61-.13,2.44-.11,1.25.02,2.02-.46,2.48-1.69.38-1.02.74-2.25,2.23-2.49.69,1.46-1.01,2.06-1.02,3.4,1.8.7,3.55-.9,5.42-.24.25.88-.35,1.3-1.02,1.44-1.07.22-2.18.37-3.27.35-1.49-.02-2.59.36-3.17,1.87-.22.57-.62,1.11-1.07,1.53-.25.23-.77.16-1.64.31.79-1.13,1.31-1.86,1.83-2.61-2.13-1.14-3.52-.64-4.11,1.45-.17.6-.23,1.23-.33,1.85-.46,3.12.53,4.34,3.68,4.54.44.03.89.03,1.42.04Z"/>
    <path d="m180.95,152.88c-1.82.37-3.1.54-4.32.91-1.41.42-2.17-.02-2.03-1.47.32-3.27.72-6.52,1.06-9.79.19-1.86,1.83-2.64,2.9-3.81.4-.44,1.32-.4,2.45-.69-.85,1.94-3.22,2.03-3.09,4.13,1.38-.11,2.73-.21,4.2-.33-.03.91-.03,1.51-.07,2.11-.12,1.87-.42,3.74-.34,5.6.06,1.42-.2,2.6-.76,3.34Zm-4.48-1.03c2.91-.02,4.7-1.69,2.91-3.64q-3.02.35-2.91,3.64Zm3.63-8.12c-3.07-.12-3.47.33-2.69,2.85,2.76.46,3.13.09,2.69-2.85Z"/>
    <path d="m391.13,153.38c-1.06-.26-2.06-.32-3.05.37-.41.28-1.28.23-1.77-.02-.95-.49-1.89-1.13-2.64-1.89-1.45-1.47-1.43-2.68-.12-3.79,1.52-1.29,2.48-1.18,3.91.45.09.1.26.15.57.31.06-2.11.12-4.13.19-6.41-2.27.44-4.29.83-6.31,1.22-.06-.18-.11-.36-.17-.54,1.44-1.99,4.15-1.07,5.96-2.21.3-.88.6-1.78.9-2.67l.6.03c.18.69.37,1.38.57,2.15.49.17,1.03.37,1.63.58-.11.36-.11.7-.24.75-1.52.6-1.76,1.85-1.7,3.26.06,1.65.06,3.3.25,4.94.07.6.55,1.23,1,1.69.45.45,1.08.71.41,1.78Zm-3.12-1.25c.48-1.49-1.11-1.69-1.55-2.59-.35-.7-1.04-.99-1.71-.35-.61.58-.48,1.32.05,1.86.86.88,1.81,1.72,3.22,1.08Z"/>
    <path d="m230.08,151.84c-1.49,2.57-2.95,2.77-4.72.65-.82-.98-2.02-2.06-1.27-3.5.75-1.43,2.23-1.16,3.57-.94.07.01.15-.03.55-.11-.06-1.97.11-4.01-.53-6.36-1.62.32-3.1.61-4.72.92-.03-1.21.76-1.48,1.56-1.74,1.25-.41,2.48-.97,3.76-1.2,1.03-.19,2.13.02,3.21.05.06.16.12.31.19.47-.67.55-1.35,1.11-2.1,1.73.05,2.04.16,4.15.14,6.26-.02,1.29.53,2,1.69,2.49.68.29,1.82.35,1.47,1.86-.91-.19-1.78-.36-2.79-.57Zm-2.11.34c.37-2.24-.3-2.8-2.48-2.04.3,1.35,1.27,1.81,2.48,2.04Z"/>
    <path d="m317.55,153.21c.72-1.07,1.55-1.95,1.97-2.99.87-2.19-.8-4.64-3.16-4.63-.64,0-1.43.57-1.88,1.11-.64.77-1.01,1.76-1.55,2.63-1.12,1.79-2.4,3.44-4.46,4.61-.65-1.15-1.37-2.17-1.82-3.3-.22-.55-.18-1.52.18-1.93,2.22-2.52,4.86-4.48,8.33-4.81,3.29-.32,6.44,2.72,5.86,5.75-.25,1.31-1.14,2.53-1.88,3.7-.37.57-1.05.66-1.59-.13Zm-8.95-1.56c.23.02.45.03.68.05.71-.8,1.53-1.53,2.09-2.43.54-.88,1.59-1.65,1.18-3.12-2.07.73-3.56,1.92-4.42,3.72-.2.42.29,1.17.47,1.77Z"/>
    <path d="m170.44,150.18c-2.21.38-3.07-1.88-5.07-2.17-1,1.61-2.09,3.29-3.1,5.02-.46.79-.89,1.27-1.91.57.9-2.52,2.81-4.42,4.22-6.86-.6-.89-1.28-1.82-1.87-2.81-.76-1.26-.61-1.87.61-2.74,1.73-1.23,3.64-2.01,6.05-2.39-.06,3.01-2.29,4.99-2.57,7.56.66,1.72,3.16,1.69,3.65,3.81Zm-2.87-9.15c-2.07.52-3.11,1.23-3.14,2.05-.03.77.25,1.4,1.37,1.29.5-.95,1.03-1.94,1.77-3.34Z"/>
    <path d="m483.02,153.94c-.2-.56-.4-.85-.32-.97,2.34-3.86,5.19-7.42,6.92-11.66.08-.2.5-.26,1.05-.51-.08,2.62-2.08,4.25-2.46,6.65.47-.07.89-.11,1.29-.21,1.02-.27,1.67.18,2.12,1.03.33.62.59,1.28.89,1.92.88,1.82,1.64,2.15,3.55,1.35,1.2-.5,2.33-1.18,3.55-1.81.77,1.09.23,1.85-.51,2.23-1.16.61-2.42,1.18-3.7,1.37-2.35.36-2.96-.11-3.99-2.3-1.25-2.64-2.45-2.9-4.56-.89-.74.7-1.32,1.55-2.03,2.28-.51.52-1.1.95-1.79,1.53Z"/>
    <path d="m290.35,140.8c-.04,1.42-.08,2.85-.14,4.86,1.45-1.2,2.37-2.13,3.45-2.81.92-.58,1.72-1.99,3.24-.93-.17,1.22-1.18,1.46-1.96,1.87-2.2,1.17-3.99,2.76-5.24,4.92-.19.34-.41.68-.52,1.05-.55,1.98.07,2.97,2.12,2.85,2.08-.12,4.14-.64,6.32-1,.31.89-.1,1.74-1,1.87-2.08.3-4.2.52-6.29.44-2.15-.09-3.52-1.85-2.59-3.7,1.39-2.77,1.24-5.59,1.36-8.46.02-.38.37-.74.56-1.11.23.05.46.09.68.14Z"/>
    <path d="m184.09,143.32c.15-1.94.77-3.33,2.03-4.8,1.81,2.74,4.33.15,6.49,1.33.04.35.25.83.13,1.22-.94,2.99-1.83,6-2.97,8.91-.5,1.27-1.54,2.34-2.38,3.47-.36.49-.95.74-1.34.1-.16-.26-.01-.91.22-1.19,2.4-2.87,4.16-7.43,4.21-11.21-2.42-.48-4.19,1.15-6.4,2.17Z"/>
    <path d="m278.86,150.53c.22-2.94.4-5.53.63-8.13.01-.13.35-.22.87-.54.05,1.82.08,3.4.13,4.97.04,1.64.09,3.28.14,4.88.43.82,1.95.7,1.62,2.23-1.1-.19-2.21-.42-3.32-.55-1.08-.13-2.21,0-3.24-.28-.86-.24-1.73-.77-2.35-1.41-.99-1.02-.9-1.99,0-2.88,1.07-1.08,1.75-1.06,3.01-.05.76.61,1.59,1.12,2.52,1.77Zm-4.06-.73c.6,2.44,1.09,2.66,3.04,1.61-1.13-.6-2.08-1.1-3.04-1.61Z"/>
    <path d="m333.29,153.94c-1.57-.45-2.62-.74-3.8-1.08-.09-1.12.88-1.23,1.67-1.21,2.4.04,3.64-1.52,4.76-3.28.19-.3.22-.71.37-1.23-2.41-.57-4.57-.07-6.87.27.13,1.36.24,2.52.37,3.9-1.68-.97-2.53-3.19-2.12-5.34,2.8-.08,5.67-.25,8.54-.22,1.59.02,2.2,1.04,1.35,2.37-1.32,2.1-2.92,4.02-4.25,5.81Z"/>
    <path d="m407.18,133.4c.53,1.2-.07,2.24-.47,3.14-1.03,2.3-1.2,4.64-1.2,7.11,0,2.09-.51,4.18-.79,6.28-.11.84-.2,1.68-.29,2.52-.07.74-.27,1.38-1.26,1.49-.64-1.11-.34-2.19-.05-3.35.49-1.97.82-3.99,1.17-5.99.07-.42-.08-.88-.14-1.4-1.7.23-1.47,2.49-3.37,2.7.21-.67.25-1.22.52-1.58,2.1-2.81,3.65-5.85,4.36-9.31.15-.76.47-1.49,1.52-1.61Z"/>
    <path d="m269.64,142.98c-1.29.11-2.29.19-3.43.28.13-2.23,2.28-1.37,3.42-2.4.05-.38.02-1.02.23-1.57.13-.34.6-.56.92-.83.2.3.52.57.59.89.09.44,0,.92-.02,1.47,1.51.35,3.22-1.34,4.95.67-1.05.2-1.76.44-2.48.46-2.01.07-3.17.94-3.5,3.02-.37,2.31-.89,4.59-1.44,6.86-.16.66-.6,1.25-1.04,2.11-1.64-2.2.01-3.78.24-5.43.24-1.74.94-3.42,1.56-5.53Z"/>
    <path d="m111.94,145.89c-1.58,1.56-3.17,2.72-5.1,3.03-.87.14-1.95-.4-2.78-.89-.64-.37-1.11-1.11-1.52-1.76-.7-1.11-1.56-1.23-2.59-.59-.86.54-1.66,1.17-2.51,1.73-.61.4-1.24.76-1.87,1.14l-.43-.39c.18-.43.24-1.02.56-1.25,1.4-1,2.82-2.01,4.35-2.79,1.55-.79,2.52-.46,4.11,1.66,1.71,2.28,2.46,2.45,4.61.67.78-.65,1.47-1.76,3.17-.57Z"/>
    <path d="m241.21,147.94c.07-.39.02-.9.24-1.15.57-.64,1.21-1.23,1.91-1.72,1.98-1.39,2.76-1.25,4.26.67,1.54,1.98,2.65,2.14,4.74.68.51-.35.99-.79,1.55-1.03.28-.12.84-.01,1.03.2.18.21.18.94.03,1.03-1.48.81-2.94,1.72-4.54,2.2-1.36.41-2.5-.43-3.42-1.55-1.63-1.99-1.68-1.95-3.65-.31-.56.46-1.18.85-1.77,1.27-.13-.1-.26-.2-.39-.31Z"/>
    <path d="m515,150.5c-1.46,2.19-3.05,2.87-4.71,3.31-1.9.51-2.98-.49-2.88-2.46.07-1.4.44-2.74,1.79-3.35,1.36-.61,2.59-.03,3.67.89.65.55,1.36,1.04,2.12,1.61Zm-5.81,2.14c.87-.25,1.81-.37,2.58-.79.41-.22.84-1.03.73-1.44-.12-.45-.79-.95-1.31-1.06-1.54-.32-2.48,1.14-2,3.29Z"/>
    <path d="m339.89,137.25c-.3,1.17-1.13,1.1-1.91,1.15-3.84.24-7.68.45-11.52.75-1.12.09-2.21.45-3.83.79.51-.78.65-1.28.95-1.4.79-.33,1.63-.63,2.48-.7,4.29-.38,8.59-.7,12.89-1,.3-.02.63.28.93.42Z"/>
    <path d="m217.32,143.77c-.1,3.23-.19,6.46-.29,9.89-.71.58-1.29.2-1.45-.75-.14-.83-.02-1.71,0-2.56.05-1.79.08-3.58.17-5.38.04-.84.26-1.58,1.58-1.2Z"/>
    <g>
      <path d="m78.47,153.27c-2.94,1.22-6.6.73-8.23-1.01-1.11-1.19-1.25-2.17-.42-3.09,1.09-1.21,1.9-1.31,3.29-.42.64.41,1.26.84,2.27,1.52-.41-2.63-.76-4.82-1.1-7.02-1.38-1.4-2.95,1.6-4.55-.31.64-.35,1.15-.62,1.66-.91,1.13-.64,2.5-.72,3.43-1.9.69-.87,1.32-.54,2.84,1.23-1.87.99-1.77,2.69-1.54,4.44.21,1.62.25,3.29.65,4.86.23.89,1.05,1.64,1.7,2.6Zm-3.72-.86c.08-.22.16-.45.24-.67-.76-.49-1.49-1.05-2.31-1.44-.32-.15-.83.11-1.25.19.16.46.22,1.2.51,1.31.89.34,1.86.43,2.81.61Z"/>
      <path d="m62.8,142.5c.36,3.27.7,6.38,1.03,9.49.01.11-.17.24-.35.47-1.71-.49-1.64-2.03-1.78-3.31-.4-3.59.01-5.84,1.11-6.65Z"/>
    </g>
    <path d="m145.02,145.05c-3.51.32-6.72.62-9.94.89-.13.01-.29-.32-.44-.48.9-1.05,3.22-1.56,7.6-1.66,1.53-.04,1.58-.02,2.78,1.26Z"/>
    <path d="m376.68,141.95c.12,3.96.24,7.92.36,11.99-1.24-.15-1.42-1.13-1.45-1.88-.1-2.89-.09-5.78-.03-8.67.01-.54.41-1.08.63-1.61.16.06.33.12.49.18Z"/>
    <path d="m198.6,144.61c.21.38.62.77.59,1.13-.18,2.7-.08,5.44-.79,8.08-.17.04-.34.08-.51.13-.25-.39-.75-.8-.72-1.16.22-2.7.54-5.38.83-8.07.2-.03.39-.07.59-.1Z"/>
    <path d="m439.19,146.61c.18,1.92.39,3.84.51,5.77.03.42-.24.87-.46,1.27-.08.14-.4.15-.86.29-.04-1.24-.03-2.38-.12-3.51-.09-1.09-.32-2.17-.38-3.26-.01-.23.45-.49.7-.73.21.06.42.12.63.18Z"/>
    <path d="m335.93,143.61c-.25.39-.46,1.02-.71,1.04-2.02.15-4.08.7-6.46-.27,1.31-1.08,2.58-.69,3.69-.79,1.09-.1,2.2-.91,3.48.02Z"/>
    <g>
      <path d="m26.12,133.82c-1.25,1.43-3.07.32-4.82.98-.05,2.2-1.35,4.39-.8,6.91,3.69.6,7.23-.4,10.74-.11.09,1.31-.59,1.51-1.32,1.54-1.09.05-2.19-.02-3.29.03-4.45.23-8.9.45-13.34.75-1,.07-1.98.44-2.96.7-.92.25-1.81.4-2.73-.35.85-1.74,2.53-1.4,3.86-1.66,1.36-.27,2.78-.25,4.24-.71-1.57-.74-3.15-1.48-4.78-2.25.43-1.34,1.19-.95,1.92-.69,1.14.41,2.28.82,3.52,1.27.23-1.71.4-3.07.57-4.3-1.22-1.09-2.96.74-4.08-1.27,1.56-.34,2.96-.65,4.32-.94-.14-1.41-.27-2.74-.41-4.08.18-.05.36-.11.55-.16.52,1.02,1.03,2.04,1.78,3.51.67-1.82,1.17-3.17,1.8-4.85.45.41,1.07.72,1.06,1.01-.04.74-.32,1.48-.58,2.2-.19.54-.48,1.05-.89,1.92,2.13-.06,3.86-.11,5.58-.15.03.24.05.48.08.72Zm-7.14,1.71c-1.19,2.08-1.27,3.79-.21,5.13.7-1.71,1-3.3.21-5.13Z"/>
      <path d="m16.02,155.48c-.5-1.24-.85-2.54-.45-3.99.34-1.26.8-2.49.14-3.87-.38-.8.25-1.44,1.08-1.79,1.63-.68,3.3-.89,5.05-.72,1.16.11,1.68.72,1.67,1.83,0,.7-.04,1.41-.13,2.1-.14,1.01-.35,2-.51,3.01q-.53,3.36-3.98,3.6c-.78.05-1.56.06-2.34.06-.14,0-.28-.11-.54-.22Zm5.73-8.28c-2.67-1.28-4.73-.19-3.72,3.43,1.11-.17,2.23-.35,3.57-.56.06-1.05.11-2,.16-2.87Zm-3.91,6.78c2.46.13,2.69-.02,2.97-1.71-2.59-.69-2.9-.53-2.97,1.71Z"/>
      <path d="m28.36,135.54c-.91,2.43-2.89,3.66-5.3,4.82.8-1.9,3.61-4.6,5.3-4.82Z"/>
    </g>
    <path d="m328.66,141.37c1.85-1.71,4.21-1.49,6.84-1.62-.24.63-.33,1.27-.52,1.3-2.03.35-4.08.6-6.12.89l-.21-.57Z"/>
    <path d="m205.21,150.58c1.49.74,2.98,1.49,4.69,2.34-.26.34-.65,1.06-.81,1.01-1.09-.34-2.19-.73-3.15-1.33-.54-.34-.83-1.09-1.23-1.66.16-.12.33-.25.49-.37Z"/>
    <path d="m430.98,153.94c-1.84-1.82-1.73-4.89.37-6.57-.13,1.28-.13,2.39-.39,3.45-.26,1.04,1.42,2.08.02,3.12Z"/>
    <g>
      <path d="m53.27,138.62c-.4,4.37-.77,8.3-1.15,12.44-.24.01-.73.04-1.47.08.11-1.53.22-2.91.32-4.26-1.86-.64-2.24-.44-2.27,1.17-.01.71.05,1.41.04,2.12,0,1-.57,1.18-1.62.84-.08-1.06-.16-2.2-.24-3.3q-1.87-.28-2.7,2.54c-.42-.5-.93-.83-.98-1.23-.17-1.23-.22-2.48-.22-3.72,0-1.71.09-3.42.14-5.28l2.44.07c-1.07-1.14-2.02-2.14-1.82-3.8,1.67.3,3.17.14,3.72-1.91-2.31-1.14-4.77,1.13-7.34-.23.44-.35.64-.64.89-.69,2.54-.47,5.09-.94,7.65-1.32.47-.07,1.2.1,1.43.42.2.28,0,1.03-.26,1.42-.67,1.04-1.51,1.98-2.2,3.02-.27.4-.57,1.08-.4,1.38.19.34.89.56,1.37.55,1.4-.02,2.79-.18,4.69-.32Zm-5.79,3.38c-.95-1.01-1.7-.96-2.74-.43.07.62.15,1.3.28,2.38.98-.77,1.6-1.27,2.47-1.95Zm1.21,1.28c.32.84.52,1.34.76,1.99.92-.48,1.96-.5,1.76-1.91-.73-.02-1.38-.04-2.52-.07Zm.04-1.76c.84.56,1.64.75,2.4.07.12-.11.05-.7-.11-.81-.8-.57-1.59-.51-2.22.31-.04.05-.03.14-.07.43Zm-1.7,3.32c-1.65-.43-2.01-.42-2.23.21-.08.22.02.71.17.78.89.4,1.6.18,2.06-.99Z"/>
      <path d="m37.95,150.73c-.46-2.57-.87-4.84-1.33-7.33-.96-.03-2.08-.06-3.41-.1.4-1.13,1.15-1.26,1.91-1.38,2.53-.41,3.98-.26,5.23.62-1.85,1.35-1.6,3.11-1.1,5.01.27,1.03.17,2.17.25,3.45,2.42.98,4.86,2.35,7.47,2.94,2.51.57,5.2.34,7.83.46-.04,1.19-.73,1.18-1.33,1.29-3.77.66-7.37-.02-10.77-1.63-1.99-.94-3.89-1.5-6.11-.86-.95.28-2.16.47-3.12-.9,1.48-.52,2.82-.99,4.45-1.57Z"/>
      <path d="m34.52,136.11c2.5.65,3.58,2.37,2.7,4.13-1.3-1.04-2.25-2.23-2.7-4.13Z"/>
    </g>
    <path d="m204.78,145.93c.71-1.98,1.86-2.4,4.13-1.53-1.2,1.18-2.51,1.62-4.13,1.53Z"/>
    <path d="m124.86,153.94c-1.75-.84-2.35-1.99-2.34-3.63,1.69.41,2.33,1.34,2.34,3.63Z"/>
    <path d="m282.01,141.6c-1.48.61-2.56.32-3.66-.33,1.23-1.66,2.04-1.61,3.66.33Z"/>
    <path d="m332.54,132.93c-.16,1.23-.32,2.46-.53,4.01-1.28-1.89-1.21-2.8.53-4.01Z"/>
    <path d="m297.38,139.79c.02-.63-.07-1.28.1-1.86.08-.26.65-.38,1.54-.85-.4,1.32-.63,2.09-.86,2.86-.26-.05-.52-.1-.78-.14Z"/>
    <path d="m300.78,137.36c1.61.48,1.35,1.4.92,2.58-1.11-.56-1.2-1.36-.92-2.58Z"/>
    <path d="m185.06,146.33c1.2-.04,1.36.65,1.28,1.61q-1.3-.13-1.28-1.61Z"/>
    <g>
      <path d="m312.59,273.75c-.52-.24-.93-.47-1.37-.62-2.86-1-3.68-.64-4.95,2.09-.93,1.99-1.74,4.05-2.86,5.93-.96,1.61-2.65,2.44-4.49,2.71-1.2.18-3.3-2.13-3.49-3.64-.2-1.65.19-3.17,1.36-4.35.99-.99,2.08-1.9,3.24-2.68,2.11-1.41,2.21-1.54,1.24-4.47-1.36.35-2.74.7-4.11,1.05l-.22-.32c.31-.36.56-.79.93-1.05.38-.25.87-.36,1.33-.47,1.42-.33,2.37-.96,2.41-2.65.02-.9.38-1.96,1.87-1.31-.27.82-.53,1.61-.82,2.51,1.46.72,2.86.22,4.22.26,1.39.04,2.78.08,4.22.12,0,1.31-.79,1.33-1.59,1.29-1.33-.06-2.66-.19-3.99-.22-.77-.02-1.55.1-2.41.17-.03,1.1-.06,2.07-.09,3.14,2.1.38,3.8-.25,5.58-1.28.8,1.17,2.05,1.57,3.41,1.94,1.87.5,2.25,1.15,2.06,3.1-.08.84-.26,1.72-.63,2.47-.86,1.76-1.84,3.47-2.83,5.16-.24.41-.72.68-1.21,1.13-.63-1.49.22-2.28.83-3.14,1.3-1.8,2.48-3.65,2.45-5.99,0-.23-.06-.46-.12-.9Zm-10.82.4c-2.83.9-4.5,2.55-4.82,4.57-.24,1.48.74,3.12,1.94,3.27,1.32.16,3.23-1.44,3.21-2.8-.03-1.63-.21-3.25-.33-5.05Zm4.25-1.31c-1.56,0-2.63.01-2.8,1.34-.13,1.03.02,2.1.05,3.15.15.04.31.08.46.13.69-1.4,1.39-2.8,2.29-4.62Z"/>
      <path d="m469.9,273.3c2.32.37,2.93-.01,3.33-2.05.33-1.69.63-3.38,1.05-5.05.14-.54.54-1.29.99-1.43,1.99-.62,4.03-1.06,6.09-1.57.21,2.41-2.52,18.95-3.4,20.86-.17.36-.55.62-.98,1.08-.59-1.04-.34-1.78-.01-2.6,1.44-3.6,1.72-7.43,2.29-11.19-2.73-.61-3.61-.45-4.85.91,1.08.02,2.01.03,2.94.05-2.18,1.64-2.11,3.94-2.42,6.16-.25,1.77-.8,3.51-1.26,5.25-.07.26-.37.45-.66.78-1.69-1.61.58-3.11-.19-4.82-1.74.47-3.54.95-5.82,1.57,2.13-2.38,2.23-2.61,2.54-5.6-.64.54-1.12.94-1.67,1.4-.12-.6-.23-1.11-.35-1.71.81-.68,1.64-1.38,2.46-2.07l-.08.05Zm5.25-3.38c1.18-.04,2.27-.02,3.35-.17.33-.04.6-.54.9-.82-.3-.31-.57-.84-.9-.88-.84-.1-1.72-.09-2.54.08-.73.14-1.27.63-.81,1.79Zm4.53-4.97c-1.22.24-2.52.18-3.27,1.59,3.02.44,3.27.32,3.27-1.59Zm-8.6,9.83c.07.15.13.31.2.46,2.61.03,2.78-.05,2.99-1.5-1.12.36-2.16.7-3.19,1.04Z"/>
      <path d="m20.37,279.06c3.32-.93,6.3-2.32,9.7-1.67.26,2.05-1.15,3.08-2.5,4.06-.61.44-1.43.64-2.18.85-.98.28-2.08.84-2.94.59-.8-.23-1.34-1.36-2-2.09-.16-.17-.36-.29-.76-.61-.62.46-1.31.92-1.94,1.44-.72.6-1.35,1.32-2.09,1.9-.57.45-1.17.45-1.46-.2,1.61-1.88,3.16-3.69,4.72-5.51-.44-2.21.72-4.54-.65-6.83,2.69-1.92,5.86-2.24,8.83-3.09.5-.14,1.11.08,1.74.14-.77,2.13-1.47,3.94-2.08,5.78-.24.73-.26,1.54-.45,2.29-.19.76-1.07,1.05-1.37.44-.49-1.01-1.14-1.16-2.06-.94-1.07.25-1.88.8-2.19,1.9-.1.35-.15.72-.32,1.53Zm1.81,1.48c1.68,1.24,4.3.42,5.8-1.83-2.14.13-4.23.05-5.8,1.83Zm-1.07-9.13c.07.23.14.47.21.7,1.54-.43,3.09-.83,4.62-1.31.17-.05.22-.52.4-1-2.12-.13-3.69.67-5.23,1.61Zm.31,2.64c1.84.46,2.51.23,4-1.28-1.52-.3-2.75-.03-4,1.28Z"/>
      <path d="m227.32,272.1c1.04-1.77,2.79-1.38,4.07-2.02.11-1.79-.08-2.03-1.6-1.75-1.12.21-2.21.56-3.55.44.33-.33.6-.82,1-.97.87-.33,1.8-.57,2.72-.69,1.13-.14,1.7-.66,1.72-1.81.01-.87.08-1.74,1.53-2.01.04,1.14.08,2.17.12,3.36,1.73-.17,3.36-.32,5.44-.52-1.58,2.47-3.85,1.07-5.37,2.02-.08,1.77-.07,1.8,1.43,1.62,1.18-.14,2.36-.37,3.68-.59-.08,1.64-1.07,1.45-1.87,1.57-.84.13-1.68.3-2.55.46-.83,3.07-.47,6.01.14,8.93.11.53.83,1.01,1.38,1.35.53.33,1.18.44,1.78.65-.02.22-.05.44-.07.66-.54.06-1.16.32-1.6.13-1.38-.57-2.55-.2-3.81.4-2.11,1.01-4.14.41-6.04-.7-.84-.49-1.06-1.3-.71-2.25.82-2.23,2.53-2.79,4.53-1.52.7.44,1.51.7,2.45,1.13.09-2.9.16-5.52.24-7.95-1.85-1.68-3.26,1.76-5.06.06Zm4.62,9.33c-1.35-.58-2.26-1.02-3.21-1.36-1.29-.45-1.4-.35-1.95,1.41,1.55,1,3.11,1.11,5.16-.05Z"/>
      <path d="m189.14,265.83c-1.21-1.18-2.53-.35-3.74-.27-1.26.09-2.39,1.19-3.92.59.68-1.75,2.24-1.58,3.52-1.84,1.3-.26,2.64-.35,4.06-.53.27-.63.54-1.24.81-1.87,1.1.28,2.09.73,3.09.73,1.01,0,2-.25,3.11.6-.53.38-.89.76-1.33.92-.42.15-.94.02-1.4.08-2.54.33-2.72.86-2.44,3.4.27,2.47.02,5,.07,7.5.06,2.56-.5,4.98-1.45,7.34-.29.72-.49,1.55-1.91,1.33.43-1.41.84-2.76,1.28-4.22-1.34-.49-2.62-.85-3.8-1.43-3.13-1.53-3.78-3.57-2.22-6.69,1.22-2.46,2.7-4.65,5.74-5.08.17-.02.29-.32.52-.58Zm-.22,11.72c.19-.8.43-1.38.44-1.97.04-1.96.06-3.92-.02-5.88-.07-1.59-.99-2.07-2.35-1.26-1.81,1.08-2.64,2.9-3.1,4.81-.52,2.15.06,3.01,2.17,3.72.86.29,1.78.37,2.86.57Z"/>
      <path d="m171.48,270.75c-1.39,1.06-1.32,2.36-.91,3.95.36,1.4.28,2.96.16,4.43-.16,1.91-.25,1.89,1.56,2.76.61.3,1.19.67,1.78,1-.28.94-.78,1.12-1.47.85-.44-.17-.87-.38-1.25-.64-1.08-.75-2.03-.64-3.25-.11-2.53,1.09-4.5.74-5.95-1.08-1.2-1.51-1.08-2.63.56-3.7,1.23-.81,2.45-.92,3.71,0,.73.54,1.56.95,2.39,1.45.86-3.25.85-3.38-.63-7.71-.86.07-1.77.18-2.69.2-.81.02-1.62-.05-2.44-.32,1.31-1.7,3.44-.43,5.14-1.81.06-.77.15-1.82.24-2.95-1.53-.57-2.86,1.26-4.6-.05.71-.45,1.21-.96,1.8-1.08,1.53-.31,2.71-1.01,3.44-2.81.81,1.12,1.42,1.96,2.01,2.78q-1.42,3.36.42,4.85Zm-3.69,10.31c-.65-.46-1.27-.89-1.87-1.32-.12-.09-.2-.29-.32-.33-.44-.13-.93-.36-1.32-.25-.46.12-1,.48-1.21.89-.13.25.21.87.5,1.18,1.06,1.11,2.41,1.06,4.23-.16Z"/>
      <path d="m449.71,283.24c.37-.29.7-.56,1.03-.81,1.82-1.35,3.67-2.65,5.44-4.06.53-.42.92-1.09,1.2-1.72.52-1.17.08-1.97-1.14-2.31-.23-.06-.47-.13-.7-.11-2.73.16-5.47.34-8.2.52-.88.06-1.12.73-1.35,1.43-.43,1.34-.96,2.66-1.29,4.03-.3,1.22-.98,1.91-2.27,2.22-1.51-1.11-1.76-2.83-1.91-4.52-.04-.46.34-1.06.7-1.42.71-.72,1.45-1.58,2.35-1.93,2.3-.9,2.58-2.68,2.59-4.93-1.23.09-2.35.16-3.75.26,1.07-2.24,3.8-.47,4.41-2.26,1.94.27,3.64.5,5.35.74.02.18.04.35.06.53-.53.16-1.05.41-1.58.47-3.03.3-3.28.55-3.55,4.03,2.11-.06,4.19-.13,6.28-.19.94-.03,1.89-.18,2.8-.05,2.65.36,3.51,2.19,2.12,4.51-.47.79-1.1,1.55-1.82,2.13-1.53,1.22-3.15,2.34-4.77,3.45-.55.37-1.19.84-2.02.02Zm-6.71-2.86c1.19-1.36,1.49-2.92,1.66-4.75-2.76,1.53-3.04,2.39-1.66,4.75Z"/>
      <path d="m251.19,264.01c-.04,1.41-.07,2.46-.11,3.65,1.85-.28,3.5-.53,5.39-.81-.31,1.89-1.51,1.45-2.39,1.6-.91.16-1.81.33-2.92.53.13,2.34.11,4.53.4,6.68.37,2.71-.48,5.11-1.47,7.51-.11.26-.4.46-.64.64-.1.08-.29.03-.68.05.07-.68.14-1.32.21-2.05-.11-.08-.27-.28-.46-.32-1.65-.34-2.71-1.41-3.68-2.72-.98-1.34-1.03-2.68-.07-3.89,1.31-1.64,2.05-3.98,4.66-4.23.08,0,.17-.26.18-.4.02-.22-.03-.45-.06-.8-2.25-.44-4.63.96-7.28-.32,2.45-1.6,4.85-.26,6.82-1.07,1.02-1.13-.22-3.17,2.11-4.04Zm-3.03,8.47c-.8,1.07-1.6,1.93-2.17,2.93-.87,1.54.05,3.67,1.7,4.24.88.3,1.7.13,1.85-.82.33-2.13.93-4.37-1.38-6.35Z"/>
      <path d="m425.66,275.9c-.64-1.23-1.71-2.42-1.79-3.68-.08-1.17.89-2.41,1.41-3.67-1.54-.94-2.51.99-3.94.47.38-1.17,1.25-1.79,2.22-1.87,1.65-.14,2.3-1.07,2.6-2.51.05-.26.31-.48.77-1.16.18,1.22.29,1.98.41,2.86,1.08.03,2.14.06,3.29.1-.07,1.27-.96,1.26-1.68,1.2-2.73-.24-2.74,2.08-3.52,3.66-.73,1.48.24,2.32,1.12,3.25,2.27-.56,3.37-3.35,6.17-2.62-1.55,1.17-3.1,2.34-4.8,3.63,1.05.68,1.81,1.17,2.58,1.67q-.9,1.1-3.43-.46c-1.15.78-1.96,1.91-2.62,3.14-.6,1.12-.37,1.61.89,2.15,2,.85,3.99.59,5.95-.15.79-.3,1.56-.69,2.42-1.08.37.95.07,1.62-.62,1.86-2.76.94-5.55,1.84-8.44.46-2.13-1.02-2.36-1.55-1.26-3.61.69-1.3,1.57-2.49,2.29-3.64Z"/>
      <path d="m369.45,283.86c-.59-.79-.06-1.32.32-1.91.74-1.11,1.59-2.17,2.13-3.37,1.19-2.64-.15-5.18-2.77-5.52-1.52-.2-2.2.17-2.99,1.65-.81,1.52-1.61,3.05-2.42,4.57-.11.21-.25.4-.38.6-1.43,2.2-2.25,2.65-3.39,1.84-1.62-1.15-2.29-3.83-1.04-5.21,2.89-3.19,6.38-5.3,10.92-4.78,2.38.27,4.5,3.41,3.64,5.91-.75,2.16-2.21,4.08-3.39,6.09-.08.13-.42.1-.63.14Zm-8.22-3.28c1.71-1.9,2.78-4.03,3.85-6.42-2.64.28-4.88,2.24-5.24,4.23-.18.98.14,1.66,1.39,2.18Z"/>
      <path d="m9.94,280.86c3.46-7.9,8.49-14.32,12.96-21.39,2.09,1.7,3.08,4,4.75,5.69,1.61,1.63,3.48,3,5.35,4.58-1.02.82-1.72.24-2.32-.31-2.12-1.97-4.22-3.97-6.3-5.98-.32-.32-.49-.79-.76-1.24-.71.47-1.22.63-1.43.97-2.96,4.8-6.78,9.07-9.04,14.31-.31.72-.57,1.46-.88,2.18-.36.83-.38.82-2.32,1.21Z"/>
      <path d="m391.91,264.67c2.09-2.11,5-1.5,8.35-1.68-1.95,3.41-1.72,7.02-3.24,9.76-2.11-.12-3.87-.22-5.86-.34.35-1.69.74-3.24.97-4.83.11-.76-.1-1.57-.22-2.91Zm1.13,6.06c2.76.73,3.29.48,3.45-1.48-1.29-.09-2.4.18-3.45,1.48Zm.3-2.84c2.5.38,2.89.24,3.73-1.16-1.38-.34-2.53-.16-3.73,1.16Zm3.82-3.32q-1.48-.23-2.51.66,1.47.25,2.51-.66Z"/>
      <path d="m468.97,273.3c-1.48.42-2.96.83-4.64,1.3.05,1.89.1,3.6.12,5.3.01,1.04.31,2.22-1.2,2.95-.5-1.36-.42-2.65-.39-3.93.08-3.13.17-6.27.22-9.4.04-2.22,1.2-3.7,3.42-4.25.91-.23,1.83-.45,2.75-.64.22-.05.46.03.96.08-.02.67-.03,1.34-.06,2.01-.08,1.7-.11,3.42-.31,5.11-.06.54-.62,1.01-.95,1.52,0,0,.07-.06.07-.06Zm-4.87-3.94c1.68-.12,2.87-.21,4.01-.3.38-1.09.76-1.93.21-2.98-1.58.63-3.43.6-4.22,3.28Zm.31,3.61c1.42.45,2.21-.51,3.12-.97.25-.13.51-.81.41-.94-.25-.31-.72-.59-1.1-.6-1.26-.02-1.92.69-2.42,2.51Z"/>
      <path d="m379.86,265.97c1.88-.59,3.77-1.17,5.7-1.77.05-.83.09-1.52.13-2.37.37.03.93-.06,1.01.09.27.53.37,1.15.58,1.9,1.47-.27,2.94-.54,4.67-.86-.3,1.22-.98,1.41-1.62,1.58-.91.24-1.9.29-2.73.69-.53.26-.97.96-1.13,1.55-.08.29.47.91.87,1.16.72.45,1.54.74,2.41,1.14-1.16,2.17-2.42-.15-3.88.35-1.3,1.18,1.15,3.7-.9,5.1-1.03-2.1,0-3-.84-5.25-2.37.91-3.72,3.08-5.66,4.62-.76-1.24.08-1.74.66-2.29,1.48-1.4,2.99-2.77,4.47-4.17.33-.31.57-.7,1.18-1.47-1.89.32-3.32.56-4.75.8l-.19-.81Z"/>
      <path d="m66.82,283.86c.29-1.28,1.29-1.64,2.37-1.96q3.57-1.06,3.35-4.77c-.14-2.41-.28-4.83-.38-7.25-.02-.37.13-.74.26-1.4,2.01.99.9,2.92,1.71,4.35,1.1.03,2.35.07,3.62.11-.04,1.23-.91,1.17-1.51,1.38-2,.69-2.02.67-2.13,2.78-.06,1.15-.07,2.31-.12,3.76,1.6-.14,2.97-.27,4.35-.37.62-.05,1.28-.17,1.85,0,.31.09.47.72.67,1.07-4.85.79-9.42,1.54-14.03,2.29Z"/>
      <path d="m499.08,276.21c-.89.19-1.58.33-2.27.47-.08-.17-.16-.34-.23-.51.88-.53,1.79-1.01,2.63-1.59.87-.59.11-2.29,1.82-2.58-.01.45,0,.8-.04,1.14-.03.28-.11.55-.17.85,3.11.13,3.71-.24,4.87-2.77.27-.59.14-1.71,1.73-1.19-.43,1.07-.84,2.08-1.28,3.16,1.89-.25,3.62-.47,5.35-.7.07.17.14.34.2.51-.36.3-.68.75-1.09.86-.67.19-1.4.12-2.1.23-1.33.22-2.14-.26-3,.31-1.05.71-.9,2.23.11,3,.42.32.2.61-1.62,1.13-.17-.14-.83-.86-1-1,0-1.86,0,.6-.21-1.44-.03-.32-.3-.57-.62-.58-1.35-.06-1.59.19-1.89,1.36-.66,2.63.46,4.65,3.08,5.43.67.2,1.42.14,2.08.35.32.1.52.57.85.95-4.75,1.07-7.39-1.68-7.21-7.42Z"/>
      <path d="m271.92,274.22c-1.75.65-2.99,1.11-4.57,1.7.52-1.53,1.49-2.09,2.48-2.34,1.33-.33,2.25-.95,2.76-2.22.07-.17.35-.25.7-.48.46.64.9,1.24,1.41,1.94-1.02,1.42-1.5,2.89-.78,4.59.2.46.12,1.1.02,1.63-.31,1.55-.23,2.94,1.42,3.76-.25.34-.4.69-.5.67-1.38-.24-2.69.09-4.02.34-.52.1-1.11.02-1.62-.11-1.09-.29-2.03-1.86-1.85-2.95.13-.85,1.73-1.71,2.88-1.48.66.13,1.29.42,2.36.77-.24-2.02-.43-3.68-.68-5.82Zm-.49,7.5c-.57-.64-1.09-1.38-2.08-.69-.15.11-.2.66-.06.84.69.91,1.4.63,2.14-.15Z"/>
      <path d="m484.45,278.16c-1.19.63-2.38,1.26-3.59,1.9-.59-.83-.06-1.3.43-1.61.72-.46,1.56-.72,2.29-1.16.84-.5,1.61-1.1,2.66-1.82,1.85,1.32,3.94-.71,6.37-.38-.14,3.41-1.47,6.02-4.16,8.54-.78-1.63-1.4-2.91-2.08-4.32-1.99.72-1.76,3.2-3.19,4.55-1.21-1.01-.31-1.81.16-2.62.5-.88,1.01-1.76,1.51-2.64-.13-.15-.27-.29-.4-.44Zm6.45-1.7c-1.45.2-3.03.05-3.39,1.37-.29,1.08-.06,2.61,1.45,3.36,1.14-1.29,1.95-2.62,1.94-4.74Z"/>
      <path d="m143.25,272.69c1.84-1.24,3.99-.78,5.92-1.18.17-1.96,0-2.11-1.54-1.8-.9.18-1.81,1.11-2.9.07.62-1.61,2.47-.79,3.4-1.86-.02-.72-.04-1.54-.06-2.41,1.94-.46,1.26,1.53,2.15,1.99.97.03,1.99.06,3.19.09-.58,1.46-1.94.92-2.72,1.63-.35.76-.25,1.56.63,1.87.66.23,1.46.09,2.26.11-.18,1.37-1.51,1.11-2.15,1.87.11.61.25,1.28.35,1.97.24,1.64.23,1.64-1.68,1.82-.07-.13-.23-.28-.2-.38.94-3.01.55-3.59-2.45-3.39-.92.06-1.82.39-2.74.56-.76.15-1.41.07-1.46-.97Z"/>
      <path d="m118.92,266.85c-1.14,1.08-1.94,1.78-2.67,2.55-2.99,3.14-3.63,6.84-2.36,10.88.29.93,1.01,1.71,1.61,2.68-.27.27-.57.58-.87.89-3.61-3.26-3.6-8.52-.42-14.75-1.72-.58-2.92,1.49-4.59.92,1.11-1.91,5.96-3.73,9.32-3.17Z"/>
      <path d="m330.99,280.97c.95.55,2.16-.1,2.59,1.1-.09.19-.15.43-.23.43-1.83.18-3.59.32-5.33,1.21-1.42.72-3.96-1.31-4.15-2.95-.18-1.51,1.37-2.47,2.95-1.76.75.34,1.42.86,2.2,1.35,1.81-2.68.34-5.81,1.69-8.93.4.81.78,1.22.77,1.62-.09,2.11-.29,4.21-.44,6.31-.04.59-.04,1.18-.05,1.64Zm-5.72-.14c1.4,1.8,1.67,1.87,3.08.96q-1.28-1.26-3.08-.96Z"/>
      <path d="m90,271.55c.57-1.8,2.95-1.1,4.09-1.4,1.67-.45,3.14-.93,3.44-2.92.02-.12.39-.18.75-.34.59.91.94,2.19,2.43,1.73-.06.48-.04.73-.09.75-1.64.5-2.23,1.72-2.44,3.31-.22,1.63-.44,3.28-.89,4.86-.47,1.65-1.12,3.25-1.85,4.8-.29.61-.99,1.02-1.52,1.53-.93-1.02-.27-1.56.13-2.07,2.28-2.89,2.35-6.4,2.77-9.81.02-.2-.17-.43-.26-.63-1.99-.88-4.46-.2-6.56.21Z"/>
      <path d="m36.67,283.86c-.31-7.56.74-14.8,1.75-22.04.04-.27.51-.47,1.07-.97.08.82.22,1.32.17,1.79-.43,3.57-1.03,7.13-1.32,10.72-.22,2.72-.1,5.48-.04,8.22.02,1.05-.07,1.88-1.63,2.29Z"/>
      <path d="m343.24,267.22c.55.84.86,1.32,1.15,1.75,1.24,0,2.24-1.36,3.53-.49-.05,1.1-.85,1.14-1.51,1.22-2.39.31-3.57,1.73-3.79,4.05-.22,2.37-1.17,4.62-.82,7.12.23,1.62-1.18,2.91-2.67,2.99.92-3.97,1.84-7.94,2.77-11.96-.94-.14-1.63-.24-2.31-.34-.05-.14-.11-.29-.16-.43,1.81-.64,2.92-1.99,3.81-3.91Z"/>
      <path d="m52.83,283.57c.2-.78.34-1.59.61-2.34.27-.73.68-1.41,1.04-2.11,2.4-4.62,2.88-9.56,2.43-14.65-.05-.52.08-1.05.13-1.55,1.06-.15,1.22.55,1.22,1.15,0,4.04.74,8.14-1.2,12.02-1.01,2.03-1.7,4.22-2.57,6.31-.21.52-.58.97-.88,1.45-.26-.1-.52-.19-.78-.29Z"/>
      <path d="m533.37,269.41c1.89.06,3.52.1,5.47.16-.52.42-.8.79-1.16.91-.66.22-1.37.29-2.06.45-1.36.32-2.16,1.06-2.29,2.56-.24,2.8-.61,5.59-.9,8.39-.08.81-.15,1.56-1.4,1.98-.51-3.86,1.02-7.42,1.1-11.16-.58-.16-1.12-.31-2.02-.55,1.28-1.09,2.3-1.95,3.24-2.74Z"/>
      <path d="m549.43,275.85c1.69-.57,2.91-1.08,4.17-1.38,1.4-.34,2.63-.66,2.27-2.53-.04-.22.27-.5.66-1.17.46,1.15.77,1.94,1.06,2.68.85.62,2.14-.72,2.75.88-.71.26-1.41.52-2.1.77-.94,1.74.75,4.12-1.57,5.76-.19-2,.64-3.89-.54-5.73-1.14.27-2.25.59-3.39.79-.92.16-1.79,1.36-3.31-.06Z"/>
      <path d="m389.51,275.11c.42,2.25,1.98,3.68,3.94,4.85.92.55,1.67,1.37,2.41,2.01,1.57-.02,1.45-2.37,3.34-2.05-.24,1.95-1.58,2.92-2.93,3.94-2.06-1.57-4.13-2.97-5.98-4.63-.89-.8-1.44-2.03-1.96-3.15-.37-.8.18-1.13,1.18-.97Z"/>
      <path d="m204.85,278.31c.53.41,1.04.88,1.61,1.24.72.45,1.82.78,1.49,1.78-.29.88-.98,1.93-1.76,2.26-.9.39-2.17.31-3.15,0-1.38-.42-1.75-2.19-.84-3.54.61-.91,1.4-1.67,2.64-1.76Zm1.85,3.36c-.86-1.02-1.74-.88-2.51-.71-.32.07-.53.62-.78.95.38.29.82.88,1.13.81.69-.15,1.32-.62,2.17-1.05Z"/>
      <path d="m325.61,273.16c-3.5,1.34-3.96,4.22-4.89,6.83-.47,1.32-.7,2.86-2.39,3.87.07-.71.04-1.15.17-1.54.48-1.49.94-2.99,1.56-4.43.52-1.2.8-2.31-.19-3.35,1.51-1.53,2.95-2.78,5.74-1.39Z"/>
      <path d="m522.53,283.86c-1.5-1.86-3.04-3.71-4.48-5.64-.25-.34-.3-1.12-.08-1.48,1.22-2.01,2.77-3.75,4.83-4.97.08-.05.27.09.52.18-.16,1.01-1.1,1.42-1.7,2.04-2.78,2.88-2.84,3.59-.14,6.63.62.7,1.52,1.16,2.37,1.79q-.22.67-1.32,1.45Z"/>
      <path d="m585.54,283.85c-.93,0-1.29-.6-1.34-1.5-.1-1.68,1.77-3.96,3.45-4.19,1.16-.16,2.31.89,2.27,2.06-.06,1.54-2.73,3.8-4.38,3.63Zm2.57-3.91c-2.12.26-2.37.53-2.19,2.41,1.76-.25,1.96-.47,2.19-2.41Z"/>
      <path d="m262.93,272.23c-.06.73-.17,1.47-.18,2.2-.04,2.69-.85,5.4.18,8.09.12.33-.35.88-.55,1.33-.34-.32-.99-.64-.99-.95.06-3.42.21-6.84.37-10.25.01-.21.35-.41.54-.61l.63.19Z"/>
      <path d="m566.29,282.13c.91-.29,1.4-.45,2.42-.78-.64,1.03-.92,1.77-1.45,2.23-.62.53-1.36.26-1.81-.4-.21-.3-.33-.74-.31-1.12.08-2.1.11-4.21.35-6.29.12-1.04.75-1.87,2.29-1.26-1.81,2.26-1.71,4.76-1.5,7.63Z"/>
      <path d="m573.66,283.8c.1-3.29.19-6.39.29-9.78.4.39.8.59.86.86.55,2.61.66,5.23.28,7.88-.12.85-.53,1.25-1.43,1.04Z"/>
      <path d="m89.2,275.85c.02.18,0,.36-.02.54-.41,2.39-1.03,4.79.41,6.93-1.19.93-1.88.52-2.08-.34-.48-2.07-.69-4.18.18-6.21.17-.39.31-9.23,1.31-8.23.16.06.08,6.18.2,7.3Z"/>
      <path d="m148.82,283.86c-1.45-2.31-3.28-3.7-4.52-5.8,1.02-.46,1.55-.76,2.24.18,1,1.36,2.23,2.54,3.59,4.05-.23.28-.63.76-1.3,1.57Z"/>
      <path d="m134.17,278.86c.27-2.48.51-4.62.77-7.01,1.75.71,1.62,2.11,1.38,3.17-.3,1.29.46,3.26-2.15,3.85Z"/>
      <path d="m385.36,277.33c-.44.97-.88,1.55-.96,2.18-.14,1.02-.66,2.15.53,3.01.19.13.14.98-.08,1.18-.22.21-1,.2-1.2-.02-1.12-1.24-.85-2.79-.65-4.26.14-1.02.56-1.95,2.36-2.11Z"/>
      <path d="m34.25,267.09c.62,3.27.5,6.36-.35,7.85-.72-2.37-.99-4.55-.74-6.77.03-.32.56-.58,1.09-1.08Z"/>
      <path d="m407.56,276.8c-.41,2.28-1.59,4.57.07,6.73-1.02.63-1.76.28-1.87-.44-.31-2.07-.57-4.19.76-6.07.08-.12.24-.21.38-.25.13-.04.29.01.66.04Z"/>
      <path d="m555.64,282.88c-1.47,1.26-1.63,1.29-2.37.15-.63-.97-1.19-2-1.61-3.07-.13-.33.32-.89.51-1.35.35.3.95.57,1,.92.22,1.57.99,2.69,2.47,3.35Z"/>
      <path d="m415.17,283.86c.07-2.24.13-4.48.2-6.8,1.03.1,1.04.86,1.12,1.51.32,2.56.02,4.4-1.32,5.29Z"/>
      <path d="m51.07,271.85c-1.11.07-1.65-.48-1.67-1.32-.02-1.16.13-2.33.32-3.48.04-.25.55-.61.82-.59.24.02.63.49.64.76.02,1.45-.06,2.91-.11,4.62Z"/>
      <path d="m539.15,278.8c1.72,1.53,2.98,2.6,4.17,3.75.24.24.2.78.28,1.18-.4.03-.95.23-1.18.05-1.02-.83-2.03-1.7-2.86-2.71-.35-.43-.24-1.24-.41-2.27Z"/>
      <path d="m349.51,279.62c1.28,1.01,2.5,1.93,3.66,2.92.21.18.28.68.22.99-.04.17-.51.35-.77.33-.89-.04-3.53-2.91-3.55-3.83,0-.1.21-.2.44-.42Z"/>
      <path d="m19.94,267.86c-.08-1.31.6-1.63,1.29-1.72.99-.12,2-.1,3-.05.16,0,.48.53.42.71-.1.31-.42.72-.69.76-.69.09-1.4-.06-2.1-.02-.59.03-1.18.19-1.93.32Z"/>
      <path d="m104.13,267.86c-1.52-.83-1.03-2.31-1.56-3.88.78.2,1.57.24,1.6.43.21,1.1,1.27,2.27-.04,3.45Z"/>
      <path d="m348.66,274.86c.96-2.17,1.82-2.58,4.32-2.14-.82,2.14-2.82,1.3-4.32,2.14Z"/>
      <path d="m128.32,278.3c-.72.7-1.45.74-1.87.09-.43-.66-.58-1.51-.76-2.3-.03-.11.4-.45.65-.48.24-.03.63.14.75.34.23.38.29.87.49,1.28.19.38.49.72.74,1.07Z"/>
      <path d="m101.4,267.86c-1.1-.69-1.68-1.99-1.3-2.91.14-.34.72-.49,1.41-.92l-.11,3.84Z"/>
      <path d="m543.75,274.76c-1.09.34-2.17.68-3.52,1.1.78-1.95,1.08-2.07,3.32-1.64.07.18.13.36.2.54Z"/>
      <path d="m396.48,276.57c.9,1.22.92,2.2-.2,3.28-.79-1.18-.7-2.15.2-3.28Z"/>
      <path d="m393.28,278.86c.03-.85-.02-1.58.11-2.28.04-.22.54-.46.85-.49.17-.02.54.37.55.59.02.92,0,1.87-1.5,2.18Z"/>
      <path d="m258.73,265.86c-.35-.97-.65-1.58-.76-2.23-.04-.24.29-.63.55-.8.13-.08.64.15.72.34.3.77.57,1.6-.5,2.68Z"/>
      <path d="m492.14,272.02c1.58-.06,2.41.69,3.36,1.77-1.69.3-2.6-.31-3.36-1.77Z"/>
      <path d="m541.46,271.86c-.04-1.39-.63-2.65,1.23-3.25.07,1.24.14,2.32-1.23,3.25Z"/>
      <path d="m332.38,269.86c-1.12-.45-1.93-.78-2.72-1.1.11-1.15.71-1.09,1.37-.97.84.16,1.47.5,1.35,2.07Z"/>
      <path d="m545.12,268.66c1.66,1.41,1.65,1.86.15,3.2-.05-1.04-.09-1.88-.15-3.2Z"/>
      <path d="m282.28,281.67c.39.71.71,1.12.8,1.57.03.16-.57.67-.73.61-.35-.14-.81-.51-.85-.82-.04-.33.38-.7.78-1.36Z"/>
      <path d="m257.21,265.02c-.52.37-.85.6-1.18.83-.2-.38-.51-.75-.54-1.15-.02-.21.56-.71.67-.66.35.16.6.53,1.05.97Z"/>
      <path d="m455.65,269.86c-.66-1.02-.67-1.62.19-1.74.21-.03.68.42.67.45-.25.45-.56.86-.85,1.29Z"/>
    </g>
    <g>
      <path d="m389.6,78.97c-.92.55-1.81,1.17-2.77,1.64-1.76.87-3.55,1.67-5.33,2.48-.13.06-.31.02-.47.03-.61-.53-.35-.95.21-1.27.55-.31,1.24-.42,1.67-.83.57-.54.94-1.28,1.39-1.94-.11-.14-.21-.28-.32-.42-1.23.34-2.46.67-3.96,1.08-.35-2.41,2.37-3.05,2.65-5.08-.53.01-1.04.02-1.57.03-.34-.88.4-1.1.91-1.34.7-.34,1.46-.55,2.19-.81.69-.24,1.36-.48,1.14-1.62-1.17.16-2.33.31-3.6.49-.05-1.36.86-1.6,1.53-1.63,1.78-.1,2.67-1.03,3.09-2.64.07-.27.34-.48.5-.71,1.37.43.29,1.58.84,2.26,1.21.43,2.27-1.44,3.69-.39-.75,2.11-3.82.66-4.47,3.26,1.91-.53,3.6-1.01,5.62-1.57-.17.57-.16,1.05-.39,1.24-.52.43-1.35.55-1.18,1.51,2.42.12,4.07-1.12,4.34-3.28.1-.81.17-1.6,1.38-1.66.03.84.06,1.67.09,2.7.81-.16,1.52-.3,2.47-.49.08.51.32,1.04.2,1.47-.32,1.13-.86,2.19-1.2,3.32-.28.94-.4,1.92-.66,3.18,1.84.05,3.35.1,4.95.15-.76,1.52-.93,1.52-4.03,1.08-1.62-.23-2.89-.91-3.89-2.78-1,1.9-1.82,3.44-2.83,5.35,1.08-.15,1.68-.21,2.27-.31.93-.16,1.85-.48,2.78-.49.88,0,2.03.03,2.56.56.71.71.14,1.75-.41,2.57-1,1.5-1.98,3.01-2.97,4.52-.13.2-.23.44-.41.56-.5.34-1.08.92-1.59.2-.17-.25.06-1.01.35-1.32,1.47-1.56,2.62-3.28,3.3-5.72-2.26.18-4.26.16-6.16.95-.46.19-.87.63-1.18,1.05-1.34,1.82-2.62,3.69-3.95,5.52-.45.62-1.05.91-2.08.27,1.62-1.94,3.21-3.85,4.81-5.76-.12-.17-.23-.34-.35-.52-2.9.19-5.57,1.27-8.23,2.79-.34-1.22-.01-1.82.86-2.12,1.93-.66,3.83-1.42,5.8-1.89,2.38-.57,2.47-.54,2.47-3.02,0-.23-.07-.47-.1-.69.48.35.95.7,1.58,1.16.66-1.81,2.71-3.02,1.52-5.34-2.02.88-3.88,1.66-5.7,2.5-.87.4-1.59.98-1.16,2.37,1.05-.49,1.98-.99,2.96-1.36.5-.19,1.18-.25.83.71Zm-3.19-4.89c.31.58.58,1.09.91,1.69.93-.5,1.79-.97,2.62-1.42-.91-2.01-1.09-2.13-2.65-1.61-2.31.76-3.38,2.73-4.69,4.79,2.52.04,2.49-2.32,3.82-3.44Zm9.28,2.1c1.28-1.49,1.69-2.52,1.72-4.21-1.94,1.03-2.36,1.96-1.72,4.21Z"/>
      <path d="m184.14,71.46c1.8.1,3.49-.73,5.31.38-1.25,1.09-2.55.7-3.73.78-2.01.14-2.72.73-2.98,2.62-.09.62-.11,1.25-.12,1.88,0,.46.05.92.08,1.49,1.37.3,2.63-.04,3.59-.74.88-.64,1.43-1.74,2.12-2.62,1.33.77.14,1.67.43,2.51.11.08.26.29.46.34,4.3,1.08,4.08,3.67,3.17,6.43-.58,1.74-1.86,3.25-2.92,4.81-.17.26-.78.22-1.19.32-.07-.42-.3-.91-.16-1.25.19-.48.64-.87,1-1.28,1.18-1.32,2-2.82,2.22-4.59.19-1.51-.32-2.21-1.74-2.61-1.78-.51-2.28-.29-3.1,1.05-1.47,2.41-3,4.79-4.52,7.17-.25.39-.58.74-.93,1.06-1.28,1.19-2.4,1.39-3.61.69-1.54-.88-2.22-2.55-1.89-4.12.42-2,1.64-3.47,3.24-4.45,2.95-1.82,2.47-4.52,2.49-7.35-1.64.18-3.01.34-4.59.51.3-1.33,1.17-1.49,1.96-1.56,2.1-.17,3.63-.95,3.88-3.24,1.55-.22.92,1.23,1.52,1.77Zm-3.56,10.54c-1.99,1.34-3.51,2.31-3.45,4.56.03,1.13.53,1.85,1.57,2.02,1.1.18,1.58-.76,1.69-1.58.19-1.51.13-3.04.19-4.99Zm4.51-1.5c-1.82-.37-2.25-.36-2.59.39-.54,1.19-.81,2.45.16,4,.89-1.6,1.64-2.97,2.43-4.39Z"/>
      <path d="m9.42,77.78c1.2-1.28,2.92-.2,4.27-1.05.56-1.61.04-3.75,1.8-5.01.82.18,1.05.54.78,1.36-.36,1.08-.55,2.22-.82,3.36,1.75.86,3.27.62,5.13.3.03-1.07.1-2.13.08-3.2-.01-.78-.24-1.56-.2-2.34.03-.78-.44-2.09.69-2.14,1.31-.06.7,1.29.78,2.03.13,1.25.09,2.51.17,3.77.03.45.19.89.35,1.58,2.07-.31,4.02-.6,6.16-.93-.15,1.72-1.23,1.77-2.18,1.93-1.29.23-2.59.42-4.05.65.25,3.98-.97,7.46-2.17,10.95-.36,1.05-.79,1.74-2.09.88,1.25-3.62,3.32-7.1,2.5-11.25-1.82-.05-3.48-.1-5.09-.15-.75,2.08.13,3.74.58,5.41-1.66.61-2.02.51-2.2-.81-.19-1.39-.2-2.8-.31-4.5-.82-.02-1.56-.05-2.31-.07-.68-.01-1.43.16-1.85-.77Z"/>
      <path d="m434.67,84.16c-3.11,1.69-5.9,3.21-9.04,4.91.08-.73.02-1.16.2-1.46.18-.32.56-.65.9-.72,2.66-.52,2.74-2.62,2.98-4.68.25-2.16.61-4.31.9-6.47.06-.45-.01-.92-.03-1.55-.98.2-1.84.37-2.69.54,2.67-2.96,6.26-2.83,9.98-3.39-.83,6.41-1.62,12.52-2.45,18.62-.02.18-.46.31-.81.53-1.1-2.13.43-4.07.07-6.33Zm-.12-9.3c.75,1.28-.06,1.59-.92,1.93-.82.32-1.78.57-1.65,1.84.87-.18,1.61-.34,2.4-.5q-.22,1.43-1.29,1.94c-2.18,1.04-2.4,1.53-1.85,4.2,3.1-.96,3.92-1.86,4.36-4.78.09-.62.25-1.23.31-1.86.17-1.51.3-3.03.45-4.56-3.59-.01-3.97.23-4.01,2.3.74-.17,1.48-.34,2.2-.51Z"/>
      <path d="m196.51,86.17c-.78-.97-.35-1.65.17-2.25.51-.59,1.04-1.21,1.68-1.64,2.48-1.68,3.6-4.29,4.79-6.85.14-.31.07-.72.11-1.11q-1.77.07-2.55-1.06c.55-.28,1.06-.59,1.62-.81,1.7-.69,2.84.12,2.54,1.96-.23,1.35-.81,2.64-1.22,3.94.23.11.42.26.49.22,2.48-1.36,4.1,0,5.72,1.68,1.65,1.7,1.36,3.62.67,5.48-.64,1.71-1.87,3.08-3.4,4.13-1.72,1.17-4.89-.1-5.31-2.14-.17-.8-.13-1.64.79-1.99.9-.34,1.88-.45,2.62.35.52.56.91,1.26,1.34,1.88,2-1.13,3.27-3.88,2.75-5.76-.49-1.77-2.43-2.92-4.28-2.25-1.37.49-2.7,1.25-3.87,2.13-1.24.94-2.26,2.17-3.4,3.24-.36.34-.82.58-1.23.86Zm8.02,2.63c.13-.15.26-.31.38-.46-.36-.24-.72-.48-1.08-.72-.09.12-.17.24-.26.36.32.28.64.56.96.83Z"/>
      <path d="m525.7,73.4c.37-1.48,1.33-1.65,2.34-1.88,1.97-.45,3.9-1.19,5.89-1.46,1.61-.22,3.3.05,4.75.88,0,.19,0,.38,0,.57-1.01.13-2.01.26-3.29.42-.11.75-.28,1.57-.34,2.4-.23,3.37-.36,6.74-.66,10.1-.16,1.7-.6,3.38-.94,5.07-.14.69-.55,1.25-1.29.87-.25-.13-.32-.95-.2-1.38.2-.73.62-1.41.91-2.02-1.16-.32-2.35-.37-3.22-.92-3.74-2.39-2.44-7.22-.39-9.51.87-.97,2.03-1.71,3.14-2.42.53-.34,1.26-.44,1.06-1.27-.24-.99-1.07-.78-1.73-.65-1.46.27-2.91.62-4.36.93-.49.1-.99.17-1.68.28Zm6.89,2.38c-1.77.59-2.69,1.87-3.41,3.39-.72,1.52-.84,3.06.08,4.49.39.6,1.12,1.25,1.78,1.35.96.15,1.13-.86,1.36-1.61.16-.53.42-1.03.5-1.57.33-1.98.85-3.97-.31-6.05Z"/>
      <path d="m472.53,89.66c2.78-3.54,2.56-7.33,2.41-11.09-.02-.47-.09-.94-.1-1.4,0-.98.5-1.59,1.42-1.92,1.74-.63,4.04-.68,6.41-.04-.36,2.09-.79,4.19-1.07,6.32-.28,2.09-.41,4.19-.61,6.41.75.02,1.48.04,2.27.07.43.88.11,1.31-.75,1.53-1.09.28-2.18.59-3.49.95-.45-1.1-1.51-1.24-2.83-1.01-1.2.21-2.44.13-3.66.19Zm7.32-10.15c-.94.32-1.75.5-2.45.88-.4.22-.72.74-.86,1.19-.08.24.22.76.49.92.8.48,2.79-.18,2.99-1.04.37-1.64.56-3.32.83-4.96-3.37-.69-4.56-.04-4.04,2,.89.35,2.05-.26,3.04,1.01Zm.2,4.32q-3.55,0-4.77,4.06c4.21.07,4.42-.1,4.77-4.06Z"/>
      <path d="m515.73,74.53c-1.13.36-1.92.61-2.72.86-.62-.92-.22-1.49.51-1.76,1.38-.51,2.61-1.06,2.72-2.79,0-.14.48-.26.71-.38.46,1.31.88,2.49,1.4,3.95-.5.82-1.66,1.77-1.11,3.29.68.26,1.36.52,2.05.78.02.16.05.32.07.48-.71.32-1.43.63-2.2.98-1.07,2.81.8,5.48.37,8.4.65.23,1.27.36,1.78.67.24.14.45.69.36.93-.1.27-.76.62-.85.55-1.92-1.63-3.79-.34-5.72-.08-1.01.13-2.18-.22-3.13-.67-1.31-.63-1.81-1.89-1.47-2.89.39-1.13,1.98-1.96,3.32-1.61.75.19,1.43.63,2.14.96.55.25,1.1.5,2.01.9-.15-2.58-.28-4.85-.43-7.41-1.59.24-3.14.47-4.9.73.87-2.69,3.36-1.49,4.97-2.61l.1-3.27Zm-1.26,13.91c-1.93-2.12-3.09-2.27-4.53-.68,1.36,1.59,2.16,1.73,4.53.68Z"/>
      <path d="m498.95,81.03c-2.24.47-4.22.9-6.2,1.3-1.07.22-1.49,1.04-1.9,1.91-.56,1.2-1.05,2.47-1.8,3.55-.38.55-1.31,1.1-1.91,1.04-.98-.11-1.09-1.17-1.17-2.05-.14-1.61.64-2.92,1.95-3.48,2.6-1.12,2.51-3.09,2.15-5.29-.11-.68-.22-1.35-.42-2.55.75.43,1.34.56,1.46.88.24.64.24,1.37.32,2.07.09.83.15,1.66.23,2.69,2.46-.44,4.67-.84,6.88-1.24.86-.15,1.11-.77,1.18-1.53.09-.94.12-1.89.3-2.8.11-.52.48-.98.96-1.89.93,2.18-.29,3.87.36,5.76.69-.07,1.42-.21,2.16-.2.71,0,1.41.16,2.33.28-.71,1.36-1.64,1.38-2.57,1.42-2.76.13-2.79.14-3.27,2.88-.3,1.7-.53,3.41-.81,5.11-.15.94-.17.94-1.52,1.61-.24-3.16,1.38-5.99,1.27-9.45Zm-11.15,6.39c.79-1.21,1.54-1.97,1.5-3.38-1.32.79-2.1,1.5-1.5,3.38Z"/>
      <path d="m361.98,83.85c.51-1.33.88-2.32,1.41-3.71-1.89.31-3.5.57-5.49.89.38-.67.5-1.19.78-1.31.63-.27,1.34-.37,2.03-.48,2.62-.42,2.7-.47,4.23-2.78.41.59.76,1.1,1.22,1.76,1.61-.06,3.32-.12,5.09-.18.38-.91.72-1.74,1.09-2.62,1.53.51.51,1.91,1.32,2.79.9.03,1.98.05,3.06.1.54.03,1.28.03,1.11.8-.07.33-.78.75-1.19.74-1.31-.03-2.62-.23-3.87-.36-1.02,2.41-1.97,4.62-2.86,6.87-.11.27.21.7.34,1.07-1.51,1.04-2.99,2.05-4.47,3.07-.12-.1-.25-.2-.37-.3.07-.39.01-.92.24-1.15.73-.74,2.22-1.2,1.52-2.52-.71-1.36-1.8-2.59-3.57-2.73-.38-.03-.77.03-1.62.07Zm9.12-4.45c-2,.09-3.62.05-5.21.26-1.19.16-1.83,1.91-1.02,2.71,1.08,1.05,2.32,1.94,3.6,3,1.46-1.76,1.84-3.71,2.62-5.98Z"/>
      <path d="m248.65,81.54c-.21-3.06,1.07-5.83,2.93-8.33.67-.9,1.68-1.66,2.7-2.14,1.35-.64,2.71-.34,3.92.7,3.05,2.66,4.89,9.21,1.02,12.87-1.53,1.45-3.05,2.93-4.75,4.17-1.51,1.1-2.88.74-4.12-.7-1.6-1.85-1.95-4.05-1.71-6.58Zm11.39-2.73c-.07-2.09-.94-4.01-2.58-5.64-.94-.94-1.88-.99-2.95-.37-1.97,1.15-3.45,2.74-3.95,5-.35,1.59-.59,3.24-.57,4.87.02,1.21.37,2.48.85,3.6.75,1.72,2.09,2.08,3.6.97,1.31-.97,2.6-2.05,3.62-3.31,1.12-1.39,1.95-3.03,1.98-5.12Z"/>
      <path d="m86.8,80.47c.14-.56.16-1.17.43-1.66,1.23-2.18,2.52-4.34,3.81-6.48.59-.98,1.34-1.38,2.56-.87.92.38,1.98.44,2.98.61,1.24.21,2.45.45,3.59,1.63-1.06,2.19-1.93,4.56-3.26,6.63-1.98,3.08-3.48,6.51-6.19,9.1-.64.61-1.16,1.33-2.45.47,1.67-1.95,3.31-3.86,4.88-5.69-.58-1.79-3.32-1.91-2.77-4.64,1.3.99,2.33,1.78,3.51,2.69.46-.46,1.05-.8,1.26-1.3.8-1.87,1.54-3.76,2.19-5.69.39-1.16.07-1.62-1.09-1.82-.77-.14-1.56-.14-2.34-.22-.94-.09-1.67.21-2.19,1.04-1.11,1.8-2.23,3.59-3.37,5.37-.26.4-.6.75-.9,1.12-.23-.1-.45-.21-.68-.31Z"/>
      <path d="m371.8,66.72c-1.9,1.33-3.81,2.65-5.71,3.98-.13-.14-.26-.27-.4-.41,1.27-2.31,2.05-4.91,4.56-7.14-.04,1.22-.06,1.88-.08,2.79,1.38-.41,2.6-.86,3.85-1.12.9-.19,1.87-.27,2.79-.18.77.08,1.37.72.91,1.53-.87,1.51-1.9,2.94-3.82,3.66.5-1.18.99-2.36,1.52-3.61-1.13-.29-1.8-.06-2.15,1.14-.93,3.24-.65,4.06,2.21,5.77.13.08.28.15.42.22.65.33,1.32.7.9,1.59-.34.73-1.07.73-1.93-.03-1.17-1.03-2.29-2.11-3.51-3.24-1.94.64-2.6,3.3-4.94,3.41-.14,0-.29-.33-.55-.65,2.61-2,5.18-4.03,5.93-7.72Z"/>
      <path d="m291.74,83.5c.84-2.67,1.59-5.38,2.57-8,.68-1.84,2.18-2.33,4.01-1.57,1.76.74,2.99,2.09,3.45,3.91.36,1.42.64,2.98.43,4.4-.45,3.07-1.81,5.82-4.02,8.04-1.46,1.46-2.28,1.35-3.8-.07-1.95-1.81-2.5-4.08-2.63-6.72Zm1.52.12c.07,1.81.27,3.49,1.49,4.91,1.24,1.44,2.01,1.52,3.17-.05.92-1.25,1.67-2.66,2.35-4.07,1.05-2.19.89-4.42-.09-6.6-.53-1.18-1.2-2.38-2.63-2.38-1.41,0-2.09,1.2-2.69,2.32-.11.21-.21.43-.27.65-.45,1.74-.88,3.48-1.32,5.22Z"/>
      <path d="m342.92,85.74c.22-.8.27-1.37.52-1.84.46-.91,1.05-1.75,1.56-2.64.95-1.66.78-3.34-.04-4.96-.86-1.69-2.18-1.75-3.19-.14-.66,1.06-1.15,2.24-1.81,3.31-.9,1.47-1.82,2.95-2.86,4.32-.94,1.25-2.01,1.07-2.71-.34-.7-1.41-.97-2.98-.17-4.32,1.88-3.13,4.46-5.86,8.54-5.68,1.84.08,2.81.82,3.72,2.28,1.39,2.22.15,8.19-3.56,10.01Zm-2.76-9.83c-1.34-.13-3.27,1.2-4.28,2.88-.79,1.3-.75,2.52.26,3.91,1.56-2.18,3.3-4.15,4.03-6.79Z"/>
      <path d="m239.1,91.54c-1.56-6.76-.26-13.06-.24-19.35-2.61-1.21-5.17-.01-7.79-.13.09-1.55,1.18-1.64,2.13-1.71,1.41-.11,2.83,0,4.23-.12,2.58-.22,5.14-.54,7.71-.82.23-.03.5-.13.69-.05.33.13.61.37.92.57-.25.34-.45.9-.76.97-1.07.23-2.17.29-3.26.42-1.97.23-2.08.33-2.33,2.23-.64,4.85-.74,9.7-.29,14.57q.17,1.86-1,3.43Z"/>
      <path d="m471.09,77.54c1.2.99,1.87,2.11,2.24,3.39.08.27-.24.65-.39,1.02-.37-.16-.62-.2-.77-.34-1.79-1.63-3.51-1.26-4.1,1.09-.4,1.57-.34,3.26-.47,4.9-.04.54.06,1.12-.1,1.63-.11.36-.55.63-1.14,1.26-.54-2.95.39-5.49.08-8.16-1.14.51-2.17.97-3.47,1.55-.22-3.03,2.59-3.82,3.46-5.81-.03-.1-.03-.31-.13-.37-2.19-1.44-2.23-1.73-.48-3.71.47-.53.93-1.09,1.5-1.49.34-.23.89-.16,1.34-.22.09.17.18.34.27.51-.63.64-1.34,1.22-1.86,1.94-.26.36-.4,1.08-.21,1.43.35.65,1.03.62,1.62.16.82-.65,1.62-1.32,2.74-2.23.15,2.14-1.34,2.62-2.15,3.52-.87.98-1.86,1.86-2.68,2.94,1.94-.38,3.64-1.12,4.72-3Z"/>
      <path d="m74.08,85.68c.64-1.07,1.16-1.83,1.58-2.65.72-1.4.55-2.43-.49-3.41-1.14-1.08-1.88-.99-2.87.31-1.32,1.75-2.64,3.5-3.98,5.24-.66.86-1.45,1.53-2.6.87-.89-.51-1.54-2.39-1.18-3.32.93-2.46,2.65-4.41,4.87-5.56,2.66-1.38,5.02-.75,7.47,2.08,1.32,1.52,1.03,4.14-.57,6.04q-.45.54-2.23.41Zm-3.19-7.04c-2.22.22-3.24,1.8-4.25,3.36-.52.81-.68,1.7.22,2.92,1.42-2.23,3.22-3.88,4.03-6.28Z"/>
      <path d="m284.49,91.04c-.25-.75-.75-1.52-.7-2.25.31-3.78-.68-7.28-2-10.75-.64-1.68-1.04-3.45-1.5-5.2-.17-.64-.2-1.32-.31-2.12,1.43.14,1.45,1.06,1.68,1.86.59,2.09,1.23,4.17,1.95,6.57.75-.54,1.24-.76,1.55-1.13,2.08-2.45,4.12-4.94,6.2-7.39.4-.47.89-.93,1.43-1.19.3-.14.8.14,1.22.23-.08.35-.05.79-.26,1.02-2.27,2.49-4.55,4.96-6.87,7.39-.74.78-1.09,1.65-1.23,2.71-.37,2.72-.81,5.41-.04,8.15.17.6-.28,1.36-.45,2.05-.22.01-.45.02-.67.03Z"/>
      <path d="m109.07,90.23c-.05-4.12,1.43-8.17,1.28-12.5-2.98.48-3.77,3.82-6.5,4.55-.25-1.39.57-1.84,1.15-2.41,1.89-1.88,3.89-3.67,5.64-5.67,1.32-1.5,2.34-3.27,3.61-5.09,1.03.2,1.29,1.02.77,1.99-.43.81-1.09,1.52-1.76,2.17-1.13,1.11-1.54,2.36-1.6,3.98-.15,3.91-.57,7.81-.9,11.71-.07.84-.31,1.58-1.71,1.28Z"/>
      <path d="m310,74.85c-.22,1.05-.48,1.93-.57,2.83-.22,2.25-.53,4.52-.48,6.77.03,1.33.27,3.12,1.82,3.5,1.54.37,2.52-1.04,3.33-2.2,1.89-2.72,2.96-5.69,2.51-9.08-.09-.7-.15-1.42-.06-2.11.05-.36.46-.68.7-1.02.28.3.8.61.8.91-.02,2.19.22,4.49-.35,6.55-.64,2.29-1.94,4.42-3.18,6.49-.48.81-1.49,1.4-2.38,1.85-1.48.76-2.57.49-3.41-.96-.61-1.05-.97-2.3-1.21-3.51-.57-2.92.22-5.77.68-8.62.1-.64.32-1.42,1.79-1.42Z"/>
      <path d="m165.49,71.68c-2.54-.61-7.23,1.06-9.49.87,1.33-2.15,8.18-3.2,11.56-2.22-.45,1.15-.86,2.29-1.36,3.4-.74,1.64-1.63,3.22-2.31,4.89-.69,1.68-1.06,3.45-.71,5.29.39,2.03.95,3.97,2.84,5.12-.89,1.54-1.03,1.58-1.94.71-1.83-1.75-2.37-4-2.48-6.41-.15-3.25.87-6.17,2.54-8.91.5-.82.84-1.72,1.33-2.74Z"/>
      <path d="m41.24,73.56c-1.16,1.36-1.97,2.57-3.03,3.5-1.3,1.13-1.41,2.25-1.16,3.93.4,2.69.22,5.47.23,8.21,0,.34-.28.68-.46,1.1-1.07-.5-1.13-1.33-1.11-2.2.04-1.41.14-2.82.14-4.24,0-.82-.15-1.64-.24-2.57-1.82.21-2.44,1.51-3.17,2.5-.75,1.02-.94,2.52-2.67,2.66-.66-1.27.14-2.16.73-3,.53-.77,1.19-1.49,1.93-2.05,2.5-1.88,4.14-4.47,5.91-6.95.6-.83,1.14-1.46,2.88-.9Z"/>
      <path d="m124.54,81.15c-.39,2.03-.21,4.14-.17,6.23.01.78.04,1.57-.07,2.34-.04.25-.53.6-.8.59-.26-.01-.64-.41-.71-.69-.12-.52-.08-1.09-.05-1.64.34-5.4.68-10.8,1.06-16.2.03-.5.3-.97.7-1.44,1.24,2.94.05,6.05.63,9.08,2.51.14,5-.78,7.42.16-2.43,1.67-5.33.53-8.02,1.59Z"/>
      <path d="m412.59,73.17c-1.54.61-3.08,1.22-4.69,1.86.68-2.04,5.37-4.02,8.85-3.83.29,1.17-.68,1.64-1.32,2.22-1.61,1.44-2.78,3.1-3.53,5.17-.89,2.48-.88,4.94-.22,7.39.27,1,1.06,1.85,1.53,2.82.2.41.37,1.09.17,1.37-.44.62-1.08.23-1.32-.26-.75-1.61-1.68-3.22-2.02-4.93-.69-3.52.09-6.86,2.11-9.86.3-.44.54-.92.81-1.38-.12-.19-.24-.37-.36-.56Z"/>
      <path d="m441.45,79.75c-.51.09-1.03.17-1.51.25-.55-.9-.09-1.48.56-1.81,1.67-.85,3.33-1.74,5.09-2.36,1.36-.48,2.11.43,1.56,1.84-.74,1.89-1.6,3.74-2.48,5.57-.49,1.04.32,2.26.39,2.75.04.26,2.84,4.11,2.93,4.51-.38-.06-2.68-2.64-3.66-3.44-.12-.1-.21-.23-.27-.38-.09-.23-.18-.41-.54-1.17-1.43,1.67-2.46,2.87-3.46,4.04-.98-.5-.82-1.08-.39-1.62.43-.55,1.03-.98,1.42-1.56.66-.97,1.11-1.88.46-3.23-.45-.95-.12-2.28-.14-3.43,1.91.36.71,2.47,1.87,3.41,1.12-1.77,2.23-3.41,2.08-5.73-1.61.52-3.14.8-3.91,2.38Z"/>
      <path d="m50.22,71.55c.08.66.24,1.31.24,1.97,0,1.96-.06,3.92-.07,5.88-.02,1.99.23,2.25,2.26,2.45.86.08,1.74.07,2.57.27.69.16,1.32.57,1.93,1.13-2.27,1.21-4.55-.43-7.04.33-.04,1.44-.1,2.97-.13,4.5,0,.47.16.95.08,1.4-.05.3-.4.55-.61.82-.29-.28-.8-.55-.82-.85-.1-1.56-.12-3.13-.08-4.7.11-3.99.24-7.98.42-11.97.02-.45.34-.88.51-1.32.25.03.5.06.76.09Z"/>
      <path d="m145.72,90.3c-.39-4.19.64-7.82.66-11.52l.49-.16c.24.37.68.74.7,1.12.05,1.56-.02,3.13-.05,4.7-.02.85-.05,1.69-.08,2.69,1.5.04,2.22-1.05,3.08-1.86.79-.74,1.57-1.33,2.74-.07-2.52,1.56-4.58,3.62-7.54,5.1Z"/>
      <path d="m454.3,90.49c.41-1.27.57-2.27,1.02-3.12,2.24-4.19,3.38-8.57,2.66-13.35-.1-.68-.06-1.43.11-2.1.1-.41.56-.73,1.01-1.27,1.24,7.5-1.07,17.47-4.8,19.83Z"/>
      <path d="m547.09,90.48c-1.64-.06-2.24-.7-2.14-2.35.1-1.67.94-2.93,2.26-3.9,1.03-.75,2.02-.14,2.83.34.43.25.66,1.17.65,1.78-.05,2.32-1.76,4.2-3.6,4.13Zm1.98-4.57c-1.67-.2-2.34.7-2.73,1.86-.1.29.05.83.28,1.02.22.18.77.21,1.04.06,1.06-.6,1.78-1.43,1.42-2.94Z"/>
      <path d="m139.03,90.2c-.07-.51-.26-1.04-.18-1.53.6-3.6,1.24-7.2,1.9-10.79.03-.15.34-.25.59-.43.97.84.57,1.92.45,2.81-.48,3.39-.84,6.82-2.07,10.04-.23-.04-.46-.07-.69-.11Z"/>
      <path d="m358.16,77.49c.76-2.07,2.57-3.11,3.93-4.55.08-1.78-1.63-3.13-1.38-5.39,1.73,1.27,2.22,2.58,2,4.26-.1.73,0,1.48.02,2.52-1.36.88-2.61,2.49-4.57,3.16Z"/>
      <path d="m454.08,73.01c-.24,2.14-.5,4.17-.7,6.22-.08.8-.29,1.35-1.48,1.25-.07-.53-.27-1.11-.2-1.66.17-1.38.46-2.75.71-4.12.18-1.03.77-1.58,1.67-1.68Z"/>
      <path d="m465.26,83.74c-1.03,2.4-1.69,5.03-4.36,6.74-.13-.49-.38-.92-.26-1.12.99-1.65,2.02-3.27,3.09-4.87.28-.42.7-.75,1.06-1.11.16.12.32.24.48.36Z"/>
      <path d="m223.61,66.39c-1.53-2-.17-4.12-.42-6.32,1.57.67,1.63,1.62.42,6.32Z"/>
      <path d="m168.18,76.3c-.27-.57-.75-1.13-.77-1.7-.03-.82.24-1.66.48-2.47.04-.15.57-.29.79-.21.22.09.49.46.48.69-.03,1.14-.15,2.29-.24,3.43-.25.08-.49.17-.74.25Z"/>
      <path d="m172.55,71.54c.29,1.87,0,3.35-1.02,4.76-1.03-1.65-.61-3.81,1.02-4.76Z"/>
      <path d="m219.19,66.79c-1.71-.87-1.37-2.24-1.28-3.5.05-.7.35-1.21,1.41-.83-.04,1.29-.08,2.64-.13,4.33Z"/>
      <path d="m470.76,85.97c.39,1.52,1.26,2.78,1.27,4.52-2.05-1.3-2.47-2.87-1.27-4.52Z"/>
      <path d="m328.14,68.92c-1.26-1.56-.56-2.7.07-3.99q1.07,1.32-.07,3.99Z"/>
      <path d="m326.57,65.88c-.59,1.32-1,2.25-1.47,3.29-1.37-1.72-.97-2.77,1.47-3.29Z"/>
      <path d="m423.97,72.49c-.12-1.18-.2-2.06-.31-3.08,1.86.8,1.98,1.82.31,3.08Z"/>
      <path d="m420.8,72.49c-1.18-2.25-1.13-2.47.59-3.24-.2,1.08-.35,1.94-.59,3.24Z"/>
      <path d="m263.07,91.2c-.37-.21-.75-.41-1.1-.65-.02-.01.19-.35.29-.53.37.21.74.43,1.11.64-.1.18-.21.36-.31.54Z"/>
    </g>
    <rect class="cls-1" y="1.55" width="602" height="354"/>
  </g>
</svg>