<?xml version="1.0" encoding="UTF-8"?>
<svg id="_レイヤー_2" data-name="レイヤー 2" xmlns="http://www.w3.org/2000/svg" viewBox="0 0 250 20">
  <defs>
    <style>
      .cls-1 {
        fill: none;
      }
    </style>
  </defs>
  <g id="_デザイン" data-name="デザイン">
    <g>
      <path d="m117.56,16.89c.03-.28.04-.57.09-.85.17-.96.19-1.92.1-2.9-.07-.79,0-1.59.02-2.38,0-.08.05-.15.07-.23.06-.26.15-.52.18-.78.08-.64.15-1.29.2-1.93.03-.29.03-.58.01-.87-.04-.76-.09-1.53-.16-2.29-.02-.23-.12-.46-.16-.69-.03-.19.06-.26.26-.26.21,0,.42-.06.62-.11.91-.19,1.81-.39,2.72-.57.21-.04.45-.03.67.02.38.08.75.2,1.13.3.5.14,1.01.3,1.51.42.64.16,1.06.61,1.45,1.08.27.32.43.73.63,1.11.05.09.05.22.05.33,0,.22.02.44,0,.66-.02.14-.1.28-.15.42-.24.71-.7,1.27-1.28,1.7-.8.58-1.62,1.14-2.47,1.64-.76.44-1.59.76-2.38,1.16-.62.31-1.24.64-1.82,1.02-.18.12-.28.43-.31.67-.06.46-.04.93-.07,1.4,0,.1-.05.19-.06.29-.03.31-.1.61-.08.92.01.23-.01.38-.22.48-.16.08-.32.18-.48.27-.03-.01-.06-.02-.09-.03Zm.83-4.53c.09,0,.13,0,.15-.01.61-.31,1.22-.63,1.83-.95.11-.06.21-.12.33-.18.71-.33,1.42-.65,2.13-.99.28-.14.53-.34.81-.47.9-.45,1.68-1.04,2.24-1.89.3-.45.37-.98.39-1.5.01-.61-.4-1.04-.82-1.43-.46-.42-1.03-.62-1.6-.82-.36-.13-.72-.25-1.09-.33-.51-.11-1-.33-1.55-.19-.63.16-1.28.18-1.89.44-.43.18-.61.44-.49.9.06.24.08.51.09.76.01.29-.04.59,0,.88.14.93-.13,1.83-.14,2.74,0,.34-.09.66-.17,1-.16.65-.14,1.34-.2,2.04Z"/>
      <path d="m164.34,15.97c.09-.05.18-.11.27-.13.25-.06.3-.23.25-.45-.14-.53-.28-1.06-.43-1.59-.1-.38-.2-.76-.31-1.13-.02-.07-.06-.18-.11-.2-.25-.08-.51-.17-.76-.18-.33-.01-.66.04-.99.09-.27.04-.53.17-.8.19-.68.05-1.37.05-2.05.07-.31.01-.62.05-.93.05-.12,0-.23-.08-.34-.12.05-.11.08-.25.16-.33.35-.31.79-.27,1.2-.18.78.17,1.55.11,2.31-.05.56-.11,1.1-.26,1.65-.41.06-.02.14-.13.13-.17-.18-.55-.37-1.09-.58-1.63-.19-.49-.44-.95-.63-1.44-.26-.68-.49-1.37-.73-2.06-.03-.1-.02-.22-.07-.31-.05-.09-.14-.2-.24-.23-.06-.02-.19.08-.24.16-.21.35-.4.71-.59,1.07-.49.95-.99,1.9-1.47,2.85-.11.21-.17.44-.28.66-.42.88-.84,1.75-1.27,2.62-.08.17-.18.33-.27.49-.3.58-.59,1.16-.88,1.74-.04.08-.08.16-.13.23-.1.12-.13.22-.01.35.04.04.05.16.02.22-.17.3-.33.61-.54.89-.06.08-.28.12-.39.08-.16-.06-.12-.22-.05-.37.08-.16.15-.32.19-.49.21-.81.62-1.53,1-2.26.27-.54.53-1.08.79-1.63.21-.44.36-.9.65-1.31.25-.34.37-.77.57-1.15.49-.92.99-1.84,1.48-2.75.05-.08.12-.19.1-.26-.07-.29.12-.48.23-.69.21-.36.43-.71.65-1.07.1-.16.2-.32.32-.45.13-.14.33-.16.44.01.18.29.3.62.46.92.44.85.7,1.77,1,2.67.14.43.36.84.53,1.26.16.39.3.79.45,1.19.11.28.21.57.32.85.24.6.51,1.19.73,1.8.13.36.17.75.25,1.12.08.39.16.79.23,1.18.01.07.01.17-.02.23-.1.18-.64.37-.83.29-.15-.06-.3-.12-.45-.18v-.08Z"/>
      <path d="m151.44,16.7c-.04-.12-.08-.25-.12-.37-.1-.36-.19-.73-.31-1.09-.08-.25-.24-.48-.31-.73-.14-.5-.55-.8-.8-1.22-.05-.07-.09-.15-.13-.23-.18-.36-.32-.76-.56-1.08-.34-.45-.75-.86-1.14-1.27-.11-.12-.23-.21-.03-.39-.04-.01-.07-.03-.11-.04-.48.43-.96.85-1.44,1.29-.2.19-.37.42-.57.62-.22.21-.41.44-.48.75-.02.08-.07.19-.13.22-.33.13-.44.43-.52.71-.11.42-.17.85-.2,1.28-.02.26.09.53.07.79-.01.15-.14.32-.27.41-.11.08-.3.07-.45.09-.02,0-.08-.12-.08-.18.01-.46.02-.92.06-1.38.04-.45.11-.89.17-1.34.09-.63.19-1.25.26-1.88.05-.43.07-.87.13-1.3.06-.46.16-.91.23-1.36.12-.76.23-1.52.33-2.27.07-.55.13-1.11.18-1.67.02-.21.16-.27.33-.26.21.02.22.18.21.34-.08.96-.15,1.93-.26,2.89-.08.7-.23,1.4-.33,2.1-.09.64-.16,1.29-.23,1.93,0,.06.02.13.04.25.2-.18.36-.32.52-.47.47-.44.93-.88,1.41-1.31.64-.56,1.3-1.12,1.96-1.66.48-.39.98-.74,1.46-1.13.38-.3.72-.64,1.1-.94.51-.41,1.03-.82,1.58-1.18.18-.12.4-.34.67-.18.11.07.2.18.3.27-.1.1-.2.28-.32.3-.99.15-1.56.95-2.29,1.49-.67.5-1.32,1.02-1.97,1.55-.39.31-.78.64-1.16.96.31.32.57.63.87.89.51.43.74,1.05,1.09,1.58.23.35.49.68.71,1.03.15.24.27.5.4.75.23.47.44.96.68,1.42.2.38.1.74-.28.93-.07.03-.14.07-.21.11,0,0-.02,0-.08,0Z"/>
      <path d="m88.94,4.14c.24-.14.48-.13.69.01.61.43,1.25.84,1.81,1.32.7.59,1.34,1.25,2.01,1.88.78.74,1.56,1.49,2.34,2.23.26.25.53.48.81.7.06.05.23.04.29-.01.44-.38.87-.77,1.29-1.17.66-.61,1.32-1.2,1.96-1.83.4-.4.83-.81,1.12-1.29.59-.98,1.46-1.7,2.18-2.55.17-.2.56-.12.65.12.03.08-.02.24-.08.27-.51.22-.79.69-1.15,1.07-.45.46-.85.98-1.24,1.5-.72.97-1.61,1.76-2.51,2.55-.45.4-.85.87-1.27,1.31-.08.08-.16.19-.26.23-.3.12-.37.37-.38.65-.01.33-.02.66-.04.99-.03.56-.09,1.12-.1,1.68,0,.32.05.63.07.95,0,.08-.03.15-.03.23-.02.33-.02.67-.06,1-.03.29-.12.57-.17.85-.05.24-.07.49-.12.72-.02.1-.09.22-.18.27-.11.08-.26.12-.4.16-.17.05-.3-.02-.28-.21.03-.21.09-.41.15-.61.07-.26.18-.53.2-.79.04-.83.03-1.66.06-2.48.03-.7.09-1.41.15-2.11.04-.49-.16-.85-.49-1.18-.25-.25-.5-.5-.75-.75-.42-.4-.85-.79-1.27-1.18-.53-.51-1.07-1.01-1.6-1.53-.42-.4-.8-.85-1.25-1.21-.59-.46-1.21-.88-1.86-1.26-.24-.14-.28-.31-.31-.54Z"/>
      <path d="m108.58,17.05c-.23-.07-.49-.08-.67-.21-.2-.15-.33-.41-.5-.61-.12-.14-.22-.3-.36-.42-.29-.23-.47-.49-.51-.89-.04-.39-.2-.77-.27-1.17-.12-.7-.2-1.41-.3-2.11-.14-1.01.19-1.98.27-2.97.02-.25.01-.5.07-.74.06-.24.15-.48.29-.69.04-.07.3-.08.38-.02.1.08.19.27.18.4-.06.49-.22.97-.33,1.45-.15.67-.13,1.38-.17,2.07-.01.22.01.44,0,.67-.01.85.16,1.66.45,2.46.05.13.04.28.08.42.21.64.63,1.14,1.09,1.62.14.14.29.17.49.13.53-.11,1-.32,1.38-.71.1-.1.19-.22.31-.29.47-.3.56-.8.71-1.27.03-.1.06-.21.11-.3.38-.64.69-1.32.73-2.05.05-.95.52-1.74.82-2.6.05-.15.19-.32.15-.44-.06-.2-.18-.43-.35-.53-.2-.12-.21-.2-.09-.37.24-.34.46-.43.85-.34.24.05.33.18.31.44-.07.85-.31,1.65-.69,2.4-.24.48-.19.99-.3,1.48-.08.39-.17.78-.33,1.14-.27.6-.55,1.19-.69,1.85-.06.26-.24.51-.41.72-.16.21-.39.37-.58.55-.45.43-1.53.89-2.12.93Z"/>
      <path d="m137.21,5.37c-.21.2-.39.44-.62.6-.21.14-.47.21-.71.3-.14.05-.3.13-.37-.11,0-.03-.11-.05-.16-.05-.33.03-.66.09-1-.04-.07-.03-.23.07-.3.15-.07.09-.11.23-.11.35.01.52.05,1.03.07,1.55.01.3.04.6,0,.89-.11.75-.21,1.5-.41,2.23-.14.49-.12.97-.17,1.45-.1.92-.13,1.85-.38,2.75,0,.03-.02.05-.02.08-.12.53.02.74.56.73.38,0,.77-.1,1.15-.17.24-.05.47-.16.72-.19.13-.02.29.06.41.14.11.07.08.15-.05.22-.11.06-.21.15-.32.22-.04.03-.08.07-.13.08-.38.07-.76.17-1.14.2-.48.04-.96.02-1.44.03-.6,0-1.21,0-1.81.03-.14,0-.28.1-.43.14-.09.02-.22.06-.27.02-.05-.04-.06-.18-.05-.27.04-.35.19-.51.54-.53.32-.02.64-.03.96-.01.28.02.46-.11.54-.34.11-.32.2-.64.26-.97.07-.39.12-.79.16-1.19.04-.44.05-.89.1-1.33.04-.34.11-.68.18-1.02.02-.14.05-.27.08-.41.05-.26.05-.54.14-.78.22-.63.2-1.28.19-1.93,0-.67-.06-1.33-.09-2.02-.16.03-.32.08-.49.1-.35.04-.72.04-1.07.1-.31.06-.62.16-.91.28-.25.1-.38.03-.49-.19-.21-.43-.17-.52.32-.58.3-.04.61-.05.91-.08.75-.07,1.49-.14,2.24-.21.14-.01.29-.02.43,0,.88.15,1.7-.07,2.52-.33.13-.04.29,0,.43.01.02.04.03.07.05.11Z"/>
      <path d="m124.79,16.11s-.04.07-.09.1c-.04.03-.1.03-.15.05-.49.18-.49.18-.58-.33-.05-.28-.08-.56-.14-.84-.12-.63-.47-1.16-.81-1.69-.04-.06-.09-.12-.1-.19-.11-.53-.46-.93-.76-1.36-.08-.11-.15-.38-.11-.41.14-.11.34-.16.53-.2.02,0,.09.13.12.21.02.05-.01.14.02.17.43.39.68.91.92,1.42.34.72.66,1.44.95,2.18.11.27.13.57.2.9Z"/>
    </g>
    <rect class="cls-1" width="250" height="20"/>
  </g>
</svg>